<svg xmlns="http://www.w3.org/2000/svg" width="451.589" height="61.714" viewBox="0 0 451.589 61.714">
  <g id="Group_246" data-name="Group 246" transform="translate(-975.602 -898.114)">
    <g id="Group_80" data-name="Group 80" transform="translate(1388.233 901.148)">
      <path id="Path_43" data-name="Path 43" d="M387.5,12.64a3.487,3.487,0,1,0,3.471,3.491A3.48,3.48,0,0,0,387.5,12.64m0,5.681a2.194,2.194,0,1,1,2.186-2.189,2.19,2.19,0,0,1-2.186,2.189" transform="translate(-373.673 -1.276)"/>
      <path id="Path_44" data-name="Path 44" d="M399.29,12.64a3.487,3.487,0,1,0,3.471,3.491,3.481,3.481,0,0,0-3.471-3.491m0,5.681a2.194,2.194,0,0,1,0-4.388,2.132,2.132,0,0,1,1.534.646,2.158,2.158,0,0,1,.643,1.553,2.188,2.188,0,0,1-2.177,2.189" transform="translate(-374.159 -1.276)"/>
      <path id="Path_45" data-name="Path 45" d="M396.774,24.564l-2.828-4.735a.681.681,0,0,0-.392-.3.662.662,0,0,0-.49.077.609.609,0,0,0-.221.222l-2.829,4.735a.666.666,0,0,0-.01.656.645.645,0,0,0,.566.328h5.648a.658.658,0,0,0,.556-.984m-5.072-.318,1.689-2.826,1.688,2.826Z" transform="translate(-373.916 -1.52)"/>
      <path id="Path_46" data-name="Path 46" d="M407.776,34.953a.644.644,0,0,0-.642.646v.608l-.479-.366a4.437,4.437,0,0,0-2.646-.887h-8.774V32.465h2.177a2.549,2.549,0,0,0,2.531-2.546V24.547l.125-.1a13.01,13.01,0,0,0,3.212-18.045,12.912,12.912,0,1,0-17.94,18.045l.134.1v5.372A2.547,2.547,0,0,0,388,32.465h2.186v2.488H381.4a4.411,4.411,0,0,0-2.637.887l-.479.366v-.6a.646.646,0,0,0-.642-.656,4.431,4.431,0,0,0-4.411,4.436V56.441a.644.644,0,0,0,.643.646h3.768a.644.644,0,0,0,.642-.646v-2.5l.479.367a4.388,4.388,0,0,0,2.637.887h7.546a2.45,2.45,0,0,0,.834-.145l.4-.145v1.533a.644.644,0,0,0,.642.646h3.768a.644.644,0,0,0,.642-.646V54.908l.393.145a2.545,2.545,0,0,0,.844.145h7.546a4.43,4.43,0,0,0,2.637-.887l.479-.367v2.5a.644.644,0,0,0,.642.646h3.768a.644.644,0,0,0,.642-.646V39.39a4.436,4.436,0,0,0-4.411-4.436M377,55.8h-2.483V39.39a3.149,3.149,0,0,1,2.081-2.961l.4-.145Zm11.938-1.89h-7.527a3.148,3.148,0,0,1-3.126-3.144v-4.4l.479.366a4.4,4.4,0,0,0,1.764.8l.23.048v1.283a2.549,2.549,0,0,0,2.531,2.546h5.648a1.249,1.249,0,0,1,0,2.5m1.247-3.511-.4-.135a2.464,2.464,0,0,0-.844-.145h-5.648a1.246,1.246,0,0,1-1.237-1.254V47.617h6.885a2.464,2.464,0,0,0,.844-.145l.4-.145Zm0-7.581-.4-.135a2.449,2.449,0,0,0-.834-.145h-5.657a1.249,1.249,0,0,1,0-2.5h6.894Zm0-4.07h-6.894a2.541,2.541,0,0,0,0,5.083h5.648a1.249,1.249,0,0,1,0,2.5h-7.527a3.142,3.142,0,0,1-3.126-3.144V39.39a3.148,3.148,0,0,1,3.126-3.144h8.773ZM393.95,55.8h-2.483V32.465h2.483Zm.94-27.767v3.134h-4.363V28.029a.643.643,0,1,0-1.285,0v3.134H388a1.244,1.244,0,0,1-1.237-1.244V24.19a.641.641,0,0,0-.3-.54,11.682,11.682,0,0,1,6.079-21.5l.164-.01a11.64,11.64,0,0,1,11.6,11.67,11.659,11.659,0,0,1-5.35,9.837.619.619,0,0,0-.3.54v5.729a1.246,1.246,0,0,1-1.247,1.244h-1.237V28.029a.643.643,0,1,0-1.285,0m.345,12.007h6.894a1.249,1.249,0,0,1,0,2.5h-5.657a2.544,2.544,0,0,0-.844.145l-.393.145Zm0,7.3.393.135a2.5,2.5,0,0,0,.844.145h6.894v1.244a1.246,1.246,0,0,1-1.237,1.254h-5.657a2.544,2.544,0,0,0-.844.145l-.393.135Zm11.9,3.424a3.154,3.154,0,0,1-3.126,3.144h-7.537a1.249,1.249,0,0,1,0-2.5h5.657a2.534,2.534,0,0,0,2.522-2.546V47.578l.24-.048a4.447,4.447,0,0,0,1.764-.8l.479-.357Zm0-7.581a3.148,3.148,0,0,1-3.126,3.144h-7.537a1.249,1.249,0,0,1,0-2.5h5.657a2.541,2.541,0,0,0,0-5.083h-6.894v-2.5h8.774a3.154,3.154,0,0,1,3.126,3.144ZM410.9,55.8h-2.484V36.284l.4.145A3.163,3.163,0,0,1,410.9,39.39Z" transform="translate(-373.229 -0.857)"/>
    </g>
    <g id="Group_84" data-name="Group 84" transform="translate(975.602 906.205)">
      <path id="Path_41" data-name="Path 41" d="M75.368,38.779a3.535,3.535,0,0,0-.7-1.1,41.937,41.937,0,0,0-3.942-3.665l-.523-.435c-.262-.227-.523-.454-.785-.689-.532-.472-1.082-.943-1.641-1.388.416.726.857,1.507,1.263,2.313a3.372,3.372,0,0,1,.344.889,1.708,1.708,0,0,1-.335,1.451c-.965,1.216-3.6,1.315-4.87,1.361l-.189.009a45.536,45.536,0,0,1-9.244-.78A119.594,119.594,0,0,1,38.624,32.9a115.876,115.876,0,0,1-19.778-7.8,31.275,31.275,0,0,1-6.908-4.545,9.419,9.419,0,0,1-1.606-1.987c-.585-.971-.685-2.313.271-2.9a3.18,3.18,0,0,1,1.255-.381,2.592,2.592,0,0,0,.279-.036c-.748-.018-1.487-.027-2.255-.027H9.368a15.209,15.209,0,0,0-2.743.181,10.025,10.025,0,0,0-2.832.9,1.234,1.234,0,0,0-.666.7,1.23,1.23,0,0,0,.234.916,10.113,10.113,0,0,0,1.19,1.5,24.109,24.109,0,0,0,5.16,3.8c1.135.644,2.381,1.324,3.679,2l.9.481c.443.245.885.481,1.327.726a1.665,1.665,0,0,1,.883,1.4,22.954,22.954,0,0,0,1.408,9.135,22.54,22.54,0,0,0,25.036,14.36A22.244,22.244,0,0,0,54.3,45.646a22.67,22.67,0,0,0,4.086-5.053l.334-.608,2.156.254a45.7,45.7,0,0,0,11.742.363,5.3,5.3,0,0,0,2.219-.653,1.225,1.225,0,0,0,.514-.535,1.009,1.009,0,0,0,.019-.635m-19.824,2.15A20.345,20.345,0,0,1,38.9,49.511a19.466,19.466,0,0,1-5.926-.907A20.382,20.382,0,0,1,18.674,29.481V27.866l1.479.635A179.969,179.969,0,0,0,54.876,39.26l1.578.327Z" transform="translate(-3.106 -6.404)"/>
      <path id="Path_42" data-name="Path 42" d="M63.019,29.631a26.778,26.778,0,0,1-.352,2.7l-.189,1.143-2.074-.2a20.459,20.459,0,0,0-39.052-12.1c-.505-.272-1-.553-1.5-.826a1.767,1.767,0,0,0-.225-.118l-.054-.027c-.009,0-.018-.009-.027-.009a2.66,2.66,0,0,0,.153-.327,26.015,26.015,0,0,1,2.985-5.379c.144-.191.289-.381.406-.544A21.807,21.807,0,0,1,35.5,6.126,22.347,22.347,0,0,1,60.359,17.339a21.962,21.962,0,0,1,2.724,10.577c0,.572-.018,1.143-.063,1.715" transform="translate(-4.719 -5.502)"/>
    </g>
    <g id="Group_81" data-name="Group 81" transform="translate(1286.087 901.148)">
      <path id="Path_33" data-name="Path 33" d="M303.834,12.713a.992.992,0,1,1-1.985,0,.992.992,0,1,1,1.985,0" transform="translate(-283.775 -1.333)"/>
      <path id="Path_34" data-name="Path 34" d="M311.914,12.713a.992.992,0,1,1-1.985,0,.992.992,0,1,1,1.985,0" transform="translate(-284.107 -1.333)"/>
      <path id="Path_35" data-name="Path 35" d="M328.87,39.059a.993.993,0,1,1-1.985,0,1.587,1.587,0,1,0-3.174,0,.992.992,0,1,1-1.985,0,3.594,3.594,0,0,1,2.377-3.366l.2-.077V28.672a1.59,1.59,0,0,0-1.591-1.591h-4.172V39.059a3.584,3.584,0,0,1-3.566,3.6h-1.592v9.384a.993.993,0,1,1-1.986,0V41.663a.991.991,0,0,1,.989-1h2.589a1.59,1.59,0,0,0,1.582-1.6V26.078a1.588,1.588,0,0,0-1.582-1.591H296.9a1.6,1.6,0,0,0-1.592,1.591V39.059a1.6,1.6,0,0,0,1.592,1.6h10.327a1,1,0,0,1,0,2h-6.75v9.384a.993.993,0,1,1-1.986,0V42.657H296.9a3.587,3.587,0,0,1-3.576-3.6V27.081h-4.171a1.588,1.588,0,0,0-1.582,1.591v6.944l.192.077a3.589,3.589,0,0,1,2.388,3.366.992.992,0,1,1-1.985,0,1.592,1.592,0,0,0-3.184,0,.992.992,0,1,1-1.984,0,3.589,3.589,0,0,1,2.387-3.366l.2-.077V28.672a3.583,3.583,0,0,1,3.568-3.588h4.324l.067-.2A3.573,3.573,0,0,1,296.9,22.49h18.074a3.563,3.563,0,0,1,3.346,2.392l.077.2h4.315a3.585,3.585,0,0,1,3.577,3.588v6.944l.192.077a3.589,3.589,0,0,1,2.388,3.366" transform="translate(-282.999 -1.716)"/>
      <path id="Path_36" data-name="Path 36" d="M312.83,6.139h-.374l-.047-.241a6.15,6.15,0,0,0-12.063,0l-.048.241h-.374a6.192,6.192,0,0,0,0,12.384H312.83a6.192,6.192,0,0,0,0-12.384m-10.365-.4a4.141,4.141,0,0,1,7.834,0l.134.4h-8.112ZM312.83,16.526H299.924a4.2,4.2,0,0,1,0-8.391H312.83a4.2,4.2,0,0,1,0,8.391" transform="translate(-283.442 -0.95)"/>
      <path id="Path_37" data-name="Path 37" d="M307.874,28.863v2.6a.992.992,0,1,1-1.985,0v-2.6a.992.992,0,1,1,1.985,0" transform="translate(-283.941 -1.907)"/>
      <path id="Path_38" data-name="Path 38" d="M313.254,28.863v2.6a.992.992,0,1,1-1.985,0v-2.6a.992.992,0,1,1,1.985,0" transform="translate(-284.162 -1.907)"/>
      <path id="Path_39" data-name="Path 39" d="M302.483,28.863v2.6a.992.992,0,1,1-1.984,0v-2.6a.992.992,0,1,1,1.984,0" transform="translate(-283.719 -1.907)"/>
      <path id="Path_40" data-name="Path 40" d="M306.765,46.71a3.6,3.6,0,0,0-3.578,3.6v5.2a3.577,3.577,0,1,0,7.153,0v-5.2a3.593,3.593,0,0,0-3.576-3.6m1.591,8.8a1.587,1.587,0,1,1-3.174,0v-5.2a1.587,1.587,0,1,1,3.174,0Z" transform="translate(-283.83 -2.577)"/>
    </g>
    <g id="Group_82" data-name="Group 82" transform="translate(1186.974 900.138)">
      <path id="Path_31" data-name="Path 31" d="M218.43,5.247h-.337v-3.3h.337a.974.974,0,0,0,0-1.948h-7.824a.974.974,0,0,0,0,1.948h.335v3.3h-.335a3.587,3.587,0,0,0-3.577,3.6v15.74a.969.969,0,1,0,1.938,0V8.844a1.643,1.643,0,0,1,1.64-1.649h7.824a1.638,1.638,0,0,1,1.64,1.649v1.312a.968.968,0,1,0,1.936,0V8.844a3.586,3.586,0,0,0-3.576-3.6m-2.272,0h-3.279v-3.3h3.279Z" transform="translate(-197.901)"/>
      <path id="Path_32" data-name="Path 32" d="M224.558,16.272h-.623l-.1-.087a4.846,4.846,0,0,0-3.193-1.225,4.9,4.9,0,0,0-1.219,9.645l.25.058-.029,5.536-2.205,4.436h-6.626l-1.64-3.3h6.252a.974.974,0,0,0,0-1.948h-7.824a.97.97,0,0,0-.863,1.408l2.608,5.247a.97.97,0,0,0,.863.54h7.824a.982.982,0,0,0,.872-.54l2.609-5.247a1,1,0,0,0,.1-.434v-5.7l.249-.058a4.76,4.76,0,0,0,1.975-1.061l.1-.077h.623A12.124,12.124,0,0,1,236.63,35.609v7.87a4.279,4.279,0,0,1-3.577,4.215l-.2.039-3.6-4.842a.976.976,0,0,0-.777-.386H201.086a.974.974,0,0,0,0,1.948h26.905l3.624,4.861a.96.96,0,0,0,.768.386,6.2,6.2,0,0,0,6.184-6.221v-7.87a14.114,14.114,0,0,0-12.924-14.042l-.412-.029.105-.4a4.617,4.617,0,0,0,.192-1.273,4.9,4.9,0,0,0-.153-1.177l-.115-.444.46.029a17.377,17.377,0,0,1,16.128,17.331v7.87A9.5,9.5,0,0,1,232.382,53a.975.975,0,0,0-.969.974v1.649H199.446V51.349a1.65,1.65,0,0,1,1.64-1.649h22.169a.974.974,0,0,0,0-1.948H201.086a3.587,3.587,0,0,0-3.577,3.6V56.6a.969.969,0,0,0,.968.974h33.9a.969.969,0,0,0,.968-.974V54.908l.3-.029a11.426,11.426,0,0,0,10.135-11.4v-7.87a19.3,19.3,0,0,0-19.225-19.337m-3.912,6.558a2.961,2.961,0,1,1,2.944-2.961,2.959,2.959,0,0,1-2.944,2.961" transform="translate(-197.509 -0.532)"/>
    </g>
    <g id="Group_83" data-name="Group 83" transform="translate(1084.828 898.114)">
      <g id="Group_17" data-name="Group 17" transform="translate(0)">
        <path id="Path_47" data-name="Path 47" d="M151.075,47.437a25.727,25.727,0,0,1-19.579,9.9l-.319.01.08.31a4.315,4.315,0,0,0,1.3,1.846,3.918,3.918,0,0,1,1.166,1.624,1.375,1.375,0,0,1-.14,1.033.774.774,0,0,1-.5.4c-.618.149-1.216-.491-1.615-.983-.289-.372-.588-.752-.877-1.124-.578-.752-1.176-1.523-1.8-2.235q-.224-.241-.478-.481a2.326,2.326,0,0,1-.927-1.424,1.335,1.335,0,0,1,.6-1.133c.927-.752,1.854-1.514,2.771-2.276l1.077-.882a11.6,11.6,0,0,1,.967-.892l.13-.12a1.356,1.356,0,0,1,.877-.431,1.434,1.434,0,0,1,.867.391,1.159,1.159,0,0,1-.259,1.725l-.449.381c-.588.481-1.2.983-1.775,1.524l-.5.471.678-.04a23.095,23.095,0,0,0,16.967-8.834,19.979,19.979,0,0,0,2.094-3.169,24.3,24.3,0,0,0,2.811-9.095,5.975,5.975,0,0,0,.02-.732,4.783,4.783,0,0,1,.06-.912,12.271,12.271,0,0,0-.07-2.016c-.03-.321-.05-.642-.07-.973a22.974,22.974,0,0,0-5.483-12.725c-2.542-2.988-5.8-4.923-8.683-6.618a.97.97,0,0,1-.558-1.073,1.1,1.1,0,0,1,1.136-.712h.01a3.8,3.8,0,0,1,1.555.481A25.832,25.832,0,0,1,155.78,25.908a23.976,23.976,0,0,1,.528,3.269,26.183,26.183,0,0,1-5.234,18.26" transform="translate(-105.647 -0.866)"/>
        <path id="Path_48" data-name="Path 48" d="M134.612,6.914a3.591,3.591,0,0,0-1.087-1.427c-.713-.738-1.31-1.576-1.955-2.372-.436-.537-.87-1.077-1.308-1.612a1.4,1.4,0,0,0-.857-.613,1.367,1.367,0,0,0-.947.431c-.4.331-.329.672-.06,1.233.349.461.748.954,1.136,1.424.488.592.987,1.2,1.446,1.855.15.2.308.4.448.615-.316-.043-.645-.208-.973-.263a10.9,10.9,0,0,0-3.608.221,14.709,14.709,0,0,0-2.476.561,4.715,4.715,0,0,1-.459.131,2.258,2.258,0,0,0-.289.079c-7.965,2.376-14.864,9.646-17.177,18.1a24.069,24.069,0,0,0-.807,4.7,26.257,26.257,0,0,0,11.534,23.233,23.109,23.109,0,0,0,2.8,1.624,3.079,3.079,0,0,0,1.505.421.988.988,0,0,0,.957-.792c.03-.371-.249-.741-.857-1.163l-.08-.06c-.558-.37-1.156-.732-1.735-1.073a22.788,22.788,0,0,1-3.33-2.305,26.9,26.9,0,0,1-3.938-4.182,23.763,23.763,0,0,1-4.755-13.095,23.806,23.806,0,0,1,13-21.821A22.822,22.822,0,0,1,129.9,8.391l.738-.03-.568.471c-.608.522-1.426,1.2-2.283,1.845a1.32,1.32,0,0,0-.538,1.594c.558.672.817.7,1.416.431a6.576,6.576,0,0,0,1.555-1.213c.249-.23.488-.46.718-.642l.8-.642c.778-.621,1.555-1.253,2.333-1.874a1.335,1.335,0,0,0,.541-1.417" transform="translate(-105.579 -0.886)"/>
        <path id="Path_49" data-name="Path 49" d="M130.556,41.709c-.229.02-.449.05-.678.05a1.271,1.271,0,0,1-1.027-.331,1.257,1.257,0,0,1-.179-1.013c.328-.612.907-.632,1.565-.662.11,0,.229,0,.339-.01a9.418,9.418,0,0,0,8.793-7.19,21.871,21.871,0,0,0,.628-7.9l-.05-.562a20.658,20.658,0,0,0-.758-4.492l-.11-.331-.279.211c-1.785,1.374-4.137,1.795-6.41,2.206-2.422.431-4.945.882-6.84,2.487a8.985,8.985,0,0,0-2.661,4.282,10.068,10.068,0,0,0,.548,7.521c.189.361.469.521.738.421a.59.59,0,0,0,.309-.291,48.563,48.563,0,0,1,7.935-8.954,3.459,3.459,0,0,1,1.426-.943,1.043,1.043,0,0,1,1.236.521c.179.582-.439,1.183-.917,1.594a48.637,48.637,0,0,0-4.825,4.643,30.984,30.984,0,0,0-6.619,10.9,17.232,17.232,0,0,0-.638,2.326c-.03.15-.05.3-.07.461a1.855,1.855,0,0,1-.469,1.263.932.932,0,0,1-1.366-.271,1.651,1.651,0,0,1-.14-.722c-.09-2.276.947-4.422,1.954-6.488.259-.531.518-1.063.748-1.584l.06-.14-.249-.341a12.157,12.157,0,0,1-1.176-11.491,10.2,10.2,0,0,1,4.536-5.355A17.717,17.717,0,0,1,130.975,20a25.515,25.515,0,0,0,3.629-.882,13.4,13.4,0,0,0,3.519-1.835,3.6,3.6,0,0,1,1.824-.872.9.9,0,0,1,.279.04c.608.17.758.953.9,1.634.03.15.06.3.089.431a33.846,33.846,0,0,1,.938,6.4,20.156,20.156,0,0,1-2.373,11.451,11.3,11.3,0,0,1-8.952,5.315Z" transform="translate(-105.624 -0.844)"/>
      </g>
    </g>
  </g>
</svg>
