<svg id="Group_161" data-name="Group 161" xmlns="http://www.w3.org/2000/svg" xmlns:xlink="http://www.w3.org/1999/xlink" width="249.545" height="346.247" viewBox="0 0 249.545 346.247">
  <defs>
    <clipPath id="clip-path">
      <rect id="Rectangle_539" data-name="Rectangle 539" width="249.545" height="346.247"/>
    </clipPath>
  </defs>
  <g id="Group_160" data-name="Group 160" clip-path="url(#clip-path)">
    <path id="Path_130" data-name="Path 130" d="M188.229,270.664c.577-1.153.748-2.566,1.5-3.557.728-.956.995-1.74.7-2.308a31.246,31.246,0,0,0,1.66-2.776c.3-.653.321-1.433.58-2.112.539-1.416,1.3-2.761,1.71-4.21,1.519-5.414,2.908-10.864,4.391-16.289a14.641,14.641,0,0,0-2.031-12.518,13.993,13.993,0,0,0-7.743-6.1c-.35.938-.638,1.8-.99,2.637-.76,1.8-1.461,3.641-2.352,5.38-1.056,2.062-2.58,2.344-4.11.615a11.492,11.492,0,0,1-2.145-3.955,8.672,8.672,0,0,0-3.291-4.869c-2.031-1.352-2.781-1.283-4.633.261q-2.244,1.871-4.589,3.619c-1.559,1.167-3.17,2.264-4.819,3.436.736.938,1.441,1.75,2.052,2.63,1.121,1.616.775,3.073-1,3.817-.818.343-1.4.727-1.4,1.63a2.271,2.271,0,0,0,1.41,2.155c1.7.85,1.915,1.524,1.5,3.369a5.323,5.323,0,0,0-.045,2.179c.673,3.248.029,4.913-2.84,6.744a4.993,4.993,0,0,0-2.526,3.713,11.348,11.348,0,0,1-1.537,3.377c-.625,1.176-1.424,2.265-1.988,3.466-.6,1.29-1.124,1.611-2.42,1.047a18,18,0,0,1-1.68-.978c-1.753,1.748-3.577,3.54-5.372,5.364-.962.976-1.672,1-2.628.03a15.22,15.22,0,0,0-1.968-1.855c-3.4-2.375-4.263-5.213-2.781-9.128a11.257,11.257,0,0,0,.961-5.13,12.452,12.452,0,0,1-2.1.277c-1.135-.047-1.5.633-1.733,1.542q-.4,1.517-.857,3.018a2.013,2.013,0,0,1-2.392,1.539c-1.089-.167-1.179-1.006-1.222-1.867-.032-.658-.087-1.314-.092-1.972a4.119,4.119,0,0,1,1.462-3.363c1.394-1.183,1.369-1.856-.177-2.93-5.426-3.765-10.878-7.5-16.309-11.256a24.741,24.741,0,0,1-8.436-9.054,36.748,36.748,0,0,0-7.786-11c-1.9-1.727-4.14-3.1-5.937-4.913-4.482-4.536-6.735-10.35-8.853-16.217-2.467-6.839-4.855-13.71-7.53-20.465-2.017-5.095-4.285-10.1-6.71-15.019-3.168-6.423-6.659-12.686-9.9-19.072-2.552-5.026-5.351-9.979-7.3-15.241-2.312-6.237-3.626-12.838-5.765-19.15-1.568-4.628-3.712-9.067-5.724-13.534a15.031,15.031,0,0,0-2.211-2.843,2.515,2.515,0,0,0-.44,1.232,2.005,2.005,0,0,1-2.041,1.853c-.234.026-.5-.287-.757-.44.173-.2.345-.575.52-.575,1.028-.013,1.329-.6,1.468-1.5.054-.35.423-.648.686-1.022-.659-.8-1.305-1.608-2.523-1.567-1.079.038-1.035.857-1.177,1.584-.03.15-.293.257-.449.383-.133-.19-.411-.417-.374-.566.2-.856.48-1.694.8-2.78a22.153,22.153,0,0,0-7.935-2.714,13.715,13.715,0,0,0-11.518,3.01c-3.045,2.585-4.9,6.057-6.909,9.414a14.265,14.265,0,0,0-1.23,12.845c2.365,6.368,2.895,13.043,3.51,19.708.5,5.454,1.12,10.876,3.113,16.039a20.272,20.272,0,0,1,.868,2.847c.691,3.065,1.075,6.226,2.056,9.191A101.941,101.941,0,0,0,22.3,166.383c1.53,3.305,3.307,6.5,4.968,9.745.113.221.3.626.224.688-.65.565-.155,1.08.01,1.613.336,1.081.744,2.147.984,3.248.609,2.817,1.107,5.656,1.714,8.472a24.552,24.552,0,0,0,7.53,13.476c7.1,6.294,11.056,14.628,15.645,22.583,1.142,1.979,2.123,4.056,3.345,5.983,4.525,7.143,10.038,13.516,15.6,19.855a81.91,81.91,0,0,1,11.617,16.475c2.465,4.8,4.849,9.649,7.322,14.447,3.267,6.335,6.612,12.632,9.876,18.971A48.543,48.543,0,0,0,117.652,320.7c3.186,2.1,6.3,4.322,8.257,7.657a54.039,54.039,0,0,1,3.276,7.326c.7,1.755,1.2,2.259,2.972,2.42,5.213.469,9.7-1.392,13.745-4.437a19.758,19.758,0,0,0,7.55-10.315c1.393-4.823,2.881-9.68,5.862-13.746,4.521-6.163,9.167-12.267,14.2-18.012,5.673-6.477,10.862-13.219,14.718-20.932M23.911,126.589a1.53,1.53,0,0,1-2.438-.86,1.334,1.334,0,0,1,.566-1.093,2.42,2.42,0,0,1,1.665-.525c.643.2,1.147.852,1.907,1.471-.739.438-1.215.731-1.7,1.007m8.641-28.653c-2.527-2.249-2.7-3.413-.71-4.84.964.83,1.944,1.671,2.749,2.364-.738.9-1.391,1.692-2.039,2.477m83.683,148.848c-.556.436-1.05.75-1.694.11-.627-.622-1.012-1.2-.259-1.988.552-.581,1.062-1.205,1.637-1.864.271.288.453.465.618.658,1.437,1.7,1.427,1.729-.3,3.085M136.559,274c-1.063-.041-3.141-1.889-3.114-2.768.024-.777,1.867-2.37,2.788-2.408.987-.041,2.066,1.473,2.072,2.9s-.678,2.313-1.746,2.272" transform="translate(0.721 8.069)"/>
    <path id="Path_131" data-name="Path 131" d="M233.61,40.14c-.643-2.511-1.494-4.93-3.783-6.509-1.766-1.216-3.865-1.165-4.833.229-2.676,3.854-5.294,7.749-7.974,11.6-1.436,2.062-2.94,4.078-4.451,6.087-.19.254-.609.335-.923.5a3.121,3.121,0,0,1-.255-1.122c.261-1.539.6-3.066,1-4.986a7.369,7.369,0,0,0-.607.694c-2.5,4.359-4.649,8.886-5.368,13.9-.382,2.674-.176,5.426-.482,8.116a4.77,4.77,0,0,1-1.428,3.175,26.828,26.828,0,0,1-6.582,3.273c-3.192,1.023-5.771,2.606-6.9,5.83-1.539,4.4-2.878,8.863-4.291,13.3-.233.731-.348,1.5-.621,2.216-.244.636-.671,1.2-.949,1.823-.832,1.866-1.626,3.75-2.448,5.621-.067.151-.242.251-.347.39a48.886,48.886,0,0,0-3.331,4.468,25.772,25.772,0,0,0-1.675,4.195c-.207.555-.279,1.167-.526,1.7-.355.768-.8,1.5-1.23,2.229a8.187,8.187,0,0,1-.913,1.423c-1.055,1.165-2.2,2.249-3.244,3.422-2.4,2.687-4.951,5.278-6.1,8.832a4.041,4.041,0,0,1-1.664,2.188,8.261,8.261,0,0,0-1.973,2.04,39.124,39.124,0,0,0-6.608,17.012c-.148.959.21,1.291,1.105,1.518a6.182,6.182,0,0,1,2.415,1.137c1.416,1.194,1.517,3.34.407,5.288a4.75,4.75,0,0,0-.726,3.617c.6,2.507.791,5.044-.459,7.426a8.056,8.056,0,0,0-.736,4.945c.191,1.523.328,3.054.585,4.566a17.708,17.708,0,0,0,.772,2.853c.723,2.074,1.258,4.05-1.408,6.005a2.35,2.35,0,0,0-.79,1.384c-.288,1.593-.463,3.207-.665,4.814-.7,5.522.172,10.471,5.04,14.014a4.373,4.373,0,0,1,1.2,1.638,5.056,5.056,0,0,0,3.422,3.127c1.922.4,3.9.543,5.84.833a3.28,3.28,0,0,0,3.394-1.686c1.419-2.021,2.777-4.144,5.175-5.2a23.767,23.767,0,0,0,8.868-7.319c2.248-2.822,4.263-5.875,6.783-8.429a46.711,46.711,0,0,0,12.652-23.165c.8-3.625,1.352-7.307,2.133-10.937.917-4.27,1.935-8.519,2.951-12.768a98.291,98.291,0,0,1,6.649-19.373c3.012-6.343,3.335-12.852,1.948-19.6-1.056-5.138-2.094-10.283-2.947-15.458-.492-2.987-1.474-5.454-4.277-6.512a14.645,14.645,0,0,0-.468-1.481c-.819-1.83-1.189-3.683-.159-5.542.9-1.624,1.851-3.219,2.829-4.794a10.156,10.156,0,0,1,1.6-2.11c.61-.57,1.481-.851,2.132-1.387,4.594-3.773,8.157-8.461,11.562-13.27a10.187,10.187,0,0,0,2.176-4.805,30.078,30.078,0,0,0-.493-10.965M163.341,172a16.917,16.917,0,0,1-1.264,1.708c-.593-.809-.994-1.426-1.464-1.984a1.06,1.06,0,0,1,.2-1.763c.483-.37.906-.9,1.537-.2.581.646,1.618,1.1.988,2.235m7.524,13.6a2.1,2.1,0,0,1-1.388-.5,2.773,2.773,0,0,1-.291-3.188c.444-.829.911-1.647,1.467-2.645.64,1.21,1.6,2.254,1.652,3.345.05.984-.844,2.042-1.44,2.993" transform="translate(15.167 3.205)"/>
    <path id="Path_132" data-name="Path 132" d="M90.32,104.788a11.451,11.451,0,0,0-.192,3.976c.552,3.489,1.436,6.927,1.971,10.42.851,5.555-.215,11.014-1.293,16.425-1.292,6.477-2.9,12.9-3.211,19.531a50.712,50.712,0,0,0,.864,12.943c.868,4.1,1.677,8.214,2.535,12.317a22.569,22.569,0,0,0,1.188,4.951c1.995,4.263,4.222,8.418,6.382,12.6a27.022,27.022,0,0,1,3.392,13.828,4.692,4.692,0,0,0,.783,2.652c1.966,2.916,4.063,5.742,6.12,8.6a32.021,32.021,0,0,0,3.639,4.886c3.241,3.027,7.4,3.48,11.622,3.408a2.107,2.107,0,0,0,2.144-1.764,6.217,6.217,0,0,1,.7-1.539c1.188-2.028,3.186-3.015,5.2-3.969a6.722,6.722,0,0,0,3.823-4.966,30.755,30.755,0,0,1,1.294-5.053c2.055-5.081,4.331-10.073,6.376-15.159a47.741,47.741,0,0,0,1.552-5.6c-1.939-.8-3.3-1.661-4.066-3.279a34.349,34.349,0,0,0-1.949-3.95A21.758,21.758,0,0,1,135.9,176.9c-.125-.953-.336-2.32-.979-2.7-1.993-1.18-2.164-2.835-2.056-4.82a28.85,28.85,0,0,0-.108-5.37,15.8,15.8,0,0,0-1.29-3.424l-.484.153a5.2,5.2,0,0,0-.328.7,3.8,3.8,0,0,1-5.328,2.128,9.974,9.974,0,0,1-2.821-2.209c-1-1.287-1.561-2.9-2.508-4.231a2.2,2.2,0,0,1,.251-3.134c1.185-1.38.972-2.493-.624-3.394a24.517,24.517,0,0,0-3.4-1.6c-1.955-.737-3.978-1.3-5.923-2.063-1.259-.5-1.436-1.164-.908-2.412.339-.806.717-1.593,1.064-2.4.921-2.125.717-3.995-.856-5.4-.816-.727-2.028-1-2.883-1.7a3.057,3.057,0,0,1-.974-1.916,1.417,1.417,0,0,1,1.368-1.629c1.694-.086,2.276-1.267,2.87-2.588.767-1.7,1.913-3.067,4-3.079A3.75,3.75,0,0,0,117,124.048a8.424,8.424,0,0,0,1.556-6.3c-.247-2.682,1.585-4.038,3.783-4.257.935-.093,1.185-.549,1.262-1.318.171-1.7.411-3.4.494-5.1.059-1.2.218-2.376,1.326-2.948,1.169-.6,1.91.483,2.7,1.112,1.439,1.15,2.841,2.346,4.37,3.615a18.6,18.6,0,0,0,1.007-2.285c.456-1.593-.4-2.709-1.593-3.563-2.5-1.786-2.354-6.73-.158-8.074a9.664,9.664,0,0,0,2.9-2.854,3.3,3.3,0,0,1,5.433-.361c.418.542.834,1.086,1.478,1.922.341-1.34.6-2.42.89-3.488a16.326,16.326,0,0,0-.763-10.794c-.764-1.851-1.828-3.582-2.538-5.451-1.266-3.332-2.431-6.706-3.521-10.1a15.165,15.165,0,0,0-8.846-9.986c-3.93-1.641-7.926-1.212-11.867-.255a63.507,63.507,0,0,0-14.717,6.01,3.85,3.85,0,0,0-2.137,2.809c-.566,3.409-1,6.839-1.559,10.249-.826,5-1.714,9.994-2.589,14.988-.452,2.584-.873,5.176-1.418,7.741-.672,3.154-1.525,6.271-2.165,9.431m36.726-20.444a.941.941,0,0,1,.8.156c.879.747,1.714,1.544,2.651,2.4-.75.848-1.425,1.69-2.181,2.446a1.685,1.685,0,0,1-2.5-.254,3.424,3.424,0,0,1,1.23-4.751M94.218,118.124a18.8,18.8,0,0,1,2.622-.748c1.915-.574,2.889.177,2.849,2.225a3.183,3.183,0,0,1-3.109,3.337c-1.524,0-3.814-2.046-3.659-3.472.055-.5.754-1.087,1.3-1.343" transform="translate(8.56 5.155)"/>
    <path id="Path_133" data-name="Path 133" d="M26.128,72.174c3.808-2.658,5.524-6.518,6.2-10.906a4.978,4.978,0,0,0-.513-3.441,14.329,14.329,0,0,1-1.823-3.92c-1.514-3.987-3.013-7.982-4.468-11.992-.92-2.533-1.861-5.07-2.561-7.667-.254-.94-.236-1.721-1.834-1.489a3.81,3.81,0,0,0,1.547-4.587c-.179-.563-.471-1.382-.221-1.736.755-1.066.216-1.827-.329-2.606A21.082,21.082,0,0,0,19.6,20.519a48.186,48.186,0,0,0-5.492-4.583c-1.356-.949-2.613-.391-3.3,1.093a8.6,8.6,0,0,0-.538,1.479C9.127,23.029,7.928,27.537,6.9,32.082a27.782,27.782,0,0,1-2.908,7.081C.449,45.712-.361,52.858.132,60.142a17.206,17.206,0,0,0,1.874,6.344,15.059,15.059,0,0,0,11.117,8.227,16.367,16.367,0,0,0,13-2.539" transform="translate(0 1.513)"/>
    <path id="Path_134" data-name="Path 134" d="M42.5,223.9a17.857,17.857,0,0,0-2.121-1.948c-1.512-3.868-4.649-6.837-7.251-10.2a27.069,27.069,0,0,0,1.512,4.283c1.015,2.305,2.028,4.614,3.145,6.87.661,1.335,1.55,2.556,2.285,3.858a35.716,35.716,0,0,0,2.163,3.981,86.273,86.273,0,0,0,5.926,7.257,30.745,30.745,0,0,0,10.98,7.442c-1.31-1.718-2.611-3.445-3.932-5.155q-6.338-8.2-12.706-16.385" transform="translate(3.241 20.71)"/>
    <path id="Path_135" data-name="Path 135" d="M183.332,246.13c-2.615,7.192-5.728,14.178-10.263,20.354-4.134,5.633-8.713,10.94-13.114,16.375-2.751,3.4-5.536,6.766-8.306,10.147l.349.318a1.471,1.471,0,0,0,.481-.171,120.366,120.366,0,0,0,18.2-19.324,91.772,91.772,0,0,0,12.561-23.665c.85-2.4,1.339-4.931,1.963-7.411.063-.249-.1-.552-.155-.831a31.3,31.3,0,0,0-1.713,4.208" transform="translate(14.832 23.662)"/>
    <path id="Path_136" data-name="Path 136" d="M220.752,67.631c-1.648,1.48-3.066,3.281-4.892,4.472a5.925,5.925,0,0,0-2.468,3.3,2.464,2.464,0,0,0,.167,1.7,16.706,16.706,0,0,0,1.6,2.452,12.389,12.389,0,0,1,2.523,5.524c.557,3.808,1.056,7.625,1.619,11.434.054.363.389.685.593,1.025a3.783,3.783,0,0,0,.262-1.2c-.434-3.6-.957-7.2-1.346-10.808a7.506,7.506,0,0,1,.284-2.979c1.531-4.861,3.162-9.689,4.748-14.534.361-1.1.685-2.219,1.026-3.33-.109-.064-.216-.13-.324-.194-1.269,1.042-2.575,2.041-3.8,3.135" transform="translate(20.863 6.308)"/>
    <path id="Path_137" data-name="Path 137" d="M111.395,308.162a75.348,75.348,0,0,0-7.738-6.31c-1.256-.983-2.583-1.873-3.877-2.8,2.761,7.577,7.2,13.512,15.295,16.334a4.351,4.351,0,0,0-.175-1.355c-1.113-2-1.956-4.278-3.5-5.864" transform="translate(9.759 29.249)"/>
    <path id="Path_138" data-name="Path 138" d="M93.426,66.368c-5.253,6.1-8.1,23.909-5.362,29.8,1.784-9.914,3.545-19.706,5.362-29.8" transform="translate(8.51 6.491)"/>
    <path id="Path_139" data-name="Path 139" d="M124.985,137.83c-.117.325-.226.857-.057,1.048,1.132,1.286,2.341,2.5,3.525,3.745.105-.057.213-.113.319-.171a11.175,11.175,0,0,0-.515-1.616,10.829,10.829,0,0,1-.513-8.871,7.722,7.722,0,0,0,.671-2.639c-.024-1.728-.643-3.044-2.945-2.472a4.966,4.966,0,0,0-3.4,2.562c-1.032,1.894-.869,2.35,1.288,2.889a4.767,4.767,0,0,1,.857.3,2.647,2.647,0,0,1,1.481,3.846c-.2.476-.536.9-.711,1.383" transform="translate(11.879 12.394)"/>
    <path id="Path_140" data-name="Path 140" d="M107.5,216.038c-1.844-2.3-3.358-4.862-5.008-7.314-1-1.484-1.971-2.984-2.955-4.477l-.481.255c.167.413.308.839.508,1.236.7,1.4,1.4,2.809,2.14,4.191,2.539,4.725,5.623,8.945,10.5,11.567,3.408,1.829,6.78,2.243,10.234.05a16.4,16.4,0,0,0-3.038-.474c-4.554-.307-8.886-1.273-11.9-5.035" transform="translate(9.688 19.977)"/>
    <path id="Path_141" data-name="Path 141" d="M119.282,125.329c-.153-.243-.364-1-.843-1.253a12.278,12.278,0,0,0-2.955-.978c-.5-.121-1.358-.2-1.524.052a2.406,2.406,0,0,0-.135,1.7c.4,1.7,1.011,3.343,1.356,5.047.229,1.136.8,1.047,1.46.613,1.677-1.109,2.471-2.745,2.641-5.176" transform="translate(11.124 12.029)"/>
    <path id="Path_142" data-name="Path 142" d="M146.767,232.6c.973,0,1.317-.519,1.014-1.349-.8-2.195-1.682-4.361-2.622-6.768-1.332,2.5-2.515,4.71-3.847,7.2a20.058,20.058,0,0,0,2.978,1,14.823,14.823,0,0,0,2.476-.089" transform="translate(13.821 21.956)"/>
    <path id="Path_143" data-name="Path 143" d="M100.533,42.732c.011-.057.016-.112.026-.167a8.786,8.786,0,0,0,3.689,3.7,20.347,20.347,0,0,0,2.311,1.026,29.811,29.811,0,0,0,4.669,1.216c6.267.835,12.448-.513,15.611-6.99.925-1.895,1.569-3.655.3-5.649-1.023-1.608,2.466-7.794,1.508-9.446a101.028,101.028,0,0,0-2.882-10.452c-1.581-4.1-3.7-7.992-5.578-11.975l-.615.207c.236.817.448,1.64.709,2.449-1.146-2.392-6.295-2.731-7.421-5.133C112.04-.223,110.993-.426,109.437.7a17.243,17.243,0,0,0-1.96,1.526c-6.614,6.407-9.687,14.755-10.191,23.482a19.173,19.173,0,0,0,.178,3.922c-.689,3.81.8,10.627,3.068,13.1" transform="translate(9.512 0)"/>
    <path id="Path_144" data-name="Path 144" d="M90.657,178.621l-.563.021a3.845,3.845,0,0,0,.022,1.378q3.02,7.224,6.146,14.4c.134.306.663.44,1.009.653.094-.424.383-.925.249-1.257-.628-1.573-1.373-3.1-2.075-4.642l-4.788-10.558" transform="translate(8.806 17.47)"/>
    <path id="Path_145" data-name="Path 145" d="M113.962,133.655c-2.051-.211-2.062-.2-2.427,2.2,1.562.532,3.066,1.093,4.6,1.546.618.182,1.445.481,1.735-.529s-.541-2.8-1.307-2.906c-.865-.116-1.732-.225-2.6-.314" transform="translate(10.909 13.064)"/>
    <path id="Path_146" data-name="Path 146" d="M20.305,168.836a3.92,3.92,0,0,0-.135,1.273c.776,3.257,1.529,6.525,2.47,9.736.217.744.424,1.9,1.949,2.148-1.326-4.584-2.566-8.871-3.8-13.156l-.48,0" transform="translate(1.97 16.513)"/>
    <path id="Path_147" data-name="Path 147" d="M62.663,239.769q-4.7-5.232-9.415-10.452a3.416,3.416,0,0,0-.764-.484l-.251.311c.225.311.428.64.68.929q3.247,3.745,6.508,7.478c.909,1.046,1.777,2.128,2.72,3.141.2.21.643.189.975.274-.069-.3-.123-.6-.215-.886a.982.982,0,0,0-.237-.311" transform="translate(5.109 22.381)"/>
    <path id="Path_148" data-name="Path 148" d="M131.176,143.524c-2.511,1.765-2.342,5.279.758,7.26,0-2.492.016-4.661-.034-6.827,0-.16-.622-.5-.723-.433" transform="translate(12.66 14.037)"/>
    <path id="Path_149" data-name="Path 149" d="M177.742,95.271c1.06-2.759,2.089-5.53,3.108-8.3.4-1.081.739-2.182,1.107-3.275l-.572-.205c-1.691,4.173-3.38,8.346-5.094,12.576,1.071.6,1.236-.231,1.451-.793" transform="translate(17.243 8.166)"/>
    <path id="Path_150" data-name="Path 150" d="M5.363,108.659l-.283.276a3.276,3.276,0,0,0,.008.763c.767,3.174,1.542,6.345,2.349,9.509.056.222.373.375.568.561.126-.273.408-.582.356-.816q-1.072-4.777-2.248-9.532c-.075-.3-.492-.509-.749-.761" transform="translate(0.495 10.628)"/>
    <path id="Path_151" data-name="Path 151" d="M42.115,209.7l.426-.207a6.2,6.2,0,0,0-.527-1.275c-2.032-2.906-4.095-5.79-6.149-8.68l-.481.051a3.281,3.281,0,0,0,.258,1.093c.965,1.433,1.98,2.831,2.99,4.233,1.154,1.6,2.321,3.191,3.482,4.785" transform="translate(3.461 19.516)"/>
    <path id="Path_152" data-name="Path 152" d="M134.551,102.311c.323-1.54.632-3.017.993-4.735-2.1,1.057-2.414,2.907-.993,4.735" transform="translate(13.075 9.544)"/>
    <path id="Path_153" data-name="Path 153" d="M182.13,241.653l.683.189q.637-3.111,1.276-6.22l-.394-.1-1.564,6.128" transform="translate(17.814 23.036)"/>
  </g>
</svg>
