<svg id="Component_13_4" data-name="Component 13 – 4" xmlns="http://www.w3.org/2000/svg" width="16.977" height="16.977" viewBox="0 0 16.977 16.977">
  <path id="Path_3" data-name="Path 3" d="M8.489,1.509a26.028,26.028,0,0,1,3.4.094,4.375,4.375,0,0,1,1.6.283,3.312,3.312,0,0,1,1.6,1.6,4.375,4.375,0,0,1,.283,1.6c0,.849.094,1.132.094,3.4a26.027,26.027,0,0,1-.094,3.4,4.375,4.375,0,0,1-.283,1.6,3.312,3.312,0,0,1-1.6,1.6,4.375,4.375,0,0,1-1.6.283c-.849,0-1.132.094-3.4.094a26.027,26.027,0,0,1-3.4-.094,4.375,4.375,0,0,1-1.6-.283,3.312,3.312,0,0,1-1.6-1.6,4.375,4.375,0,0,1-.283-1.6c0-.849-.094-1.132-.094-3.4a26.028,26.028,0,0,1,.094-3.4,4.375,4.375,0,0,1,.283-1.6,3.387,3.387,0,0,1,.66-.943,1.6,1.6,0,0,1,.943-.66,4.375,4.375,0,0,1,1.6-.283,26.028,26.028,0,0,1,3.4-.094M8.489,0A27.868,27.868,0,0,0,5,.094,5.823,5.823,0,0,0,2.924.472a3.692,3.692,0,0,0-1.509.943A3.692,3.692,0,0,0,.472,2.924,4.3,4.3,0,0,0,.094,5,27.868,27.868,0,0,0,0,8.489a27.868,27.868,0,0,0,.094,3.49,5.823,5.823,0,0,0,.377,2.075,3.692,3.692,0,0,0,.943,1.509,3.692,3.692,0,0,0,1.509.943A5.823,5.823,0,0,0,5,16.883a27.868,27.868,0,0,0,3.49.094,27.868,27.868,0,0,0,3.49-.094,5.823,5.823,0,0,0,2.075-.377,3.957,3.957,0,0,0,2.452-2.452,5.823,5.823,0,0,0,.377-2.075c0-.943.094-1.226.094-3.49A27.868,27.868,0,0,0,16.883,5a5.823,5.823,0,0,0-.377-2.075,3.692,3.692,0,0,0-.943-1.509A3.692,3.692,0,0,0,14.053.472,5.823,5.823,0,0,0,11.978.094,27.868,27.868,0,0,0,8.489,0m0,4.15A4.269,4.269,0,0,0,4.15,8.489,4.339,4.339,0,1,0,8.489,4.15m0,7.168a2.779,2.779,0,0,1-2.83-2.83,2.779,2.779,0,0,1,2.83-2.83,2.779,2.779,0,0,1,2.83,2.83,2.779,2.779,0,0,1-2.83,2.83m4.527-8.394a1.037,1.037,0,1,0,1.037,1.037,1.047,1.047,0,0,0-1.037-1.037" fill="#fff" fill-rule="evenodd"/>
</svg>
