<svg id="Group_11" data-name="Group 11" xmlns="http://www.w3.org/2000/svg" width="46.861" height="43.74" viewBox="0 0 46.861 43.74">
  <path id="Path_56" data-name="Path 56" d="M168.067,363.653c.061,2.558-.837,3.824-2.337,4.642-2.1,1.151-4.213,2.3-6.4,3.283a14.1,14.1,0,0,0-8.574,11.009c-.4,2.229-1.764,3.676-3.322,3.214a4.976,4.976,0,0,1-2.817-2.359,2.506,2.506,0,0,1,1.62-3.416c5.595-1.955,8.444-6.446,10.883-11.366,1.064-2.146,2.034-4.347,3.239-6.414a4.023,4.023,0,0,1,4.87-1.782A4.085,4.085,0,0,1,168.067,363.653Z" transform="translate(-126.917 -360.236)" fill="#66b4c8"/>
  <path id="Path_57" data-name="Path 57" d="M144.782,449.494c-.231-.31,3.611-1.667,4-1.724,2.752-.418,6.248.675,8.61,2.085a6.115,6.115,0,0,1,2.965,3.723A5.088,5.088,0,0,1,159,458.119c-2.078,2.143-5.678,2.507-7.676.083C148.992,455.381,146.911,452.358,144.782,449.494Z" transform="translate(-127.162 -416.137)" fill="#5f54a0"/>
  <path id="Path_58" data-name="Path 58" d="M114.5,372.4a2.059,2.059,0,0,1,2.042-.317c.317.126.6.238.873.357a5.093,5.093,0,0,0,6.345-1.295,19.2,19.2,0,0,1,1.822-1.851,3.4,3.4,0,0,1,4.725.137,3.739,3.739,0,0,1,.505,4.762,3.6,3.6,0,0,1-4.79,1.068c-.411-.216-.79-.5-1.187-.747a5.442,5.442,0,0,0-6.378.032c-1.028.682-1.659,1.374-3.008,1.18a1.887,1.887,0,0,1-1.241-.6,2.09,2.09,0,0,1,.292-2.731Z" transform="translate(-107.368 -365.458)" fill="#e94952"/>
  <path id="Path_59" data-name="Path 59" d="M110.677,415.967c2.125,1.273,3.925,2.594,6.381,2.539a2.107,2.107,0,0,0-.354.087,17.715,17.715,0,0,1-2.633.523,10.693,10.693,0,0,1-1.861-.011,4.8,4.8,0,0,1-.909-.119c-.238-.072-.332-.281-.469-.465s-.292-.379-.444-.563c-.3-.364-.6-.721-.916-1.071a20.7,20.7,0,0,0-1.955-1.9,16.433,16.433,0,0,0-8.037-3.77,3.865,3.865,0,0,1-.624-7.593,3.776,3.776,0,0,1,4.642,2.5C105.071,410.015,106.925,413.723,110.677,415.967Z" transform="translate(-95.953 -387.89)" fill="#5f54a0"/>
  <path id="Path_60" data-name="Path 60" d="M158.695,417.159c-.076,1.735-1.569,2.06-3.164,2.345-1.259.231-2.511.487-3.759.754-.534.119-1.071.242-1.605.357a137.694,137.694,0,0,0-25.561,8.538,7.8,7.8,0,0,1-1.183.444,3.184,3.184,0,0,1-1.183,0,2.125,2.125,0,0,1-.949-.379,1.482,1.482,0,0,1-.39-.729,1.855,1.855,0,0,1-.076-.92,1.7,1.7,0,0,1,.574-.8,2.994,2.994,0,0,1,1.014-.638,6.884,6.884,0,0,1,2.543-.271c.96.029,1.9.119,2.853.2a9.441,9.441,0,0,0,2.814-.137,17.166,17.166,0,0,0,2.687-.8l12.726-4.437a17.263,17.263,0,0,0,7.593-5.331c.96-1.2,2.218-2.071,3.586-1.075A4,4,0,0,1,158.695,417.159Z" transform="translate(-111.835 -394.501)" fill="#4da5dc"/>
  <circle id="Ellipse_1" data-name="Ellipse 1" cx="1.948" cy="1.948" r="1.948" transform="translate(31.573 17.745)" fill="#ffd204"/>
  <circle id="Ellipse_2" data-name="Ellipse 2" cx="2.356" cy="2.356" r="2.356" transform="translate(37.597 30.969)" fill="#ef7b57"/>
</svg>
