<?xml version="1.0" encoding="utf-8"?>
<!-- Generator: Adobe Illustrator 25.0.1, SVG Export Plug-In . SVG Version: 6.00 Build 0)  -->
<svg version="1.1" id="Layer_1" xmlns="http://www.w3.org/2000/svg" xmlns:xlink="http://www.w3.org/1999/xlink" x="0px" y="0px"
	 viewBox="0 0 164.4 142.3" style="enable-background:new 0 0 164.4 142.3;" xml:space="preserve">
<style type="text/css">
	.st0{fill:#66B4C8;}
	.st1{fill:#5F54A0;}
	.st2{fill:#E94952;}
	.st3{fill:#4DA5DC;}
	.st4{fill:#FFD204;}
	.st5{fill:#EF7B57;}
</style>
<g id="Group_20" transform="translate(3904.893 8662)">
	<path id="Path_56" class="st0" d="M-3791.3-8656c0.1,4.5-1.5,6.7-4.1,8.1c-3.7,2-7.4,4-11.2,5.7c-8.4,3.8-13.4,10.2-15,19.3
		c-0.7,3.9-3.1,6.4-5.8,5.6c-2.1-0.7-3.9-2.2-4.9-4.1c-1-2.2,0-4.8,2.3-5.8c0.2-0.1,0.4-0.1,0.6-0.2c9.8-3.4,14.8-11.3,19.1-19.9
		c1.9-3.8,3.6-7.6,5.7-11.2c1.7-3,5.3-4.3,8.5-3.1C-3793.3-8660.6-3791.3-8657.9-3791.3-8656z"/>
	<path id="Path_57" class="st1" d="M-3832.5-8603.6c-0.4-0.5,6.3-2.9,7-3c4.8-0.7,10.9,1.2,15.1,3.7c2.5,1.4,4.4,3.7,5.2,6.5
		c0.6,2.9-0.3,5.9-2.4,8c-3.6,3.8-9.9,4.4-13.4,0.1C-3825.1-8593.3-3828.8-8598.6-3832.5-8603.6z"/>
	<path id="Path_58" class="st2" d="M-3850.9-8649.9c1-0.8,2.4-1,3.6-0.6c0.6,0.2,1,0.4,1.5,0.6c4.3,1.9,7.8,1.2,11.1-2.3
		c1-1.2,2.1-2.2,3.2-3.2c2.4-2.2,6-2.1,8.3,0.2c2.3,2.2,2.6,5.7,0.9,8.3c-1.9,2.7-5.5,3.5-8.4,1.9c-0.7-0.4-1.4-0.9-2.1-1.3
		c-3.3-2.4-7.8-2.4-11.2,0.1c-1.8,1.2-2.9,2.4-5.3,2.1c-0.8-0.1-1.6-0.4-2.2-1C-3852.4-8646.6-3852.2-8648.6-3850.9-8649.9
		L-3850.9-8649.9z"/>
	<path id="Path_59" class="st1" d="M-3837.6-8612.8c3.7,2.2,6.9,4.5,11.2,4.4c-0.2,0-0.4,0.1-0.6,0.2c-1.5,0.4-3.1,0.7-4.6,0.9
		c-1.1,0.1-2.2,0.1-3.3,0c-0.5,0-1.1-0.1-1.6-0.2c-0.4-0.1-0.6-0.5-0.8-0.8s-0.5-0.7-0.8-1c-0.5-0.6-1-1.3-1.6-1.9
		c-1.1-1.2-2.2-2.3-3.4-3.3c-4-3.4-8.9-5.7-14.1-6.6c-3.7-0.6-6-3.2-6.2-6.6c-0.1-3.2,2-5.9,5.1-6.7c3.6-0.8,6.6,0.7,8.1,4.4
		C-3847.4-8623.3-3844.2-8616.8-3837.6-8612.8z"/>
	<path id="Path_60" class="st3" d="M-3781.3-8622.3c-0.1,3-2.7,3.6-5.5,4.1c-2.2,0.4-4.4,0.9-6.6,1.3c-0.9,0.2-1.9,0.4-2.8,0.6
		c-15.4,3.5-30.4,8.5-44.8,14.9c-0.7,0.3-1.4,0.6-2.1,0.8c-0.7,0.1-1.4,0.1-2.1,0c-0.6-0.1-1.2-0.3-1.7-0.7
		c-0.3-0.4-0.6-0.8-0.7-1.3c-0.2-0.5-0.2-1.1-0.1-1.6c0.2-0.6,0.5-1,1-1.4c0.5-0.5,1.1-0.9,1.8-1.1c1.4-0.4,3-0.6,4.5-0.5
		c1.7,0.1,3.3,0.2,5,0.4c1.6,0.2,3.3,0.1,4.9-0.2c1.6-0.3,3.2-0.8,4.7-1.4l22.3-7.8c5.2-1.8,9.8-5.1,13.3-9.3
		c1.7-2.1,3.9-3.6,6.3-1.9C-3782.4-8626.1-3781.4-8624.3-3781.3-8622.3z"/>
	<circle id="Ellipse_1" class="st4" cx="-3804.7" cy="-8627.5" r="3.4"/>
	<circle id="Ellipse_2" class="st5" cx="-3793.4" cy="-8603.7" r="4.1"/>
</g>
<g id="Group_21" transform="translate(3863.366 8750.41)">
	<path id="Path_61" d="M-3852.8-8651.1c0.1-0.1,0.1-0.1,0.2-0.2c0.1-0.1,0-0.1-0.2-0.1c0,0-0.1,0-0.1-0.1c0-0.1,0-0.2,0-0.3v-0.6
		c0-0.3,0-0.7,0-1c0-0.3,0-0.6,0-1c0-0.3-0.1-0.6-0.1-0.9c-0.1-0.3-0.2-0.6-0.4-0.9c0-0.1-0.1-0.1-0.1-0.2c0,0-0.1-0.1-0.1-0.1
		c0,0-0.1-0.1-0.2-0.1c0,0,0-0.1,0-0.2c0-0.2,0-0.2-0.1-0.1c-0.1,0.1-0.1,0.1-0.2,0.1c-0.1,0-0.1-0.1-0.1-0.2s-0.1-0.2-0.2-0.1
		c0,0-0.1,0.1-0.1,0.1c0,0,0,0.1-0.1,0.1h-0.6c0-0.2,0-0.3,0-0.5c0.1-0.2,0.1-0.3,0.2-0.5c-0.1-0.1-0.1,0-0.2,0.1
		c-0.1,0.1-0.1,0-0.1,0c0-0.1-0.1-0.1-0.2,0c0,0.1,0.1,0.2,0.1,0.2s0.1,0.1,0,0.3c0,0.1,0,0.3,0,0.4c-0.1,0-0.1,0-0.2,0
		c-0.1,0-0.1,0.1-0.2,0.1c-0.1,0.1-0.2,0.1-0.3,0.1c-0.1,0.1-0.2,0.1-0.3,0.2c-0.1,0.1-0.2,0.2-0.3,0.3c-0.1,0.1-0.2,0.2-0.4,0.3
		c0,0.1,0,0.1,0.1,0c0.1,0,0.1,0,0.1,0c0,0.2,0,0.3-0.1,0.3c0.1,0.2,0,0.3-0.1,0.3c0,0.2,0,0.4,0,0.5c0,0.2,0,0.3-0.1,0.5
		c0,0.1,0,0.1,0,0.2c0,0.1,0,0.1,0,0.2c-0.1,0.2-0.1,0.3,0,0.5c0,0.2,0,0.4,0,0.6c0,0.2,0,0.3,0,0.5c0,0.2,0,0.3,0,0.5
		c0,0.1,0,0.3,0.1,0.4c0,0.1,0,0.2-0.1,0.2c0,0-0.1,0.1,0,0.2c0.1,0.1,0.1,0.3,0,0.4c-0.1,0.1,0,0.2,0,0.3c-0.1,0.2-0.1,0.4-0.1,0.6
		c0,0.2,0,0.4,0,0.6c0,0.2,0,0.4,0,0.6c0,0.2,0,0.4,0,0.6c0,0.2,0,0.3,0,0.5c0,0.2,0,0.3,0,0.5c0,0.4,0,0.8,0,1.1v1.1
		c0,0.2,0,0.3,0,0.5c0,0.2,0,0.3,0,0.5c-0.1,0.1-0.1,0.3,0,0.5c0,0.1,0.1,0.3,0.1,0.5c0,0.2,0,0.4,0,0.5c0,0.2,0,0.4,0,0.6
		c0,0.1,0,0.1,0,0.2c0,0,0,0.1,0,0.1c0,0.1,0,0.2,0,0.3c0,0.1,0,0.2,0,0.2c-0.1,0.2-0.1,0.3,0,0.5c0,0.2,0,0.4,0,0.5
		c0.1,0.2,0.1,0.4,0.1,0.6v0.6c0,0.2,0,0.4,0.1,0.5c0,0.2,0.1,0.3,0.1,0.5c0,0.4,0.1,0.7,0.4,0.9c0.2,0.3,0.5,0.4,0.9,0.5
		c0.1,0.1,0.3,0.1,0.5,0.1c0.1,0,0.3,0,0.5,0c0.1,0,0.1,0,0.2,0c0.1,0,0.1,0,0.2,0.1c0.3-0.2,0.7-0.4,1-0.6c0.1-0.1,0.1-0.2,0.1-0.3
		c0-0.1,0.1-0.2,0.1-0.3c0.1-0.1,0.1-0.3,0.2-0.5c0.1-0.2,0.1-0.3,0.1-0.5c0-0.1,0-0.1,0-0.2c0-0.1,0-0.2,0-0.2
		c0.1-0.1,0.1-0.2,0-0.2c0-0.1-0.1-0.1-0.1-0.2c0-0.1,0-0.2,0-0.2c0-0.1,0-0.2,0-0.2c0-0.1,0-0.1,0-0.2c0-0.1,0-0.1,0-0.2
		c0-0.2,0-0.3,0-0.5s0-0.3,0-0.5c0-0.1,0-0.1,0.1-0.2c0-0.1,0.1-0.1,0-0.2c0-0.1,0-0.1,0-0.2c0-0.1,0-0.1,0-0.2c0-0.1,0-0.2,0-0.2
		s0-0.1,0-0.2c0-0.1,0-0.2,0-0.2c0-0.1,0-0.2,0-0.2c0-0.1,0-0.2,0-0.2c0-0.1,0.1-0.1,0.1-0.2c0.1-0.1,0.2-0.1,0.1-0.1
		c0,0,0-0.1,0-0.2c0.2-0.1,0.4-0.1,0.5-0.1c0.2,0,0.4,0,0.5,0c0.4,0,0.8,0,1.2,0c0.4,0,0.8,0,1.2,0c0.1,0,0.2,0,0.3,0
		c0.1,0,0.2,0,0.2,0.1c0.1-0.1,0.2-0.1,0.4,0c0.1,0,0.2,0,0.3,0c0.1,0,0.2,0,0.2,0.1c-0.1,0.1,0,0.2,0.1,0.1c0.1,0,0.1,0.1,0.1,0.4
		c0,0.3,0,0.6,0,0.9s0,0.7,0,1c0,0.3,0,0.5,0,0.6v0.8c0,0.3,0,0.5,0,0.8v0.4c0,0.1,0,0.3,0,0.4c0,0.1,0,0.2-0.1,0.3
		c-0.1,0.1-0.1,0.2,0,0.3c0.1,0,0.1,0.1,0,0.2c0,0.1-0.1,0.1-0.1,0.2c-0.1,0.1-0.1,0.2-0.1,0.3c0,0.1,0,0.2-0.1,0.3
		c-0.1,0.3-0.1,0.5-0.2,0.8c-0.1,0.2-0.2,0.5-0.3,0.7c0,0.1-0.1,0.1-0.2,0.2c-0.1,0.1-0.1,0.2,0,0.2c-0.2,0.1-0.4,0.2-0.4,0.4
		c-0.1,0.2-0.2,0.3-0.3,0.4c-0.1,0.1-0.3,0.2-0.4,0.4c-0.1,0.2-0.3,0.3-0.4,0.4c-0.2,0.1-0.3,0.2-0.5,0.3c-0.2,0.2-0.4,0.3-0.6,0.4
		c-0.1,0.1-0.2,0.1-0.4,0.1c-0.1,0-0.2,0.1-0.3,0.2c-0.2,0.2-0.4,0.3-0.6,0.2c-0.2,0-0.5,0.1-0.7,0.1c-0.1,0-0.2,0.1-0.4,0.1
		c-0.1,0-0.2-0.1-0.3-0.1c-0.1,0-0.2,0-0.2,0c0,0-0.1-0.1-0.2-0.2c-0.1,0-0.1,0.1,0,0.2c0,0.1-0.1,0.1-0.2,0.1c-0.1,0-0.2,0-0.2,0
		c-0.2,0-0.3,0-0.5,0c-0.2,0-0.3,0-0.5,0c-0.3-0.1-0.5-0.1-0.8-0.1c-0.3,0-0.6-0.1-0.9-0.2c-0.3-0.1-0.6-0.1-0.9-0.2
		c-0.3-0.1-0.6-0.2-0.7-0.5c-0.3-0.1-0.6-0.3-0.9-0.5c0-0.1,0-0.2-0.1-0.2c-0.1,0-0.1-0.1-0.1-0.2c-0.1,0-0.1,0-0.1,0
		c0,0.1-0.1,0.1-0.1,0c-0.1,0-0.1-0.1-0.1-0.2c0-0.1,0-0.2,0-0.2c-0.1,0.1-0.1,0.1-0.1,0c0,0,0-0.1-0.1-0.1c-0.1,0-0.1,0.1,0,0.1
		c0,0,0,0-0.1,0c0,0-0.1-0.1-0.1-0.1c0-0.1-0.1-0.1-0.1-0.1c-0.1-0.1-0.2-0.3-0.2-0.4c-0.1-0.1-0.1-0.3,0-0.4c0.1-0.1,0-0.2-0.1-0.2
		s-0.1,0-0.1,0.1c0,0.1-0.1,0.1-0.2-0.1c-0.1-0.1-0.2-0.3-0.2-0.4c-0.1-0.1-0.1-0.2,0-0.4c0.1-0.1,0.1-0.3,0-0.4
		c-0.1-0.1-0.1-0.1-0.1-0.1c-0.1-0.1-0.1-0.1-0.1-0.2c-0.1-0.2-0.2-0.4-0.3-0.5c0.1-0.2,0.1-0.4,0-0.6c-0.1-0.1-0.1-0.3,0-0.5
		c0-0.2,0-0.3,0-0.5c-0.1-0.1-0.1-0.2,0-0.3c0-0.1,0.1-0.2,0.1-0.3c0-0.1,0-0.2-0.1-0.2c0-0.1-0.1-0.2-0.1-0.3v-0.7
		c0-0.2,0-0.4,0-0.7c-0.1-0.2,0-0.4,0.1-0.6c-0.1-0.2-0.1-0.5-0.1-0.7c0-0.2,0.1-0.5,0.1-0.7v-0.3c0-0.1,0-0.2,0-0.3
		c0-0.1,0-0.2,0-0.3c0-0.1,0-0.2,0-0.3c0-0.1,0-0.2,0-0.2c0-0.1,0-0.2,0-0.2c0-0.1,0-0.3,0-0.4c0-0.1,0-0.2,0-0.3
		c-0.1-0.1-0.1-0.2-0.1-0.4c0-0.1,0-0.3,0.1-0.4c0.1-0.1,0.1-0.3,0.1-0.4c0-0.2,0-0.4-0.1-0.6c0-0.2,0-0.4,0-0.6
		c0-0.2,0.1-0.3,0.2-0.3c0-0.1-0.1-0.2-0.1-0.2c-0.1,0-0.1-0.1-0.1-0.3c0-0.1,0.1-0.2,0.1-0.3c0-0.1,0.1-0.2,0.1-0.3h-0.1
		c-0.1,0-0.1-0.1-0.1-0.2c0-0.1,0-0.2,0-0.2c0-0.1,0-0.1,0-0.2c0-0.1,0-0.2-0.1-0.2c0-0.1,0-0.2,0-0.4c0-0.3,0-0.5,0-0.8v-0.8
		c0-0.3,0-0.7,0-1c0-0.3,0-0.7,0-1c0-0.2,0-0.3,0-0.5c0-0.1,0-0.1,0-0.2c0-0.1,0-0.1,0-0.2c0-0.1,0-0.3,0-0.4c0-0.2,0.1-0.3,0.2-0.4
		c-0.1-0.1-0.1-0.2-0.1-0.3c0-0.1,0-0.2,0-0.3c0-0.1,0.1-0.3,0.1-0.4c0-0.2,0.1-0.3,0.1-0.5c0.1-0.1,0.1-0.3,0.1-0.4
		c0-0.1,0.1-0.3,0.1-0.4c0-0.1,0.1-0.3,0.2-0.3c0.1-0.1,0.1-0.2,0.1-0.3c0.2-0.2,0.3-0.4,0.4-0.6c0.1-0.1,0.2-0.2,0.3-0.3
		c0.1-0.1,0.2-0.3,0.3-0.4c0.2-0.2,0.4-0.4,0.6-0.6c0.1-0.1,0.1-0.1,0.2-0.2c0.1,0,0.1-0.1,0.2-0.2c0,0,0.1-0.1,0.2-0.1
		c0.1,0,0.1,0,0.2-0.1c0.1-0.1,0.2-0.1,0.3-0.2c0.1-0.1,0.2-0.2,0.3-0.2c0.2-0.1,0.4-0.1,0.5-0.2c0.2-0.1,0.4-0.1,0.5-0.2
		c0.3-0.1,0.6-0.2,0.8-0.2c0.3-0.1,0.6-0.1,0.8-0.1c0.1,0,0.2,0,0.3,0c0.1,0,0.2,0,0.2-0.1c0.1,0,0.1,0,0.2,0c0.2,0,0.4,0,0.6,0
		c0.2,0,0.3,0,0.5,0c0.3,0,0.5,0.1,0.8,0.1c0.3,0,0.5,0.1,0.8,0.2c0.1,0,0.2,0.1,0.2,0.1c0.1,0,0.2,0,0.2,0c0.2,0.1,0.4,0.2,0.6,0.2
		c0.2,0.1,0.4,0.2,0.6,0.3c0.3,0.2,0.6,0.4,0.8,0.6c0.3,0.2,0.5,0.4,0.7,0.7c0.1,0.1,0.2,0.2,0.3,0.3c0.1,0.1,0.2,0.2,0.2,0.3
		c0,0.1,0.1,0.2,0.2,0.3c0.1,0.1,0.2,0.2,0.2,0.3c0,0.3,0.1,0.6,0.2,0.8c0.2,0.3,0.3,0.6,0.4,0.8c0.3,1.1,0.4,2.2,0.3,3.3
		c0,0.1,0,0.3,0.1,0.4c0,0.1,0.1,0.3,0.1,0.4c0,0.2,0,0.4-0.1,0.6c0,0.2-0.1,0.4-0.1,0.6v0.4c0,0.1,0,0.3,0.1,0.4
		c0,0.2,0,0.3-0.1,0.4c-0.1,0.1-0.2,0.2-0.3,0.3c-0.7,0-1.4,0-2.1,0c-0.7,0.1-1.4,0.1-2.1,0c-0.1,0-0.3,0-0.4-0.1
		c-0.1-0.1-0.2-0.2-0.2-0.3c-0.1-0.1-0.1-0.3-0.2-0.4C-3853-8650.9-3852.9-8651-3852.8-8651.1z"/>
	<path id="Path_62" d="M-3829.5-8650.2c0,0.2,0,0.4,0.1,0.7c0,0.2,0.1,0.4,0,0.7c0,0.1,0,0.3-0.1,0.4c-0.1,0.1-0.1,0.3,0,0.4
		c0.1,0.5,0.1,0.9,0,1.4c0,0,0,0.1,0,0.1c-0.1,0.1-0.1,0.1-0.1,0c0-0.1-0.1-0.1-0.1-0.1c0,0-0.1,0.1-0.1,0.1
		c0.1,0.1,0.1,0.2,0.2,0.2c0.1,0.1,0.1,0.2,0,0.3c-0.1,0.1-0.1,0.1-0.2,0.2c-0.1,0.1-0.1,0.2,0,0.3c0.1,0,0.2,0,0.2-0.1
		c0.1-0.1,0.1,0,0.1,0.3v0.6c0,0.2,0,0.4-0.1,0.5c0,0.1,0,0.1,0,0.1c0,0,0.1,0.1,0.1,0.1c0,0.1,0,0.2,0,0.3v0.3c0,0.2,0,0.4,0,0.6
		c0,0.2,0,0.3,0,0.5c0,0.1-0.1,0.2-0.1,0.3c0,0.1-0.1,0.2,0,0.2c0,0,0.1,0.1,0.1,0.1c0,0,0,0.1,0,0.1c0,0.2,0,0.4,0,0.6
		c0,0.2,0,0.4-0.1,0.6c0,0.1,0.1,0.2,0.1,0.3c0,0.1,0,0.3,0,0.4c0,0.1,0,0.3,0,0.4c0,0.1-0.1,0.3,0,0.5c0,0.1,0.1,0.3,0.1,0.5
		c0,0.2,0,0.3-0.1,0.4c0,0.1,0,0.1,0,0.2c0,0.1,0.1,0.1,0,0.2c0,0.1-0.1,0.3-0.1,0.4c0,0.1,0,0.2-0.1,0.3c-0.1,0.1-0.1,0.3-0.1,0.4
		c0,0.1,0,0.3-0.1,0.4c-0.1,0.1-0.1,0.2-0.1,0.3c0,0.1-0.1,0.2-0.1,0.3c-0.1,0.2-0.2,0.3-0.2,0.4c-0.1,0.1-0.1,0.3-0.2,0.4
		c-0.1,0.1-0.2,0.3-0.3,0.5c-0.1,0.2-0.2,0.3-0.3,0.5c-0.2,0.2-0.4,0.4-0.6,0.6c-0.2,0.2-0.4,0.4-0.6,0.5c-0.1,0.1-0.3,0.1-0.4,0.2
		c-0.1,0-0.1,0.1-0.1,0.1c0,0.1,0,0.1-0.1,0.1c-0.2,0-0.4,0.1-0.5,0.2c-0.1,0.1-0.3,0.2-0.5,0.3c-0.1,0.1-0.3,0.1-0.4,0.1
		c-0.2,0-0.3,0-0.4,0.1c-0.1,0.1-0.2,0.1-0.4,0.1c-0.1,0-0.3,0-0.4-0.1c-0.1,0.1-0.2,0.2-0.3,0.2c-0.1,0-0.3,0.1-0.4,0.1
		c-0.1,0-0.2-0.1-0.2-0.1c0,0-0.1,0-0.2,0c-0.1,0-0.3,0-0.4,0h-0.4c-0.7,0-1.4-0.1-2.1-0.3c-0.3-0.1-0.7-0.2-0.9-0.3
		c-0.1-0.1-0.3-0.1-0.5-0.1c-0.2-0.2-0.4-0.3-0.7-0.5c-0.3-0.2-0.6-0.4-0.9-0.7c-0.3-0.2-0.5-0.5-0.7-0.8c0,0-0.1-0.1-0.2-0.1
		c-0.1,0-0.1-0.1-0.2-0.1c-0.1-0.1-0.1-0.3-0.2-0.4c-0.1-0.1-0.2-0.3-0.3-0.4c-0.1-0.1-0.2-0.3-0.2-0.5c-0.3-0.7-0.5-1.5-0.5-2.2
		c0-0.8-0.1-1.6,0-2.3c0-0.2,0-0.4,0-0.6c0-0.2,0-0.4,0-0.6c0.1-0.1,0.1-0.3,0-0.4c0-0.1,0-0.3,0-0.4c0.1-0.2,0.1-0.3,0-0.5
		c0-0.2-0.1-0.4-0.1-0.5c0-0.2,0-0.4,0-0.7c0-0.2,0-0.4,0-0.7c0-0.4,0-0.7,0-1.1c0-0.4,0-0.8,0-1.2c0-0.2-0.1-0.5-0.1-0.7
		c0-0.2,0-0.5,0-0.7c0-0.1,0-0.2,0-0.2s0.1-0.1,0-0.2c-0.1-0.2-0.1-0.4,0-0.6c0.1-0.2,0.1-0.3,0-0.5c0-0.2,0-0.3,0-0.5
		c0-0.1,0-0.1-0.1-0.2c0-0.1,0-0.1,0-0.2c0,0,0,0,0,0c0.1-0.1,0.1-0.2,0-0.2s-0.1-0.1-0.1-0.3c0-0.1,0.1-0.1,0.1-0.2
		c0-0.1,0-0.1,0-0.2c0-0.1,0-0.2,0-0.3c0-0.1-0.1-0.2-0.1-0.3v-0.4c0-0.1,0-0.2,0.1-0.3c0.1,0,0.1,0,0.1,0.1c0,0.1,0.1,0.1,0.1,0.1
		c-0.1-0.1-0.1-0.2-0.2-0.3c-0.1-0.1-0.1-0.2-0.1-0.3c0-0.1-0.1-0.3-0.1-0.4c0-0.1,0-0.3,0.1-0.4c0.1-0.1,0.1-0.3,0-0.5
		c0-0.2-0.1-0.3-0.1-0.5c0-0.2,0.1-0.4,0.1-0.6c0-0.2,0-0.4,0-0.6c0-0.1,0-0.2,0-0.2c0-0.1,0.1-0.1,0.1-0.2c-0.1-0.1,0-0.1,0.1-0.2
		c0.1-0.1,0.2-0.1,0.1-0.1c-0.1-0.1-0.1-0.2-0.1-0.3c0.1-0.2,0.1-0.4,0.2-0.6c0.1-0.2,0.2-0.4,0.3-0.6c0.1-0.1,0.1-0.3,0.2-0.4
		c0.1-0.1,0.1-0.2,0.2-0.3c0.1-0.1,0.2-0.2,0.3-0.3c0.1-0.1,0.2-0.2,0.2-0.3c0.1-0.1,0.2-0.2,0.3-0.2c0.1,0,0.1,0,0.1-0.1
		c0-0.1,0-0.2,0.1-0.2c0,0,0,0,0,0c0.1,0,0.2-0.1,0.2-0.1c0.2-0.1,0.3-0.3,0.5-0.4c0.2-0.1,0.3-0.2,0.5-0.3c0.2,0,0.3-0.1,0.5-0.1
		c0.1-0.1,0.3-0.2,0.4-0.2c0.3-0.1,0.7-0.2,1-0.2c0.1,0,0.1,0,0.1,0c0,0,0.1,0,0.1,0c0.1,0,0.1,0,0.1,0c0,0,0.1,0,0.1,0
		c0.1-0.1,0.2-0.1,0.3-0.1c0.1,0,0.2,0.1,0.2,0.2c0,0,0.1-0.1,0.1-0.1c0,0,0.1-0.1,0.1-0.1h0.8c0.2,0,0.4,0,0.6,0
		c0.2,0,0.4,0,0.6,0.1c0,0.1,0.1,0.2,0.2,0.3c0.1,0.1,0.1,0,0-0.2c0-0.1,0-0.1,0.1-0.1c0.1,0,0.2,0,0.3,0.1c0.1,0,0.2,0.1,0.3,0.1
		c0.1,0,0.1,0.1,0.2,0.1c0.1-0.1,0.2-0.1,0.3-0.1c0,0,0,0,0.1,0c0.1,0.1,0.2,0.1,0.3,0.1c0.1-0.1,0.3,0,0.4,0.1
		c0.1,0.1,0.2,0.2,0.4,0.1c0,0.2,0,0.2,0.1,0.2c0.1-0.1,0.1-0.1,0.2,0.1c0,0.1,0,0.1-0.1,0.2c0,0.1,0,0.1,0,0.2c0.1,0,0.1,0,0.2,0
		c0.1,0,0.1,0,0.1-0.1c0.1,0,0.2,0,0.3,0c0.2,0,0.2,0,0.2,0.1c-0.1,0.1-0.1,0.2-0.1,0.2c0.1,0,0.2,0,0.2,0c0.1,0,0.2,0.1,0.1,0.2
		c0.1,0.1,0.1,0.2,0.1,0.2s0.1,0,0.2,0c0.1,0.1,0.2,0.1,0.3,0.3c0.1,0.1,0.1,0.2,0.2,0.3l0.3,0.3c0.1,0.1,0.1,0.2,0.1,0.4
		c0.1,0.1,0.2,0.2,0.3,0.4c0.1,0.2,0.1,0.3,0.2,0.5l0.2,0.5c0,0.1,0,0.1-0.1,0.1c-0.1,0-0.1,0.1,0,0.1c0.1,0.1,0.2,0.1,0.2,0.2
		c0,0.1-0.1,0.2-0.2,0.3c0,0.1,0.1,0.1,0.1,0.1c0.1-0.1,0.1-0.1,0.1,0c0.1,0.2,0,0.4-0.1,0.4c0,0,0.1,0.1,0.1,0.1c0.1,0,0.1,0,0.1,0
		c0,0.1,0,0.2,0,0.3c0,0.1,0,0.2,0,0.3c0,0.1,0,0.2-0.1,0.3c-0.1,0-0.1,0.1,0,0.1c0.1,0,0.1,0.1,0.1,0.2c0,0.1,0,0.3-0.1,0.4
		c-0.1,0.1-0.1,0.2,0,0.3c0.1,0.1,0.2,0.3,0.2,0.5c0,0.2,0,0.4-0.1,0.5c-0.1,0-0.2-0.1-0.3-0.1c-0.1-0.1-0.2-0.1-0.3-0.1
		c0,0,0,0.1,0.1,0.3c0.1,0.1,0.2,0.2,0.2,0.2c0.1-0.1,0.2,0,0.2,0.2c0,0.1,0,0.3-0.1,0.4c0.1,0.2,0.1,0.4,0.1,0.5
		c0,0.2,0,0.4-0.1,0.5c0,0.2,0,0.4,0,0.6C-3829.5-8650.6-3829.5-8650.4-3829.5-8650.2z M-3834.8-8643.5c0.1,0,0.1,0.1,0.1,0.2
		c0,0.1,0.1,0.1,0.2,0.1c0,0,0,0,0.1,0c-0.1-0.1-0.2-0.3-0.3-0.4c-0.1-0.1-0.2-0.3-0.2-0.4c0-0.2,0.1-0.4,0.1-0.5
		c0-0.2,0-0.4-0.1-0.5c0.1,0.1,0.2,0.1,0.2,0.1c0,0,0-0.1,0-0.1c0-0.1,0-0.1-0.1-0.2c0-0.1,0-0.1,0-0.2c0.1-0.2,0.1-0.4,0-0.6
		c-0.1-0.2-0.1-0.4-0.1-0.6c0,0,0-0.1,0-0.1c0,0,0-0.1,0.1-0.1l-0.1-0.4c0.1-0.1,0.1-0.1,0.1-0.2c0-0.1,0-0.2,0-0.3
		c0-0.1,0-0.2,0-0.3c0-0.1,0-0.2,0-0.3c0.1-0.1,0.1-0.2,0-0.3c0-0.1-0.1-0.2-0.1-0.4c0-0.2,0-0.4,0-0.6c0-0.2,0-0.4,0-0.6
		c-0.1-0.2,0-0.4,0-0.6c0.1-0.1,0.1-0.3,0-0.4c0-0.1-0.1-0.3-0.1-0.4c0-0.2,0-0.4,0.1-0.6c0.1-0.2,0.1-0.4,0-0.6
		c-0.1-0.3-0.1-0.6-0.1-0.9c0-0.3,0-0.6,0-0.9c0.2,0.1,0.2,0.1,0.2,0.1c0,0,0,0.1,0,0.2c0.1,0,0.2-0.1,0.3-0.2
		c0.1-0.1,0.1-0.3,0-0.4c-0.1,0-0.2,0.1-0.3,0.1c-0.1,0.1-0.2,0-0.2-0.1c0-0.1,0-0.2,0-0.3c0-0.1,0-0.2,0-0.3c0-0.2-0.1-0.4-0.2-0.6
		c-0.1-0.2-0.2-0.4-0.3-0.5c-0.2-0.1-0.3-0.2-0.5-0.3c-0.1-0.1-0.3-0.2-0.5-0.2c-0.3-0.1-0.6-0.1-0.8,0c0,0,0-0.1,0-0.1
		c-0.1-0.1-0.1-0.1,0-0.1c-0.1-0.1-0.1-0.1-0.1,0s0,0.2-0.1,0.2c-0.1,0-0.2,0-0.1,0c0,0,0,0-0.1,0c0,0.1-0.1,0.1-0.2,0.1
		c-0.1,0-0.2,0-0.2,0.1c-0.1,0.1-0.3,0.1-0.4,0.3c-0.1,0.1-0.2,0.2-0.3,0.4c-0.1,0.1-0.2,0.3-0.2,0.5c0,0.2-0.1,0.3-0.1,0.5
		c-0.1,0.1-0.1,0.3-0.1,0.4c0,0.1,0,0.2-0.1,0.3c-0.1,0.1-0.1,0.2,0,0.3c0.1,0.1,0.1,0.2,0,0.3c0,0.2,0,0.4,0,0.6c0,0.2,0,0.4,0,0.6
		c0,0.2,0,0.3-0.1,0.2c0-0.1-0.1,0-0.2,0c-0.1,0.1-0.1,0.1,0,0.1c0,0,0.1,0,0.1,0c0.1-0.1,0.2,0,0.2,0.1v0.3c0,0.1-0.1,0.1-0.1,0.2
		c0,0,0,0.1,0,0.1c0,0.1,0.1,0.2,0.1,0.4c0.1,0.1,0,0.3,0,0.4c-0.1,0-0.1,0.1,0,0.2c0,0.1,0,0.1,0,0.2c0,0.1,0,0.1,0,0.2
		c0,0.1,0,0.1,0,0.2c0.1,0.1,0.1,0.3,0,0.4c0,0.4,0,0.7,0,1.1c0.1,0.2,0.1,0.3,0,0.5c-0.1,0.2-0.1,0.4,0,0.5c0,0.1,0,0.3,0,0.4
		c0,0.1,0,0.3,0,0.4c0,0.1,0,0.2,0,0.4c0,0.1,0,0.2,0,0.4c0,0.2,0,0.3,0,0.5c0,0.2,0,0.3,0,0.5v0.3c0,0.1-0.1,0.1-0.1,0.1
		c-0.1,0-0.1,0,0,0.1c0.1,0.1,0.2,0.2,0.1,0.4c0,0.2-0.1,0.3,0,0.5c0.1,0.3,0.1,0.7,0.1,1c0,0.4,0,0.7,0,1c0,0.2,0,0.4,0,0.6
		c0,0.2,0,0.4,0,0.6c0,0.1,0,0.1,0,0.2c0,0.1,0,0.1,0,0.2c0,0.1,0,0.3,0,0.4v0.8c0,0.1,0,0.3,0,0.4c0.1,0.1,0.1,0.1,0.1,0.2
		c0,0.1,0,0.2,0,0.2c0,0.3,0.1,0.6,0.2,0.9c0.1,0.3,0.3,0.5,0.6,0.7c0.2,0.1,0.4,0.2,0.7,0.3c0.2,0,0.3,0.1,0.5,0.1
		c0.2,0,0.3,0,0.5,0c0.2,0,0.3-0.1,0.5-0.1c0.2-0.1,0.3-0.1,0.4-0.2c0.1,0,0.2-0.1,0.2-0.1c0,0,0-0.1,0.1-0.2c0-0.1,0.1-0.1,0.2-0.1
		c0.1,0,0.1,0,0.2-0.1c0-0.1,0-0.1-0.1-0.1c0,0-0.1,0-0.1-0.1c0.1-0.2,0.2-0.3,0.2-0.5c0.1-0.2,0.1-0.3,0.1-0.5c0-0.2,0-0.4,0-0.6
		v-0.6c0-0.2,0-0.4,0-0.6c-0.1-0.1-0.1-0.3-0.1-0.5c0-0.2,0.1-0.4,0.1-0.5c0-0.1,0-0.3,0-0.5c0-0.2,0-0.5-0.1-0.7c0-0.2,0-0.5,0-0.7
		c0-0.1,0.1-0.3,0.2-0.4c0.1-0.1,0.1-0.1,0-0.2C-3834.9-8643.4-3834.9-8643.5-3834.8-8643.5L-3834.8-8643.5z"/>
	<path id="Path_63" d="M-3806.1-8639c0,0.2,0,0.4,0.1,0.6c0,0.2,0,0.3,0,0.5c-0.1,0.1-0.1,0.3-0.1,0.4c0,0.1,0.1,0.3,0,0.4
		c0,0.2,0,0.4,0,0.6c0,0.2,0,0.4,0,0.6c-0.1,0.2-0.1,0.4,0,0.6c0.1,0.2,0.1,0.4,0.1,0.6c0,0.1,0,0.2,0,0.2c0,0,0,0.1,0,0.2
		c0,0.1,0,0.2,0,0.3c0,0.1,0,0.2,0,0.3c0,0.2,0,0.4,0,0.6c0,0.2,0,0.4,0,0.6c0,0.2,0,0.4-0.1,0.6c-0.1,0.2-0.1,0.2-0.2,0.2
		c-0.1,0-0.1,0.1-0.2,0.2c-0.2,0-0.4,0-0.6,0c-0.2,0-0.4,0-0.6,0c-0.2,0-0.3-0.1-0.5-0.1c-0.1,0-0.2,0-0.2,0c-0.1,0-0.2,0-0.2,0
		c-0.2,0-0.4,0-0.5,0c-0.2,0-0.3,0-0.5-0.1c-0.2,0-0.5,0-0.6,0c-0.2,0-0.4-0.1-0.5-0.3c-0.1-0.1-0.2-0.3-0.2-0.5c0-0.1,0-0.3,0-0.5
		c0-0.2,0-0.4,0-0.6c0-0.2,0-0.4,0-0.6c0-0.2,0-0.4,0-0.5c0-0.2,0-0.3,0-0.5c0-0.2,0-0.4,0-0.6c0-0.2,0-0.3,0-0.5c0-0.7,0-1.4,0-2.1
		c0-0.7,0-1.4-0.1-2.1c0-0.1,0-0.3,0-0.4c0-0.2,0-0.3,0-0.5c0-0.1,0-0.1,0-0.2c0,0,0-0.1,0-0.2v-0.2c0-0.1,0-0.2,0.1-0.2
		c0-0.2,0-0.4,0-0.6s0-0.4,0-0.6c0-0.2,0-0.4,0-0.6c0-0.2,0-0.4,0-0.6c-0.1-0.2-0.1-0.4,0-0.6c0-0.2,0-0.4,0-0.6c0-0.4,0-0.7,0-1.1
		c0-0.1,0-0.2,0-0.4s0-0.3,0-0.5c0-0.2,0-0.3,0-0.5c0-0.2,0.1-0.2,0.1-0.3c-0.1,0-0.1-0.1-0.1-0.2c0-0.1,0-0.2-0.1-0.2
		c-0.1,0-0.1,0.1-0.1,0.1c0,0.1-0.1,0-0.1-0.1c-0.1,0.1-0.1,0.1,0,0.1c0,0,0.1,0.1,0.1,0.1c0,0.1-0.1,0.3-0.1,0.4
		c0,0.1,0,0.2-0.1,0.3c-0.1,0.2-0.1,0.4-0.1,0.6c0,0.2-0.1,0.4-0.1,0.6c-0.1,0.2-0.1,0.4-0.1,0.6c0,0.2-0.1,0.4-0.1,0.6
		c0,0.2-0.1,0.4-0.2,0.6c-0.1,0.2-0.1,0.4,0,0.6c0.1,0.1,0,0.2,0,0.3c-0.1,0.1-0.2,0.2-0.2,0.3c-0.1,0.2-0.1,0.3,0,0.3
		c0.1,0,0.1,0.1,0.1,0.3c-0.1,0.1-0.1,0.3-0.1,0.4c0,0.2,0,0.3-0.1,0.5c-0.1,0.2-0.1,0.4-0.1,0.5c0,0.1,0,0.1,0,0.1c0,0-0.1,0-0.1,0
		c0.1,0.1,0.2,0.3,0.1,0.4c-0.1,0.1-0.1,0.3-0.1,0.4c-0.1-0.1-0.1-0.2-0.2-0.3c0-0.1-0.1-0.2-0.1-0.3c-0.1,0.1-0.1,0.2,0,0.3
		c0,0.1,0.1,0.2,0.1,0.3c0.1,0.1,0.1,0.2,0.1,0.3c0,0.1,0,0.3-0.1,0.4c-0.1,0.1-0.1,0.3-0.1,0.4c0,0.1,0,0.3-0.1,0.4
		c-0.1,0.1-0.1,0.3-0.1,0.4c0,0.2,0,0.3-0.1,0.5c-0.1,0.2-0.1,0.4-0.1,0.6c0,0.2-0.1,0.4-0.1,0.6c0,0.1,0,0.2-0.1,0.2
		s-0.1,0.1-0.1,0.2c0.1,0.1,0.1,0.2,0.1,0.4c0,0.1,0,0.3-0.1,0.4c-0.1,0-0.1,0.1,0,0.2c0,0.1,0,0.2,0,0.2c-0.1,0.2-0.1,0.3-0.1,0.5
		c0,0.2,0,0.3-0.1,0.5c-0.1,0.1-0.1,0.3-0.1,0.4c0,0.1,0,0.3-0.1,0.4c-0.1,0.1-0.1,0.3-0.1,0.4c0,0.1,0,0.3-0.1,0.5
		c0,0.1-0.1,0.3-0.1,0.4c0,0.1-0.1,0.3-0.2,0.4c-0.1,0.1-0.1,0.1,0,0.2c0,0,0,0.1,0,0.2c-0.1,0-0.2,0.1-0.3,0.1s-0.2,0-0.3,0.1
		c-0.1,0-0.3,0.1-0.6,0.1c-0.2,0-0.4,0-0.6,0c-0.2-0.1-0.3-0.1-0.5,0c-0.2,0.1-0.4,0.1-0.6,0.1c-0.3,0-0.6-0.2-0.7-0.5
		c-0.1-0.1-0.1-0.3-0.2-0.5c-0.1-0.1-0.1-0.2,0-0.3c0-0.1,0-0.2,0-0.3c-0.1-0.3-0.2-0.6-0.2-1c0-0.3,0-0.7-0.1-1
		c0-0.1-0.1-0.1-0.1-0.2c0-0.1-0.1-0.1,0-0.2c0-0.2,0-0.3,0-0.5c-0.1-0.2-0.1-0.3-0.2-0.5c-0.1-0.2-0.1-0.4,0-0.5
		c-0.1-0.1-0.2-0.2-0.2-0.4c0-0.1,0-0.3,0-0.4c0-0.1-0.1-0.3-0.1-0.4c0-0.1-0.1-0.2-0.1-0.4c-0.1-0.2-0.1-0.3-0.1-0.5
		c0-0.2,0-0.4,0-0.6c-0.1-0.2-0.1-0.3-0.1-0.5c0-0.2-0.1-0.3-0.1-0.5c-0.1-0.3-0.1-0.6-0.2-0.9c0-0.3-0.1-0.6-0.1-0.9
		c-0.1-0.4-0.1-0.8-0.2-1.1c-0.1-0.4-0.1-0.8-0.1-1.1c0-0.2-0.1-0.4-0.1-0.6c-0.1-0.2-0.1-0.3-0.2-0.5c-0.1-0.2-0.1-0.4-0.1-0.5
		c0-0.2,0-0.3-0.1-0.5c-0.1-0.3-0.2-0.6-0.2-0.9c0-0.3-0.1-0.6-0.3-0.8c-0.1,0.1-0.2,0.2-0.2,0.5c0,0.2,0,0.4,0,0.6
		c0.1,0.2,0.1,0.5,0.1,0.8c0,0.3-0.1,0.5-0.4,0.6c0,0.1,0,0.1,0.1,0.1h0.1c0.1,0,0.1,0,0.1,0.1c0,0.1,0,0.1,0,0.2c0,0.1,0,0.3,0,0.4
		c0,0.1,0,0.3,0,0.4c0,0.1,0,0.3,0.1,0.4c-0.1,0.1-0.1,0.1-0.1,0.2c0,0.1,0,0.2,0,0.2c0,0.1,0,0.3-0.1,0.4c0,0.1,0,0.3,0,0.5
		c0,0.1,0,0.1,0,0.2c0,0.1,0,0.1,0,0.2c0,0.1,0,0.2-0.1,0.3c0,0.1,0,0.2,0,0.3c0,0.2,0,0.3,0.1,0.5c0,0.1-0.1,0.1-0.1,0.2
		c0,0.1,0,0.1,0,0.2c0,0.1,0,0.1-0.1,0.1c0,0-0.1,0.1-0.1,0.1c0.1,0.1,0.1,0.2,0.1,0.4v0.5c0,0.2,0,0.2,0,0.2c0,0,0,0.1-0.1,0.2
		c0.1,0.1,0.2,0.2,0.2,0.3c0,0.2,0,0.3,0,0.5c0,0.2,0,0.4,0,0.6s0,0.3,0,0.4c0,0.4,0,0.7,0.1,1.1c0,0.4,0,0.7-0.1,1.1
		c0,0.1,0,0.1,0,0.2c0,0.1,0,0.1,0.1,0.2c0,0.1,0,0.2-0.1,0.3c0,0.1,0,0.2-0.1,0.3c0,0.1,0,0.3,0,0.4c0,0.1,0,0.3,0.1,0.4
		c0,0.2,0,0.3,0,0.5c0,0.2,0,0.3,0,0.5v0.6c0,0.2,0,0.4-0.1,0.6c-0.1,0.3-0.3,0.5-0.6,0.5c-0.3,0-0.6,0-0.8,0c-0.2,0-0.4,0-0.5,0
		c-0.2,0-0.3,0-0.5,0c-0.2,0-0.4,0-0.6,0c-0.2,0-0.4-0.1-0.6,0c-0.2,0-0.5,0-0.7-0.1c-0.2-0.1-0.4-0.3-0.4-0.5
		c-0.1-0.1-0.1-0.3-0.1-0.5c0-0.1,0-0.2,0.1-0.2c0,0,0-0.1,0-0.2c0-0.1-0.1-0.1-0.1-0.2c0-0.1,0-0.1,0-0.2c0.1-0.1,0.1-0.2,0-0.3
		c0-0.1,0-0.2,0-0.3c-0.1-0.4-0.1-0.8,0-1.2c0-0.4,0.1-0.8,0.1-1.2c0-0.4,0-0.8-0.1-1.3c0-0.4,0-0.8,0-1.3c0-0.3,0-0.6,0-0.9
		c0-0.3,0-0.6,0-0.9c0-0.2,0-0.4,0-0.6c0-0.2,0-0.4,0.1-0.5c0.1-0.2,0.1-0.4,0-0.6c0-0.2-0.1-0.5-0.1-0.7c0-0.4,0-0.8,0-1.2
		c0-0.4,0-0.8-0.1-1.2c0-0.2,0-0.4,0-0.6c0-0.2,0.1-0.4,0.1-0.6c0-0.2,0-0.5,0-0.7c0-0.2,0-0.5,0-0.7c0-0.2,0-0.4,0-0.5
		c0-0.2,0-0.3,0-0.5c0-0.2,0-0.3-0.1-0.5c-0.1-0.2-0.1-0.3,0-0.5c0.1-0.3,0.2-0.7,0.1-1.1c-0.1-0.4-0.1-0.7-0.1-1.1
		c0-0.2,0-0.3,0-0.5c0.1-0.2,0-0.4-0.1-0.5c0-0.2,0.1-0.3,0.1-0.5c0-0.2,0-0.4,0-0.5c0.1-0.2,0.1-0.3,0-0.5c0-0.2,0-0.3,0-0.5
		c0-0.2,0-0.4,0-0.6c0-0.2,0-0.4,0-0.6v-0.3c0-0.1,0-0.2,0-0.3c0-0.1,0-0.1,0-0.2c0-0.1,0-0.1,0-0.2v-0.5c0-0.2,0-0.4,0-0.5
		c0-0.2,0-0.3-0.1-0.5c0-0.2,0-0.3,0.1-0.5c0.1-0.2,0.1-0.3,0-0.5c-0.1-0.2-0.1-0.3,0-0.5c0-0.2,0-0.3,0.1-0.5
		c0.1-0.2,0.2-0.3,0.3-0.4c0.1-0.1,0.3-0.2,0.5-0.1c0.2,0.1,0.3,0.1,0.5,0.1c0.3,0,0.7-0.1,1-0.1c0.3,0,0.7,0,1,0c0.3,0,0.7,0,1,0
		c0.3,0,0.7,0,1-0.1c0.2,0,0.3,0,0.5,0c0.2,0,0.3,0,0.5,0c0.1,0,0.1,0,0.2,0c0.1,0,0.1,0.1,0.2,0.1c0.1,0,0.1,0,0.1,0
		c-0.1,0-0.1,0,0,0.1c0.1,0.1,0.2,0.1,0.3,0.2c0.1,0,0.1,0.1,0.1,0.3c0,0.1,0.1,0.2,0.1,0.2c0,0.1,0.1,0.1,0.1,0.2
		c0,0.1,0,0.2,0,0.2c0,0.1,0,0.2,0.1,0.3c0.1,0.3,0.2,0.6,0.2,0.9c0,0.3,0.1,0.7,0.1,1c0,0.2,0.1,0.5,0.1,0.9c0,0.3,0.2,0.6,0.4,0.8
		c0,0.4,0,0.7,0.1,1.1c0.1,0.2,0,0.3,0,0.4c0.1,0.1,0.1,0.3,0.2,0.4c0.1,0.3,0.2,0.7,0.2,1c0,0.4,0.1,0.7,0.2,1
		c0.1,0.2,0.1,0.3,0.1,0.5c0,0.2,0,0.3,0,0.5c0,0.2,0,0.4,0.1,0.5c0.1,0.1,0.1,0.3,0.1,0.5c0,0.1,0,0.1-0.1,0.2c0,0,0,0.1,0.1,0.1
		c0,0,0.1,0.1,0.1,0.2c0,0.1,0,0.1,0,0.2c0,0.2,0,0.3,0.1,0.5c0,0.2,0.1,0.3,0.1,0.5c0,0.1,0,0.1,0,0.2c0,0,0,0.1,0,0.2
		c0.1,0.1,0.1,0.2,0.1,0.3c0,0.1,0,0.1,0,0.2c0,0.1,0,0.1,0,0.2c0.1,0.1,0.1,0.2,0.1,0.2c-0.1,0-0.1,0.1-0.1,0.1
		c0.1,0.1,0.1,0.1,0.1,0.1s0,0.1,0,0.2c0,0.1-0.1,0.2,0,0.3c0,0.1,0.1,0.2,0.2,0.3c0.1,0.1,0.2,0.3,0.1,0.5c0.2,0.2,0.3,0.2,0.5,0
		c0-0.1,0-0.2,0.1-0.2c0-0.1,0-0.1,0.1-0.2c0.1-0.1,0.1-0.2,0.1-0.3c0-0.1,0-0.3,0.1-0.4c0-0.1,0-0.2,0-0.3c0-0.1,0-0.2,0-0.3
		c0.1-0.1,0.1-0.2,0.1-0.4c0-0.1,0-0.2,0.1-0.3c0-0.1,0.1-0.1,0.1-0.2c0-0.1,0-0.2,0-0.3c0-0.1,0-0.2,0-0.4c0-0.1,0.1-0.2,0.1-0.3
		c-0.1-0.2-0.1-0.5,0-0.7c0.1-0.2,0.2-0.5,0.3-0.7c0,0,0-0.1,0-0.2c0-0.1,0-0.3,0.1-0.4c0-0.1,0.1-0.2,0.1-0.3
		c0.1-0.1,0.1-0.1,0.2,0.1c0.1,0.1,0.1,0.1,0.1,0.1s0-0.1,0-0.1c-0.1,0-0.1-0.1-0.1-0.2c0-0.1-0.1-0.1-0.1-0.1
		c0.1,0,0.1-0.2,0.1-0.3c0,0,0,0,0,0c-0.1-0.1-0.1-0.2,0-0.2c0.1-0.1,0.1-0.1,0.1-0.2c-0.1-0.2-0.1-0.4,0-0.5
		c0.1-0.2,0.1-0.4,0.1-0.6c0-0.2,0-0.4,0.1-0.6c0.1-0.2,0.1-0.4,0.1-0.6c0.2-0.4,0.3-0.9,0.2-1.4c0.1-0.1,0.2-0.3,0.2-0.4
		c0-0.2,0-0.3,0-0.5v-0.2c0-0.1,0-0.2,0.1-0.2l0.1-0.1c0,0,0-0.1,0-0.1c-0.1-0.1-0.1-0.4,0-0.5c0.1-0.2,0.1-0.3,0.2-0.5v-0.2
		c0-0.1,0-0.2,0-0.3c0-0.2,0.1-0.3,0.1-0.5c0.1,0.1,0.1,0.1,0.1,0.1c0-0.1,0-0.1,0-0.1c0-0.1,0-0.1,0-0.2c0-0.1,0-0.2,0-0.2
		c0-0.1,0-0.2,0-0.2c0.1-0.2,0.1-0.3,0.2-0.5c0.1-0.2,0.3-0.3,0.5-0.3c0.5-0.1,1.1-0.1,1.6,0c0.5,0,1,0.1,1.6,0.1h1.5
		c0.3,0,0.5,0,0.8-0.1c0.2-0.1,0.5,0,0.7,0.1c0.2,0.1,0.3,0.4,0.3,0.6c0,0.2,0,0.5,0,0.7c-0.1,0.6-0.1,1.2,0,1.8
		c0.1,0.5,0,0.9,0,1.4c0,0.1,0,0.2,0,0.3c0,0.1,0,0.2,0,0.3c0,0.1,0,0.1,0,0.2c0,0.1,0,0.1,0,0.2c0,0.1,0,0.1,0,0.1
		c-0.1,0-0.1,0-0.1,0.1c0.1,0.2,0.1,0.4,0.1,0.7c0,0.2,0,0.5,0,0.7v0.7c0,0.1,0,0.2,0,0.3c0,0.1,0,0.1,0,0.2c0,0.1,0,0.1,0,0.2
		c0,0.1,0,0.1,0,0.2c0,0.1,0,0.2,0,0.2c-0.1,0.1-0.1,0.2,0,0.3c0,0.1,0.1,0.2,0.1,0.3v0.3c0,0.1,0,0.2-0.1,0.3c0,0.1,0,0.3,0,0.4
		c0,0.1,0,0.3-0.1,0.4c0,0.1,0,0.1,0,0.2c0,0.1,0.1,0.1,0.1,0.2c0,0.1,0,0.2,0,0.3c0,0.1,0,0.2,0,0.3c0,0.1,0,0.1-0.1,0.2
		c0,0,0,0.1,0.1,0.2c0.1,0.1,0.1,0.2,0,0.2c-0.1,0.1-0.1,0.1-0.1,0.2c0.1,0.1,0.2,0.3,0.2,0.5c0,0.2,0,0.3-0.1,0.5
		c0,0.2,0,0.3,0,0.5c0.1,0.1,0.1,0.3,0,0.5c-0.1,0.2-0.1,0.3-0.1,0.5c0,0.2,0,0.3,0.1,0.5c0,0.2,0,0.4,0,0.6c0,0.2,0,0.4,0,0.6
		c0,0.1,0.1,0.2,0.1,0.2c0,0.1,0,0.2,0,0.2c0,0.2-0.1,0.4-0.1,0.5c0,0.1,0,0.1,0,0.2c0,0.1,0,0.2,0,0.2c0,0.1,0,0.3,0,0.4
		c0,0.4,0.1,0.8,0.1,1.1c0,0.3,0,0.7,0,1.1c0,0.2,0,0.4,0,0.6C-3806.1-8639.4-3806.1-8639.2-3806.1-8639z"/>
	<path id="Path_64" d="M-3781.8-8639c0,0.2,0,0.4,0.1,0.6c0,0.2,0,0.3,0,0.5c-0.1,0.1-0.1,0.3-0.1,0.4c0,0.1,0.1,0.3,0,0.4
		c0,0.2,0,0.4,0,0.6c0,0.2,0,0.4,0,0.6c-0.1,0.2-0.1,0.4,0,0.6c0.1,0.2,0.1,0.4,0.1,0.6c0,0.1,0,0.2,0,0.2c0,0,0,0.1,0,0.2
		c0,0.1,0,0.2,0,0.3c0,0.1,0,0.2,0,0.3c0,0.2,0,0.4,0,0.6c0,0.2,0,0.4,0,0.6c0,0.2,0,0.4-0.1,0.6c-0.1,0.2-0.1,0.2-0.2,0.2
		c-0.1,0-0.1,0.1-0.2,0.2c-0.2,0-0.4,0-0.6,0c-0.2,0-0.4,0-0.6,0c-0.2,0-0.3-0.1-0.5-0.1c-0.1,0-0.2,0-0.2,0c-0.1,0-0.2,0-0.2,0
		c-0.2,0-0.4,0-0.5,0c-0.2,0-0.3,0-0.5-0.1c-0.2,0-0.5,0-0.6,0c-0.2,0-0.4-0.1-0.5-0.3c-0.1-0.1-0.2-0.3-0.2-0.5c0-0.1,0-0.3,0-0.5
		c0-0.2,0-0.4,0-0.6c0-0.2,0-0.4,0-0.6c0-0.2,0-0.4,0-0.5s0-0.3,0-0.5c0-0.2,0-0.4,0-0.6c0-0.2,0-0.3,0-0.5c0-0.7,0-1.4,0-2.1
		c0-0.7,0-1.4-0.1-2.1c0-0.1,0-0.3,0-0.4c0-0.2,0-0.3,0-0.5c0-0.1,0-0.1,0-0.2c0,0,0-0.1,0-0.2v-0.2c0-0.1,0-0.2,0.1-0.2
		c0-0.2,0-0.4,0-0.6c0-0.2,0-0.4,0-0.6c0-0.2,0-0.4,0-0.6c0-0.2,0-0.4,0-0.6c-0.1-0.2-0.1-0.4,0-0.6c0-0.2,0-0.4,0-0.6
		c0-0.4,0-0.7,0-1.1c0-0.1,0-0.2,0-0.4s0-0.3,0-0.5c0-0.2,0-0.3,0-0.5c0-0.2,0.1-0.2,0.1-0.3c-0.1-0.1-0.1-0.1-0.1-0.2
		c0-0.1,0-0.2-0.1-0.2c-0.1,0-0.1,0.1-0.1,0.1c0,0.1-0.1,0-0.1-0.1c-0.1,0.1-0.1,0.1,0,0.1c0,0,0.1,0.1,0.1,0.1
		c0,0.1-0.1,0.3-0.1,0.4c0,0.1,0,0.2-0.1,0.3c-0.1,0.2-0.1,0.4-0.1,0.6c0,0.2-0.1,0.4-0.1,0.6c-0.1,0.2-0.1,0.4-0.1,0.6
		c0,0.2-0.1,0.4-0.1,0.6c0,0.2-0.1,0.4-0.2,0.6c-0.1,0.2-0.1,0.4,0,0.6c0.1,0.1,0,0.2,0,0.3c-0.1,0.1-0.2,0.2-0.2,0.3
		c-0.1,0.2-0.1,0.3,0,0.3s0.1,0.1,0.1,0.3c-0.1,0.1-0.1,0.3-0.1,0.4c0,0.2,0,0.3-0.1,0.5c-0.1,0.2-0.1,0.4-0.1,0.5
		c0,0.1,0,0.1,0,0.1c0,0-0.1,0-0.1,0c0.1,0.1,0.2,0.3,0.1,0.4c-0.1,0.1-0.1,0.3-0.1,0.4c-0.1-0.1-0.1-0.2-0.2-0.3
		c0-0.1-0.1-0.2-0.1-0.3c-0.1,0.1-0.1,0.2,0,0.3c0,0.1,0.1,0.2,0.1,0.3c0.1,0.1,0.1,0.2,0.1,0.3c0,0.1,0,0.3-0.1,0.4
		c-0.1,0.1-0.1,0.3-0.1,0.4c0,0.1,0,0.3-0.1,0.4c-0.1,0.1-0.1,0.3-0.1,0.4c0,0.2,0,0.3-0.1,0.5c-0.1,0.2-0.1,0.4-0.1,0.6
		c0,0.2-0.1,0.4-0.1,0.6c0,0.1,0,0.2-0.1,0.2s-0.1,0.1-0.1,0.2c0.1,0.1,0.1,0.2,0.1,0.4c0,0.1,0,0.3-0.1,0.4c-0.1,0-0.1,0.1,0,0.2
		c0,0.1,0,0.2,0,0.2c-0.1,0.2-0.1,0.3-0.1,0.5c0,0.2,0,0.3-0.1,0.5c-0.1,0.1-0.1,0.3-0.1,0.4c0,0.1,0,0.3-0.1,0.4
		c-0.1,0.1-0.1,0.3-0.1,0.4c0,0.1,0,0.3-0.1,0.5c0,0.1-0.1,0.3-0.1,0.4c0,0.1-0.1,0.3-0.2,0.4c-0.1,0.1-0.1,0.1,0,0.2
		c0,0,0,0.1,0,0.2c-0.1,0-0.2,0.1-0.3,0.1s-0.2,0-0.3,0.1c-0.1,0-0.3,0.1-0.6,0.1c-0.2,0-0.4,0-0.6,0c-0.2-0.1-0.3-0.1-0.5,0
		c-0.2,0.1-0.4,0.1-0.6,0.1c-0.3,0-0.6-0.2-0.7-0.5c-0.1-0.1-0.1-0.3-0.2-0.5c-0.1-0.1-0.1-0.2,0-0.3c0-0.1,0-0.2,0-0.3
		c-0.1-0.3-0.2-0.6-0.2-1c0-0.3,0-0.7-0.1-1c0-0.1-0.1-0.1-0.1-0.2c0-0.1-0.1-0.1,0-0.2c0-0.2,0-0.3,0-0.5c-0.1-0.2-0.1-0.3-0.2-0.5
		c-0.1-0.2-0.1-0.4,0-0.5c-0.1-0.1-0.2-0.2-0.2-0.4c0-0.1,0-0.3,0-0.4c0-0.1-0.1-0.3-0.1-0.4c0-0.1-0.1-0.2-0.1-0.4
		c-0.1-0.2-0.1-0.3-0.1-0.5c0-0.2,0-0.4,0-0.6c-0.1-0.2-0.1-0.3-0.1-0.5c0-0.2-0.1-0.3-0.1-0.5c-0.1-0.3-0.1-0.6-0.2-0.9
		c0-0.3-0.1-0.6-0.1-0.9c-0.1-0.4-0.1-0.8-0.2-1.1c-0.1-0.4-0.1-0.8-0.1-1.1c0-0.2-0.1-0.4-0.1-0.6c-0.1-0.2-0.1-0.3-0.2-0.5
		c-0.1-0.2-0.1-0.4-0.1-0.5c0-0.2,0-0.3-0.1-0.5c-0.1-0.3-0.2-0.6-0.2-0.9c0-0.3-0.1-0.6-0.3-0.8c-0.1,0.1-0.2,0.2-0.2,0.5
		c0,0.2,0,0.4,0,0.6c0.1,0.2,0.1,0.5,0.1,0.8c0,0.3-0.1,0.5-0.4,0.6c0,0.1,0,0.1,0.1,0.1h0.1c0.1,0,0.1,0,0.1,0.1c0,0.1,0,0.1,0,0.2
		c0,0.1,0,0.3,0,0.4c0,0.1,0,0.3,0,0.4c0,0.1,0,0.3,0.1,0.4c-0.1,0.1-0.1,0.1-0.1,0.2c0,0.1,0,0.2,0,0.2c0,0.1,0,0.3-0.1,0.4
		c0,0.1,0,0.3,0,0.5c0,0.1,0,0.1,0,0.2c0,0.1,0,0.1,0,0.2c0,0.1-0.1,0.2-0.1,0.3c0,0.1,0,0.2,0,0.3c0,0.2,0,0.3,0.1,0.5
		c0,0.1-0.1,0.1-0.1,0.2c0,0.1,0,0.1,0,0.2c0,0.1,0,0.1-0.1,0.1c0,0-0.1,0.1-0.1,0.1c0.1,0.1,0.1,0.2,0.1,0.4v0.5c0,0.2,0,0.2,0,0.2
		c0,0-0.1,0.1-0.1,0.2c0.1,0.1,0.2,0.2,0.2,0.3c0,0.2,0,0.3,0,0.5c0,0.2,0,0.4,0,0.6c0,0.2,0,0.3,0,0.4c0,0.4,0,0.7,0.1,1.1
		c0,0.4,0,0.7-0.1,1.1c0,0.1,0,0.1,0,0.2c0,0.1,0,0.1,0.1,0.2c0,0.1,0,0.2-0.1,0.3s0,0.2-0.1,0.3c0,0.1,0,0.3,0,0.4
		c0,0.1,0,0.3,0.1,0.4c0,0.2,0,0.3,0,0.5c0,0.2,0,0.3,0,0.5v0.6c0,0.2,0,0.4-0.1,0.6c-0.1,0.3-0.3,0.5-0.6,0.5c-0.3,0-0.6,0-0.8,0
		c-0.2,0-0.4,0-0.5,0c-0.2,0-0.3,0-0.5,0c-0.2,0-0.4,0-0.6,0c-0.2,0-0.4-0.1-0.6,0c-0.2,0-0.5,0-0.7-0.1c-0.2-0.1-0.4-0.3-0.4-0.5
		c-0.1-0.1-0.1-0.3-0.1-0.5c0-0.1,0-0.2,0.1-0.2c0,0,0-0.1,0-0.2c0-0.1-0.1-0.1-0.1-0.2c0-0.1,0-0.1,0-0.2c0.1-0.1,0.1-0.2,0-0.3
		c0-0.1,0-0.2,0-0.3c-0.1-0.4-0.1-0.8,0-1.2c0-0.4,0.1-0.8,0.1-1.2c0-0.4-0.1-0.8-0.1-1.3c0-0.4,0-0.8,0-1.3c0-0.3,0-0.6,0-0.9
		s0-0.6,0-0.9c0-0.2,0-0.4,0-0.6c0-0.2,0-0.4,0.1-0.5c0.1-0.2,0.1-0.4,0-0.6c0-0.2-0.1-0.5-0.1-0.7c0-0.4,0-0.8,0-1.2
		c0-0.4,0-0.8-0.1-1.2c0-0.2,0-0.4,0-0.6c0-0.2,0.1-0.4,0.1-0.6c0-0.2,0-0.5,0-0.7s0-0.5,0-0.7c0-0.2,0-0.4,0-0.5c0-0.2,0-0.3,0-0.5
		c0-0.2,0-0.3-0.1-0.5c-0.1-0.2-0.1-0.3,0-0.5c0.1-0.3,0.2-0.7,0.1-1.1c-0.1-0.4-0.1-0.7-0.1-1.1c0-0.2,0-0.3,0-0.5
		c0.1-0.2,0-0.4-0.1-0.5c0-0.2,0.1-0.3,0.1-0.5c0-0.2,0-0.4,0-0.5c0.1-0.2,0.1-0.3,0-0.5c0-0.2,0-0.3,0-0.5c0-0.2,0-0.4,0-0.6
		c0-0.2,0-0.4,0-0.6v-0.3c0-0.1,0-0.2,0-0.3c0-0.1,0-0.1,0-0.2c0-0.1,0-0.1,0-0.2v-0.5c0-0.2,0-0.4,0-0.5c0-0.2,0-0.3-0.1-0.5
		c0-0.2,0-0.3,0.1-0.5c0.1-0.2,0.1-0.3,0-0.5c-0.1-0.2-0.1-0.3,0-0.5c0-0.2,0-0.3,0.1-0.5c0.1-0.2,0.2-0.3,0.3-0.4
		c0.1-0.1,0.3-0.2,0.5-0.1c0.2,0.1,0.3,0.1,0.5,0.1c0.3,0,0.7-0.1,1-0.1c0.3,0,0.7,0,1,0c0.3,0,0.7,0,1,0c0.3,0,0.7,0,1-0.1
		c0.2,0,0.3,0,0.5,0c0.2,0,0.3,0,0.5,0c0.1,0,0.1,0,0.2,0c0.1,0,0.1,0.1,0.2,0.1c0.1,0,0.1,0,0.1,0c-0.1,0-0.1,0,0,0.1
		c0.1,0.1,0.2,0.1,0.3,0.2c0.1,0,0.1,0.1,0.1,0.3c0,0.1,0.1,0.2,0.1,0.2c0,0.1,0.1,0.1,0.1,0.2c0,0.1,0,0.2,0,0.2
		c0,0.1,0,0.2,0.1,0.3c0.1,0.3,0.2,0.6,0.2,0.9c0,0.3,0.1,0.7,0.1,1c0,0.2,0.1,0.5,0.1,0.9c0,0.3,0.2,0.6,0.4,0.8
		c0,0.4,0,0.7,0.1,1.1c0.1,0.2,0,0.3,0,0.4c0.1,0.1,0.1,0.3,0.2,0.4c0.1,0.3,0.2,0.7,0.2,1c0,0.4,0.1,0.7,0.2,1
		c0.1,0.2,0.1,0.3,0.1,0.5c0,0.2,0,0.3,0,0.5c0,0.2,0,0.4,0.1,0.5c0.1,0.1,0.1,0.3,0.1,0.5c0,0.1,0,0.1-0.1,0.2c0,0,0,0.1,0.1,0.1
		c0,0,0.1,0.1,0.1,0.2c0,0.1,0,0.1,0,0.2c0,0.2,0,0.3,0.1,0.5c0,0.2,0.1,0.3,0.1,0.5c0,0.1,0,0.1,0,0.2c0,0,0,0.1,0,0.2
		c0.1,0.1,0.1,0.2,0.1,0.3c0,0.1,0,0.2,0,0.2c0,0.1,0,0.1,0,0.2c0.1,0.1,0.1,0.2,0.1,0.2c-0.1,0-0.1,0.1-0.1,0.1
		c0.1,0.1,0.1,0.1,0.1,0.1s0,0.1,0,0.2c0,0.1-0.1,0.2,0,0.3c0,0.1,0.1,0.2,0.2,0.3c0.1,0.1,0.2,0.3,0.1,0.5c0.2,0.2,0.3,0.2,0.5,0
		c0-0.1,0-0.2,0.1-0.2c0-0.1,0-0.1,0.1-0.2c0.1-0.1,0.1-0.2,0.1-0.3c0-0.1,0-0.3,0.1-0.4c0-0.1,0-0.2,0-0.3c0-0.1,0-0.2,0-0.3
		c0.1-0.1,0.1-0.2,0.1-0.4c0-0.1,0-0.2,0.1-0.3c0-0.1,0.1-0.1,0.1-0.2c0-0.1,0-0.2,0-0.3c0-0.1,0-0.2,0-0.4c0-0.1,0.1-0.2,0.1-0.3
		c-0.1-0.2-0.1-0.5,0-0.7c0.1-0.2,0.2-0.5,0.3-0.7c0,0,0-0.1,0-0.2c0-0.1,0-0.3,0.1-0.4c0-0.1,0.1-0.2,0.1-0.3
		c0.1-0.1,0.1-0.1,0.2,0.1c0.1,0.1,0.1,0.1,0.1,0.1s0-0.1,0-0.1c-0.1,0-0.1-0.1-0.1-0.2c0-0.1-0.1-0.1-0.1-0.1
		c0.1,0,0.1-0.2,0.1-0.3c0,0,0,0,0,0c-0.1-0.1-0.1-0.2,0-0.2c0.1-0.1,0.1-0.1,0.1-0.2c-0.1-0.2-0.1-0.4,0-0.5
		c0.1-0.2,0.1-0.4,0.1-0.6c0-0.2,0-0.4,0.1-0.6c0.1-0.2,0.1-0.4,0.1-0.6c0.2-0.4,0.3-0.9,0.2-1.4c0.1-0.1,0.2-0.3,0.2-0.4
		c0-0.2,0-0.3,0-0.5v-0.2c0-0.1,0-0.2,0.1-0.2l0.1-0.1c0,0,0-0.1,0-0.1c-0.1-0.1-0.1-0.4,0-0.5c0.1-0.2,0.1-0.3,0.2-0.5v-0.2
		c0-0.1,0-0.2,0-0.3c0-0.2,0.1-0.3,0.1-0.5c0.1,0.1,0.1,0.1,0.1,0.1c0-0.1,0-0.1,0-0.1c0-0.1,0-0.1,0-0.2c0-0.1,0-0.2,0-0.2
		c0-0.1,0-0.2,0-0.2c0.1-0.2,0.1-0.3,0.2-0.5c0.1-0.2,0.3-0.3,0.5-0.3c0.5-0.1,1.1-0.1,1.6,0c0.5,0,1,0.1,1.6,0.1h1.5
		c0.3,0,0.5,0,0.8-0.1c0.2-0.1,0.5,0,0.7,0.1c0.2,0.1,0.3,0.4,0.3,0.6c0,0.2,0,0.5,0,0.7c-0.1,0.6-0.1,1.2,0,1.8
		c0.1,0.5,0,0.9,0,1.4c0,0.1,0,0.2,0,0.3c0,0.1,0,0.2,0,0.3c0,0.1,0,0.1,0,0.2c0,0.1,0,0.1,0,0.2c0,0.1,0,0.1,0,0.1
		c-0.1,0-0.1,0-0.1,0.1c0.1,0.2,0.1,0.4,0.1,0.7c0,0.2,0,0.5,0,0.7v0.7c0,0.1,0,0.2,0,0.3c0,0.1,0,0.1,0,0.2c0,0.1,0,0.1,0,0.2
		c0,0.1,0,0.1,0,0.2c0,0.1,0,0.2,0,0.2c-0.1,0.1-0.1,0.2,0,0.3c0,0.1,0.1,0.2,0.1,0.3v0.3c0,0.1,0,0.2-0.1,0.3c0,0.1,0,0.3,0,0.4
		c0,0.1,0,0.3-0.1,0.4c0,0.1,0,0.1,0,0.2c0,0.1,0.1,0.1,0.1,0.2c0,0.1,0,0.2,0,0.3c0,0.1,0,0.2,0,0.3c0,0.1,0,0.1-0.1,0.2
		c0,0,0,0.1,0.1,0.2c0.1,0.1,0.1,0.2,0,0.2c-0.1,0.1-0.1,0.1-0.1,0.2c0.1,0.1,0.2,0.3,0.2,0.5c0,0.2,0,0.3-0.1,0.5
		c0,0.2,0,0.3,0,0.5c0.1,0.1,0.1,0.3,0,0.5c-0.1,0.2-0.1,0.3-0.1,0.5c0,0.2,0,0.3,0.1,0.5c0,0.2,0,0.4,0,0.6c0,0.2,0,0.4,0,0.6
		c0,0.1,0.1,0.2,0.1,0.2c0,0.1,0,0.2,0,0.2c0,0.2-0.1,0.4-0.1,0.5c0,0.1,0,0.1,0,0.2c0,0.1,0,0.2,0,0.2c0,0.1,0,0.3,0,0.4
		c0,0.4,0.1,0.8,0.1,1.1c0,0.3,0,0.7,0,1.1c0,0.2,0,0.4,0,0.6C-3781.8-8639.4-3781.8-8639.2-3781.8-8639z"/>
	<path id="Path_65" d="M-3762.8-8652.1C-3762.8-8652.1-3762.8-8652.1-3762.8-8652.1c-0.1,0.2-0.1,0.3-0.1,0.4c0,0.1,0,0.2,0,0.3
		c0,0.1,0,0.2,0,0.4c0,0.1,0,0.3-0.1,0.4c0.1,0.1,0.1,0.2,0.1,0.3c0,0.1,0,0.2-0.1,0.4c-0.1,0.1-0.1,0.1,0,0.2
		c0,0.1,0.1,0.2,0.1,0.3c0,0.2,0,0.3-0.1,0.2c-0.1-0.1-0.2,0-0.2,0.1c0,0.1,0.1,0.1,0.2,0.1c0.1,0,0.2,0.1,0.1,0.2
		c-0.1,0.1-0.1,0.2-0.1,0.2c0,0,0.1,0,0.1,0c0,0,0.1,0,0.1,0.1c0,0.2,0,0.4,0,0.6v0.6c0,0.2,0,0.4,0,0.6v1.3c0,0.4,0,0.8,0,1.3
		c0,0.2,0,0.4,0,0.6s0,0.4,0.1,0.6c0,0.2,0,0.4-0.1,0.6c0,0.2,0,0.4,0,0.6c0.1,0.1,0.1,0.2,0,0.2c0,0-0.1,0.1-0.1,0.1
		c0,0.2,0,0.4,0.1,0.5c0,0.1,0,0.2,0,0.2c0,0.1,0,0.2,0,0.2c0,0.2,0,0.5,0,0.7c0,0.2,0,0.4,0,0.6c0,0.2,0,0.4,0,0.6
		c0,0.1,0,0.2,0,0.3c0,0.1,0,0.2,0,0.3c0,0.1,0,0.2-0.1,0.2c0,0.1-0.1,0.1-0.1,0.2c0,0.1,0,0.2,0,0.2c0,0.1,0,0.1,0,0.2
		c0,0.1-0.1,0.2-0.1,0.2c0,0.1-0.1,0.2-0.1,0.2c-0.1,0.2-0.1,0.4-0.1,0.6c0,0.2-0.1,0.4-0.2,0.6c-0.3,0.6-0.6,1.2-1,1.7
		c-0.4,0.5-0.9,1-1.4,1.3c-0.1,0.1-0.3,0.2-0.4,0.2c-0.1,0.1-0.2,0.2-0.4,0.2c-0.1,0-0.1,0-0.2,0c-0.1,0-0.1,0-0.1,0.1
		c0,0.1-0.1,0.1-0.2,0.1c-0.1,0-0.2,0-0.2,0c0,0-0.1,0-0.1,0.1c-0.1,0-0.1,0.1-0.2,0.1c-0.1,0-0.1,0.1-0.2,0c-0.2,0-0.4,0.1-0.6,0.1
		c-0.2,0.1-0.4,0.1-0.6,0.1c-0.2,0-0.4,0-0.5,0.1s-0.4,0.1-0.5,0h-1c-0.3,0-0.7,0-1-0.1c-0.3-0.1-0.6-0.2-0.9-0.2
		c-0.7-0.1-1.4-0.4-2-0.8c-0.6-0.4-1.1-0.9-1.6-1.5c-0.1-0.1-0.3-0.3-0.4-0.5c-0.1-0.2-0.2-0.3-0.2-0.5c-0.1-0.2-0.1-0.3-0.2-0.5
		c0-0.2-0.1-0.3-0.2-0.5c-0.1-0.1-0.1-0.3-0.1-0.4c0-0.1,0-0.3-0.1-0.4c-0.1-0.2-0.1-0.3-0.1-0.5c0-0.2-0.1-0.3,0-0.5
		c0.1-0.1,0.1-0.3,0-0.4c-0.1-0.1-0.1-0.3-0.1-0.4c0-0.1,0-0.2,0-0.4c0-0.1,0-0.2,0-0.4c0,0,0-0.1,0-0.1c0-0.1,0-0.1,0-0.1
		c0-0.1,0-0.2-0.1-0.2c0-0.1-0.1-0.2,0-0.2c0.1-0.1,0.1-0.3,0-0.4c0-0.1,0-0.3,0-0.4c0-0.3,0-0.6,0.1-0.9c0-0.3,0-0.6-0.1-0.8
		c-0.1-0.1-0.1-0.3,0-0.4c0.1-0.1,0.1-0.3,0.1-0.4c0-0.2,0-0.4,0-0.6c0-0.2,0-0.4,0-0.6c0.1-0.4,0.1-0.7,0-1.1c0-0.4,0-0.7,0-1.1v-1
		c0-0.2,0-0.3-0.1-0.5c0-0.1,0-0.3,0-0.4c0.1-0.1,0.1-0.3,0.1-0.4c0-0.1,0-0.3-0.1-0.4v-0.6c0-0.1,0-0.2,0.1-0.2c0-0.1,0-0.2,0-0.2
		c-0.1-0.2-0.1-0.5-0.1-0.7c0.1-0.2,0.1-0.5,0-0.7c0-0.3-0.1-0.6-0.1-0.9c0-0.3,0-0.6,0-0.9c0-0.1,0-0.2,0.1-0.3c0-0.1,0-0.2,0-0.4
		c-0.1-0.1-0.1-0.2,0-0.3c0.1-0.1,0.1-0.2,0-0.4c0-0.1,0-0.2,0-0.4c0-0.1,0-0.3,0-0.4c0-0.2,0-0.3,0-0.5c0-0.2,0-0.4,0-0.5
		c0-0.1,0-0.3,0-0.4v-0.4c0-0.1,0-0.1,0-0.2c0-0.1,0-0.1,0.1-0.2c0-0.1,0-0.2,0-0.3c0-0.1,0-0.2,0-0.3c0-0.1,0-0.3,0-0.4
		c0-0.2,0-0.3,0-0.5c0-0.2-0.1-0.4-0.1-0.6c0-0.2,0-0.4,0-0.6c0-0.1,0.1-0.3,0.1-0.4c0-0.1,0.1-0.2,0.2-0.2c0.2-0.1,0.3-0.1,0.5-0.1
		c0.2,0,0.3,0,0.5,0c0.1,0,0.3,0,0.4,0c0.1,0,0.3,0,0.4,0c0.2,0,0.4,0,0.6,0c0.2,0,0.4,0,0.6,0c0.1,0,0.2,0,0.4,0c0.1,0,0.2,0,0.3,0
		c0.1,0,0.3,0,0.4,0c0.1,0,0.2,0.1,0.3,0.2c0.1,0,0.1-0.1,0.1-0.1c0,0,0-0.1,0-0.1c0.1,0,0.3,0,0.4,0.1c0.2,0.1,0.3,0.3,0.3,0.4
		c0,0.2,0,0.3,0,0.5c0,0.5,0,1,0,1.5c0,0.5,0,1,0,1.5c0,0.1,0,0.2,0,0.3c0,0.1,0,0.2,0,0.4c-0.1,0-0.1,0-0.1,0.1c0,0.1,0,0.1,0,0.2
		c0.1,0.1,0.1,0.2,0.1,0.3c0,0.1-0.1,0.2-0.1,0.3c0,0.1,0,0.2,0,0.3c0.1,0.5,0.1,1,0.1,1.5c0,0.5,0,1-0.1,1.5v0.7c0,0.2,0,0.5,0,0.7
		c0,0.2,0,0.5,0,0.7c0,0.2,0,0.4,0,0.6c0,0.2,0,0.5,0,0.7c0,0.2,0,0.5,0,0.7c0,0.1,0,0.2,0,0.3c0,0.1,0,0.2,0,0.3
		c0,0.1-0.1,0.2-0.1,0.3c0,0.1,0,0.2,0.1,0.3c0,0.1,0,0.1-0.1,0.2c0,0.1-0.1,0.1,0,0.2c0,0.1,0,0.2,0,0.3v0.3c0.1,0.4,0.1,0.9,0,1.3
		v1.3c0,0.2,0,0.4,0,0.6c0,0.2,0,0.4-0.1,0.6c0,0-0.1,0-0.1,0c0,0,0,0,0,0c0,0,0.1,0,0.1,0c0.1,0,0.1,0.1,0.1,0.3c0,0.2,0,0.3,0,0.4
		v2.9c0,0.3,0,0.6,0,0.9c0,0.1,0.1,0.2,0.1,0.4c0.1,0.3,0.2,0.5,0.4,0.7c0.1,0.1,0.2,0.2,0.2,0.4c0.1,0,0.2,0,0.3,0.1
		c0.1,0.1,0.2,0.1,0.2,0.1c0.1,0,0.2,0.1,0.3,0c0.1,0,0.2,0,0.2,0c0.1,0,0.2,0,0.2,0.1c0.1,0,0.2,0.1,0.2,0c0.1,0,0.1,0,0.2,0.1
		c0,0,0.1-0.1,0.1-0.1c0,0,0.1-0.1,0.1-0.1c0.2,0.1,0.4,0,0.6-0.1c0.2-0.1,0.3-0.3,0.5-0.5c0.1-0.2,0.2-0.4,0.3-0.7
		c0.1-0.2,0.1-0.4,0.1-0.6c0-0.1,0-0.2,0.1-0.3c0-0.1,0.1-0.2,0.1-0.4c0-0.1,0-0.2,0-0.4c0-0.1,0-0.2,0-0.4c0-0.2,0-0.5,0-0.7
		c0-0.2,0.1-0.5,0-0.7c-0.1-0.2-0.1-0.4,0-0.7c0-0.2,0-0.4,0-0.7c-0.1-0.2,0-0.5,0-0.7c-0.1-0.3-0.1-0.7,0-1v-0.8c0-0.3,0-0.5,0-0.8
		c0-0.1,0-0.2,0-0.2l0.1-0.2c-0.1-0.1-0.2-0.2-0.1-0.2c0-0.1,0-0.2,0-0.3c0-0.6,0-1.3,0-1.9c0-0.6,0-1.2,0-1.9
		c0.1,0.1,0.2,0.1,0.2,0c0-0.1,0-0.1,0-0.2c0-0.1-0.1-0.2-0.1-0.3c0-0.1-0.1-0.1-0.1-0.2v-2.1c0-0.2,0-0.4,0-0.7
		c0-0.2,0-0.4,0.1-0.6c0-0.1,0-0.2,0-0.3v-0.3c0-0.2,0-0.3-0.1-0.5c0-0.1,0-0.2,0-0.3c0-0.1,0-0.3,0-0.4c0-0.3,0-0.5,0-0.8
		c0-0.3,0-0.5-0.1-0.8v-0.7c0-0.1,0-0.1,0-0.2c0.1,0,0.1-0.1,0-0.2c0-0.1,0-0.3,0-0.4c0-0.2,0.1-0.3,0.2-0.4
		c-0.1-0.1-0.2-0.4-0.2-0.6v-1c0-0.1,0-0.2,0.1-0.3c0.1-0.1,0.3-0.1,0.4-0.2c0.1-0.1,0.2-0.1,0.4-0.1c0.2,0.1,0.5,0.1,0.7,0
		c0.2,0,0.5-0.1,0.7,0c0.1,0,0.2,0,0.3,0h0.3c0.1,0,0.2,0,0.4,0c0.1,0,0.2,0.1,0.3,0.2c0-0.1,0.1-0.1,0.2-0.1c0.1,0,0.3,0,0.4,0
		c0.1,0,0.3,0,0.4,0c0.1,0,0.2,0,0.3,0c0.2,0,0.3,0.1,0.5,0.3c-0.1,0.1-0.1,0.3,0,0.5c0.1,0.1,0.1,0.3,0,0.5
		c0.1,0.1,0.2,0.3,0.1,0.5c-0.1,0.2-0.1,0.3-0.1,0.5c0,0.2,0,0.4,0,0.6c-0.1,0.1-0.1,0.2,0,0.3c0,0.1,0.1,0.2,0.1,0.4
		c0,0.1,0,0.2,0,0.3c0,0.1,0,0.2,0,0.3c0.1,0.1,0.1,0.3,0,0.5c-0.1,0.1-0.1,0.3-0.1,0.5c0,0.1,0,0.2,0.1,0.3c0.1,0.1,0.1,0.2,0,0.3
		c-0.1,0.1-0.1,0.3,0,0.4c0,0.2,0,0.3-0.1,0.3c-0.1,0.1-0.2,0.2-0.1,0.2c0.1,0,0.1,0,0.2,0.1c-0.1,0.1-0.1,0.3,0,0.4
		c0,0.1,0,0.3,0,0.4c0,0.1-0.1,0.2-0.1,0.2c0.1,0.1,0.1,0.2,0.1,0.3c0,0.1,0,0.3,0,0.4c0,0.2,0,0.3,0,0.5
		C-3762.8-8652.3-3762.8-8652.2-3762.8-8652.1z M-3777.7-8655.9c0,0,0.1,0,0.1,0c0,0,0-0.1,0-0.1c-0.1-0.1-0.1-0.1-0.1-0.1
		C-3777.7-8656-3777.7-8655.9-3777.7-8655.9L-3777.7-8655.9z M-3777.5-8652.6c0.1,0,0.2,0,0.1-0.1
		C-3777.5-8652.7-3777.5-8652.7-3777.5-8652.6L-3777.5-8652.6z"/>
	<path id="Path_66" d="M-3743.5-8636.2c-0.1,0.3-0.1,0.7,0,1c0.1,0.3,0.1,0.7,0,1c-0.1,0.2-0.1,0.4,0,0.5c0,0.2,0,0.4,0,0.5
		c0,0.1,0,0.3,0,0.4c0,0.2,0,0.3,0,0.5c0,0.2-0.1,0.3-0.2,0.4s-0.2,0.1-0.3,0.1c-0.1,0.1-0.3,0.1-0.4,0.1c-0.2,0-0.3,0-0.5,0
		c-0.2-0.1-0.5-0.1-0.7-0.1c-0.2,0-0.5,0-0.7,0c-0.3,0-0.7,0-1,0.1c-0.3,0.1-0.7-0.1-0.8-0.4c-0.1-0.2-0.2-0.5-0.3-0.8
		c-0.1-0.3-0.2-0.5-0.3-0.8c-0.1-0.1-0.1-0.1,0-0.2c0,0,0-0.1,0-0.2c0-0.1-0.1-0.3-0.2-0.4c-0.1-0.2-0.2-0.4-0.2-0.6
		c0-0.2-0.1-0.4-0.2-0.6c-0.1-0.1-0.1-0.3-0.1-0.5c0-0.2-0.1-0.3-0.2-0.5c-0.1-0.1-0.2-0.3-0.2-0.5c0-0.2-0.1-0.3-0.2-0.5
		c-0.1-0.2-0.1-0.3-0.2-0.5c-0.1-0.2-0.1-0.4-0.2-0.5c-0.1-0.1-0.1-0.2-0.1-0.2c0-0.1,0-0.1-0.1-0.2c0-0.1-0.1-0.2-0.1-0.3
		c0-0.1,0-0.2-0.1-0.3c-0.1-0.1-0.1-0.2-0.1-0.3c0-0.1-0.1-0.3-0.1-0.4c-0.1-0.2-0.1-0.3-0.2-0.5c-0.1-0.2-0.1-0.3-0.2-0.5
		c-0.1-0.3-0.2-0.6-0.4-0.9c-0.1-0.3-0.2-0.6-0.1-0.9c0,0-0.1-0.1-0.2-0.1c-0.1,0-0.1,0-0.1-0.1c0-0.1,0-0.2,0-0.2
		c0-0.1-0.1-0.1-0.1-0.2c0-0.1-0.1-0.2-0.1-0.2c0-0.2,0-0.3-0.1-0.5c0-0.1-0.1-0.2-0.2-0.4c-0.1-0.2-0.2-0.3-0.1-0.3
		c0.1-0.1,0.1-0.2,0-0.3c0,0,0,0,0,0c-0.1-0.1-0.1-0.2-0.2-0.3c-0.1-0.1-0.1-0.3-0.2-0.4c-0.1-0.1-0.1-0.3-0.2-0.4
		c0-0.2-0.1-0.4-0.2-0.5c-0.1-0.1-0.1-0.2-0.1-0.2h-0.2c-0.1,0.1-0.1,0.1,0,0.2c0.1,0.1,0.1,0.2,0,0.2c-0.1,0.1-0.1,0.3,0,0.4
		c0,0.1,0,0.3,0,0.4c-0.1,0.8-0.1,1.6,0,2.3v0.2c0,0.1,0,0.1-0.1,0.1c-0.1,0-0.1,0.1,0,0.1c0,0,0.1,0.1,0.1,0.1c0,0.1,0,0.1,0,0.2
		c0,0.1,0,0.1,0,0.2c0,0.1-0.1,0.1-0.1,0s-0.1,0-0.1,0c0,0.1,0.1,0.1,0.1,0.2c0.1,0.1,0.1,0.1,0.1,0.2c0,0,0,0.1,0,0.1
		c0,0-0.1,0.1-0.1,0.1c0,0.1,0,0.1,0,0.2c0,0.1,0,0.1,0,0.2c-0.1,0.1-0.1,0.3,0,0.4c0,0.1,0,0.3,0,0.4c0,0.1,0,0.3,0,0.4
		c0,0.2,0,0.5,0,0.7c0,0.2,0,0.5,0,0.7c0,0.3,0,0.7,0,1c0.1,0.3,0.1,0.7,0,1c-0.1,0.4-0.1,0.8,0,1.2c0,0.4,0,0.8,0,1.2
		c0,0.4,0,0.8,0,1.1s0,0.8,0,1.1c0,0.2,0,0.3-0.2,0.5c-0.1,0.1-0.3,0.2-0.4,0.2c-0.2,0-0.4,0.1-0.6,0c-0.2,0-0.3,0-0.5,0h-0.2
		c-0.1,0-0.1,0-0.2-0.1c-0.1,0-0.2,0.1-0.2,0.1c-0.1,0-0.2,0-0.2,0c-0.1,0-0.1-0.1-0.2-0.1c0,0-0.1,0-0.2,0.1c-0.1,0-0.2,0-0.2,0
		c0,0-0.1,0-0.2,0h-0.5c-0.2,0-0.3,0-0.5,0c-0.2,0-0.3-0.1-0.4-0.2c-0.1-0.1-0.2-0.3-0.2-0.5v-0.5c0-0.2,0-0.3,0-0.5
		c0.1-0.2,0.1-0.3,0-0.5c0-0.2-0.1-0.3-0.1-0.5v-0.3c0-0.1,0-0.2,0-0.3c0.1-0.1,0.1-0.2,0-0.3c0-0.1-0.1-0.2-0.1-0.3
		c0-0.2,0-0.5,0-0.7c0-0.3,0-0.5,0-0.7c0-0.4,0-0.8,0-1.2c0-0.4,0-0.8,0-1.1v-0.6c0-0.2,0-0.4,0-0.6c-0.1-0.2-0.1-0.4,0-0.6
		c0-0.2,0-0.4,0-0.6c0-0.2,0-0.4,0-0.6c0-0.2,0-0.4,0-0.6c0-0.1,0-0.2,0-0.2c0-0.1,0-0.1,0-0.2c0-0.1,0-0.2,0-0.2c0-0.1,0-0.1,0-0.2
		v-0.2c0-0.1,0-0.1,0.1-0.1c0.1-0.1,0.1-0.1,0-0.2c0-0.1-0.1-0.2-0.1-0.2c-0.1-0.2-0.1-0.4,0-0.7c0-0.2,0-0.4,0-0.7
		c0-0.4,0-0.8,0-1.2c0-0.4,0-0.8,0-1.2c0-0.1,0-0.2,0-0.3c0-0.1,0-0.2,0-0.3c0-0.1,0.1-0.1,0.1-0.2c0,0,0.1-0.1,0-0.2
		c-0.1-0.2-0.1-0.3,0-0.5c0-0.1,0-0.3,0-0.4c-0.1-0.6-0.1-1.2,0-1.8c0.1-0.6,0.1-1.2,0-1.8c0-0.1,0-0.2,0-0.3c0-0.1,0-0.2,0-0.3
		c0-0.1,0-0.3,0-0.4c0-0.1,0-0.3,0-0.4c0.1-0.1,0.1-0.3,0-0.4c0-0.1,0-0.3,0-0.4c0-0.2,0-0.4,0-0.6c0-0.2,0-0.4,0-0.6
		c-0.1-0.2-0.1-0.5,0-0.7c0-0.2,0.1-0.5,0.1-0.7c0-0.1,0-0.3,0-0.4c0-0.1,0-0.2-0.1-0.3c0-0.1,0-0.2,0-0.4c0-0.1,0-0.3,0.1-0.4
		c0,0,0,0,0-0.1c0,0,0-0.1-0.1-0.1c0-0.1,0-0.1,0-0.2c0-0.1,0-0.1,0-0.2v-0.4c0-0.1,0-0.3,0.1-0.4c0.1-0.1,0.1-0.2,0.2-0.2
		c0.1,0,0.2,0,0.3-0.1c0.1-0.1,0.3-0.1,0.4,0c0.1,0.1,0.3,0,0.4-0.1c0.3,0.1,0.5,0.1,0.8,0.1c0.3,0,0.5-0.1,0.8-0.1h0.4
		c0.1,0,0.3,0,0.4,0.1c0.2-0.1,0.4-0.1,0.5,0c0.2,0,0.4,0.1,0.5,0.2c0.2,0.2,0.3,0.5,0.4,0.8c0.1,0.3,0.2,0.6,0.3,0.9
		c0.1,0.3,0.2,0.6,0.3,0.8c0.1,0.3,0.2,0.5,0.3,0.8c0.2,0.5,0.4,1.1,0.5,1.6c0.2,0.6,0.4,1.1,0.7,1.6c0,0.1,0,0.2,0.1,0.3
		c0.1,0.1,0.1,0.2,0.2,0.3c0,0.1,0,0.3,0,0.4c0.1,0.1,0.1,0.2,0.2,0.4c0.1,0.1,0.1,0.2,0.1,0.3c0,0.1,0,0.2,0,0.3
		c0.1,0.1,0.2,0.3,0.2,0.4c0,0.1,0.1,0.3,0.2,0.4c0,0.1-0.1,0.1-0.1,0.2c-0.1,0.1-0.1,0.2,0,0.2c0,0,0.1,0,0.1,0
		c0,0,0.1-0.1,0.1-0.1c0.1,0,0.1,0,0.1,0.1c0,0.1,0,0.1,0,0.2c0.1,0.1,0.1,0.3,0.1,0.4c0,0.1,0.1,0.1,0.1,0.2c0,0.1,0.1,0.1,0,0.2
		c0.1,0.1,0.1,0.3,0.2,0.4c0.1,0.1,0.1,0.2,0,0.2c0,0.1,0,0.2,0,0.2c0.1,0.1,0.2,0.3,0.2,0.4c0.1,0.1,0.1,0.3,0,0.4
		c0.1,0.1,0.2,0.2,0.2,0.4c0,0.1,0,0.3,0.1,0.4c0,0.1,0,0.2,0.1,0.3c0.1,0.1,0.1,0.3,0.2,0.5c0.1,0.1,0.1,0.3,0.2,0.4
		c0.1,0.1,0.1,0.2,0.1,0.2c0.2,0,0.2-0.1,0.2-0.3c0-0.1-0.1-0.2-0.1-0.3c0-0.2,0-0.3,0.1-0.5c0.1-0.1,0.1-0.3,0-0.5
		c-0.1-0.4-0.2-0.7-0.1-1.1c0.1-0.4,0.1-0.8,0.1-1.2c0-0.3,0-0.7,0-1c0-0.3,0-0.7,0-1c0-0.2,0-0.3,0-0.5c0-0.2,0-0.4,0-0.5
		c0-0.4,0-0.9,0-1.3c0-0.8,0-1.5,0-2.2c0-0.7,0-1.5,0-2.2c0-0.2,0-0.3-0.1-0.5c0-0.2-0.1-0.3,0-0.5c0-0.2,0-0.3,0-0.5
		c0-0.2,0.1-0.3,0.2-0.4c0.3-0.2,0.7-0.3,1-0.3c0.4,0,0.8,0,1.1,0c0.1,0,0.2,0,0.3,0c0.1,0,0.2,0,0.2,0.1c0,0.1,0.1,0.1,0.2,0
		c0,0,0,0,0,0c0.1,0,0.1-0.1,0.2-0.1h0.5c0.2,0,0.3,0,0.5,0c0.2,0.1,0.3,0.1,0.5,0.1c0.1,0,0.2,0.2,0.2,0.4c0.1,0.2,0.1,0.4,0.1,0.5
		v0.5c0,0.2,0,0.4,0,0.6c0,0.2,0,0.4,0,0.6c0,0.1,0,0.3,0,0.4c0,0.1,0,0.3-0.2,0.3c0,0.1,0,0.1,0.1,0.1c0,0,0.1,0.1,0.1,0.1
		c0,0.1,0,0.2,0,0.2c0,0.1,0,0.2,0,0.2c0,0.1,0,0.2,0,0.2c0,0.1,0,0.1,0,0.2c0,0.1,0,0.2,0,0.3c0,0.1,0,0.2,0,0.3
		c-0.1,0.3-0.1,0.6,0,1c0,0.3,0,0.6,0,1c0,0.4,0,0.8,0,1.2c0,0.4,0,0.8,0.1,1.2c0,0.2,0,0.4,0,0.5c0,0.2-0.1,0.4,0,0.5
		c0,0.2,0,0.3,0,0.5c-0.1,0.1-0.1,0.3,0,0.4c0.1,0.1,0,0.2,0,0.2c0,0,0,0,0,0c0.1,0.1,0.1,0.1,0.1,0.2v0.3c0,0.1,0,0.2-0.1,0.2
		c0,0-0.1,0-0.1,0c0,0-0.1,0-0.1,0c0,0-0.1,0-0.1,0.1c0.1,0.1,0.1,0.1,0.2,0.1h0.1c0,0,0.1,0,0.1,0c0,0.1,0.1,0.2,0,0.2
		c0,0.2-0.1,0.3-0.1,0.4c0,0.1,0,0.3,0.1,0.4c0,0.1,0,0.3,0,0.4c0,0.1-0.1,0.3,0,0.4c0,0.2,0,0.4,0,0.5c0,0.2-0.1,0.4-0.2,0.5
		l0.1,0.2c0,0.1,0.1,0.2,0.1,0.3c0,0.1,0,0.1,0,0.2c0,0.1,0,0.1,0,0.2c0,0.1,0,0.1,0,0.2c0,0.1,0,0.1,0,0.2c0,0.1,0,0.2,0,0.2
		c0,0-0.1,0.1-0.1,0.2c0,0.1,0.1,0.3,0.1,0.4c0,0.2,0,0.3,0,0.5c0,0.2,0,0.3,0,0.5c0.1,0.3,0.1,0.7,0.1,1.1c0,0.3,0,0.7,0,1
		c0,0.4,0,0.7,0,1.1c0.1,0.4,0.1,0.7,0,1.1c-0.1,0.2-0.1,0.4,0,0.6c0.1,0.2,0.1,0.3,0,0.5c0,0.2-0.1,0.3-0.1,0.5c0,0.1,0,0.2,0,0.3
		C-3743.5-8636.3-3743.5-8636.2-3743.5-8636.2z"/>
	<path id="Path_67" d="M-3734.5-8635.3c0,0.2,0.1,0.4,0.1,0.5v0.9c0,0.3,0,0.7,0,1c0,0.1,0,0.3,0,0.4c0,0.1,0,0.3-0.1,0.4
		c-0.1,0.2-0.2,0.3-0.3,0.3c-0.1,0-0.3,0-0.5,0c-0.2,0-0.3,0-0.5,0l-0.4-0.1c-0.1,0-0.3,0-0.4,0.1c-0.1,0-0.2,0-0.2,0
		c-0.1,0-0.1,0-0.2,0c-0.1,0-0.3-0.1-0.5-0.1c-0.2,0-0.3,0-0.5,0.1c-0.2,0.1-0.4,0.1-0.6,0c-0.2,0-0.4,0-0.6,0c-0.2,0-0.3,0-0.5-0.1
		c-0.1-0.1-0.2-0.3-0.2-0.5c0-0.2-0.1-0.4,0-0.6c0-0.2,0-0.4,0-0.5c0-0.2,0-0.4,0-0.6c0-0.2,0-0.4,0.1-0.5c0-0.1,0-0.3,0-0.4
		c0-0.1-0.1-0.3-0.1-0.4c0-0.1,0-0.2,0.1-0.3c0-0.1,0-0.2,0-0.3c-0.1-0.2-0.1-0.3,0-0.5c0-0.2,0-0.3,0-0.5c0-0.2,0-0.3,0-0.5
		c0-0.2,0-0.3,0-0.5c-0.1-0.1-0.1-0.2,0-0.3c0,0,0,0,0,0c0.1-0.1,0.1-0.1,0-0.2c0-0.1,0-0.1,0-0.2c0-0.3-0.1-0.6-0.1-0.9
		c0-0.3,0-0.6,0.1-0.9c0,0,0-0.1,0-0.1c0,0-0.1-0.1-0.1-0.1c0-0.1,0.1-0.2,0.1-0.3c0-0.1,0-0.2,0-0.3c0-0.4,0-0.8,0-1.2
		c0,0,0-0.1,0-0.2c0-0.1,0-0.2,0-0.3c0-0.1,0-0.2,0-0.2c0-0.1,0.1-0.1,0.1-0.1c0.1,0,0.2,0,0.3-0.2c0.1-0.1,0.1-0.2,0.1-0.3
		c-0.1,0-0.1,0-0.1,0.1c0,0,0,0.1,0,0.1c-0.1,0-0.3,0-0.4,0c0-0.1,0-0.3,0-0.4v-0.4c0-0.1,0-0.3-0.1-0.4c0-0.2,0-0.3,0-0.4
		c0.1,0,0.1-0.1,0.1-0.3c0-0.2,0-0.3,0-0.5c0-0.2,0-0.4,0-0.5s0-0.3,0-0.4c0-0.1,0-0.3,0-0.4c0-0.1,0-0.3,0.1-0.3
		c0.1-0.1,0.1-0.1,0-0.1s-0.1,0-0.1-0.1c0-0.1,0-0.3,0-0.4c0-0.1,0-0.3,0-0.4c0-0.1-0.1-0.2-0.1-0.4c0-0.1,0-0.2,0-0.4
		c0.1-0.2,0.1-0.4,0-0.6c0-0.1,0-0.2,0-0.3c0-0.1,0-0.2,0-0.3c-0.1-0.2-0.1-0.4,0-0.6c0.1-0.2,0.1-0.4,0.1-0.6c0-0.2,0-0.5-0.1-0.7
		c0-0.2-0.1-0.5,0-0.7c0-0.2,0-0.3,0.1-0.5l0,0h0c0.1,0,0.1,0,0.2,0.1c0,0.1,0.1,0.1,0.2,0c0,0,0,0,0,0c0-0.1-0.1-0.2-0.1-0.2
		c-0.1-0.1-0.1-0.2-0.1-0.3c-0.1,0-0.1,0-0.1,0.1v0.2c0,0,0,0,0,0c0,0,0,0,0,0h0c-0.1,0-0.1-0.1-0.1-0.3s0-0.3,0-0.3v-0.5
		c0-0.2,0-0.3,0.1-0.5c0-0.1,0-0.2,0-0.2c0,0-0.1-0.1-0.1-0.2c0-0.2,0-0.4,0-0.6v-1c0-0.2-0.1-0.4-0.1-0.6c0-0.2,0-0.4,0.1-0.5
		c-0.1-0.2-0.1-0.4,0-0.6c0-0.2,0-0.4,0-0.6c0-0.1,0-0.1,0-0.2c0,0,0-0.1,0.1-0.1c0.1,0,0.1-0.1,0-0.2c0-0.1,0-0.1,0-0.2
		c-0.1-0.3-0.1-0.5-0.1-0.8c0-0.3,0.1-0.6,0.3-0.7c0.1-0.1,0.3-0.1,0.5-0.1c0.2,0,0.4,0,0.5,0c0.3,0,0.6,0,0.9,0.1
		c0.1,0,0.2-0.1,0.4-0.1c0.1,0,0.3,0,0.3,0.1c0.3-0.1,0.6-0.1,0.9-0.1h0.5c0.2,0,0.3,0,0.5,0.1c0.2,0.1,0.3,0.1,0.2,0.2
		c0,0.1-0.1,0.2-0.1,0.3c0.1-0.1,0.2-0.3,0.2-0.4c0.1,0,0.2,0.1,0.3,0.3c0,0.1,0.1,0.3,0.1,0.4c0,0.2,0,0.3,0,0.5c0,0.1,0,0.2,0,0.4
		c0.1,0.2,0.1,0.4,0,0.6c0,0.2,0,0.4,0,0.6c0,0.1,0,0.2,0,0.2c0,0.1-0.1,0.1-0.1,0.2c0,0.1,0,0.3,0,0.4s0,0.3,0,0.4
		c0.1,0.5,0.1,0.9,0,1.4c-0.1,0.5-0.1,0.9,0,1.4c0,0.1,0,0.2,0,0.3c0,0.1,0,0.2,0,0.3c-0.1,0.1-0.1,0.3-0.1,0.4
		c0,0.1,0.1,0.3,0.1,0.5c0,0.1,0,0.3-0.1,0.4c0.1,0.2,0.1,0.3,0.1,0.5c-0.1,0.2-0.1,0.3-0.1,0.5c0.1,0.4,0.1,0.7,0,1.1
		c0,0.1,0,0.2,0,0.3c0,0.1,0,0.2,0,0.3c0,0.1,0,0.3,0,0.4c0,0.1,0,0.3,0,0.4c0,0.2,0.1,0.4,0.1,0.5c0,0.1,0,0.2,0,0.3
		c0,0.1-0.1,0.2-0.1,0.3c0,0.1,0,0.1,0,0.2c0,0.1,0.1,0.1,0.1,0.2c0,0.1,0,0.3,0,0.4c0,0.1,0,0.3,0,0.4c0,0.2,0,0.4,0,0.6
		c0,0.2,0,0.4,0,0.6c0,0.1,0,0.2,0,0.2c0,0.1,0,0.2,0,0.2c0,0.1,0,0.2-0.1,0.3c-0.1,0-0.1,0.1,0,0.2c0.1,0.1,0.1,0.2,0.1,0.3
		c0,0.1,0,0.2,0,0.3c0,0.2-0.1,0.2-0.1,0.2c-0.1,0-0.1,0-0.2,0.1c0,0,0.1,0.1,0.2,0.1c0.1,0,0.1,0,0.2,0.1v0.6c0,0.2,0,0.4,0,0.6
		s0,0.4,0,0.6c-0.1,0.6-0.1,1.3,0,1.9c0,0.1,0,0.2,0,0.3c0,0.1,0,0.2,0,0.3c0,0.1,0,0.2,0,0.2c0,0.1,0,0.2,0,0.3c0,0.2,0,0.4,0,0.6
		c0,0.2,0,0.4,0,0.6c0,0.2,0,0.3,0,0.5c0,0.2,0,0.3,0,0.5c-0.1,0.1-0.1,0.3,0,0.4c0,0.1,0,0.2-0.1,0.2c0,0,0,0.1,0,0.1
		c0.1,0.1,0.1,0.2,0.1,0.3c0,0.1,0,0.2,0,0.4c0,0,0,0.1,0,0.1C-3734.4-8635.4-3734.4-8635.4-3734.5-8635.3z"/>
	<path id="Path_68" d="M-3716.8-8658.4c0,0.2,0,0.3,0.1,0.5c0.1,0.1,0.1,0.3,0,0.5c-0.1,0.1-0.1,0.3-0.1,0.4c0,0.1-0.1,0.3-0.2,0.4
		c-0.1,0.1-0.2,0.1-0.4,0.2c-0.1,0-0.3,0-0.4,0c-0.1,0-0.2,0-0.2,0c-0.1,0-0.2,0-0.2,0c-0.1,0-0.2,0-0.3,0c-0.1,0-0.2,0-0.2-0.1
		c-0.2,0.1-0.3,0.2-0.4,0.1c-0.1,0-0.3-0.1-0.4-0.1c-0.1,0-0.1,0-0.2,0c-0.1,0-0.1,0.1-0.2,0c-0.1,0-0.1-0.1-0.2-0.1
		c-0.1,0-0.1,0-0.2,0.1c-0.2,0.1-0.4,0.1-0.6,0c-0.2-0.1-0.4-0.1-0.6,0c-0.1,0-0.2,0.2-0.2,0.3c0,0.2-0.1,0.3-0.1,0.4
		c0,0.1,0,0.3,0,0.4c0,0.1,0.1,0.3,0,0.4c0,0.2,0,0.3,0,0.5c0,0.1,0,0.3,0,0.4c0.1,0.2,0.1,0.4,0,0.6c0,0.2,0,0.4,0,0.6
		c0,0,0,0.1,0,0.1c0,0-0.1,0.1-0.1,0.1c0.1,0.2,0.1,0.4,0.1,0.6c0,0.4,0,0.7,0,1.1c0,0.4,0,0.7,0,1.1v0.3c0,0.1,0,0.2,0,0.3
		c0,0-0.1,0.1-0.2,0.1c-0.1,0-0.1,0.1,0,0.1c0.1,0.2,0.2,0.4,0.1,0.6c0,0.2,0,0.4,0,0.6c0,0.2,0,0.4,0,0.6c0,0.2,0,0.4,0,0.6
		c0,0.1,0,0.1,0,0.1c0,0-0.1,0.1-0.1,0.1c0.1,0.1,0.1,0.2,0.1,0.3c0,0.1,0,0.3,0,0.4v0.4c0,0.1,0,0.1,0,0.2c0,0.1,0,0.1,0,0.2
		c0,0.1,0,0.2,0,0.3c0,0.1,0.1,0.2,0.1,0.3c0,0.4,0,0.7,0,1.1v0.6c-0.1,0-0.2,0.1-0.3,0.2c-0.1,0.1-0.1,0.1,0,0.2
		c0,0,0.1,0.1,0.1,0.1c0.1,0,0.1,0,0.1,0.1c0,0,0.1,0.1,0,0.2c-0.1,0.2-0.1,0.4,0,0.6c0.1,0.2,0.1,0.3,0,0.5c-0.1,0.6-0.1,1.3,0,2
		c0.1,0.7,0.1,1.3,0,2c0,0.2,0,0.3,0,0.5c0,0.1,0.1,0.3,0,0.5c0,0.2,0,0.3,0,0.5v0.5c0,0.2,0,0.3,0,0.5c0,0.2,0,0.3,0,0.5
		c0,0.2,0,0.5,0,0.7c0,0.2,0,0.5,0,0.7c0,0.1,0,0.1,0,0.1c-0.1,0-0.1,0-0.1,0.1c0,0.1,0.1,0.1,0.1,0.2c0,0.1,0,0.1,0,0.2
		c0,0.1-0.1,0.2-0.2,0.3c-0.1,0-0.2,0.1-0.3,0.1c-0.2,0-0.3,0.1-0.5,0.1c-0.2,0-0.3,0-0.5,0c-0.2-0.1-0.4-0.1-0.6,0
		c-0.1,0-0.2,0-0.3,0c-0.1,0-0.2-0.1-0.3,0c-0.3,0.1-0.7,0.1-1,0c-0.4,0-0.7,0-1,0c-0.2,0-0.3-0.1-0.4-0.2c-0.1-0.1-0.2-0.2-0.2-0.4
		c0-0.1,0-0.3,0-0.4c0-0.1,0-0.3-0.1-0.4c-0.1-0.2-0.1-0.4,0-0.6c0-0.2,0.1-0.4,0.1-0.6c0-0.2,0-0.4,0-0.6v-0.6c0-0.4,0-0.8,0-1.2
		c0-0.4,0-0.8,0.1-1.2c0-0.2,0-0.3,0-0.5c0-0.2-0.1-0.3,0-0.5c0-0.2,0-0.3,0-0.5c0-0.2,0-0.4,0-0.6c0-0.2,0.1-0.3,0.1-0.5
		c0-0.2,0-0.3,0-0.5c-0.1-0.4-0.1-0.8,0-1.2c0.1-0.2,0.1-0.4,0-0.6c0-0.2-0.1-0.4-0.1-0.5c0-0.2,0-0.4,0-0.5c0-0.2,0-0.3,0-0.5
		c0-0.2,0-0.4-0.1-0.6c0-0.2-0.1-0.4,0-0.6c0-0.2,0-0.3,0-0.5c0-0.2,0-0.3,0-0.5c0-0.2,0-0.4,0-0.6c0-0.1,0-0.2,0-0.3
		c0.1-0.1,0.1-0.2,0-0.3c-0.1-0.2-0.1-0.5,0-0.7c0-0.2,0.1-0.5,0-0.7c0,0,0.1,0,0.1,0c0,0,0.1,0,0.1,0c0-0.1,0-0.1-0.1-0.1
		c-0.1,0-0.1-0.1-0.1-0.1c-0.1-0.1-0.1-0.2,0-0.3c0-0.1,0-0.2,0-0.3c0,0,0.1,0,0.2,0c0.1,0,0.2,0,0.2,0c-0.1-0.1-0.1-0.2,0-0.1
		c0.1,0.1,0.2,0.1,0.2,0c-0.1-0.1-0.1-0.2-0.1-0.3c0-0.1,0-0.2-0.1-0.3c-0.1-0.1-0.1-0.1-0.2,0c0,0,0,0.1,0,0.1c0,0.1,0,0.2,0,0.3
		c-0.1,0-0.2-0.1-0.2-0.3c0-0.2,0-0.4,0-0.4c0-0.2,0.1-0.4,0.1-0.6c0-0.2,0-0.5,0-0.7c0-0.1-0.1-0.3-0.1-0.4c0-0.2,0-0.3,0-0.5
		c0-0.1,0.1-0.2,0.1-0.3c-0.1-0.1-0.1-0.1-0.1-0.2v-0.6c0-0.1,0.1-0.2,0.2-0.2c0.1-0.1,0.2-0.2,0.1-0.2c-0.1,0-0.2,0-0.2,0
		c-0.1-0.1-0.1-0.3,0-0.5c0-0.1,0.1-0.3,0.1-0.4c-0.1-0.1-0.1-0.3-0.1-0.4c0-0.1-0.1-0.3-0.1-0.4c-0.2-0.1-0.4-0.1-0.6,0
		c-0.2,0-0.4,0-0.5,0c-0.1,0-0.1-0.1-0.2-0.1c-0.1,0-0.1,0-0.2,0c0,0.1-0.1,0.1-0.2,0.1c-0.3-0.1-0.6-0.1-0.9,0
		c-0.3,0.1-0.6,0-0.8-0.1c-0.1-0.1-0.2,0-0.3,0c-0.1,0.1-0.2,0.1-0.3,0.1c-0.1,0-0.2-0.1-0.2-0.2c-0.1,0.1-0.2,0.1-0.3,0.1
		c-0.1-0.1-0.2-0.1-0.3-0.2c-0.1-0.4-0.1-0.8-0.1-1.2c0-0.4,0-0.8,0-1.2c0-0.2,0-0.4,0-0.6c0-0.2,0-0.4,0-0.6c0-0.1,0-0.3,0-0.5
		c0-0.2,0.1-0.4,0.2-0.4c0.1,0,0.1,0,0.2,0c0.1,0,0.1,0,0.2,0c0.1,0,0.1-0.1,0.1-0.1c0-0.1,0-0.1,0.1-0.1c0.2,0,0.3,0.1,0.5,0.1
		c0.2,0,0.4,0,0.5,0c0.2,0,0.4,0,0.6,0h0.6c0.1,0,0.2,0,0.2,0c0.1,0,0.2,0,0.3,0c0.1,0,0.2,0,0.2,0.1c0.1,0.1,0.1,0.1,0.2,0.2
		c0.1,0,0.1-0.1,0.1-0.1c0,0,0-0.1,0-0.1c0.1,0,0.2,0,0.4,0c0.2,0,0.3,0,0.5,0c0.2,0,0.3,0,0.5-0.1c0.1,0,0.1,0,0.1,0
		c0,0,0.1,0,0.1,0c0.1,0,0.2,0,0.3,0c0.1,0,0.2,0,0.3,0c0.1,0,0.1,0,0.2,0c0.1,0,0.1,0,0.2,0.1c0.1,0,0.1,0,0.2,0c0.1,0,0.1,0,0.1,0
		l-0.1,0h0.9c0.1,0,0.2,0,0.2,0c0,0.1,0,0.3,0,0.4c0,0.1,0.1,0.3,0.2,0.3c0.1,0,0.1-0.1,0-0.1c0,0,0-0.1,0-0.1l0,0
		c-0.1,0-0.2-0.2-0.2-0.3c0-0.1,0-0.2,0.1-0.3c0.1-0.1,0.3-0.1,0.4-0.1c0.1,0,0.3,0,0.4,0c0.1,0,0.3,0,0.4,0c0.1,0,0.3,0,0.4,0
		c0.2,0,0.4,0,0.6,0c0.2,0,0.4,0,0.6,0c0.2,0.1,0.3,0.1,0.5,0c0.2,0,0.3-0.1,0.5-0.1c0.4,0,0.8,0,1.2,0c0.2,0,0.3,0,0.5,0
		c0.2,0,0.4,0.1,0.6,0.1c0.1,0,0.3,0,0.4-0.1c0.1,0,0.3,0,0.4,0c0.4,0,0.6,0.1,0.7,0.3c0.1,0.2,0.2,0.5,0.1,0.7v0.6
		c0,0.2,0,0.4,0,0.6c0,0.1,0,0.1,0,0.2c0,0.1,0,0.1,0,0.2C-3716.7-8658.8-3716.7-8658.6-3716.8-8658.4z"/>
	<path id="Path_69" d="M-3699-8661.2c0.1,0.1,0.1,0.3,0,0.5c-0.1,0.1-0.1,0.3-0.1,0.5c0,0.1,0,0.1-0.1,0.1c0,0-0.1,0.1-0.1,0.1
		c-0.1,0.2-0.1,0.4-0.1,0.5c-0.1,0.2-0.1,0.5-0.3,0.7c-0.1,0.2-0.2,0.5-0.3,0.7c0,0.1-0.1,0.2-0.2,0.4c-0.1,0.2-0.1,0.3-0.1,0.3
		c0.1,0.1,0,0.2,0,0.2c-0.1,0-0.2,0-0.2,0.1c0.1,0.1,0.1,0.3,0,0.5c-0.1,0.2-0.1,0.3-0.2,0.5c-0.1,0.2-0.1,0.3-0.1,0.5
		c0,0.2-0.1,0.3-0.2,0.5c-0.1,0.1-0.1,0.3-0.2,0.5c0,0.2-0.1,0.3-0.1,0.5c-0.1,0.2-0.1,0.3-0.2,0.5c0,0.2-0.1,0.3-0.1,0.5
		c-0.1,0.3-0.3,0.7-0.3,1c-0.1,0.3-0.2,0.7-0.4,1c-0.1,0.1-0.1,0.3-0.1,0.4c0,0.2-0.1,0.3-0.2,0.4c0,0.1,0,0.2,0,0.3
		c0,0.1-0.1,0.2-0.2,0.1c0.1,0.2,0.1,0.5,0,0.7c-0.1,0.2-0.2,0.5-0.3,0.7c0,0.1,0,0.2-0.1,0.3c0,0.1-0.1,0.2-0.1,0.3
		c0,0.2-0.1,0.4-0.1,0.6c-0.1,0.2-0.1,0.4-0.2,0.6c-0.1,0.3-0.2,0.6-0.4,0.9c-0.1,0.3-0.2,0.6-0.3,0.9c0,0.1-0.1,0.3-0.1,0.4
		c-0.1,0.1-0.1,0.2-0.2,0.4c0,0.1,0,0.1-0.1,0.2c0,0.1,0,0.2,0,0.2c0,0.1,0,0.2,0,0.2c-0.1,0-0.1,0-0.2,0.1c0.2,0.2,0.3,0.5,0.2,0.8
		c0,0.3,0,0.6-0.1,0.8c0,0.3,0,0.7,0,1c0,0.3,0,0.6,0,0.9c0,0.2,0,0.3,0,0.5c0,0.2,0,0.3-0.1,0.5c-0.1,0.2-0.1,0.4,0,0.5
		c0.1,0.2,0.1,0.4,0.1,0.6c0,0.2,0,0.4,0,0.6c0,0.2,0,0.4-0.1,0.6c0,0.1,0,0.1,0,0.2c0,0.1,0,0.1,0,0.2c0,0.1,0,0.1,0,0.2
		c0,0.1,0,0.1,0,0.2v1c0,0.3,0,0.6,0,1c0,0.2,0,0.3,0,0.5c-0.1,0.2,0,0.3,0.1,0.5c-0.1,0.2-0.1,0.4,0,0.6c0,0.2,0,0.3,0,0.5
		c0,0.2-0.1,0.3-0.2,0.4c-0.1,0.1-0.3,0.1-0.5,0.1c-0.2,0-0.3,0-0.5,0c-0.2,0-0.3,0-0.4,0c-0.2,0-0.4,0-0.6,0c-0.2,0-0.4,0-0.6,0
		c-0.2,0-0.4,0-0.6,0c-0.2,0-0.4,0-0.6,0h-0.9c-0.3,0-0.6-0.2-0.7-0.5c-0.1-0.4-0.1-0.8-0.1-1.2c0-0.4,0-0.8,0.1-1.2
		c0-0.2,0-0.3,0-0.5c0-0.1-0.1-0.3,0-0.4c0-0.2,0-0.3,0-0.5v-0.4c0-0.4,0-0.7,0-1.1c0-0.1,0-0.3,0-0.4c0-0.1-0.1-0.3,0-0.4
		c0.1-0.3,0.1-0.7,0-1c-0.1-0.4-0.1-0.7,0-1.1c0-0.2,0-0.4,0-0.5c0-0.2,0-0.3,0-0.5c0-0.2,0-0.4,0-0.6c0-0.2,0-0.4,0-0.6
		c0-0.1,0-0.1,0-0.2c0,0,0-0.1,0-0.1c0.1-0.1,0.1-0.3,0-0.4c-0.1-0.1-0.1-0.2,0-0.2c0,0,0.1,0,0.1-0.1c0-0.1-0.1-0.2-0.1-0.2
		c0-0.1-0.1-0.2-0.1-0.2c-0.1-0.3-0.2-0.6-0.3-1c-0.1-0.3-0.1-0.7,0-1c-0.1-0.1-0.1,0-0.1,0.1c0,0.1-0.1,0.1-0.1,0.1
		c0-0.1,0-0.2-0.1-0.4c-0.1-0.1-0.1-0.2-0.2-0.4c0-0.1,0-0.2,0-0.2c0-0.1,0-0.1-0.1-0.2c-0.1-0.1-0.1-0.2-0.1-0.3
		c0-0.2,0-0.4-0.1-0.5c-0.1-0.2-0.1-0.3-0.2-0.5c-0.1-0.3-0.3-0.7-0.4-1c-0.1-0.4-0.2-0.7-0.3-1.1c0-0.1-0.1-0.1-0.1-0.2
		c0-0.1,0-0.1,0-0.2c0.1-0.1,0.1-0.1,0-0.1c-0.1,0-0.1-0.1-0.1-0.1c-0.1-0.1-0.1-0.3-0.1-0.4c0-0.2-0.1-0.3-0.2-0.4
		c0.1-0.3,0-0.6-0.1-0.8c-0.1-0.3-0.3-0.6-0.4-0.8c-0.1-0.2-0.1-0.3,0-0.3c0.1,0,0.2-0.1,0.2-0.1c-0.1-0.1-0.1-0.2-0.2-0.2
		c-0.1,0-0.1-0.1-0.1-0.2c0-0.1,0-0.1-0.1-0.2c-0.1-0.1-0.1-0.3-0.1-0.4c0-0.1-0.1-0.3-0.1-0.4c-0.1-0.1-0.1-0.3-0.2-0.4
		c0-0.1-0.1-0.3-0.1-0.4c-0.1-0.2-0.1-0.3-0.2-0.5c-0.1-0.2-0.1-0.4-0.2-0.6c-0.1-0.1-0.1-0.2-0.1-0.2c0-0.1-0.1-0.2-0.1-0.2
		c0-0.1,0-0.1,0-0.2c0,0,0-0.1,0-0.2c-0.1-0.4-0.3-0.7-0.4-1s-0.2-0.7-0.3-1c-0.1-0.1-0.1-0.3-0.1-0.4c0-0.1-0.1-0.3,0-0.4
		c0.1-0.2,0.2-0.3,0.3-0.4c0.2,0,0.3,0,0.5-0.1c0.1-0.1,0.3-0.1,0.4,0c0.1,0,0.2,0.1,0.4,0.1c0.1,0,0.3-0.1,0.5-0.1
		c0.2,0,0.3,0,0.5,0c0.1,0.1,0.3,0.1,0.4,0c0.1,0,0.3,0,0.4,0c0.2,0,0.4,0,0.6,0c0.2,0,0.3,0,0.5,0c0.1,0.1,0.3,0.1,0.4,0
		c0.2,0,0.3,0,0.5,0.1c0.1,0,0.1,0.1,0.2,0.1c0,0,0.1,0.1,0.1,0.2c0,0.1,0,0.2,0.1,0.3c0,0.1,0,0.2,0.1,0.3c0.1,0.2,0.1,0.4,0.1,0.5
		c0,0.2,0.1,0.4,0.2,0.5c0,0.1,0.1,0.1,0.1,0.2c0,0.1,0,0.2,0,0.2c0,0.1,0,0.2,0,0.2c0,0,0.1,0.1,0.1,0.2c0,0.1,0.1,0.3,0.1,0.4
		c0.1,0.1,0.1,0.3,0.1,0.4c0,0.1,0,0.1,0,0.2c0,0.1,0,0.2,0,0.2c0.1,0.1,0.1,0.1,0.1,0.1c0,0.1,0,0.1,0,0.2c0,0.2,0.1,0.4,0.1,0.5
		c0.1,0.2,0.1,0.3,0.1,0.5c0.1,0.2,0.1,0.4,0.1,0.6c0,0.2,0.1,0.4,0.2,0.5c0.1,0.2,0.2,0.4,0.2,0.7c0,0.2,0.1,0.5,0.1,0.7
		c0,0.1,0.1,0.2,0.2,0.2c0,0.1,0.1,0.2,0.1,0.3c0,0.1,0,0.2,0.1,0.3c0.1,0.1,0.1,0.3,0.2,0.4c0.1,0.2,0.1,0.3,0.1,0.4
		c0,0.1,0,0.2,0,0.3c0,0.1,0.1,0.2,0.1,0.4c0,0.1,0.1,0.2,0.2,0.2c0.1,0.1,0.1,0.1,0.2,0c0.2-0.2,0.3-0.5,0.4-0.8
		c0.1-0.3,0.1-0.6,0.2-0.9c0-0.3,0.1-0.6,0.2-0.8c0.1-0.1,0.1-0.2,0.1-0.3c0-0.1,0-0.2,0.1-0.3c0-0.1,0.1-0.2,0.1-0.3
		c0.1-0.1,0.1-0.2,0.1-0.4c0-0.1,0.1-0.2,0.1-0.3c0-0.1,0-0.3,0.1-0.4c0.1-0.2,0.2-0.5,0.2-0.8c0-0.3,0.1-0.5,0.2-0.8
		c0.1-0.3,0.2-0.6,0.3-0.9c0.1-0.3,0.1-0.6,0.2-0.9c0-0.1,0.1-0.3,0.1-0.4c0-0.1,0.1-0.2,0.2-0.3c0-0.1,0-0.2,0-0.4
		c0-0.1,0.1-0.2,0.1-0.3c0-0.1,0.1-0.2,0.1-0.3c0-0.1,0.1-0.2,0.2-0.3c0.3-0.1,0.6-0.1,1-0.2c0.1,0,0.3,0,0.4,0c0.1,0,0.2,0,0.4,0
		c0.1,0,0.2,0,0.4,0c0.1,0,0.3,0,0.4,0c0.1,0,0.2,0,0.4,0c0.1,0.1,0.2,0.1,0.2,0.1c0,0,0.1,0,0.2,0c0.2-0.1,0.3-0.1,0.5-0.1
		c0.3,0,0.6,0,0.8,0C-3699.4-8661.5-3699.2-8661.4-3699-8661.2z M-3700-8660.7c0.1-0.1,0-0.2-0.1-0.2c0,0-0.1,0.1,0,0.2c0,0,0,0,0,0
		C-3700.1-8660.7-3700.1-8660.6-3700-8660.7C-3700-8660.6-3700-8660.7-3700-8660.7L-3700-8660.7z M-3699.9-8659.5
		c-0.1,0.1-0.1,0.1,0.1,0.1C-3699.8-8659.4-3699.8-8659.5-3699.9-8659.5L-3699.9-8659.5z"/>
	<path id="Path_70" d="M-3858.6-8608.1c-1.8,0.1-3.5-0.6-4.8-1.8l1-1c1,1,2.4,1.6,3.8,1.5c2,0,3.3-1,3.3-2.6c0-0.6-0.2-1.3-0.7-1.7
		c-0.5-0.4-1.2-0.6-1.8-0.7l-1.6-0.3c-0.9-0.1-1.8-0.5-2.6-1.1c-0.7-0.7-1.1-1.6-1.1-2.6c0-2.4,1.7-3.9,4.5-3.9
		c1.5-0.1,3,0.5,4.1,1.5l-1,1c-0.9-0.8-2-1.3-3.2-1.2c-1.9,0-2.9,1-2.9,2.6c0,0.6,0.2,1.2,0.6,1.6c0.5,0.4,1.2,0.7,1.9,0.8l1.5,0.2
		c0.9,0.1,1.8,0.4,2.5,1c0.8,0.7,1.2,1.7,1.2,2.8C-3853.8-8609.6-3855.7-8608.1-3858.6-8608.1z"/>
	<path id="Path_71" d="M-3846.4-8608.1c-1.3,0-2.6-0.5-3.5-1.4c-1.3-1.3-1.3-2.7-1.3-5.6c0-3,0-4.3,1.3-5.6c0.9-0.9,2.2-1.5,3.5-1.4
		c2.4-0.1,4.5,1.7,4.8,4.1h-1.5c-0.2-1.6-1.6-2.8-3.3-2.8c-0.9,0-1.8,0.3-2.4,1c-0.9,0.9-1,1.9-1,4.8c0,2.9,0.1,3.9,1,4.8
		c0.6,0.6,1.5,1,2.4,1c1.7,0,3.1-1.2,3.3-2.8h1.5C-3841.8-8609.8-3843.9-8608-3846.4-8608.1z"/>
	<path id="Path_72" d="M-3838.3-8608.2v-13.9h1.5v13.9H-3838.3z"/>
	<path id="Path_73" d="M-3832.8-8608.2v-13.9h8.6v1.3h-7.1v4.9h6.1v1.3h-6.1v5h7.1v1.3L-3832.8-8608.2z"/>
	<path id="Path_74" d="M-3812.2-8608.2l-7.4-11.1v11.1h-1.5v-13.9h1.4l7.4,11.1v-11.1h1.5v13.9H-3812.2z"/>
	<path id="Path_75" d="M-3802.4-8608.1c-1.3,0-2.6-0.5-3.5-1.4c-1.3-1.3-1.3-2.7-1.3-5.6c0-3,0-4.3,1.3-5.6c0.9-0.9,2.2-1.5,3.5-1.4
		c2.4-0.1,4.5,1.7,4.8,4.1h-1.5c-0.2-1.6-1.6-2.8-3.3-2.8c-0.9,0-1.8,0.3-2.4,1c-0.9,0.9-1,1.9-1,4.8c0,2.9,0.1,3.9,1,4.8
		c0.6,0.6,1.5,1,2.4,1c1.7,0,3.1-1.2,3.3-2.8h1.5C-3797.9-8609.8-3800-8608-3802.4-8608.1z"/>
	<path id="Path_76" d="M-3794.3-8608.2v-13.9h8.6v1.3h-7.1v4.9h6.1v1.3h-6.1v5h7.1v1.3L-3794.3-8608.2z"/>
	<path id="Path_77" d="M-3767.4-8608.2v-10.6l-3.8,8.4h-1.3l-3.9-8.4v10.6h-1.5v-13.9h1.5l4.5,9.9l4.4-9.9h1.5v13.9H-3767.4z"/>
	<path id="Path_78" d="M-3757.2-8608.1c-2.5,0.1-4.7-1.8-4.8-4.3c0-0.1,0-0.2,0-0.4v-9.3h1.5v9.2c-0.1,1.9,1.4,3.4,3.3,3.5
		c1.9,0.1,3.4-1.4,3.5-3.3c0-0.1,0-0.2,0-0.2v-9.2h1.5v9.3c0.1,2.5-2,4.7-4.5,4.7C-3757-8608.1-3757.1-8608.1-3757.2-8608.1z"/>
	<path id="Path_79" d="M-3745-8608.1c-1.8,0.1-3.5-0.6-4.8-1.8l1-1c1,1,2.4,1.6,3.8,1.5c2,0,3.3-1,3.3-2.6c0-0.6-0.2-1.3-0.7-1.7
		c-0.5-0.4-1.2-0.6-1.8-0.7l-1.6-0.3c-0.9-0.1-1.8-0.5-2.6-1.1c-0.7-0.7-1.1-1.6-1.1-2.6c0-2.4,1.7-3.9,4.5-3.9
		c1.5-0.1,3,0.5,4.1,1.5l-1,1c-0.9-0.8-2-1.3-3.2-1.2c-1.9,0-2.9,1-2.9,2.6c0,0.6,0.2,1.2,0.6,1.6c0.5,0.4,1.2,0.7,1.9,0.8l1.5,0.2
		c0.9,0.1,1.8,0.4,2.5,1c0.8,0.7,1.2,1.7,1.2,2.8C-3740.2-8609.6-3742.1-8608.1-3745-8608.1z"/>
	<path id="Path_80" d="M-3737.1-8608.2v-13.9h8.6v1.3h-7.1v4.9h6.1v1.3h-6.1v5h7.1v1.3L-3737.1-8608.2z"/>
	<path id="Path_81" d="M-3720.7-8608.1c-2.5,0.1-4.7-1.8-4.8-4.3c0-0.1,0-0.2,0-0.4v-9.3h1.5v9.2c-0.1,1.9,1.4,3.4,3.3,3.5
		c1.9,0.1,3.4-1.4,3.5-3.3c0-0.1,0-0.2,0-0.2v-9.2h1.5v9.3c0.1,2.6-2,4.7-4.5,4.7C-3720.5-8608.1-3720.6-8608.1-3720.7-8608.1z"/>
	<path id="Path_82" d="M-3701.6-8608.2v-10.6l-3.8,8.4h-1.3l-3.9-8.4v10.6h-1.5v-13.9h1.5l4.5,9.9l4.4-9.9h1.5v13.9H-3701.6z"/>
</g>
</svg>
