<?xml version="1.0" encoding="utf-8"?>
<!-- Generator: Adobe Illustrator 25.0.1, SVG Export Plug-In . SVG Version: 6.00 Build 0)  -->
<svg version="1.1" id="Layer_1" xmlns="http://www.w3.org/2000/svg" xmlns:xlink="http://www.w3.org/1999/xlink" x="0px" y="0px"
	 viewBox="0 0 245 73.5" style="enable-background:new 0 0 245 73.5;" xml:space="preserve">
<style type="text/css">
	.st0{fill:#66B4C8;}
	.st1{fill:#5F54A0;}
	.st2{fill:#E94952;}
	.st3{fill:#4DA5DC;}
	.st4{fill:#FFD204;}
	.st5{fill:#EF7B57;}
	.st6{fill:#FFFFFF;}
</style>
<g id="Group_22" transform="translate(-114 -1884)">
	<g id="Group_20" transform="translate(114 1884)">
		<path id="Path_56" class="st0" d="M69.2,5.7c0.1,4.3-1.4,6.4-3.9,7.8c-3.5,1.9-7.1,3.9-10.8,5.5c-8.1,3.7-12.9,9.8-14.4,18.5
			c-0.7,3.7-3,6.2-5.6,5.4c-2-0.7-3.7-2.1-4.7-4c-0.9-2.1,0-4.6,2.2-5.5c0.2-0.1,0.4-0.1,0.6-0.2c9.4-3.3,14.2-10.8,18.3-19.1
			c1.8-3.6,3.4-7.3,5.4-10.8c1.6-2.9,5.1-4.1,8.2-3C67.3,1.3,69.2,4,69.2,5.7z"/>
		<path id="Path_57" class="st1" d="M29.6,56.1c-0.4-0.5,6.1-2.8,6.7-2.9c4.6-0.7,10.5,1.1,14.5,3.5c2.4,1.3,4.2,3.6,5,6.3
			c0.5,2.8-0.3,5.6-2.3,7.6c-3.5,3.6-9.5,4.2-12.9,0.1C36.7,66,33.2,60.9,29.6,56.1z"/>
		<path id="Path_58" class="st2" d="M12,11.7c1-0.8,2.3-1,3.4-0.5c0.5,0.2,1,0.4,1.5,0.6c4.2,1.8,7.5,1.1,10.7-2.2
			c0.9-1.1,2-2.1,3.1-3.1c2.3-2.1,5.8-2,7.9,0.2c2.2,2.1,2.5,5.5,0.8,8c-1.8,2.6-5.3,3.4-8.1,1.8c-0.7-0.4-1.3-0.8-2-1.3
			c-3.2-2.3-7.5-2.3-10.7,0.1c-1.7,1.1-2.8,2.3-5.1,2c-0.8-0.1-1.5-0.4-2.1-1C10.5,14.8,10.7,12.9,12,11.7L12,11.7z"/>
		<path id="Path_59" class="st1" d="M24.8,47.2c3.6,2.1,6.6,4.4,10.7,4.3c-0.2,0-0.4,0.1-0.6,0.1c-1.5,0.4-2.9,0.7-4.4,0.9
			c-1,0.1-2.1,0.1-3.1,0c-0.5,0-1-0.1-1.5-0.2c-0.4-0.1-0.6-0.5-0.8-0.8s-0.5-0.6-0.7-0.9c-0.5-0.6-1-1.2-1.5-1.8
			c-1-1.1-2.1-2.2-3.3-3.2c-3.8-3.3-8.5-5.5-13.5-6.3c-3.6-0.6-5.8-3.1-5.9-6.3c-0.1-3,1.9-5.7,4.9-6.5c3.5-0.8,6.4,0.6,7.8,4.2
			C15.3,37.2,18.4,43.4,24.8,47.2z"/>
		<path id="Path_60" class="st3" d="M78.8,38.1c-0.1,2.9-2.6,3.5-5.3,3.9c-2.1,0.4-4.2,0.8-6.3,1.3c-0.9,0.2-1.8,0.4-2.7,0.6
			c-14.8,3.4-29.2,8.2-43,14.4c-0.6,0.3-1.3,0.6-2,0.7c-0.7,0.1-1.3,0.1-2,0c-0.6-0.1-1.1-0.3-1.6-0.6c-0.3-0.3-0.6-0.8-0.7-1.2
			c-0.2-0.5-0.2-1-0.1-1.5c0.2-0.5,0.5-1,1-1.4c0.5-0.5,1.1-0.8,1.7-1.1c1.4-0.4,2.8-0.6,4.3-0.5c1.6,0,3.2,0.2,4.8,0.3
			c1.6,0.2,3.2,0.1,4.7-0.2c1.5-0.3,3.1-0.8,4.5-1.4L57.5,44c5-1.8,9.4-4.9,12.8-9c1.6-2,3.7-3.5,6-1.8
			C77.8,34.4,78.7,36.2,78.8,38.1z"/>
		<circle id="Ellipse_1" class="st4" cx="56.4" cy="33.1" r="3.3"/>
		<circle id="Ellipse_2" class="st5" cx="67.2" cy="56" r="4"/>
	</g>
	<g id="Group_21" transform="translate(201.118 1894.908)">
		<path id="Path_61" class="st6" d="M10.1,10.5c0.1-0.1,0.1-0.1,0.2-0.2s0-0.1-0.2-0.1c0,0,0,0-0.1-0.1c0-0.1,0-0.2,0-0.3V9.1
			c0-0.3,0-0.6,0-1s0-0.6,0-0.9c0-0.3-0.1-0.6-0.1-0.9C9.9,6.1,9.7,5.8,9.6,5.5c0-0.1-0.1-0.1-0.1-0.2c0,0-0.1-0.1-0.1-0.1
			c0,0-0.1-0.1-0.2-0.1c0,0,0-0.1,0-0.2c0-0.2,0-0.2-0.1-0.1S8.9,4.9,8.8,4.9c-0.1,0-0.1-0.1-0.1-0.2S8.6,4.6,8.5,4.6
			c0,0-0.1,0.1-0.1,0.1c0,0,0,0.1-0.1,0.1H7.8c0-0.2,0-0.3,0-0.5C7.9,4.1,8,4,8,3.9C8,3.8,7.9,3.8,7.8,3.9C7.7,4,7.7,4,7.6,3.9
			s-0.1-0.1-0.2,0c0,0.1,0,0.2,0.1,0.2s0.1,0.1,0,0.3c0,0.1,0,0.3,0,0.4c-0.1,0-0.1,0-0.2,0c-0.1,0-0.1,0.1-0.2,0.1
			C7.2,4.9,7.1,5,7.1,5C6.9,5.1,6.8,5.2,6.8,5.3C6.7,5.4,6.5,5.5,6.4,5.6C6.3,5.7,6.2,5.8,6.1,5.8c0,0.1,0,0.1,0.1,0s0.1,0,0.1,0
			c0,0.2,0,0.3-0.1,0.3c0.1,0.2,0,0.3-0.1,0.3c0,0.2,0,0.3,0,0.5c0,0.1,0,0.3-0.1,0.4c0,0.1,0,0.1,0,0.2c0,0.1,0,0.1,0,0.2
			C6,8,6,8.2,6,8.4c0,0.2,0,0.4,0,0.5c0,0.2,0,0.3,0,0.5c0,0.2,0,0.3,0,0.5c0,0.1,0,0.2,0.1,0.4c0,0.1,0,0.2-0.1,0.2s0,0.1,0,0.2
			c0.1,0.1,0.1,0.3,0,0.4c-0.1,0.1,0,0.2,0,0.3C6,11.4,6,11.6,6,11.8c0,0.2,0,0.4,0,0.6s0,0.4,0,0.6s0,0.4,0,0.6c0,0.2,0,0.3,0,0.5
			c0,0.2,0,0.3,0,0.5c0,0.4,0,0.7,0,1.1v1.1c0,0.2,0,0.3,0,0.5c0,0.2,0,0.3,0,0.5C6,17.7,6,17.8,6,18c0,0.1,0.1,0.3,0.1,0.4
			c0,0.2,0,0.3,0,0.5c0,0.2,0,0.4,0,0.6c0,0.1,0,0.1,0,0.2c0,0,0,0.1,0,0.1c0,0.1,0,0.2,0,0.3c0,0.1,0,0.2,0,0.2
			C6,20.4,6,20.6,6,20.7c0,0.2,0,0.3,0,0.5C6,21.4,6,21.6,6,21.8v0.6c0,0.2,0,0.3,0.1,0.5c0,0.2,0.1,0.3,0.1,0.5
			c0,0.3,0.1,0.7,0.4,0.9c0.2,0.2,0.5,0.4,0.8,0.5c0.1,0.1,0.3,0.1,0.4,0.1c0.1,0,0.3,0,0.4,0c0.1,0,0.1,0,0.2,0
			c0.1,0,0.1,0,0.2,0.1c0.3-0.2,0.6-0.4,0.9-0.6c0.1-0.1,0.1-0.2,0.1-0.3s0.1-0.2,0.1-0.3c0.1-0.1,0.1-0.3,0.2-0.4
			c0.1-0.1,0.1-0.3,0.1-0.5c0-0.1,0-0.1,0-0.2c0-0.1,0-0.1,0-0.2c0.1-0.1,0.1-0.2,0-0.2c0-0.1-0.1-0.1-0.1-0.2c0-0.1,0-0.2,0-0.2
			c0-0.1,0-0.2,0-0.2c0-0.1,0-0.1,0-0.2c0-0.1,0-0.1,0-0.2c0-0.2,0-0.3,0-0.5c0-0.2,0-0.3,0-0.5c0-0.1,0-0.1,0.1-0.2
			c0-0.1,0-0.1,0-0.2c0-0.1,0-0.1,0-0.2s0-0.1,0-0.2c0-0.1,0-0.2,0-0.2s0-0.1,0-0.2c0-0.1,0-0.2,0-0.2c0-0.1,0-0.2,0-0.2
			c0-0.1,0-0.1,0-0.2c0-0.1,0.1-0.1,0.1-0.2c0.1-0.1,0.2-0.1,0.1-0.1s0-0.1,0-0.2c0.2-0.1,0.4-0.1,0.5-0.1c0.2,0,0.3,0,0.5,0
			c0.4,0,0.8,0,1.1,0c0.4,0,0.8,0,1.1,0c0.1,0,0.2,0,0.3,0c0.1,0,0.2,0,0.2,0.1c0.1-0.1,0.2-0.1,0.4,0c0.1,0,0.2,0,0.3,0
			c0.1,0,0.2,0,0.2,0.1C14.9,18,14.9,18,15,18c0.1,0,0.1,0.1,0.1,0.4s0,0.6,0,0.9s0,0.6,0,1s0,0.5,0,0.6v0.8c0,0.3,0,0.5,0,0.8v0.4
			c0,0.1,0,0.3,0,0.4c0,0.1,0,0.2-0.1,0.3c-0.1,0.1-0.1,0.2,0,0.3c0.1,0,0.1,0.1,0,0.2c0,0.1,0,0.1-0.1,0.2C15,24.1,15,24.2,15,24.3
			c0,0.1,0,0.2-0.1,0.3c-0.1,0.3-0.1,0.5-0.2,0.8c-0.1,0.2-0.2,0.5-0.3,0.7c0,0.1-0.1,0.1-0.2,0.2c-0.1,0.1-0.1,0.2,0,0.2
			c-0.2,0.1-0.3,0.2-0.4,0.4c-0.1,0.2-0.2,0.3-0.3,0.4c-0.1,0.1-0.3,0.2-0.4,0.4c-0.1,0.1-0.3,0.3-0.4,0.4c-0.2,0.1-0.3,0.2-0.5,0.3
			c-0.2,0.2-0.3,0.3-0.6,0.4c-0.1,0.1-0.2,0.1-0.3,0.1c-0.1,0-0.2,0.1-0.3,0.2c-0.2,0.2-0.4,0.2-0.6,0.2c-0.2,0-0.5,0.1-0.7,0.1
			c-0.1,0-0.2,0.1-0.4,0.1c-0.1,0-0.2-0.1-0.3-0.1c-0.1,0-0.2,0-0.2,0s-0.1-0.1-0.2-0.2c0,0-0.1,0.1,0,0.2c0,0.1-0.1,0.1-0.2,0.1
			c-0.1,0-0.2,0-0.2,0c-0.2,0-0.3,0-0.5,0c-0.2,0-0.3,0-0.5,0c-0.3-0.1-0.5-0.1-0.8-0.1c-0.3,0-0.6-0.1-0.8-0.2
			c-0.3-0.1-0.6-0.1-0.9-0.2C4.4,29,4.2,28.8,4,28.6c-0.3-0.1-0.6-0.3-0.8-0.5c0-0.1,0-0.2-0.1-0.2S3,27.8,3,27.6
			c-0.1,0-0.1,0-0.1,0s0,0.1-0.1,0c-0.1,0-0.1-0.1-0.1-0.2c0-0.1,0-0.2,0-0.2c-0.1,0.1-0.1,0.1-0.1,0s0-0.1-0.1-0.1
			c-0.1,0-0.1,0.1,0,0.1s0,0-0.1,0c0,0-0.1-0.1-0.1-0.1c0-0.1-0.1-0.1-0.1-0.1C2.1,26.9,2,26.8,2,26.7c-0.1-0.1-0.1-0.3,0-0.4
			c0.1-0.1,0-0.2-0.1-0.2s-0.1,0-0.1,0.1c0,0.1-0.1,0.1-0.2-0.1c-0.1-0.1-0.2-0.2-0.2-0.4c-0.1-0.1-0.1-0.2,0-0.4
			c0.1-0.1,0.1-0.2,0-0.4c-0.1-0.1-0.1-0.1-0.1-0.1c-0.1,0-0.1-0.1-0.1-0.2c-0.1-0.2-0.2-0.4-0.3-0.5c0.1-0.2,0-0.4,0-0.5
			c-0.1-0.1-0.1-0.3,0-0.5c0-0.2,0-0.3,0-0.5c-0.1-0.1-0.1-0.2,0-0.3c0-0.1,0.1-0.2,0.1-0.3c0-0.1,0-0.2-0.1-0.2
			c0-0.1-0.1-0.2-0.1-0.3V21c0-0.2,0-0.4,0-0.6c-0.1-0.2,0-0.4,0.1-0.6c-0.1-0.2-0.1-0.4-0.1-0.7c0-0.2,0.1-0.4,0.1-0.7v-0.3
			c0-0.1,0-0.2,0-0.3c0-0.1,0-0.2,0-0.3c0-0.1,0-0.2,0-0.3c0-0.1,0-0.1,0-0.2s0-0.1,0-0.2c0-0.1,0-0.2,0-0.4c0-0.1,0-0.2,0-0.3
			c-0.1-0.1-0.1-0.2-0.1-0.4c0-0.1,0-0.3,0.1-0.4c0.1-0.1,0.1-0.3,0.1-0.4c0-0.2,0-0.4-0.1-0.6c0-0.2,0-0.4,0-0.6
			c0-0.2,0.1-0.3,0.2-0.3c0-0.1-0.1-0.2-0.1-0.2c-0.1,0-0.1-0.1-0.1-0.3c0-0.1,0.1-0.2,0.1-0.3c0-0.1,0.1-0.2,0.1-0.3H0.8
			c-0.1,0-0.1-0.1-0.1-0.2s0-0.2,0-0.2c0-0.1,0-0.1,0-0.2c0-0.1,0-0.1-0.1-0.2c0-0.1,0-0.2,0-0.4c0-0.3,0-0.5,0-0.8V9.8
			c0-0.3,0-0.6,0-1s0-0.6,0-1c0-0.1,0-0.3,0-0.4c0-0.1,0-0.1,0-0.2c0-0.1,0-0.1,0-0.2c0-0.1,0-0.3,0-0.4c0-0.1,0.1-0.3,0.2-0.3
			C0.8,6.3,0.8,6.2,0.8,6.1c0-0.1,0-0.2,0-0.3c0-0.1,0.1-0.3,0.1-0.4C0.9,5.2,1,5.1,1,4.9c0.1-0.1,0.1-0.3,0.1-0.4s0.1-0.3,0.1-0.4
			c0-0.1,0.1-0.2,0.2-0.3c0.1-0.1,0.1-0.2,0.1-0.3c0.2-0.2,0.3-0.4,0.4-0.6c0.1-0.1,0.2-0.2,0.3-0.3c0.1-0.1,0.2-0.3,0.3-0.4
			C2.7,2,2.9,1.9,3.1,1.7c0.1-0.1,0.1-0.1,0.2-0.2c0.1,0,0.1-0.1,0.2-0.2c0,0,0.1-0.1,0.2-0.1c0.1,0,0.1,0,0.2-0.1
			C3.9,1.2,4,1.1,4.1,1c0.1-0.1,0.2-0.2,0.3-0.2c0.2,0,0.3-0.1,0.5-0.2C5,0.5,5.2,0.5,5.4,0.4c0.3-0.1,0.6-0.2,0.8-0.2
			C6.5,0.2,6.7,0.1,7,0.1c0.1,0,0.2,0,0.3,0c0.1,0,0.1,0,0.2-0.1c0.1,0,0.1,0,0.2,0c0.2,0,0.4,0,0.5,0c0.2,0,0.3,0,0.5,0
			c0.3,0,0.5,0,0.8,0.1c0.3,0,0.5,0.1,0.8,0.2c0.1,0,0.2,0.1,0.2,0.1c0.1,0,0.2,0,0.2,0c0.2,0.1,0.4,0.2,0.5,0.2
			c0.2,0.1,0.4,0.2,0.5,0.3c0.3,0.2,0.6,0.4,0.8,0.6c0.2,0.2,0.5,0.4,0.7,0.6c0.1,0.1,0.2,0.2,0.3,0.3c0.1,0.1,0.2,0.2,0.2,0.3
			c0,0.1,0.1,0.2,0.2,0.3c0.1,0.1,0.2,0.2,0.2,0.3c0,0.3,0.1,0.6,0.2,0.8c0.1,0.3,0.3,0.5,0.4,0.8c0.3,1,0.4,2.1,0.3,3.2
			c0,0.1,0,0.3,0.1,0.4c0,0.1,0.1,0.3,0.1,0.4c0,0.2,0,0.4-0.1,0.6c0,0.2-0.1,0.4-0.1,0.6v0.4c0,0.1,0,0.3,0.1,0.4
			c0,0.1,0,0.3-0.1,0.4c-0.1,0.1-0.2,0.2-0.3,0.3c-0.7,0-1.4,0-2,0c-0.7,0.1-1.4,0.1-2,0c-0.1,0-0.3,0-0.4-0.1
			c-0.1-0.1-0.2-0.2-0.2-0.3c-0.1-0.1-0.1-0.2-0.2-0.4C10,10.6,10,10.5,10.1,10.5z"/>
		<path id="Path_62" class="st6" d="M32.5,11.4c0,0.2,0,0.4,0.1,0.6c0,0.2,0,0.4,0,0.6c0,0.1,0,0.3-0.1,0.4c-0.1,0.1-0.1,0.3,0,0.4
			c0.1,0.4,0.1,0.9,0,1.3c0,0,0,0.1,0,0.1c-0.1,0.1-0.1,0.1-0.1,0c0-0.1-0.1-0.1-0.1-0.1c0,0-0.1,0.1-0.1,0.1
			c0.1,0.1,0.1,0.2,0.2,0.2c0.1,0.1,0.1,0.1,0,0.3c-0.1,0.1-0.1,0.1-0.2,0.2c-0.1,0.1-0.1,0.1,0,0.3c0.1,0,0.2,0,0.2-0.1
			c0.1-0.1,0.1,0,0.1,0.3v0.6c0,0.2,0,0.3-0.1,0.5c0,0.1,0,0.1,0,0.1c0,0,0.1,0.1,0.1,0.1c0,0.1,0,0.2,0,0.3v0.3c0,0.2,0,0.4,0,0.5
			c0,0.2,0,0.3,0,0.5c0,0.1-0.1,0.2-0.1,0.3c0,0.1,0,0.2,0,0.2c0,0,0.1,0.1,0.1,0.1c0,0,0,0.1,0,0.1c0,0.2,0,0.4,0,0.6
			c0,0.2,0,0.4-0.1,0.6c0,0.1,0.1,0.2,0.1,0.3c0,0.1,0,0.3,0,0.4c0,0.1,0,0.3,0,0.4c0,0.1,0,0.3,0,0.4c0,0.1,0.1,0.3,0.1,0.5
			c0,0.2,0,0.3-0.1,0.4c0,0.1,0,0.1,0,0.2c0,0.1,0,0.1,0,0.2c0,0.1,0,0.2-0.1,0.3c0,0.1,0,0.2-0.1,0.3c-0.1,0.1-0.1,0.3-0.1,0.4
			c0,0.1,0,0.2-0.1,0.4c-0.1,0.1-0.1,0.2-0.1,0.3c0,0.1-0.1,0.2-0.1,0.3c-0.1,0.2-0.1,0.3-0.2,0.4c-0.1,0.1-0.1,0.3-0.2,0.4
			c-0.1,0.1-0.2,0.3-0.3,0.4c-0.1,0.2-0.2,0.3-0.3,0.4c-0.2,0.2-0.4,0.4-0.5,0.6c-0.2,0.2-0.4,0.4-0.6,0.5c-0.1,0.1-0.3,0.1-0.4,0.2
			c0,0-0.1,0.1-0.1,0.1c0,0.1,0,0.1-0.1,0.1c-0.2,0-0.4,0.1-0.5,0.2c-0.1,0.1-0.3,0.2-0.5,0.3c-0.1,0.1-0.3,0.1-0.4,0.1
			c-0.1,0-0.3,0-0.4,0.1c-0.1,0.1-0.2,0.1-0.4,0.1c-0.1,0-0.3,0-0.4-0.1c-0.1,0.1-0.2,0.1-0.3,0.2c-0.1,0-0.3,0.1-0.4,0.1
			c-0.1,0-0.2-0.1-0.2-0.1s-0.1,0-0.2,0c-0.1,0-0.2,0-0.4,0h-0.4c-0.7,0-1.4-0.1-2.1-0.3c-0.3-0.1-0.6-0.2-0.9-0.3
			c-0.1-0.1-0.3-0.1-0.4-0.1c-0.2-0.2-0.4-0.3-0.6-0.4c-0.3-0.2-0.6-0.4-0.9-0.7c-0.3-0.2-0.5-0.5-0.7-0.8c0,0-0.1-0.1-0.2-0.1
			c-0.1,0-0.1-0.1-0.2-0.1c-0.1-0.1-0.1-0.3-0.2-0.4c-0.1-0.1-0.2-0.3-0.3-0.4c-0.1-0.1-0.2-0.3-0.2-0.5c-0.3-0.7-0.5-1.4-0.5-2.2
			c0-0.8,0-1.5,0-2.2c0-0.2,0-0.4,0-0.6c0-0.2,0-0.4,0-0.6c0.1-0.1,0.1-0.3,0-0.4c0-0.1,0-0.3,0-0.4c0.1-0.2,0.1-0.3,0-0.5
			c0-0.2-0.1-0.4-0.1-0.5c0-0.2,0-0.4,0-0.6c0-0.2,0-0.4,0-0.6c0-0.3,0-0.7,0-1.1c0-0.4,0-0.7,0-1.1c0-0.2,0-0.5-0.1-0.7
			c0-0.2,0-0.5,0-0.7c0-0.1,0-0.2,0-0.2s0-0.1,0-0.2c0-0.2-0.1-0.4,0-0.6c0.1-0.2,0.1-0.3,0-0.5c0-0.2,0-0.3,0-0.5
			c0-0.1,0-0.1-0.1-0.2c0-0.1,0-0.1,0-0.2c0,0,0,0,0,0c0.1-0.1,0.1-0.2,0-0.2c-0.1,0-0.1-0.1-0.1-0.3c0-0.1,0.1-0.1,0.1-0.2
			c0-0.1,0-0.1,0-0.2c0-0.1,0-0.2,0-0.3c0-0.1-0.1-0.2-0.1-0.3V9.2c0-0.1,0-0.2,0.1-0.3c0.1,0,0.1,0,0.1,0.1c0,0.1,0.1,0.1,0.1,0.1
			C18.1,9,18,8.9,17.9,8.8c-0.1-0.1-0.1-0.2-0.1-0.3c0-0.1,0-0.3-0.1-0.4c0-0.1,0-0.3,0.1-0.4c0.1-0.1,0.1-0.3,0-0.4
			c0-0.2-0.1-0.3-0.1-0.5c0-0.2,0.1-0.4,0.1-0.5c0-0.2,0-0.4,0-0.6c0-0.1,0-0.2,0-0.2C18,5.3,18,5.3,18,5.2C18,5.1,18,5.1,18.1,5
			s0.2-0.1,0.1-0.1c-0.1-0.1-0.1-0.2-0.1-0.3c0-0.2,0.1-0.4,0.2-0.5c0.1-0.2,0.2-0.4,0.3-0.6c0.1-0.1,0.1-0.2,0.2-0.4
			c0-0.1,0.1-0.2,0.2-0.3c0.1-0.1,0.2-0.2,0.3-0.3c0.1-0.1,0.2-0.2,0.2-0.3C19.7,2.1,19.8,2,19.9,2C20,2,20,1.9,20,1.8
			c0-0.1,0-0.1,0.1-0.2c0,0,0,0,0,0c0.1,0,0.2-0.1,0.2-0.1c0.2-0.1,0.3-0.2,0.5-0.4s0.3-0.2,0.5-0.3c0.2,0,0.3-0.1,0.5-0.1
			c0.1-0.1,0.3-0.2,0.4-0.2c0.3-0.1,0.6-0.2,1-0.2c0,0,0.1,0,0.1,0c0,0,0.1,0,0.1,0c0.1,0,0.1,0,0.1,0s0.1,0,0.1,0
			C23.7,0.1,23.8,0,23.9,0c0.1,0,0.2,0,0.2,0.2c0,0,0.1-0.1,0.1-0.1c0,0,0.1-0.1,0.1-0.1h0.8c0.2,0,0.4,0,0.6,0s0.4,0,0.6,0.1
			c0,0.1,0.1,0.2,0.2,0.3c0.1,0.1,0.1,0,0-0.2c0-0.1,0-0.1,0.1-0.1c0.1,0,0.2,0,0.3,0.1c0.1,0,0.2,0.1,0.3,0.1
			c0.1,0,0.1,0.1,0.2,0.1c0.1-0.1,0.2-0.1,0.3-0.1c0,0,0,0,0.1,0c0.1,0.1,0.2,0.1,0.3,0.1c0.1-0.1,0.3,0,0.4,0.1
			c0.1,0.1,0.2,0.2,0.4,0.1c0,0.2,0,0.2,0.1,0.2s0.1-0.1,0.2,0.1c0,0.1,0,0.1-0.1,0.2c0,0.1,0,0.1,0,0.2c0.1,0,0.1,0,0.2,0
			c0.1,0,0.1,0,0.1-0.1c0.1,0,0.2,0,0.3,0c0.1,0,0.2,0,0.2,0.1c-0.1,0.1-0.1,0.2-0.1,0.2c0.1,0,0.1,0,0.2,0c0.1,0,0.2,0.1,0.1,0.2
			c0.1,0.1,0.1,0.2,0.1,0.2s0.1,0,0.2,0c0.1,0,0.2,0.1,0.3,0.3c0.1,0.1,0.1,0.2,0.2,0.3l0.3,0.3c0.1,0.1,0.1,0.2,0.1,0.3
			c0.1,0.1,0.2,0.2,0.3,0.4c0.1,0.1,0.1,0.3,0.2,0.5l0.2,0.5c0,0.1,0,0.1-0.1,0.1c-0.1,0-0.1,0.1,0,0.1c0.1,0.1,0.2,0.1,0.2,0.2
			c0,0.1-0.1,0.2-0.2,0.3c0,0.1,0.1,0.1,0.1,0.1s0.1-0.1,0.1,0c0.1,0.2,0,0.3-0.1,0.4c0,0,0.1,0.1,0.1,0.1c0,0,0.1,0,0.1,0
			c0,0.1,0,0.2,0,0.3c0,0.1,0,0.2,0,0.3c0,0.1,0,0.2-0.1,0.3c-0.1,0,0,0.1,0,0.1c0.1,0,0.1,0.1,0.1,0.2c0,0.1,0,0.3-0.1,0.3
			c-0.1,0.1-0.1,0.2,0,0.3c0.1,0.1,0.2,0.3,0.2,0.5c0,0.2,0,0.3-0.1,0.5c-0.1,0-0.2-0.1-0.3-0.1c-0.1-0.1-0.2-0.1-0.3-0.1
			c0,0,0,0.1,0.1,0.3s0.2,0.2,0.2,0.2c0.1-0.1,0.2,0,0.2,0.2c0,0.1,0,0.3-0.1,0.4c0.1,0.2,0.1,0.3,0.1,0.5c0,0.2,0,0.4-0.1,0.5
			c0,0.2,0,0.4,0,0.6C32.5,11,32.5,11.2,32.5,11.4z M27.4,17.8c0.1,0,0.1,0.1,0.1,0.2c0,0.1,0.1,0.1,0.2,0.1c0,0,0,0,0.1,0
			c-0.1-0.1-0.2-0.2-0.3-0.4c-0.1-0.1-0.2-0.2-0.2-0.4c0-0.2,0-0.4,0.1-0.5c0-0.2,0-0.3-0.1-0.5c0.1,0.1,0.2,0.1,0.2,0.1
			c0,0,0-0.1,0-0.1c0-0.1,0-0.1-0.1-0.2c0-0.1,0-0.1,0-0.2c0.1-0.2,0.1-0.4,0-0.5c-0.1-0.2-0.1-0.4-0.1-0.6c0,0,0-0.1,0-0.1
			c0,0,0-0.1,0.1-0.1l-0.1-0.4c0.1-0.1,0.1-0.1,0.1-0.2c0-0.1,0-0.2,0-0.3c0-0.1,0-0.2,0-0.3c0-0.1,0-0.2,0-0.3
			c0.1-0.1,0.1-0.2,0-0.3c0-0.1-0.1-0.2-0.1-0.3c0-0.2,0-0.4,0-0.6c0-0.2,0-0.4,0-0.6c-0.1-0.2,0-0.4,0-0.6c0.1-0.1,0.1-0.3,0-0.4
			c0-0.1-0.1-0.3-0.1-0.4c0-0.2,0-0.4,0.1-0.6c0.1-0.2,0.1-0.4,0-0.6c-0.1-0.3-0.1-0.6-0.1-0.8c0-0.3,0-0.6,0-0.8
			c0.2,0.1,0.2,0.1,0.2,0.1s0,0.1,0,0.2c0.1,0,0.2-0.1,0.3-0.2c0.1-0.1,0.1-0.3,0-0.4c-0.1,0-0.2,0.1-0.3,0.1
			c-0.1,0.1-0.2,0-0.2-0.1c0-0.1,0-0.2,0-0.3c0-0.1,0-0.2,0-0.3c0-0.2-0.1-0.4-0.2-0.5c-0.1-0.2-0.2-0.4-0.3-0.5
			c-0.2-0.1-0.3-0.2-0.4-0.3c-0.1-0.1-0.3-0.2-0.5-0.2c-0.3-0.1-0.5-0.1-0.8,0c0,0,0-0.1,0-0.1C25,4.5,25,4.5,25,4.5
			c-0.1-0.1-0.1-0.1-0.1,0s0,0.2-0.1,0.2c-0.1,0-0.2,0-0.1,0s0,0-0.1,0c0,0.1-0.1,0.1-0.2,0.1c-0.1,0-0.1,0-0.2,0.1
			C24,5,23.9,5.1,23.8,5.2c-0.1,0.1-0.2,0.2-0.3,0.3c-0.1,0.1-0.2,0.3-0.2,0.4c0,0.2-0.1,0.3-0.1,0.5c-0.1,0.1-0.1,0.3-0.1,0.4
			c0,0.1,0,0.2-0.1,0.3c-0.1,0.1-0.1,0.2,0,0.3c0.1,0.1,0.1,0.2,0,0.3c0,0.2,0,0.4,0,0.6c0,0.2,0,0.4,0,0.6c0,0.2,0,0.2-0.1,0.2
			s-0.1,0-0.2,0c-0.1,0.1-0.1,0.1,0,0.1s0.1,0,0.1,0c0.1-0.1,0.2,0,0.2,0.1v0.3c0,0.1-0.1,0.1-0.1,0.2c0,0,0,0.1,0,0.1
			c0,0.1,0.1,0.2,0.1,0.4c0.1,0.1,0,0.3,0,0.4c0,0-0.1,0.1,0,0.2c0,0.1,0,0.1,0,0.2c0,0.1,0,0.1,0,0.2c0,0.1,0,0.1,0,0.2
			c0.1,0.1,0.1,0.3,0,0.4c0,0.3,0,0.7,0,1c0.1,0.2,0,0.3,0,0.5c-0.1,0.2-0.1,0.3,0,0.5c0,0.1,0,0.3,0,0.4c0,0.1,0,0.3,0,0.4
			c0,0.1,0,0.2,0,0.3c0,0.1,0,0.2,0,0.3c0,0.2,0,0.3,0,0.5s0,0.3,0,0.5v0.3c0,0-0.1,0.1-0.1,0.1c-0.1,0-0.1,0,0,0.1
			c0.1,0.1,0.2,0.2,0.1,0.4c0,0.1,0,0.3,0,0.5c0.1,0.3,0.1,0.6,0.1,1c0,0.3,0,0.7,0,1c0,0.2,0,0.4,0,0.6c0,0.2,0,0.4,0,0.6
			c0,0.1,0,0.1,0,0.2c0,0,0,0.1,0,0.2c0,0.1,0,0.3,0,0.4v0.8c0,0.1,0,0.3,0,0.4c0.1,0.1,0.1,0.1,0.1,0.2c0,0.1,0,0.2,0,0.2
			c0,0.3,0.1,0.6,0.2,0.8c0.1,0.3,0.3,0.5,0.5,0.7c0.2,0.1,0.4,0.2,0.7,0.3c0.2,0,0.3,0.1,0.5,0.1c0.2,0,0.3,0,0.5,0
			c0.2,0,0.3-0.1,0.5-0.1c0.1-0.1,0.3-0.1,0.4-0.2c0.1,0,0.2-0.1,0.2-0.1s0-0.1,0.1-0.2c0-0.1,0.1-0.1,0.2-0.1c0.1,0,0.1,0,0.2-0.1
			c0-0.1,0-0.1-0.1-0.1s-0.1,0-0.1-0.1c0.1-0.2,0.1-0.3,0.2-0.5c0.1-0.2,0.1-0.3,0.1-0.5c0-0.2,0-0.4,0-0.5v-0.6c0-0.2,0-0.4,0-0.6
			c-0.1-0.1-0.1-0.3-0.1-0.5c0-0.2,0.1-0.3,0.1-0.5c0-0.1,0-0.3,0-0.5s0-0.4-0.1-0.7c0-0.2,0-0.4,0-0.7c0-0.1,0.1-0.3,0.2-0.4
			c0.1-0.1,0.1-0.1,0-0.2C27.3,17.8,27.3,17.8,27.4,17.8L27.4,17.8z"/>
		<path id="Path_63" class="st6" d="M55,22.1c0,0.2,0,0.4,0.1,0.5c0,0.1,0,0.3,0,0.5C55,23.2,55,23.3,55,23.5c0,0.1,0,0.3,0,0.4
			c0,0.2,0,0.4,0,0.6c0,0.2,0,0.4,0,0.5c-0.1,0.2-0.1,0.4,0,0.6c0.1,0.2,0.1,0.4,0.1,0.6c0,0.1,0,0.2,0,0.2c0,0,0,0.1,0,0.2
			c0,0.1,0,0.2,0,0.3c0,0.1,0,0.2,0,0.3c0,0.2,0,0.4,0,0.6c0,0.2,0,0.4,0,0.6c0,0.2,0,0.4-0.1,0.6c-0.1,0.2-0.1,0.2-0.2,0.2
			s-0.1,0-0.2,0.2c-0.2,0-0.4,0-0.6,0c-0.2,0-0.4,0-0.5,0c-0.2,0-0.3-0.1-0.5-0.1c-0.1,0-0.2,0-0.2,0c-0.1,0-0.2,0-0.2,0
			c-0.2,0-0.4,0-0.5,0s-0.3,0-0.5-0.1c-0.2,0-0.4,0-0.6,0c-0.2,0-0.4-0.1-0.5-0.3c-0.1-0.1-0.2-0.3-0.2-0.4c0-0.1,0-0.3,0-0.4
			c0-0.2,0-0.4,0-0.5c0-0.2,0-0.4,0-0.5c0-0.2,0-0.4,0-0.5s0-0.3,0-0.5c0-0.2,0-0.4,0-0.5c0-0.2,0-0.3,0-0.5c0-0.7,0-1.4,0-2
			c0-0.7,0-1.4-0.1-2c0-0.1,0-0.3,0-0.4c0-0.2,0-0.3,0-0.5c0-0.1,0-0.1,0-0.2c0,0,0-0.1,0-0.2v-0.2c0-0.1,0-0.2,0.1-0.2
			c0-0.2,0-0.4,0-0.6s0-0.4,0-0.6c0-0.2,0-0.4,0-0.6c0-0.2,0-0.4,0-0.5c-0.1-0.2-0.1-0.4,0-0.6c0-0.2,0-0.4,0-0.6c0-0.3,0-0.7,0-1
			c0-0.1,0-0.2,0-0.4s0-0.3,0-0.5c0-0.2,0-0.3,0-0.5c0-0.1,0.1-0.2,0.1-0.3c-0.1,0-0.1-0.1-0.1-0.2c0-0.1,0-0.2-0.1-0.2
			c-0.1,0-0.1,0.1-0.1,0.1c0,0.1-0.1,0-0.1-0.1c-0.1,0.1-0.1,0.1,0,0.1c0,0,0.1,0.1,0.1,0.1c0,0.1,0,0.2-0.1,0.3
			c0,0.1,0,0.2-0.1,0.3c-0.1,0.2-0.1,0.4-0.1,0.6c0,0.2-0.1,0.4-0.1,0.6c-0.1,0.2-0.1,0.4-0.1,0.6c0,0.2-0.1,0.4-0.1,0.6
			c0,0.2-0.1,0.4-0.2,0.6c-0.1,0.2-0.1,0.4,0,0.6c0.1,0.1,0,0.2,0,0.3c-0.1,0.1-0.2,0.2-0.2,0.3c-0.1,0.2-0.1,0.3,0,0.3
			s0.1,0.1,0.1,0.3c-0.1,0.1-0.1,0.3-0.1,0.4c0,0.2,0,0.3-0.1,0.5c-0.1,0.2-0.1,0.4-0.1,0.5c0,0.1,0,0.1,0,0.1c0,0-0.1,0-0.1,0
			c0.1,0.1,0.2,0.2,0.1,0.4c-0.1,0.1-0.1,0.3-0.1,0.4c-0.1-0.1-0.1-0.2-0.2-0.3c0-0.1-0.1-0.2-0.1-0.3c-0.1,0.1-0.1,0.2,0,0.3
			c0,0.1,0.1,0.2,0.1,0.3c0.1,0.1,0.1,0.2,0.1,0.3c0,0.1,0,0.3-0.1,0.4c-0.1,0.1-0.1,0.3-0.1,0.4c0,0.1,0,0.3-0.1,0.4
			c-0.1,0.1-0.1,0.3-0.1,0.4c0,0.1,0,0.3-0.1,0.4c-0.1,0.2-0.1,0.4-0.1,0.6c0,0.2-0.1,0.4-0.1,0.6c0,0.1,0,0.2-0.1,0.2
			s-0.1,0.1-0.1,0.2c0.1,0.1,0.1,0.2,0.1,0.4c0,0.1,0,0.3-0.1,0.4c0,0-0.1,0.1,0,0.2c0,0.1,0,0.1,0,0.2c-0.1,0.2-0.1,0.3-0.1,0.5
			c0,0.1,0,0.3-0.1,0.4c-0.1,0.1-0.1,0.3-0.1,0.4c0,0.1,0,0.3-0.1,0.4c-0.1,0.1-0.1,0.3-0.1,0.4c0,0.1,0,0.3-0.1,0.4
			c0,0.1-0.1,0.3-0.1,0.4c0,0.1-0.1,0.3-0.2,0.4c-0.1,0.1-0.1,0.1,0,0.2s0,0.1,0,0.2c-0.1,0-0.2,0-0.3,0.1s-0.2,0-0.3,0.1
			c-0.1,0-0.3,0.1-0.5,0.1c-0.2,0-0.4,0-0.5,0c-0.2-0.1-0.3-0.1-0.5,0c-0.2,0.1-0.4,0.1-0.5,0.1c-0.3,0-0.6-0.2-0.7-0.5
			c-0.1-0.1-0.1-0.3-0.2-0.4c-0.1-0.1-0.1-0.2,0-0.3s0-0.2,0-0.3c-0.1-0.3-0.2-0.6-0.2-1c0-0.3,0-0.6-0.1-1c0-0.1-0.1-0.1-0.1-0.2
			c0-0.1,0-0.1,0-0.2c0-0.1,0-0.3,0-0.4c-0.1-0.2-0.1-0.3-0.2-0.5c-0.1-0.2-0.1-0.3,0-0.5c-0.1-0.1-0.2-0.2-0.2-0.4
			c0-0.1,0-0.3,0-0.4c0-0.1-0.1-0.2-0.1-0.4c0-0.1-0.1-0.2-0.1-0.4c-0.1-0.2-0.1-0.3-0.1-0.5c0-0.2,0-0.4,0-0.5
			c-0.1-0.2-0.1-0.3-0.1-0.5c0-0.2-0.1-0.3-0.1-0.5c-0.1-0.3-0.1-0.6-0.2-0.9c0-0.3-0.1-0.6-0.1-0.9c-0.1-0.4-0.1-0.7-0.2-1.1
			c-0.1-0.4-0.1-0.7-0.1-1.1c0-0.2-0.1-0.4-0.1-0.6c-0.1-0.2-0.1-0.3-0.2-0.5c-0.1-0.2-0.1-0.3-0.1-0.5c0-0.2,0-0.3-0.1-0.5
			c-0.1-0.3-0.2-0.6-0.2-0.9c0-0.3-0.1-0.6-0.3-0.8c-0.1,0.1-0.2,0.2-0.2,0.5c0,0.2,0,0.4,0,0.5c0.1,0.2,0.1,0.5,0.1,0.7
			c0,0.2-0.1,0.5-0.4,0.5c0,0.1,0,0.1,0.1,0.1h0.1c0.1,0,0.1,0,0.1,0.1c0,0.1,0,0.1,0,0.2c0,0.1,0,0.3,0,0.4c0,0.1,0,0.3,0,0.4
			c0,0.1,0,0.2,0.1,0.4c-0.1,0.1-0.1,0.1-0.1,0.2c0,0.1,0,0.2,0,0.2c0,0.1,0,0.3-0.1,0.4c0,0.1,0,0.3,0,0.4c0,0.1,0,0.1,0,0.2
			c0,0.1,0,0.1,0,0.2c0,0.1,0,0.2-0.1,0.3c0,0.1,0,0.2,0,0.3c0,0.2,0,0.3,0.1,0.4c0,0.1-0.1,0.1-0.1,0.2c0,0.1,0,0.1,0,0.2
			c0,0,0,0.1-0.1,0.1c0,0,0,0,0,0c0,0-0.1,0.1-0.1,0.1C40,19.9,40,20,40,20.1v0.5c0,0.2,0,0.2,0,0.2s0,0.1-0.1,0.2
			c0.1,0.1,0.1,0.2,0.2,0.3c0,0.2,0,0.3,0,0.5c0,0.2,0,0.4,0,0.5s0,0.3,0,0.4c0,0.4,0,0.7,0.1,1.1c0,0.3,0,0.7-0.1,1
			c0,0.1,0,0.1,0,0.2c0,0.1,0,0.1,0.1,0.2c0,0.1,0,0.2-0.1,0.3c0,0.1,0,0.2-0.1,0.3c0,0.1,0,0.3,0,0.4c0,0.1,0,0.3,0.1,0.4
			c0,0.2,0,0.3,0,0.5c0,0.2,0,0.3,0,0.5v0.6c0,0.2,0,0.4-0.1,0.6c0,0.3-0.3,0.5-0.6,0.5c-0.3,0-0.5,0-0.8,0c-0.2,0-0.4,0-0.5,0
			s-0.3,0-0.5,0c-0.2,0-0.4,0-0.6,0c-0.2,0-0.4,0-0.6,0c-0.2,0-0.4,0-0.7-0.1c-0.2-0.1-0.4-0.3-0.4-0.5c-0.1-0.1-0.1-0.3-0.1-0.4
			c0-0.1,0-0.2,0.1-0.2c0,0,0-0.1,0-0.2c0-0.1-0.1-0.1-0.1-0.2c0-0.1,0-0.1,0-0.2c0.1-0.1,0.1-0.2,0-0.3c0-0.1,0-0.2,0-0.3
			c-0.1-0.4-0.1-0.7,0-1.1c0-0.4,0.1-0.7,0.1-1.1c0-0.4,0-0.8-0.1-1.2s0-0.8,0-1.2c0-0.3,0-0.6,0-0.9c0-0.3,0-0.6,0-0.9
			c0-0.2,0-0.4,0-0.6c0-0.2,0-0.4,0.1-0.5c0.1-0.2,0.1-0.4,0-0.6c0-0.2-0.1-0.4-0.1-0.7c0-0.4,0-0.8,0-1.2c0-0.4,0-0.8-0.1-1.1
			c0-0.2,0-0.4,0-0.6c0-0.2,0.1-0.4,0.1-0.6c0-0.2,0-0.4,0-0.7s0-0.4,0-0.7c0-0.2,0-0.3,0-0.5c0-0.2,0-0.3,0-0.5
			c0-0.2,0-0.3-0.1-0.5c-0.1-0.2-0.1-0.3,0-0.5c0.1-0.3,0.2-0.7,0.1-1c-0.1-0.4-0.1-0.7-0.1-1.1c0-0.2,0-0.3,0-0.5
			c0.1-0.2,0-0.3-0.1-0.5c0-0.2,0.1-0.3,0.1-0.5c0-0.2,0-0.3,0-0.5c0.1-0.1,0.1-0.3,0-0.5c0-0.2,0-0.3,0-0.5c0-0.2,0-0.4,0-0.6
			c0-0.2,0-0.4,0-0.6V5c0-0.1,0-0.2,0-0.3c0-0.1,0-0.1,0-0.2c0-0.1,0-0.1,0-0.2V3.8c0-0.2,0-0.3,0-0.5c0-0.2,0-0.3-0.1-0.5
			c0-0.2,0-0.3,0.1-0.5c0.1-0.1,0.1-0.3,0-0.5c-0.1-0.2-0.1-0.3,0-0.5c0-0.2,0-0.3,0.1-0.5c0.1-0.1,0.2-0.3,0.3-0.4
			c0.1-0.1,0.3-0.2,0.5-0.1c0.2,0.1,0.3,0.1,0.5,0.1c0.3,0,0.6-0.1,1-0.1c0.3,0,0.6,0,1,0c0.3,0,0.7,0,1,0c0.3,0,0.6,0,1-0.1
			c0.2,0,0.3,0,0.5,0c0.1,0,0.3,0,0.4,0c0.1,0,0.1,0,0.2,0c0.1,0,0.1,0.1,0.2,0.1c0.1,0,0.1,0,0.1,0s-0.1,0,0,0.1
			C42,0.8,42,0.8,42.1,0.9c0.1,0,0.1,0.1,0.1,0.3c0,0.1,0.1,0.2,0.1,0.2s0.1,0.1,0.1,0.2c0,0.1,0,0.2,0,0.2c0,0.1,0,0.2,0.1,0.3
			c0.1,0.3,0.2,0.6,0.2,0.9c0,0.3,0.1,0.6,0.1,1c0,0.2,0.1,0.5,0.1,0.9c0,0.3,0.1,0.6,0.3,0.8c0,0.3,0,0.7,0.1,1
			c0.1,0.2,0,0.3,0,0.4c0.1,0.1,0.1,0.3,0.2,0.4c0.1,0.3,0.2,0.7,0.2,1c0,0.3,0.1,0.7,0.2,1C43.9,9.6,44,9.7,44,9.9
			c0,0.2,0,0.3,0,0.5c0,0.2,0,0.4,0.1,0.5c0.1,0.1,0.1,0.3,0.1,0.5c0,0.1,0,0.1-0.1,0.2c0,0,0,0.1,0.1,0.1c0,0,0.1,0.1,0.1,0.2
			c0,0.1,0,0.1,0,0.2c0,0.2,0,0.3,0.1,0.5c0,0.1,0.1,0.3,0.1,0.5c0,0.1,0,0.1,0,0.2c0,0,0,0.1,0,0.2c0.1,0.1,0.1,0.2,0.1,0.3
			c0,0.1,0,0.1,0,0.2c0,0.1,0,0.1,0,0.2c0.1,0.1,0.1,0.2,0.1,0.2c-0.1,0-0.1,0.1-0.1,0.1c0.1,0.1,0.1,0.1,0.1,0.1s0,0.1,0,0.2
			c0,0.1-0.1,0.2,0,0.3c0,0.1,0.1,0.1,0.2,0.3c0.1,0.1,0.2,0.3,0.1,0.5c0.2,0.2,0.3,0.2,0.4,0c0-0.1,0-0.2,0.1-0.2
			c0-0.1,0-0.1,0.1-0.2c0.1-0.1,0.1-0.2,0.1-0.3c0-0.1,0-0.2,0.1-0.4c0-0.1,0-0.2,0-0.3c0-0.1,0-0.2,0-0.3c0.1-0.1,0.1-0.2,0.1-0.4
			c0-0.1,0-0.2,0.1-0.3c0-0.1,0.1-0.1,0.1-0.2c0-0.1,0-0.2,0-0.3c0-0.1,0-0.2,0-0.3c0-0.1,0.1-0.2,0.1-0.3c-0.1-0.2-0.1-0.5,0-0.7
			c0.1-0.2,0.2-0.4,0.3-0.7c0,0,0-0.1,0-0.2c0-0.1,0-0.3,0.1-0.4c0-0.1,0.1-0.2,0.1-0.3c0.1-0.1,0.1,0,0.2,0.1s0.1,0.1,0.1,0.1
			s0-0.1,0-0.1c-0.1,0-0.1-0.1-0.1-0.2c0-0.1-0.1-0.1-0.1-0.1c0.1,0,0.1-0.2,0.1-0.2c0,0,0,0,0,0c-0.1-0.1-0.1-0.2,0-0.2
			c0.1-0.1,0.1-0.1,0.1-0.2c-0.1-0.2-0.1-0.4,0-0.5c0.1-0.2,0.1-0.4,0.1-0.6c0-0.2,0-0.4,0.1-0.6c0.1-0.2,0.1-0.4,0.1-0.6
			c0.2-0.4,0.2-0.9,0.2-1.3c0.1-0.1,0.2-0.3,0.2-0.4c0-0.2,0-0.3,0-0.5V4.3c0-0.1,0-0.1,0.1-0.2l0.1-0.1c0,0,0-0.1,0-0.1
			c-0.1-0.1-0.1-0.3,0-0.5c0.1-0.2,0.1-0.3,0.2-0.5V2.6c0-0.1,0-0.2,0-0.3c0-0.1,0.1-0.3,0.1-0.4c0.1,0.1,0.1,0.1,0.1,0.1
			c0-0.1,0-0.1,0-0.1c0-0.1,0-0.1,0-0.2c0-0.1,0-0.2,0-0.2c0-0.1,0-0.2,0-0.2c0.1-0.2,0.1-0.3,0.2-0.5c0.1-0.2,0.3-0.3,0.5-0.3
			c0.5-0.1,1-0.1,1.5,0c0.5,0,1,0.1,1.5,0.1h1.5c0.2,0,0.5,0,0.7-0.1c0.2-0.1,0.5,0,0.7,0.1C55,0.7,55.1,0.9,55,1.1
			c0,0.2,0,0.5,0,0.7C55,2.4,55,3,55.1,3.6c0.1,0.4,0,0.9,0,1.3c0,0.1,0,0.2,0,0.3c0,0.1,0,0.2,0,0.3c0,0.1,0,0.1,0,0.2
			c0,0.1,0,0.1,0,0.2c0,0.1,0,0.1,0,0.1S54.9,6,54.9,6C55,6.2,55,6.5,55.1,6.7c0,0.2,0,0.4,0,0.7V8c0,0.1,0,0.2,0,0.3
			c0,0.1,0,0.1,0,0.2c0,0.1,0,0.1,0,0.2c0,0.1,0,0.1,0,0.2c0,0.1,0,0.2,0,0.2C55,9.2,55,9.4,55,9.5c0,0.1,0.1,0.2,0.1,0.3v0.3
			c0,0.1,0,0.2-0.1,0.3c0,0.1,0,0.3,0,0.4c0,0.1,0,0.3-0.1,0.4c0,0.1,0,0.1,0,0.2c0,0.1,0.1,0.1,0.1,0.2c0,0.1,0,0.2,0,0.3
			c0,0.1,0,0.2,0,0.3c0,0.1,0,0.1-0.1,0.2c0,0,0,0.1,0.1,0.2s0.1,0.2,0,0.2c-0.1,0.1-0.1,0.1-0.1,0.2c0.1,0.1,0.2,0.3,0.2,0.4
			c0,0.2,0,0.3-0.1,0.5c0,0.1,0,0.3,0,0.4c0.1,0.1,0.1,0.3,0,0.4C55,14.9,55,15.1,55,15.2c0,0.2,0,0.3,0.1,0.5c0,0.2,0,0.4,0,0.6
			c0,0.2,0,0.4,0,0.6c0,0.1,0,0.2,0.1,0.2c0,0.1,0,0.2,0,0.2c0,0.2-0.1,0.3-0.1,0.5c0,0.1,0,0.1,0,0.2c0,0.1,0,0.2,0,0.2
			c0,0.1,0,0.3,0,0.4c0,0.4,0,0.7,0.1,1s0,0.7,0,1c0,0.2,0,0.4,0,0.6C55,21.7,55,21.9,55,22.1z"/>
		<path id="Path_64" class="st6" d="M78.4,22.1c0,0.2,0,0.4,0.1,0.5c0,0.1,0,0.3,0,0.5c-0.1,0.1-0.1,0.3-0.1,0.4c0,0.1,0,0.3,0,0.4
			c0,0.2,0,0.4,0,0.6c0,0.2,0,0.4,0,0.5c-0.1,0.2-0.1,0.4,0,0.6c0.1,0.2,0.1,0.4,0.1,0.6c0,0.1,0,0.2,0,0.2c0,0,0,0.1,0,0.2
			c0,0.1,0,0.2,0,0.3c0,0.1,0,0.2,0,0.3c0,0.2,0,0.4,0,0.6c0,0.2,0,0.4,0,0.6c0,0.2,0,0.4-0.1,0.6c-0.1,0.2-0.1,0.2-0.2,0.2
			s-0.1,0-0.2,0.2c-0.2,0-0.4,0-0.6,0c-0.2,0-0.4,0-0.5,0c-0.2,0-0.3-0.1-0.5-0.1c-0.1,0-0.2,0-0.2,0c-0.1,0-0.2,0-0.2,0
			c-0.2,0-0.4,0-0.5,0s-0.3,0-0.5-0.1c-0.2,0-0.4,0-0.6,0c-0.2,0-0.4-0.1-0.5-0.3c-0.1-0.1-0.2-0.3-0.2-0.4c0-0.1,0-0.3,0-0.4
			c0-0.2,0-0.4,0-0.5c0-0.2,0-0.4,0-0.5c0-0.2,0-0.4,0-0.5s0-0.3,0-0.5c0-0.2,0-0.4,0-0.5c0-0.2,0-0.3,0-0.5c0-0.7,0-1.4,0-2
			c0-0.7,0-1.4-0.1-2c0-0.1,0-0.3,0-0.4c0-0.2,0-0.3,0-0.5c0-0.1,0-0.1,0-0.2c0,0,0-0.1,0-0.2v-0.2c0-0.1,0-0.2,0.1-0.2
			c0-0.2,0-0.4,0-0.6s0-0.4,0-0.6c0-0.2,0-0.4,0-0.6c0-0.2,0-0.4,0-0.5c-0.1-0.2-0.1-0.4,0-0.6c0-0.2,0-0.4,0-0.6c0-0.3,0-0.7,0-1
			c0-0.1,0-0.2,0-0.4s0-0.3,0-0.5c0-0.2,0-0.3,0-0.5c0-0.1,0.1-0.2,0.1-0.3c-0.1,0-0.1-0.1-0.1-0.2c0-0.1,0-0.2-0.1-0.2
			c-0.1,0-0.1,0.1-0.1,0.1c0,0.1-0.1,0-0.1-0.1c-0.1,0.1-0.1,0.1,0,0.1c0,0,0.1,0.1,0.1,0.1c0,0.1,0,0.2-0.1,0.3
			c0,0.1,0,0.2-0.1,0.3C73,13.7,73,13.9,73,14.1c0,0.2-0.1,0.4-0.1,0.6c-0.1,0.2-0.1,0.4-0.1,0.6c0,0.2-0.1,0.4-0.1,0.6
			c0,0.2-0.1,0.4-0.2,0.6c-0.1,0.2-0.1,0.4,0,0.6c0.1,0.1,0,0.2,0,0.3c-0.1,0.1-0.2,0.2-0.2,0.3c-0.1,0.2-0.1,0.3,0,0.3
			s0.1,0.1,0.1,0.3c-0.1,0.1-0.1,0.3-0.1,0.4c0,0.2,0,0.3-0.1,0.5c-0.1,0.2-0.1,0.4-0.1,0.5c0,0.1,0,0.1,0,0.1c0,0-0.1,0-0.1,0
			c0.1,0.1,0.2,0.2,0.1,0.4c-0.1,0.1-0.1,0.3-0.1,0.4c-0.1-0.1-0.1-0.2-0.2-0.3c0-0.1-0.1-0.2-0.1-0.3c-0.1,0.1-0.1,0.2,0,0.3
			c0,0.1,0.1,0.2,0.1,0.3c0.1,0.1,0.1,0.2,0.1,0.3c0,0.1,0,0.3-0.1,0.4c-0.1,0.1-0.1,0.3-0.1,0.4c0,0.1,0,0.3-0.1,0.4
			c-0.1,0.1-0.1,0.3-0.1,0.4c0,0.1,0,0.3-0.1,0.4c-0.1,0.2-0.1,0.4-0.1,0.6c0,0.2-0.1,0.4-0.1,0.6c0,0.1,0,0.2-0.1,0.2
			s-0.1,0.1-0.1,0.2c0.1,0.1,0.1,0.2,0.1,0.4c0,0.1,0,0.3-0.1,0.4c0,0-0.1,0.1,0,0.2c0,0.1,0,0.1,0,0.2c-0.1,0.2-0.1,0.3-0.1,0.5
			c0,0.1,0,0.3-0.1,0.4c-0.1,0.1-0.1,0.3-0.1,0.4c0,0.1,0,0.3-0.1,0.4c-0.1,0.1-0.1,0.3-0.1,0.4c0,0.1,0,0.3-0.1,0.4
			c0,0.1-0.1,0.3-0.1,0.4c0,0.1-0.1,0.3-0.2,0.4c-0.1,0.1-0.1,0.1,0,0.2s0,0.1,0,0.2c-0.1,0-0.2,0-0.3,0.1s-0.2,0-0.3,0.1
			c-0.1,0-0.3,0.1-0.5,0.1c-0.2,0-0.4,0-0.5,0c-0.2-0.1-0.3-0.1-0.5,0c-0.2,0.1-0.4,0.1-0.5,0.1c-0.3,0-0.6-0.2-0.7-0.5
			c-0.1-0.1-0.1-0.3-0.2-0.4c-0.1-0.1-0.1-0.2,0-0.3c0-0.1,0-0.2,0-0.3c-0.1-0.3-0.2-0.6-0.2-1c0-0.3,0-0.6-0.1-1
			c0-0.1-0.1-0.1-0.1-0.2c0-0.1,0-0.1,0-0.2c0-0.1,0-0.3,0-0.4c-0.1-0.2-0.1-0.3-0.2-0.5c-0.1-0.2-0.1-0.3,0-0.5
			c-0.1-0.1-0.2-0.2-0.2-0.4c0-0.1,0-0.3,0-0.4c0-0.1-0.1-0.2-0.1-0.4c0-0.1-0.1-0.2-0.1-0.4c-0.1-0.2-0.1-0.3-0.1-0.5
			c0-0.2,0-0.4,0-0.5c-0.1-0.2-0.1-0.3-0.1-0.5c0-0.2-0.1-0.3-0.1-0.5c-0.1-0.3-0.1-0.6-0.2-0.9c0-0.3-0.1-0.6-0.1-0.9
			c-0.1-0.4-0.1-0.7-0.2-1.1c-0.1-0.4-0.1-0.7-0.1-1.1c0-0.2-0.1-0.4-0.1-0.6c-0.1-0.2-0.1-0.3-0.2-0.5c-0.1-0.2-0.1-0.3-0.1-0.5
			c0-0.2,0-0.3-0.1-0.5c-0.1-0.3-0.2-0.6-0.2-0.9c0-0.3-0.1-0.6-0.3-0.8c-0.1,0.1-0.2,0.2-0.2,0.5c0,0.2,0,0.4,0,0.5
			c0.1,0.2,0.1,0.5,0.1,0.7c0,0.2-0.1,0.5-0.4,0.5c0,0.1,0,0.1,0.1,0.1h0.1c0.1,0,0.1,0,0.1,0.1c0,0.1,0,0.1,0,0.2
			c0,0.1,0,0.3,0,0.4c0,0.1,0,0.3,0,0.4c0,0.1,0,0.2,0.1,0.4c-0.1,0.1-0.1,0.1-0.1,0.2c0,0.1,0,0.2,0,0.2c0,0.1,0,0.3-0.1,0.4
			c0,0.1,0,0.3,0,0.4c0,0.1,0,0.1,0,0.2c0,0.1,0,0.1,0,0.2c0,0.1,0,0.2-0.1,0.3c0,0.1,0,0.2,0,0.3c0,0.2,0,0.3,0.1,0.4
			c0,0.1-0.1,0.1-0.1,0.2c0,0.1,0,0.1,0,0.2c0,0,0,0.1-0.1,0.1c0,0,0,0,0,0c0,0-0.1,0.1-0.1,0.1c0.1,0.1,0.1,0.2,0.1,0.4v0.5
			c0,0.2,0,0.2,0,0.2s0,0.1-0.1,0.2c0.1,0.1,0.1,0.2,0.2,0.3c0,0.2,0,0.3,0,0.5c0,0.2,0,0.4,0,0.5s0,0.3,0,0.4c0,0.4,0,0.7,0.1,1.1
			c0,0.3,0,0.7-0.1,1c0,0.1,0,0.1,0,0.2c0,0.1,0,0.1,0.1,0.2c0,0.1,0,0.2-0.1,0.3s0,0.2-0.1,0.3c0,0.1,0,0.3,0,0.4
			c0,0.1,0,0.3,0.1,0.4c0,0.2,0,0.3,0,0.5c0,0.2,0,0.3,0,0.5v0.6c0,0.2,0,0.4-0.1,0.6c0,0.3-0.3,0.5-0.6,0.5c-0.3,0-0.5,0-0.8,0
			c-0.2,0-0.4,0-0.5,0s-0.3,0-0.5,0c-0.2,0-0.4,0-0.6,0c-0.2,0-0.4,0-0.6,0c-0.2,0-0.4,0-0.7-0.1c-0.2-0.1-0.4-0.3-0.4-0.5
			c-0.1-0.1-0.1-0.3-0.1-0.4c0-0.1,0-0.2,0.1-0.2c0,0,0-0.1,0-0.2c0-0.1-0.1-0.1-0.1-0.2c0-0.1,0-0.1,0-0.2c0.1-0.1,0.1-0.2,0-0.3
			c0-0.1,0-0.2,0-0.3c-0.1-0.4-0.1-0.7,0-1.1c0-0.4,0.1-0.7,0.1-1.1c0-0.4,0-0.8-0.1-1.2s0-0.8,0-1.2c0-0.3,0-0.6,0-0.9
			c0-0.3,0-0.6,0-0.9c0-0.2,0-0.4,0-0.6c0-0.2,0-0.4,0.1-0.5c0.1-0.2,0.1-0.4,0-0.6c0-0.2-0.1-0.4-0.1-0.7c0-0.4,0-0.8,0-1.2
			c0-0.4,0-0.8-0.1-1.1c0-0.2,0-0.4,0-0.6c0-0.2,0.1-0.4,0.1-0.6c0-0.2,0-0.4,0-0.7c0-0.2,0-0.4,0-0.7c0-0.2,0-0.3,0-0.5
			c0-0.2,0-0.3,0-0.5c0-0.2,0-0.3-0.1-0.5c-0.1-0.2-0.1-0.3,0-0.5c0.1-0.3,0.2-0.7,0.1-1c-0.1-0.4-0.1-0.7-0.1-1.1
			c0-0.2,0-0.3,0-0.5c0.1-0.2,0-0.3-0.1-0.5c0-0.2,0.1-0.3,0.1-0.5c0-0.2,0-0.3,0-0.5c0.1-0.1,0.1-0.3,0-0.5c0-0.2,0-0.3,0-0.5
			c0-0.2,0-0.4,0-0.6c0-0.2,0-0.4,0-0.6V5c0-0.1,0-0.2,0-0.3c0-0.1,0-0.1,0-0.2c0-0.1,0-0.1,0-0.2V3.8c0-0.2,0-0.3,0-0.5
			c0-0.2,0-0.3-0.1-0.5c0-0.2,0-0.3,0.1-0.5c0.1-0.1,0.1-0.3,0-0.5c-0.1-0.2-0.1-0.3,0-0.5c0-0.2,0-0.3,0.1-0.5
			c0.1-0.1,0.2-0.3,0.3-0.4c0.1-0.1,0.3-0.2,0.5-0.1c0.2,0.1,0.3,0.1,0.5,0.1c0.3,0,0.6-0.1,1-0.1c0.3,0,0.6,0,1,0c0.3,0,0.7,0,1,0
			c0.3,0,0.6,0,1-0.1c0.2,0,0.3,0,0.5,0c0.1,0,0.3,0,0.4,0c0.1,0,0.1,0,0.2,0c0.1,0,0.1,0.1,0.2,0.1c0.1,0,0.1,0,0.1,0s-0.1,0,0,0.1
			c0.1,0.1,0.2,0.1,0.3,0.2c0.1,0,0.1,0.1,0.1,0.3c0,0.1,0.1,0.2,0.1,0.2s0.1,0.1,0.1,0.2c0,0.1,0,0.2,0,0.2c0,0.1,0,0.2,0.1,0.3
			C65.9,2.4,66,2.7,66,3c0,0.3,0.1,0.6,0.1,1c0,0.2,0.1,0.5,0.1,0.9c0,0.3,0.1,0.6,0.3,0.8c0,0.3,0,0.7,0.1,1c0.1,0.2,0,0.3,0,0.4
			c0.1,0.1,0.1,0.3,0.2,0.4c0.1,0.3,0.2,0.7,0.2,1c0,0.3,0.1,0.7,0.2,1c0.1,0.2,0.1,0.3,0.1,0.5c0,0.2,0,0.3,0,0.5
			c0,0.2,0,0.4,0.1,0.5c0.1,0.1,0.1,0.3,0.1,0.5c0,0.1,0,0.1-0.1,0.2c0,0,0,0.1,0.1,0.1c0,0,0.1,0.1,0.1,0.2c0,0.1,0,0.1,0,0.2
			c0,0.2,0,0.3,0.1,0.5c0,0.1,0.1,0.3,0.1,0.5c0,0.1,0,0.1,0,0.2c0,0,0,0.1,0,0.2c0.1,0.1,0.1,0.2,0.1,0.3c0,0.1,0,0.1,0,0.2
			c0,0.1,0,0.1,0,0.2c0.1,0.1,0.1,0.2,0.1,0.2c-0.1,0-0.1,0.1-0.1,0.1c0.1,0.1,0.1,0.1,0.1,0.1s0,0.1,0,0.2c0,0.1-0.1,0.2,0,0.3
			c0,0.1,0.1,0.1,0.2,0.3c0.1,0.1,0.2,0.3,0.1,0.5c0.2,0.2,0.3,0.2,0.4,0c0-0.1,0-0.2,0.1-0.2c0-0.1,0-0.1,0.1-0.2
			C69,15.1,69,15,69,14.9c0-0.1,0-0.2,0.1-0.4c0-0.1,0-0.2,0-0.3c0-0.1,0-0.2,0-0.3c0.1-0.1,0.1-0.2,0.1-0.4c0-0.1,0-0.2,0.1-0.3
			c0-0.1,0.1-0.1,0.1-0.2c0-0.1,0-0.2,0-0.3c0-0.1,0-0.2,0-0.3c0-0.1,0.1-0.2,0.1-0.3c-0.1-0.2-0.1-0.5,0-0.7
			c0.1-0.2,0.2-0.4,0.3-0.7c0,0,0-0.1,0-0.2c0-0.1,0-0.3,0.1-0.4c0-0.1,0.1-0.2,0.1-0.3c0.1-0.1,0.1,0,0.2,0.1s0.1,0.1,0.1,0.1
			s0-0.1,0-0.1c-0.1,0-0.1-0.1-0.1-0.2c0-0.1-0.1-0.1-0.1-0.1c0.1,0,0.1-0.2,0.1-0.2c0,0,0,0,0,0C70,9.3,70,9.2,70,9.2
			c0.1-0.1,0.1-0.1,0.1-0.2c-0.1-0.2-0.1-0.4,0-0.5c0.1-0.2,0.1-0.4,0.1-0.6c0-0.2,0-0.4,0.1-0.6c0.1-0.2,0.1-0.4,0.1-0.6
			c0.2-0.4,0.2-0.9,0.2-1.3c0.1-0.1,0.2-0.3,0.2-0.4c0-0.2,0-0.3,0-0.5V4.3c0-0.1,0-0.1,0.1-0.2l0.1-0.1c0,0,0-0.1,0-0.1
			c-0.1-0.1-0.1-0.3,0-0.5c0.1-0.2,0.1-0.3,0.2-0.5V2.6c0-0.1,0-0.2,0-0.3c0-0.1,0.1-0.3,0.1-0.4c0.1,0.1,0.1,0.1,0.1,0.1
			c0-0.1,0-0.1,0-0.1c0-0.1,0-0.1,0-0.2c0-0.1,0-0.2,0-0.2c0-0.1,0-0.2,0-0.2c0.1-0.2,0.1-0.3,0.2-0.5c0.1-0.2,0.3-0.3,0.5-0.3
			c0.5-0.1,1-0.1,1.5,0c0.5,0,1,0.1,1.5,0.1h1.5c0.2,0,0.5,0,0.7-0.1c0.2-0.1,0.5,0,0.7,0.1c0.2,0.1,0.3,0.4,0.3,0.6
			c0,0.2,0,0.5,0,0.7c-0.1,0.6-0.1,1.2,0,1.7c0.1,0.4,0,0.9,0,1.3c0,0.1,0,0.2,0,0.3c0,0.1,0,0.2,0,0.3c0,0.1,0,0.1,0,0.2
			c0,0.1,0,0.1,0,0.2c0,0.1,0,0.1,0,0.1S78.3,6,78.3,6c0.1,0.2,0.1,0.4,0.1,0.7c0,0.2,0,0.4,0,0.7V8c0,0.1,0,0.2,0,0.3
			c0,0.1,0,0.1,0,0.2c0,0.1,0,0.1,0,0.2c0,0.1,0,0.1,0,0.2c0,0.1,0,0.2,0,0.2c-0.1,0.1-0.1,0.2,0,0.3c0,0.1,0.1,0.2,0.1,0.3v0.3
			c0,0.1,0,0.2-0.1,0.3c0,0.1,0,0.3,0,0.4c0,0.1,0,0.3-0.1,0.4c0,0.1,0,0.1,0,0.2c0,0.1,0.1,0.1,0.1,0.2c0,0.1,0,0.2,0,0.3
			c0,0.1,0,0.2,0,0.3c0,0.1,0,0.1-0.1,0.2c0,0,0,0.1,0.1,0.2s0.1,0.2,0,0.2c-0.1,0.1-0.1,0.1-0.1,0.2c0.1,0.1,0.2,0.3,0.2,0.4
			c0,0.2,0,0.3-0.1,0.5c0,0.1,0,0.3,0,0.4c0.1,0.1,0.1,0.3,0,0.4c-0.1,0.2-0.1,0.3-0.1,0.5c0,0.2,0,0.3,0.1,0.5c0,0.2,0,0.4,0,0.6
			c0,0.2,0,0.4,0,0.6c0,0.1,0,0.2,0.1,0.2c0,0.1,0,0.2,0,0.2c0,0.2-0.1,0.3-0.1,0.5c0,0.1,0,0.1,0,0.2c0,0.1,0,0.2,0,0.2
			c0,0.1,0,0.3,0,0.4c0,0.4,0,0.7,0.1,1s0,0.7,0,1c0,0.2,0,0.4,0,0.6C78.4,21.7,78.4,21.9,78.4,22.1z"/>
		<path id="Path_65" class="st6" d="M96.6,9.5C96.6,9.5,96.5,9.6,96.6,9.5c-0.1,0.2-0.1,0.3-0.1,0.4c0,0.1,0,0.2,0,0.3
			c0,0.1,0,0.2,0,0.4c0,0.1,0,0.2-0.1,0.4c0.1,0.1,0.1,0.2,0.1,0.3c0,0.1,0,0.2-0.1,0.3c-0.1,0.1-0.1,0.1,0,0.2
			c0,0.1,0.1,0.2,0.1,0.3c0,0.2,0,0.2-0.1,0.2s-0.2,0-0.2,0.1c0,0.1,0.1,0.1,0.2,0.1c0.1,0,0.2,0.1,0.1,0.2s-0.1,0.2-0.1,0.2
			c0,0,0.1,0,0.1,0c0,0,0.1,0,0.1,0.1c0,0.2,0,0.4,0,0.6V14c0,0.2,0,0.4,0,0.6v1.2c0,0.4,0,0.8,0,1.2c0,0.2,0,0.4,0,0.6
			s0,0.4,0.1,0.6c0,0.2,0,0.4-0.1,0.6c0,0.2,0,0.4,0,0.5c0.1,0.1,0.1,0.2,0,0.2c0,0-0.1,0.1-0.1,0.1c0,0.2,0,0.3,0.1,0.5
			c0,0.1,0,0.2,0,0.2c0,0.1,0,0.2,0,0.2c0,0.2,0,0.5,0,0.7c0,0.2,0,0.4,0,0.6s0,0.4,0,0.6c0,0.1,0,0.2,0,0.3c0,0.1,0,0.2,0,0.3
			c0,0.1,0,0.2-0.1,0.2s-0.1,0.1-0.1,0.2c0,0.1,0,0.2,0,0.2c0,0.1,0,0.1,0,0.2c0,0.1-0.1,0.2-0.1,0.2s-0.1,0.2-0.1,0.2
			c-0.1,0.2-0.1,0.4-0.1,0.6c0,0.2-0.1,0.4-0.2,0.6c-0.3,0.6-0.6,1.1-1,1.6c-0.4,0.5-0.8,0.9-1.4,1.3c-0.1,0.1-0.2,0.2-0.4,0.2
			c-0.1,0.1-0.2,0.1-0.4,0.2c-0.1,0-0.1,0-0.2,0c-0.1,0-0.1,0-0.1,0.1c0,0.1-0.1,0.1-0.2,0.1c-0.1,0-0.2,0-0.2,0c0,0-0.1,0-0.1,0.1
			c-0.1,0-0.1,0.1-0.2,0.1c-0.1,0-0.1,0.1-0.2,0c-0.2,0-0.4,0.1-0.6,0.1c-0.2,0.1-0.4,0.1-0.6,0.1c-0.2,0-0.3,0-0.5,0.1
			c-0.2,0-0.3,0-0.5,0h-1c-0.3,0-0.7,0-1-0.1c-0.3-0.1-0.6-0.2-0.9-0.2c-0.7-0.1-1.3-0.4-1.9-0.8c-0.6-0.4-1.1-0.9-1.5-1.4
			c-0.1-0.1-0.3-0.3-0.4-0.4c-0.1-0.1-0.2-0.3-0.2-0.5c-0.1-0.2-0.1-0.3-0.2-0.5c0-0.2-0.1-0.3-0.2-0.5c-0.1-0.1-0.1-0.3-0.1-0.4
			c0-0.1,0-0.3-0.1-0.4c-0.1-0.2-0.1-0.3-0.1-0.5c0-0.2,0-0.3,0-0.5c0.1-0.1,0-0.3,0-0.4c-0.1-0.1-0.1-0.3-0.1-0.4
			c0-0.1,0-0.2,0-0.4c0-0.1,0-0.2,0-0.4c0,0,0-0.1,0-0.1c0,0,0-0.1,0-0.1c0-0.1,0-0.2-0.1-0.2c0-0.1,0-0.1,0-0.2
			c0.1-0.1,0.1-0.3,0-0.4c0-0.1,0-0.3,0-0.4c0-0.3,0-0.6,0.1-0.8c0-0.3,0-0.5-0.1-0.8c-0.1-0.1-0.1-0.3,0-0.4C82,18.1,82,18,82,17.9
			c0-0.2,0-0.4,0-0.6c0-0.2,0-0.4,0-0.5c0.1-0.3,0.1-0.7,0-1c0-0.3,0-0.7,0-1v-1c0-0.2,0-0.3-0.1-0.5c0-0.1,0-0.3,0-0.4
			c0.1-0.1,0.1-0.2,0.1-0.4c0-0.1,0-0.3-0.1-0.4v-0.6c0-0.1,0-0.2,0.1-0.2c0-0.1,0-0.1,0-0.2c-0.1-0.2-0.1-0.5-0.1-0.7
			c0.1-0.2,0.1-0.5,0-0.7c0-0.3,0-0.6-0.1-0.8c0-0.3,0-0.6,0-0.8c0-0.1,0-0.2,0.1-0.3c0-0.1,0-0.2,0-0.3c-0.1-0.1-0.1-0.2,0-0.3
			C82,6.8,82,6.7,82,6.6c0-0.1,0-0.2,0-0.4c0-0.1,0-0.3,0-0.4c0-0.2,0-0.3,0-0.5c0-0.2,0-0.3,0-0.5c0-0.1,0-0.3,0-0.4V4.1
			c0-0.1,0-0.1,0-0.2c0-0.1,0-0.1,0.1-0.2c0-0.1,0-0.2,0-0.3c0-0.1,0-0.2,0-0.3c0-0.1,0-0.3,0-0.4c0-0.2,0-0.3,0-0.5
			C82,2,82,1.9,82,1.7c0-0.2,0-0.4,0-0.5C82,1,82,0.9,82.1,0.8c0-0.1,0.1-0.2,0.2-0.2c0.2-0.1,0.3-0.1,0.5-0.1c0.2,0,0.3,0,0.5,0
			c0.1,0,0.3,0,0.4,0c0.1,0,0.2,0,0.4,0c0.2,0,0.4,0,0.6,0c0.2,0,0.4,0,0.5,0c0.1,0,0.2,0,0.3,0c0.1,0,0.2,0,0.3,0
			c0.1,0,0.3,0,0.4,0c0.1,0,0.2,0.1,0.3,0.2c0.1,0,0.1-0.1,0.1-0.1s0-0.1,0-0.1c0.1,0,0.3,0,0.4,0.1c0.2,0.1,0.3,0.3,0.3,0.4
			c0,0.2,0,0.3,0,0.5c0,0.5,0,0.9,0,1.4s0,0.9,0,1.4c0,0.1,0,0.2,0,0.3c0,0.1,0,0.2,0,0.3c-0.1,0-0.1,0-0.1,0.1c0,0.1,0,0.1,0,0.2
			c0.1,0.1,0.1,0.2,0.1,0.3c0,0.1,0,0.2-0.1,0.3c0,0.1,0,0.2,0,0.3c0.1,0.5,0.1,0.9,0.1,1.4c0,0.5,0,1-0.1,1.4v0.7
			c0,0.2,0,0.4,0,0.7c0,0.2,0,0.5,0,0.7c0,0.2,0,0.4,0,0.6c0,0.2,0,0.5,0,0.7c0,0.2,0,0.5,0,0.7c0,0.1,0,0.2,0,0.3
			c0,0.1,0,0.2,0,0.3c0,0.1,0,0.2-0.1,0.3c0,0.1,0,0.2,0.1,0.3c0,0.1,0,0.1-0.1,0.2c0,0-0.1,0.1,0,0.2c0,0.1,0,0.2,0,0.3v0.3
			c0.1,0.4,0.1,0.8,0,1.2v1.2c0,0.2,0,0.4,0,0.6s0,0.4-0.1,0.6c0,0-0.1,0-0.1,0c0,0,0,0,0,0c0,0,0.1,0,0.1,0c0.1,0,0.1,0.1,0.1,0.3
			s0,0.3,0,0.4v2.8c0,0.3,0,0.6,0,0.9c0,0.1,0.1,0.2,0.1,0.4c0.1,0.2,0.2,0.5,0.3,0.7c0.1,0.1,0.2,0.2,0.2,0.4c0.1,0,0.2,0,0.3,0.1
			c0.1,0,0.2,0.1,0.2,0.1c0.1,0,0.2,0.1,0.3,0c0.1,0,0.2,0,0.2,0c0.1,0,0.2,0,0.2,0.1c0.1,0,0.2,0.1,0.2,0c0.1,0,0.1,0,0.2,0.1
			c0,0,0.1-0.1,0.1-0.1c0,0,0.1-0.1,0.1-0.1c0.2,0.1,0.4,0,0.6-0.1c0.2-0.1,0.3-0.3,0.4-0.5c0.1-0.2,0.2-0.4,0.3-0.6
			c0.1-0.2,0.1-0.4,0.1-0.6c0-0.1,0-0.2,0.1-0.3c0-0.1,0.1-0.2,0.1-0.3c0-0.1,0-0.2,0-0.4c0-0.1,0-0.2,0-0.4c0-0.2,0-0.5,0-0.7
			c0-0.2,0-0.4,0-0.7c-0.1-0.2-0.1-0.4,0-0.6c0-0.2,0-0.4,0-0.6c-0.1-0.2,0-0.4,0-0.6c-0.1-0.3-0.1-0.7,0-1v-0.8c0-0.3,0-0.5,0-0.8
			c0-0.1,0-0.2,0-0.2l0.1-0.2c-0.1-0.1-0.2-0.2-0.1-0.2c0-0.1,0-0.2,0-0.3c0-0.6,0-1.2,0-1.8c0-0.6,0-1.2,0-1.8
			c0.1,0.1,0.2,0.1,0.2,0c0-0.1,0-0.1,0-0.2c0-0.1-0.1-0.2-0.1-0.3c0-0.1-0.1-0.1-0.1-0.2v-2c0-0.2,0-0.4,0-0.6c0-0.2,0-0.4,0.1-0.6
			c0-0.1,0-0.2,0-0.3V6.9c0-0.2,0-0.3-0.1-0.4c0-0.1,0-0.2,0-0.3c0-0.1,0-0.2,0-0.4c0-0.3,0-0.5,0-0.8s0-0.5-0.1-0.7V3.6
			c0-0.1,0-0.1,0-0.2s0.1-0.1,0-0.2c0-0.1,0-0.3,0-0.4c0-0.2,0.1-0.3,0.2-0.4c-0.1-0.1-0.2-0.3-0.2-0.5V1c0-0.1,0-0.2,0.1-0.3
			c0.1,0,0.2-0.1,0.4-0.2c0.1-0.1,0.2-0.1,0.4-0.1c0.2,0.1,0.5,0.1,0.7,0c0.2,0,0.4,0,0.7,0c0.1,0,0.2,0,0.3,0h0.3
			c0.1,0,0.2,0,0.4,0c0.1,0,0.2,0.1,0.3,0.2c0-0.1,0.1-0.1,0.2-0.1c0.1,0,0.3,0,0.4,0c0.1,0,0.3,0,0.4,0s0.2,0,0.3,0
			c0.2,0,0.3,0.1,0.4,0.3c-0.1,0.1-0.1,0.3,0,0.4s0.1,0.3,0,0.4c0.1,0.1,0.2,0.3,0.1,0.5c-0.1,0.1-0.1,0.3-0.1,0.5
			c0,0.2,0,0.4,0,0.6c-0.1,0.1-0.1,0.2,0,0.3c0,0.1,0.1,0.2,0.1,0.4c0,0.1,0,0.2,0,0.3c0,0.1,0,0.2,0,0.3c0.1,0.1,0.1,0.3,0,0.4
			c-0.1,0.1-0.1,0.3-0.1,0.4c0,0.1,0,0.2,0.1,0.3c0.1,0.1,0.1,0.2,0,0.3c-0.1,0.1-0.1,0.3,0,0.4c0,0.2,0,0.3-0.1,0.3
			c-0.1,0.1-0.2,0.2-0.1,0.2c0.1,0,0.1,0,0.2,0.1c-0.1,0.1-0.1,0.3,0,0.4c0,0.1,0,0.3,0,0.4c0,0.1-0.1,0.2-0.1,0.2
			c0.1,0.1,0.1,0.2,0.1,0.3c0,0.1,0,0.3,0,0.4c0,0.2,0,0.3,0,0.5C96.6,9.3,96.6,9.4,96.6,9.5z"/>
		<path id="Path_66" class="st6" d="M115.1,24.8c-0.1,0.3,0,0.6,0,1c0.1,0.3,0.1,0.6,0,1c-0.1,0.2-0.1,0.3,0,0.5c0,0.2,0,0.3,0,0.5
			c0,0.1,0,0.3,0,0.4c0,0.2,0,0.3,0,0.5c0,0.2-0.1,0.3-0.2,0.3s-0.2,0.1-0.3,0.1c-0.1,0.1-0.3,0.1-0.4,0.1c-0.2,0-0.3,0-0.5,0
			c-0.2-0.1-0.4-0.1-0.7-0.1c-0.2,0-0.4,0-0.7,0c-0.3,0-0.7,0-1,0.1c-0.3,0.1-0.6-0.1-0.8-0.4c-0.1-0.2-0.2-0.5-0.3-0.7
			c-0.1-0.3-0.2-0.5-0.3-0.8c-0.1-0.1-0.1-0.1,0-0.2s0-0.1,0-0.2c0-0.1-0.1-0.3-0.2-0.4c-0.1-0.2-0.2-0.3-0.2-0.5
			c0-0.2-0.1-0.4-0.2-0.6c-0.1-0.1-0.1-0.3-0.1-0.4c0-0.2-0.1-0.3-0.2-0.4c-0.1-0.1-0.2-0.3-0.2-0.5c0-0.2-0.1-0.3-0.2-0.5
			c-0.1-0.2-0.1-0.3-0.2-0.5s-0.1-0.3-0.2-0.5c-0.1-0.1-0.1-0.2-0.1-0.2c0-0.1,0-0.1-0.1-0.2c0-0.1-0.1-0.2-0.1-0.3
			c0-0.1,0-0.2-0.1-0.3c-0.1-0.1-0.1-0.2-0.1-0.3c0-0.1-0.1-0.2-0.1-0.4c-0.1-0.2-0.1-0.3-0.2-0.5s-0.1-0.3-0.2-0.5
			c-0.1-0.3-0.2-0.5-0.4-0.8c-0.1-0.3-0.2-0.6-0.1-0.9c0,0-0.1-0.1-0.2-0.1c-0.1,0-0.1,0-0.1-0.1c0-0.1,0-0.1,0-0.2
			c0-0.1-0.1-0.1-0.1-0.2c0-0.1-0.1-0.2-0.1-0.2c0-0.2,0-0.3-0.1-0.5c0-0.1-0.1-0.2-0.2-0.3s-0.1-0.3-0.1-0.3c0.1-0.1,0.1-0.2,0-0.3
			c0,0,0,0,0,0c-0.1-0.1-0.1-0.2-0.2-0.3c-0.1-0.1-0.1-0.3-0.2-0.4c-0.1-0.1-0.1-0.3-0.2-0.4c0-0.2-0.1-0.4-0.2-0.5
			c-0.1-0.1-0.1-0.2-0.1-0.2H105c-0.1,0.1,0,0.1,0,0.2c0.1,0.1,0.1,0.2,0,0.2c-0.1,0.1-0.1,0.3,0,0.4c0,0.1,0,0.3,0,0.4
			c-0.1,0.8-0.1,1.5,0,2.3V18c0,0.1,0,0.1-0.1,0.1c-0.1,0-0.1,0.1,0,0.1c0,0,0.1,0.1,0.1,0.1c0,0.1,0,0.1,0,0.2c0,0.1,0,0.1,0,0.2
			c0,0.1-0.1,0.1-0.1,0s-0.1,0-0.1,0c0,0.1,0.1,0.1,0.1,0.2c0.1,0.1,0.1,0.1,0.1,0.2c0,0,0,0.1,0,0.1c0,0-0.1,0.1-0.1,0.1
			c0,0.1,0,0.1,0,0.2c0,0.1,0,0.1,0,0.2c0,0.1-0.1,0.3,0,0.4c0,0.1,0,0.3,0,0.4c0,0.1,0,0.3,0,0.4c0,0.2,0,0.4,0,0.7
			c0,0.2,0,0.4,0,0.7c0,0.3,0,0.7,0,1c0.1,0.3,0.1,0.7,0,1c-0.1,0.4-0.1,0.8,0,1.1c0,0.4,0,0.8,0,1.1s0,0.7,0,1.1s0,0.7,0,1.1
			c0,0.2,0,0.3-0.2,0.5c-0.1,0.1-0.3,0.2-0.4,0.2c-0.2,0-0.4,0.1-0.6,0c-0.2,0-0.3,0-0.5,0h-0.2c-0.1,0-0.1,0-0.2-0.1
			c-0.1,0-0.2,0.1-0.2,0.1c-0.1,0-0.2,0-0.2,0c-0.1,0-0.1-0.1-0.2-0.1c0,0-0.1,0-0.2,0.1c-0.1,0-0.2,0-0.2,0c0,0-0.1,0-0.2,0h-0.5
			c-0.2,0-0.3,0-0.5,0c-0.1,0-0.3-0.1-0.4-0.2c-0.1-0.1-0.2-0.3-0.2-0.4v-0.5c0-0.2,0-0.3,0-0.5c0.1-0.2,0.1-0.3,0-0.5
			c0-0.2-0.1-0.3-0.1-0.5v-0.3c0-0.1,0-0.2,0-0.3c0-0.1,0.1-0.2,0-0.3c0-0.1-0.1-0.2-0.1-0.3c0-0.2,0-0.5,0-0.7s0-0.5,0-0.7
			c0-0.4,0-0.8,0-1.1c0-0.4,0-0.7,0-1.1v-0.6c0-0.2,0-0.4,0-0.6c-0.1-0.2-0.1-0.4,0-0.6c0-0.2,0-0.4,0-0.6c0-0.2,0-0.4,0-0.6
			c0-0.2,0-0.4,0-0.6c0-0.1,0-0.2,0-0.2c0-0.1,0-0.1,0-0.2c0-0.1,0-0.2,0-0.2c0-0.1,0-0.1,0-0.2v-0.2c0-0.1,0-0.1,0.1-0.1
			c0.1-0.1,0.1-0.1,0-0.2c0-0.1-0.1-0.2-0.1-0.2c-0.1-0.2-0.1-0.4,0-0.6c0-0.2,0-0.4,0-0.6c0-0.4,0-0.7,0-1.1c0-0.4,0-0.7,0-1.1
			c0-0.1,0-0.2,0-0.3c0-0.1,0-0.2,0-0.3c0-0.1,0.1-0.1,0.1-0.2c0,0,0-0.1,0-0.2c-0.1-0.1-0.1-0.3,0-0.5c0-0.1,0-0.3,0-0.4
			c-0.1-0.6-0.1-1.2,0-1.8c0.1-0.6,0.1-1.1,0-1.7c0-0.1,0-0.2,0-0.3c0-0.1,0-0.2,0-0.3c0-0.1,0-0.3,0-0.4c0-0.1,0-0.3,0-0.4
			c0.1-0.1,0.1-0.3,0-0.4c0-0.1,0-0.3,0-0.4c0-0.2,0-0.4,0-0.6c0-0.2,0-0.4,0-0.5c-0.1-0.2-0.1-0.5,0-0.7c0-0.2,0.1-0.5,0.1-0.7
			c0-0.1,0-0.3,0-0.4c0-0.1,0-0.2-0.1-0.3c0-0.1,0-0.2,0-0.4c0-0.1,0-0.3,0.1-0.4c0,0,0,0,0-0.1c0,0,0-0.1-0.1-0.1
			c0-0.1,0-0.1,0-0.2c0-0.1,0-0.1,0-0.2V1.1c0-0.1,0-0.3,0.1-0.4c0.1-0.1,0.1-0.2,0.2-0.2c0.1,0,0.2,0,0.3-0.1
			c0.1-0.1,0.2-0.1,0.4,0c0.1,0.1,0.3,0,0.4-0.1c0.3,0.1,0.5,0.1,0.8,0.1c0.3,0,0.5-0.1,0.8-0.1h0.4c0.1,0,0.3,0,0.4,0.1
			c0.2-0.1,0.3-0.1,0.5,0c0.2,0,0.3,0.1,0.4,0.2c0.2,0.2,0.3,0.5,0.4,0.8c0.1,0.3,0.2,0.5,0.3,0.8c0.1,0.3,0.2,0.6,0.3,0.8
			s0.2,0.5,0.3,0.8c0.2,0.5,0.4,1,0.5,1.6c0.2,0.5,0.4,1.1,0.6,1.6c0,0.1,0,0.2,0.1,0.3c0.1,0.1,0.1,0.2,0.2,0.3c0,0.1,0,0.2,0,0.4
			c0.1,0.1,0.1,0.2,0.2,0.4c0.1,0.1,0.1,0.2,0.1,0.3c0,0.1,0,0.2,0,0.3c0.1,0.1,0.2,0.3,0.2,0.4c0,0.1,0.1,0.3,0.2,0.4
			c0,0.1,0,0.1-0.1,0.2s-0.1,0.2,0,0.2c0,0,0.1,0,0.1,0c0,0,0.1-0.1,0.1-0.1c0.1,0,0.1,0,0.1,0.1c0,0.1,0,0.1,0,0.2
			c0.1,0.1,0.1,0.3,0.1,0.4c0,0.1,0.1,0.1,0.1,0.2c0,0.1,0.1,0.1,0,0.2c0.1,0.1,0.1,0.2,0.2,0.4c0.1,0.1,0.1,0.2,0,0.2
			c0,0.1,0,0.1,0,0.2c0.1,0.1,0.2,0.3,0.2,0.4c0.1,0.1,0.1,0.3,0,0.4c0.1,0.1,0.2,0.2,0.2,0.3c0,0.1,0,0.3,0.1,0.4
			c0,0.1,0,0.2,0.1,0.3c0.1,0.1,0.1,0.3,0.2,0.4c0.1,0.1,0.1,0.3,0.2,0.4c0.1,0.1,0.1,0.2,0.1,0.2c0.2,0,0.2-0.1,0.2-0.3
			c0-0.1-0.1-0.2-0.1-0.3c0-0.2,0-0.3,0.1-0.5c0.1-0.1,0.1-0.3,0-0.4c-0.1-0.3-0.2-0.7-0.1-1.1c0.1-0.4,0.1-0.7,0.1-1.1
			c0-0.3,0-0.7,0-1c0-0.3,0-0.7,0-1c0-0.2,0-0.3,0-0.5c0-0.2,0-0.3,0-0.5c0-0.4,0-0.8,0-1.3c0-0.7,0-1.5,0-2.2c0-0.7,0-1.4,0-2.1
			c0-0.2,0-0.3-0.1-0.5c0-0.1,0-0.3,0-0.5c0-0.2,0-0.3,0-0.5c0-0.2,0.1-0.3,0.2-0.4c0.3-0.2,0.6-0.3,1-0.3c0.4,0,0.8,0,1.1,0
			c0.1,0,0.2,0,0.3,0c0.1,0,0.2,0,0.2,0.1c0,0.1,0.1,0.1,0.2,0c0,0,0,0,0,0c0.1,0,0.1-0.1,0.2-0.1h0.5c0.2,0,0.3,0,0.5,0
			c0.2,0.1,0.3,0.1,0.4,0.1S115,0.8,115,1c0.1,0.2,0.1,0.3,0.1,0.5v0.5c0,0.2,0,0.4,0,0.6c0,0.2,0,0.4,0,0.5c0,0.1,0,0.3,0,0.4
			c0,0.1,0,0.2-0.2,0.3c0,0.1,0,0.1,0.1,0.1c0,0,0.1,0.1,0.1,0.1c0,0.1,0,0.1,0,0.2c0,0.1,0,0.1,0,0.2c0,0.1,0,0.1,0,0.2
			c0,0.1,0,0.1,0,0.2c0,0.1,0,0.2,0,0.3c0,0.1,0,0.2,0,0.3c-0.1,0.3-0.1,0.6,0,0.9c0,0.3,0,0.6,0,0.9c0,0.4,0,0.8,0,1.1
			c0,0.4,0,0.8,0.1,1.2c0,0.2,0,0.3,0,0.5c0,0.2,0,0.3,0,0.5c0,0.2,0,0.3,0,0.5c-0.1,0.1-0.1,0.3,0,0.4c0.1,0.1,0,0.2,0,0.2
			c0,0,0,0,0,0c0.1,0.1,0.1,0.1,0.1,0.2v0.3c0,0.1,0,0.2-0.1,0.2c0,0-0.1,0-0.1,0c0,0-0.1,0-0.1,0c0,0-0.1,0-0.1,0.1
			c0.1,0.1,0.1,0.1,0.2,0.1h0.1c0,0,0.1,0,0.1,0c0,0.1,0.1,0.2,0,0.2c0,0.2,0,0.3-0.1,0.4c0,0.1,0,0.3,0.1,0.4c0,0.1,0,0.2,0,0.4
			c0,0.1,0,0.3,0,0.4c0,0.2,0,0.3,0,0.5c0,0.2-0.1,0.3-0.2,0.5L115,16c0,0.1,0.1,0.2,0.1,0.3c0,0.1,0,0.1,0,0.2c0,0.1,0,0.1,0,0.2
			c0,0.1,0,0.1,0,0.2c0,0.1,0,0.1,0,0.2c0,0.1,0,0.2,0,0.2c0,0-0.1,0.1-0.1,0.2c0,0.1,0.1,0.3,0.1,0.4c0,0.1,0,0.3,0,0.4
			c0,0.1,0,0.3,0,0.4c0.1,0.3,0.1,0.7,0.1,1c0,0.3,0,0.7,0,1c0,0.4,0,0.7,0,1.1c0.1,0.4,0.1,0.7,0,1.1c-0.1,0.2-0.1,0.4,0,0.5
			c0.1,0.2,0.1,0.3,0,0.5c0,0.2-0.1,0.3-0.1,0.5c0,0.1,0,0.2,0,0.3C115.1,24.7,115.1,24.8,115.1,24.8z"/>
		<path id="Path_67" class="st6" d="M123.8,25.6c0,0.2,0.1,0.3,0.1,0.5V27c0,0.3,0,0.6,0,1c0,0.1,0,0.3,0,0.4c0,0.1,0,0.3-0.1,0.4
			c-0.1,0.2-0.1,0.3-0.3,0.3s-0.3,0-0.5,0c-0.2,0-0.3,0-0.5,0l-0.4-0.1c-0.1,0-0.3,0-0.4,0.1c-0.1,0-0.1,0-0.2,0c-0.1,0-0.1,0-0.2,0
			c-0.1,0-0.3-0.1-0.4-0.1c-0.1,0-0.3,0-0.4,0.1c-0.2,0.1-0.4,0.1-0.6,0c-0.2,0-0.4,0-0.6,0c-0.2,0-0.3,0-0.5-0.1
			c-0.1-0.1-0.2-0.3-0.2-0.4c0-0.2-0.1-0.4,0-0.6c0-0.2,0-0.3,0-0.5c0-0.2,0-0.4,0-0.5c0-0.2,0-0.3,0.1-0.5c0-0.1,0-0.3,0-0.4
			c0-0.1-0.1-0.3-0.1-0.4c0-0.1,0-0.2,0.1-0.3c0-0.1,0-0.2,0-0.3c-0.1-0.2-0.1-0.3,0-0.5c0-0.2,0-0.3,0-0.5c0-0.1,0-0.3,0-0.4
			c0-0.1,0-0.3,0-0.4c-0.1-0.1-0.1-0.2,0-0.3c0,0,0,0,0,0c0-0.1,0.1-0.1,0-0.2c0-0.1,0-0.1,0-0.2c0-0.3,0-0.6-0.1-0.9
			c0-0.3,0-0.6,0.1-0.8c0,0,0-0.1,0-0.1c0,0-0.1-0.1-0.1-0.1c0-0.1,0-0.2,0.1-0.3c0-0.1,0-0.2,0-0.3c0-0.4,0-0.8,0-1.1
			c0,0,0-0.1,0-0.2c0-0.1,0-0.2,0-0.3c0-0.1,0-0.2,0-0.2c0-0.1,0-0.1,0.1-0.1c0.1,0,0.2,0,0.3-0.2s0.1-0.2,0.1-0.3
			c-0.1,0-0.1,0-0.1,0.1c0,0,0,0.1,0,0.1c-0.1,0-0.2,0-0.4,0c0-0.1,0-0.2,0-0.4v-0.4c0-0.1,0-0.2-0.1-0.4c0-0.2,0-0.3,0-0.4
			c0.1,0,0.1-0.1,0.1-0.3c0-0.2,0-0.3,0-0.5c0-0.2,0-0.4,0-0.5s0-0.3,0-0.4c0-0.1,0-0.3,0-0.4c0-0.1,0-0.3,0.1-0.3
			c0.1-0.1,0.1-0.1,0-0.1s-0.1,0-0.1-0.1c0-0.1,0-0.3,0-0.4c0-0.1,0-0.3,0-0.4c0-0.1-0.1-0.2-0.1-0.4c0-0.1,0-0.2,0-0.3
			c0.1-0.2,0.1-0.4,0-0.6c0-0.1,0-0.2,0-0.3c0-0.1,0-0.2,0-0.3c-0.1-0.2-0.1-0.4,0-0.6c0.1-0.2,0.1-0.4,0.1-0.6c0-0.2,0-0.5-0.1-0.7
			c0-0.2,0-0.4,0-0.7c0-0.2,0-0.3,0.1-0.4l0,0h0c0.1,0,0.1,0,0.2,0.1c0,0.1,0.1,0.1,0.2,0c0,0,0,0,0,0c0-0.1-0.1-0.2-0.1-0.2
			c-0.1-0.1-0.1-0.2-0.1-0.3c-0.1,0-0.1,0-0.1,0.1v0.2c0,0,0,0,0,0c0,0,0,0,0,0h0c-0.1,0-0.1-0.1-0.1-0.3s0-0.3,0-0.3V7.2
			c0-0.1,0-0.3,0.1-0.4c0-0.1,0-0.2,0-0.2s-0.1-0.1-0.1-0.2c0-0.2,0-0.4,0-0.6v-1c0-0.2-0.1-0.4-0.1-0.6c0-0.2,0-0.3,0.1-0.5
			c-0.1-0.2-0.1-0.4,0-0.5c0-0.2,0-0.4,0-0.5c0-0.1,0-0.1,0-0.2c0,0,0-0.1,0.1-0.1c0.1,0,0.1-0.1,0-0.2c0-0.1,0-0.1,0-0.2
			c-0.1-0.3-0.1-0.5-0.1-0.8c0-0.3,0.1-0.5,0.3-0.7c0.1-0.1,0.3-0.1,0.5-0.1c0.2,0,0.3,0,0.5,0c0.3,0,0.6,0,0.9,0.1
			c0.1,0,0.2-0.1,0.4-0.1c0.1,0,0.2,0,0.3,0.1c0.3-0.1,0.6-0.1,0.9-0.1h0.4c0.2,0,0.3,0,0.5,0.1c0.2,0.1,0.3,0.1,0.2,0.2
			c0,0.1-0.1,0.2-0.1,0.3c0.1-0.1,0.2-0.2,0.2-0.4c0.1,0,0.2,0.1,0.3,0.3c0,0.1,0.1,0.3,0.1,0.4c0,0.1,0,0.3,0,0.4
			c0,0.1,0,0.2,0,0.3c0.1,0.2,0.1,0.4,0,0.6c0,0.2,0,0.4,0,0.6c0,0.1,0,0.1,0,0.2c0,0.1-0.1,0.1-0.1,0.2c0,0.1,0,0.3,0,0.4
			c0,0.1,0,0.3,0,0.4c0.1,0.5,0.1,0.9,0,1.4c-0.1,0.5-0.1,0.9,0,1.4c0,0.1,0,0.2,0,0.3c0,0.1,0,0.2,0,0.3c-0.1,0.1-0.1,0.3-0.1,0.4
			c0,0.1,0.1,0.3,0.1,0.4c0,0.1,0,0.3-0.1,0.4c0.1,0.1,0.1,0.3,0.1,0.5c-0.1,0.2-0.1,0.3-0.1,0.5c0.1,0.4,0.1,0.7,0,1.1
			c0,0.1,0,0.2,0,0.3c0,0.1,0,0.2,0,0.3c0,0.1,0,0.3,0,0.4s0,0.3,0,0.4c0,0.2,0.1,0.3,0.1,0.5c0,0.1,0,0.2,0,0.3
			c0,0.1-0.1,0.2-0.1,0.3c0,0.1,0,0.1,0,0.2c0,0.1,0.1,0.1,0.1,0.2c0,0.1,0,0.3,0,0.4c0,0.1,0,0.2,0,0.4c0,0.2,0,0.4,0,0.6
			c0,0.2,0,0.4,0,0.6c0,0.1,0,0.1,0,0.2c0,0.1,0,0.1,0,0.2c0,0.1,0,0.2-0.1,0.3s-0.1,0.1,0,0.2c0.1,0.1,0.1,0.2,0.1,0.3
			c0,0.1,0,0.2,0,0.3c0,0.2-0.1,0.2-0.1,0.2s-0.1,0-0.2,0.1c0,0,0.1,0.1,0.2,0.1s0.1,0,0.2,0.1v0.6c0,0.2,0,0.4,0,0.5s0,0.4,0,0.5
			c-0.1,0.6-0.1,1.2,0,1.8c0,0.1,0,0.2,0,0.3c0,0.1,0,0.2,0,0.3c0,0.1,0,0.2,0,0.2c0,0.1,0,0.2,0,0.3c0,0.2,0,0.4,0,0.5
			c0,0.2,0,0.4,0,0.5c0,0.1,0,0.3,0,0.4c0,0.1,0,0.3,0,0.4c-0.1,0.1-0.1,0.3,0,0.4c0,0.1,0,0.2-0.1,0.2s0,0.1,0,0.1
			c0.1,0.1,0.1,0.2,0.1,0.3c0,0.1,0,0.2,0,0.3c0,0,0,0.1,0,0.1C123.8,25.5,123.8,25.6,123.8,25.6z M123.6,1.1
			C123.7,1.1,123.7,1.1,123.6,1.1C123.6,1,123.6,1,123.6,1.1L123.6,1.1z M123.7,4.4c0.1-0.1,0-0.1,0-0.2
			C123.6,4.3,123.6,4.4,123.7,4.4L123.7,4.4z"/>
		<path id="Path_68" class="st6" d="M140.8,3.4c0,0.1,0,0.3,0.1,0.4c0.1,0.1,0.1,0.3,0,0.4c-0.1,0.1-0.1,0.3-0.1,0.4
			c0,0.1-0.1,0.3-0.2,0.4c-0.1,0.1-0.2,0.1-0.4,0.2c-0.1,0-0.3,0-0.4,0c-0.1,0-0.2,0-0.2,0c-0.1,0-0.2,0-0.2,0c-0.1,0-0.2,0-0.3,0
			c-0.1,0-0.2,0-0.2-0.1c-0.2,0.1-0.3,0.2-0.4,0.1c-0.1,0-0.3-0.1-0.4-0.1c-0.1,0-0.1,0-0.2,0c0,0-0.1,0.1-0.2,0
			c-0.1,0-0.1-0.1-0.2-0.1c-0.1,0-0.1,0-0.2,0.1c-0.2,0.1-0.4,0.1-0.6,0c-0.2-0.1-0.4-0.1-0.6,0c-0.1,0-0.2,0.2-0.2,0.3
			c0,0.1-0.1,0.3-0.1,0.4c0,0.1,0,0.3,0,0.4c0,0.1,0,0.3,0,0.4c0,0.2,0,0.3,0,0.5c0,0.1,0,0.3,0,0.4c0.1,0.2,0.1,0.4,0,0.6
			c0,0.2,0,0.4,0,0.6c0,0,0,0.1,0,0.1c0,0-0.1,0.1-0.1,0.1c0.1,0.2,0.1,0.4,0.1,0.6c0,0.3,0,0.7,0,1c0,0.3,0,0.7,0,1v0.3
			c0,0.1,0,0.2,0,0.3c0,0-0.1,0.1-0.2,0.1c-0.1,0-0.1,0.1,0,0.1c0.1,0.2,0.1,0.4,0.1,0.6c0,0.2,0,0.4,0,0.6c0,0.2,0,0.4,0,0.6
			s0,0.4,0,0.6c0,0.1,0,0.1,0,0.1c0,0-0.1,0.1-0.1,0.1c0,0.1,0.1,0.2,0.1,0.3c0,0.1,0,0.3,0,0.4V16c0,0.1,0,0.1,0,0.2
			c0,0.1,0,0.1,0,0.2c0,0.1,0,0.2,0,0.3c0,0.1,0.1,0.2,0.1,0.3c0,0.4,0,0.7,0,1.1v0.6c-0.1,0-0.2,0.1-0.3,0.2
			c-0.1,0.1-0.1,0.1,0,0.2c0,0,0.1,0.1,0.1,0.1c0,0,0.1,0,0.1,0.1c0,0,0,0.1,0,0.2c-0.1,0.2-0.1,0.4,0,0.5c0.1,0.2,0.1,0.3,0,0.5
			c-0.1,0.6-0.1,1.3,0,1.9c0.1,0.6,0.1,1.3,0,1.9c0,0.1,0,0.3,0,0.4c0,0.1,0,0.3,0,0.4c0,0.2,0,0.3,0,0.5v0.5c0,0.2,0,0.3,0,0.5
			s0,0.3,0,0.5c0,0.2,0,0.5,0,0.7c0,0.2,0,0.4,0,0.7c0,0.1,0,0.1,0,0.1c-0.1,0-0.1,0.1-0.1,0.1c0,0.1,0.1,0.1,0.1,0.2
			c0,0,0,0.1,0,0.2c0,0.1-0.1,0.2-0.2,0.3c-0.1,0-0.2,0.1-0.3,0.1c-0.2,0-0.3,0.1-0.5,0.1c-0.2,0-0.3,0-0.5,0
			c-0.2-0.1-0.4-0.1-0.6,0c-0.1,0-0.2,0-0.3,0c-0.1,0-0.2-0.1-0.3,0c-0.3,0.1-0.7,0.1-1,0c-0.3,0-0.7,0-1,0c-0.2,0-0.3-0.1-0.4-0.2
			c-0.1-0.1-0.2-0.2-0.2-0.4c0-0.1,0-0.3,0-0.4c0-0.1,0-0.3-0.1-0.4c-0.1-0.2-0.1-0.4,0-0.6c0-0.2,0.1-0.4,0.1-0.6
			c0-0.2,0-0.4,0-0.6v-0.6c0-0.4,0-0.7,0-1.1c0-0.4,0-0.8,0.1-1.1c0-0.1,0-0.3,0-0.4c0-0.2,0-0.3,0-0.5c0-0.2,0-0.3,0-0.5
			c0-0.2,0-0.4,0-0.5c0-0.2,0.1-0.3,0.1-0.5c0-0.2,0-0.3,0-0.5c-0.1-0.4-0.1-0.7,0-1.1c0.1-0.2,0.1-0.4,0-0.6c0-0.2-0.1-0.3-0.1-0.5
			c0-0.2,0-0.3,0-0.5c0-0.2,0-0.3,0-0.5c0-0.2,0-0.4-0.1-0.6c0-0.2,0-0.4,0-0.6c0-0.2,0-0.3,0-0.5c0-0.2,0-0.3,0-0.5
			c0-0.2,0-0.4,0-0.6c0-0.1,0-0.2,0-0.3c0.1-0.1,0.1-0.2,0-0.3c-0.1-0.2-0.1-0.5,0-0.7c0-0.2,0-0.5,0-0.7c0,0,0.1,0,0.1,0
			c0,0,0.1,0,0.1,0c0-0.1,0-0.1-0.1-0.1c-0.1,0-0.1-0.1-0.1-0.1c-0.1-0.1-0.1-0.2,0-0.3c0-0.1,0-0.2,0-0.3c0,0,0.1,0,0.2,0
			s0.2,0,0.2,0c-0.1-0.1-0.1-0.2,0-0.1c0.1,0.1,0.2,0.1,0.2,0c-0.1-0.1-0.1-0.2-0.1-0.3c0-0.1,0-0.2-0.1-0.3c-0.1-0.1-0.1-0.1-0.2,0
			c0,0,0,0.1,0,0.1c0,0.1,0,0.2,0,0.3c-0.1,0-0.2-0.1-0.2-0.3s0-0.3,0-0.4c0-0.2,0.1-0.4,0.1-0.6c0-0.2,0-0.4,0-0.7
			c0-0.1,0-0.3-0.1-0.4c0-0.2,0-0.3,0-0.5c0-0.1,0.1-0.2,0.1-0.3c-0.1-0.1-0.1-0.1-0.1-0.2V7.3c0-0.1,0.1-0.2,0.2-0.2
			C131,7,131,6.9,131,6.9c-0.1,0-0.1,0-0.2,0c-0.1-0.1-0.1-0.3,0-0.4c0-0.1,0.1-0.3,0.1-0.4c-0.1-0.1-0.1-0.3-0.1-0.4
			c0-0.1-0.1-0.3-0.1-0.4c-0.2-0.1-0.4-0.1-0.5,0c-0.2,0-0.3,0-0.5,0c-0.1,0-0.1-0.1-0.2-0.1c-0.1,0-0.1,0-0.2,0
			c0,0.1-0.1,0.1-0.2,0.1c-0.3-0.1-0.6-0.1-0.8,0c-0.3,0.1-0.5,0-0.8-0.1c-0.1-0.1-0.2,0-0.3,0c-0.1,0.1-0.2,0.1-0.3,0.1
			c-0.1,0-0.2-0.1-0.2-0.2c-0.1,0.1-0.2,0.1-0.3,0.1S126,5,125.9,5c-0.1-0.4-0.1-0.8-0.1-1.1c0-0.4,0-0.8,0-1.1c0-0.2,0-0.4,0-0.6
			s0-0.4,0-0.6c0-0.1,0-0.3,0-0.5s0.1-0.4,0.2-0.4c0,0,0.1,0,0.2,0c0.1,0,0.1,0,0.2,0c0,0,0.1-0.1,0.1-0.1c0-0.1,0-0.1,0.1-0.1
			c0.2,0,0.3,0,0.5,0.1s0.3,0,0.5,0c0.2,0,0.4,0,0.6,0h0.6c0.1,0,0.2,0,0.2,0c0.1,0,0.2,0,0.3,0c0.1,0,0.2,0,0.2,0.1
			c0.1,0.1,0.1,0.1,0.2,0.2c0,0,0.1-0.1,0.1-0.1c0,0,0-0.1,0-0.1c0.1,0,0.2,0,0.4,0c0.2,0,0.3,0,0.5,0c0.2,0,0.3,0,0.5-0.1
			c0.1,0,0.1,0,0.1,0c0,0,0.1,0,0.1,0c0.1,0,0.2,0,0.3,0c0.1,0,0.2,0,0.3,0c0.1,0,0.1,0,0.2,0c0.1,0,0.1,0,0.2,0.1
			c0.1,0,0.1,0,0.2,0c0.1,0,0.1,0,0.1,0l-0.1,0h0.8c0.1,0,0.2,0,0.2,0c0,0.1,0,0.3,0,0.4c0,0.1,0.1,0.3,0.2,0.3c0.1,0,0.1-0.1,0-0.1
			s0-0.1,0-0.1l0,0c-0.1,0-0.2-0.1-0.2-0.3c0-0.1,0-0.2,0.1-0.3c0.1-0.1,0.2-0.1,0.4-0.1c0.1,0,0.3,0,0.4,0c0.1,0,0.3,0,0.4,0
			c0.1,0,0.3,0,0.4,0c0.2,0,0.4,0,0.6,0c0.2,0,0.4,0,0.6,0c0.1,0.1,0.3,0.1,0.5,0c0.1,0,0.3-0.1,0.5-0.1c0.4,0,0.8,0,1.1,0
			c0.2,0,0.3,0,0.5,0c0.2,0,0.4,0.1,0.5,0.1c0.1,0,0.3,0,0.4-0.1s0.3,0,0.4,0c0.4,0,0.6,0.1,0.7,0.3c0.1,0.2,0.2,0.5,0.1,0.7V2
			c0,0.2,0,0.4,0,0.6c0,0.1,0,0.1,0,0.2c0,0,0,0.1,0,0.2C140.8,3.1,140.8,3.3,140.8,3.4z M140.2,1.1C140.3,1.1,140.3,1.1,140.2,1.1
			C140.3,1.1,140.3,1,140.2,1.1L140.2,1.1z"/>
		<path id="Path_69" class="st6" d="M157.8,0.8c0.1,0.1,0.1,0.3,0,0.4c-0.1,0.1-0.1,0.3-0.1,0.4c0,0,0,0.1-0.1,0.1
			c0,0-0.1,0.1-0.1,0.1c-0.1,0.2-0.1,0.4-0.1,0.5c-0.1,0.2-0.1,0.5-0.3,0.7c-0.1,0.2-0.2,0.5-0.3,0.7c0,0.1-0.1,0.2-0.2,0.3
			s-0.1,0.3-0.1,0.3c0.1,0.1,0,0.2,0,0.2c-0.1,0-0.1,0-0.2,0.1c0.1,0.1,0.1,0.3,0,0.5c-0.1,0.1-0.1,0.3-0.2,0.5
			c-0.1,0.1-0.1,0.3-0.1,0.5c0,0.2-0.1,0.3-0.2,0.4c-0.1,0.1-0.1,0.3-0.2,0.4c0,0.1-0.1,0.3-0.1,0.4c-0.1,0.2-0.1,0.3-0.2,0.5
			c0,0.2-0.1,0.3-0.1,0.5c-0.1,0.3-0.2,0.6-0.3,1c-0.1,0.3-0.2,0.6-0.3,0.9c-0.1,0.1-0.1,0.3-0.1,0.4c0,0.2-0.1,0.3-0.2,0.4
			c0,0.1,0,0.2,0,0.3c0,0.1-0.1,0.1-0.2,0.1c0.1,0.2,0.1,0.5,0,0.7c0,0.2-0.2,0.5-0.3,0.7c0,0.1,0,0.2-0.1,0.3
			c0,0.1-0.1,0.2-0.1,0.3c0,0.2-0.1,0.4-0.1,0.5c-0.1,0.2-0.1,0.4-0.2,0.5c-0.1,0.3-0.2,0.6-0.3,0.9c-0.1,0.3-0.2,0.6-0.3,0.9
			c0,0.1-0.1,0.2-0.1,0.4c-0.1,0.1-0.1,0.2-0.2,0.4c0,0.1,0,0.1-0.1,0.2c0,0.1,0,0.1,0,0.2c0,0.1,0,0.2,0,0.2c-0.1,0-0.1,0-0.2,0.1
			c0.2,0.2,0.2,0.5,0.2,0.8c0,0.3,0,0.5-0.1,0.8c0,0.3,0,0.6,0,1c0,0.3,0,0.6,0,0.9c0,0.2,0,0.3,0,0.5c0,0.2,0,0.3-0.1,0.5
			c-0.1,0.2-0.1,0.3,0,0.5c0.1,0.2,0.1,0.4,0.1,0.5c0,0.2,0,0.4,0,0.6s0,0.4-0.1,0.6c0,0.1,0,0.1,0,0.2c0,0.1,0,0.1,0,0.2
			c0,0.1,0,0.1,0,0.2c0,0.1,0,0.1,0,0.2v0.9c0,0.3,0,0.6,0,0.9c0,0.1,0,0.3,0,0.4c-0.1,0.1,0,0.3,0.1,0.4c-0.1,0.2-0.1,0.4,0,0.5
			c0,0.2,0,0.3,0,0.5c0,0.1-0.1,0.3-0.2,0.3c-0.1,0.1-0.3,0.1-0.4,0.1c-0.2,0-0.3,0-0.5,0c-0.2,0-0.3,0-0.4,0c-0.2,0-0.4,0-0.5,0
			s-0.4,0-0.5,0c-0.2,0-0.4,0-0.6,0c-0.2,0-0.4,0-0.6,0h-0.8c-0.3,0-0.5-0.2-0.6-0.4c-0.1-0.4-0.1-0.8-0.1-1.2c0-0.4,0-0.8,0.1-1.2
			c0-0.2,0-0.3,0-0.5c0-0.1,0-0.3,0-0.4c0-0.1,0-0.3,0-0.4v-0.4c0-0.3,0-0.7,0-1c0-0.1,0-0.3,0-0.4c0-0.1,0-0.3,0-0.4
			c0.1-0.3,0.1-0.6,0-1c-0.1-0.3-0.1-0.7,0-1c0-0.2,0-0.3,0-0.5c0-0.2,0-0.3,0-0.5c0-0.2,0-0.4,0-0.6c0-0.2,0-0.4,0-0.6
			c0-0.1,0-0.1,0-0.2c0,0,0-0.1,0-0.1c0-0.1,0.1-0.3,0-0.4c-0.1-0.1-0.1-0.2,0-0.2s0.1,0,0.1-0.1c0-0.1-0.1-0.2-0.1-0.2
			s-0.1-0.2-0.1-0.2c-0.1-0.3-0.2-0.6-0.3-1c-0.1-0.3-0.1-0.6,0-0.9c-0.1-0.1-0.1,0-0.1,0.1s-0.1,0.1-0.1,0.1c0-0.1,0-0.2-0.1-0.3
			c-0.1-0.1-0.1-0.2-0.2-0.3c0-0.1,0-0.2,0-0.2c0-0.1,0-0.1-0.1-0.2c-0.1-0.1-0.1-0.2-0.1-0.3c0-0.2,0-0.3-0.1-0.5
			c-0.1-0.2-0.1-0.3-0.2-0.5c-0.1-0.3-0.3-0.6-0.4-1c-0.1-0.4-0.2-0.7-0.3-1c0-0.1-0.1-0.1-0.1-0.2c0-0.1,0-0.1,0-0.2
			c0.1-0.1,0.1-0.1,0-0.1c-0.1,0-0.1-0.1-0.1-0.1c-0.1-0.1-0.1-0.3-0.1-0.4c0-0.2-0.1-0.3-0.2-0.4c0-0.3,0-0.6-0.1-0.8
			c-0.1-0.3-0.2-0.5-0.4-0.8c-0.1-0.2-0.1-0.3,0-0.3c0.1,0,0.2,0,0.2-0.1c-0.1-0.1-0.1-0.2-0.2-0.2c-0.1,0-0.1-0.1-0.1-0.2
			c0-0.1,0-0.1-0.1-0.2c0-0.1-0.1-0.2-0.1-0.4c0-0.1-0.1-0.3-0.1-0.4c-0.1-0.1-0.1-0.3-0.2-0.4c0-0.1-0.1-0.3-0.1-0.4
			c-0.1-0.2-0.1-0.3-0.2-0.5s-0.1-0.4-0.2-0.5c0-0.1-0.1-0.2-0.1-0.2c0-0.1-0.1-0.2-0.1-0.2c0-0.1,0-0.1,0-0.2c0,0,0-0.1,0-0.2
			c-0.1-0.3-0.3-0.7-0.4-1s-0.2-0.6-0.3-1c-0.1-0.1-0.1-0.3-0.1-0.4c0-0.1,0-0.3,0-0.4c0.1-0.2,0.2-0.3,0.3-0.3
			c0.2,0,0.3-0.1,0.5-0.1c0.1-0.1,0.2-0.1,0.4,0c0.1,0,0.2,0.1,0.4,0.1c0.1,0,0.3-0.1,0.4-0.1c0.1,0,0.3,0,0.4,0
			c0.1,0.1,0.2,0.1,0.4,0c0.1,0,0.3,0,0.4,0c0.2,0,0.4,0,0.5,0c0.2,0,0.3,0,0.5,0c0.1,0.1,0.3,0.1,0.4,0c0.2,0,0.3,0,0.4,0.1
			c0.1,0,0.1,0.1,0.2,0.1c0,0,0.1,0.1,0.1,0.2c0,0.1,0,0.2,0.1,0.3c0,0.1,0,0.2,0.1,0.3c0.1,0.2,0.1,0.3,0.1,0.5
			c0,0.2,0.1,0.3,0.2,0.5c0,0.1,0.1,0.1,0.1,0.2c0,0.1,0,0.1,0,0.2c0,0.1,0,0.1,0,0.2c0,0,0.1,0.1,0.1,0.2c0,0.1,0.1,0.3,0.1,0.4
			c0.1,0.1,0.1,0.3,0.1,0.4c0,0.1,0,0.1,0,0.2c0,0.1,0,0.1,0,0.2c0.1,0.1,0.1,0.1,0.1,0.1c0,0.1,0,0.1,0,0.2c0,0.2,0.1,0.4,0.1,0.5
			c0.1,0.2,0.1,0.3,0.1,0.5c0,0.2,0.1,0.4,0.1,0.5c0,0.2,0.1,0.3,0.2,0.5c0.1,0.2,0.2,0.4,0.2,0.6c0,0.2,0.1,0.5,0.1,0.7
			c0,0.1,0.1,0.2,0.2,0.2c0,0.1,0,0.2,0.1,0.3c0,0.1,0,0.2,0.1,0.3c0,0.1,0.1,0.3,0.2,0.4c0.1,0.2,0.1,0.3,0.1,0.4
			c0,0.1,0,0.2,0,0.3c0,0.1,0.1,0.2,0.1,0.3c0,0.1,0.1,0.2,0.2,0.2c0.1,0.1,0.1,0.1,0.2,0c0.2-0.2,0.3-0.5,0.4-0.8
			c0.1-0.3,0.1-0.6,0.2-0.8c0-0.3,0.1-0.5,0.2-0.8c0.1-0.1,0.1-0.2,0.1-0.3c0-0.1,0-0.2,0.1-0.3c0-0.1,0.1-0.2,0.1-0.3
			c0.1-0.1,0.1-0.2,0.1-0.4c0-0.1,0.1-0.2,0.1-0.3c0-0.1,0-0.3,0.1-0.4c0.1-0.2,0.2-0.5,0.2-0.8c0-0.3,0.1-0.5,0.2-0.8
			c0.1-0.3,0.2-0.5,0.3-0.8c0.1-0.3,0.1-0.6,0.2-0.9c0-0.1,0.1-0.3,0.1-0.4c0-0.1,0.1-0.2,0.2-0.3c0-0.1,0-0.2,0-0.3
			c0-0.1,0.1-0.2,0.1-0.3c0-0.1,0-0.2,0.1-0.3c0-0.1,0.1-0.2,0.2-0.3c0.3-0.1,0.6-0.1,0.9-0.2c0.1,0,0.3,0,0.4,0c0.1,0,0.2,0,0.4,0
			c0.1,0,0.2,0,0.4,0c0.1,0,0.2,0,0.4,0c0.1,0,0.2,0,0.4,0c0.1,0.1,0.2,0.1,0.2,0.1s0.1,0,0.2,0c0.1-0.1,0.3-0.1,0.5-0.1
			c0.3,0,0.5,0,0.8,0C157.4,0.5,157.7,0.6,157.8,0.8z"/>
		<path id="Path_70" class="st6" d="M4.6,51.7C2.9,51.9,1.2,51.2,0,50l1-1c0.9,1,2.3,1.5,3.6,1.5c1.9,0,3.1-0.9,3.1-2.5
			c0-0.6-0.2-1.2-0.6-1.7c-0.5-0.4-1.1-0.6-1.7-0.6l-1.6-0.2c-0.9-0.1-1.7-0.5-2.5-1c-0.7-0.6-1.1-1.6-1-2.5c0-2.3,1.6-3.8,4.3-3.8
			c1.5-0.1,2.9,0.4,4,1.5l-0.9,0.9c-0.8-0.8-2-1.2-3.1-1.1c-1.8,0-2.8,1-2.8,2.5c0,0.6,0.2,1.1,0.6,1.5c0.5,0.4,1.1,0.6,1.8,0.7
			l1.5,0.2c0.9,0.1,1.7,0.4,2.4,0.9C8.8,46,9.2,47,9.2,48C9.2,50.3,7.3,51.7,4.6,51.7z"/>
		<path id="Path_71" class="st6" d="M16.3,51.7c-1.3,0-2.5-0.5-3.4-1.4c-1.3-1.3-1.3-2.6-1.3-5.4s0-4.1,1.3-5.4
			c0.9-0.9,2.1-1.4,3.4-1.4c2.3-0.1,4.4,1.6,4.6,4h-1.5c-0.2-1.6-1.6-2.7-3.2-2.7c-0.9,0-1.7,0.3-2.3,0.9c-0.8,0.9-0.9,1.8-0.9,4.6
			s0.1,3.7,0.9,4.6c0.6,0.6,1.4,0.9,2.3,0.9c1.6,0,3-1.1,3.2-2.7h1.4C20.7,50.1,18.7,51.8,16.3,51.7z"/>
		<path id="Path_72" class="st6" d="M24.1,51.6V38.3h1.4v13.3H24.1z"/>
		<path id="Path_73" class="st6" d="M29.4,51.6V38.3h8.3v1.3h-6.9v4.7h5.8v1.3h-5.8v4.8h6.9v1.3L29.4,51.6z"/>
		<path id="Path_74" class="st6" d="M49.1,51.6l-7.1-10.7v10.7h-1.4V38.3H42L49.1,49V38.3h1.4v13.3H49.1z"/>
		<path id="Path_75" class="st6" d="M58.5,51.7c-1.3,0-2.5-0.5-3.4-1.4c-1.3-1.3-1.3-2.6-1.3-5.4s0-4.1,1.3-5.4
			c0.9-0.9,2.1-1.4,3.4-1.4c2.3-0.1,4.4,1.6,4.6,4h-1.5c-0.2-1.6-1.6-2.7-3.2-2.7c-0.9,0-1.7,0.3-2.3,0.9c-0.8,0.9-0.9,1.8-0.9,4.6
			s0.1,3.7,0.9,4.6c0.6,0.6,1.4,0.9,2.3,0.9c1.6,0,3-1.1,3.2-2.7h1.4C62.9,50.1,60.9,51.8,58.5,51.7z"/>
		<path id="Path_76" class="st6" d="M66.3,51.6V38.3h8.3v1.3h-6.9v4.7h5.8v1.3h-5.8v4.8h6.9v1.3L66.3,51.6z"/>
		<path id="Path_77" class="st6" d="M92.2,51.6V41.5l-3.7,8h-1.2l-3.7-8v10.1h-1.4V38.3h1.4l4.3,9.5l4.2-9.5h1.4v13.3H92.2z"/>
		<path id="Path_78" class="st6" d="M101.9,51.7c-2.4,0.1-4.5-1.7-4.6-4.1c0-0.1,0-0.2,0-0.4v-8.9h1.4v8.8c-0.1,1.8,1.3,3.3,3.1,3.3
			s3.3-1.3,3.3-3.1c0-0.1,0-0.2,0-0.2v-8.8h1.4v8.9c0.1,2.4-1.9,4.5-4.3,4.5C102.2,51.8,102.1,51.8,101.9,51.7z"/>
		<path id="Path_79" class="st6" d="M113.7,51.7c-1.7,0.1-3.4-0.5-4.6-1.8l1-1c0.9,1,2.3,1.5,3.6,1.5c1.9,0,3.1-0.9,3.1-2.5
			c0-0.6-0.2-1.2-0.6-1.7c-0.5-0.4-1.1-0.6-1.7-0.6l-1.6-0.2c-0.9-0.1-1.7-0.5-2.5-1c-0.7-0.6-1.1-1.6-1-2.5c0-2.3,1.6-3.8,4.3-3.8
			c1.5-0.1,2.9,0.4,4,1.5l-0.9,0.9c-0.8-0.8-2-1.2-3.1-1.1c-1.8,0-2.8,1-2.8,2.5c0,0.6,0.2,1.1,0.6,1.5c0.5,0.4,1.1,0.6,1.8,0.7
			l1.5,0.2c0.9,0.1,1.7,0.4,2.4,0.9c0.8,0.7,1.2,1.6,1.1,2.6C118.3,50.3,116.5,51.7,113.7,51.7z"/>
		<path id="Path_80" class="st6" d="M121.3,51.6V38.3h8.3v1.3h-6.9v4.7h5.8v1.3h-5.8v4.8h6.9v1.3L121.3,51.6z"/>
		<path id="Path_81" class="st6" d="M137,51.7c-2.4,0.1-4.5-1.7-4.6-4.1c0-0.1,0-0.2,0-0.4v-8.9h1.4v8.8c-0.1,1.8,1.3,3.3,3.1,3.4
			s3.3-1.3,3.4-3.1c0-0.1,0-0.2,0-0.3v-8.8h1.4v8.9c0,2.4-1.9,4.5-4.3,4.5C137.2,51.8,137.1,51.8,137,51.7z"/>
		<path id="Path_82" class="st6" d="M155.4,51.6V41.5l-3.7,8h-1.2l-3.7-8v10.1h-1.4V38.3h1.4l4.3,9.5l4.2-9.5h1.4v13.3H155.4z"/>
	</g>
</g>
</svg>
