<?xml version="1.0" encoding="utf-8"?>
<!-- Generator: Adobe Illustrator 25.0.1, SVG Export Plug-In . SVG Version: 6.00 Build 0)  -->
<svg version="1.1" id="Layer_1" xmlns="http://www.w3.org/2000/svg" xmlns:xlink="http://www.w3.org/1999/xlink" x="0px" y="0px"
	 viewBox="0 0 242.4 54.8" style="enable-background:new 0 0 242.4 54.8;" xml:space="preserve">
<style type="text/css">
	.st0{fill:#66B4C8;}
	.st1{fill:#5F54A0;}
	.st2{fill:#E94952;}
	.st3{fill:#4DA5DC;}
	.st4{fill:#FFD204;}
	.st5{fill:#EF7B57;}
</style>
<g id="Group_10" transform="translate(156.004 8)">
	<path id="Path_61" d="M-70.3,3.1c0.1-0.1,0.1-0.1,0.2-0.2s0-0.1-0.2-0.1c0,0-0.1-0.1-0.1-0.1c0-0.1,0-0.2,0-0.3V1.7
		c0-0.3,0-0.7,0-1s0-0.7,0-1c0-0.3-0.1-0.6-0.1-0.9c-0.1-0.3-0.2-0.6-0.4-0.9c0-0.1-0.1-0.1-0.1-0.2c0,0-0.1-0.1-0.1-0.1
		c0,0-0.1-0.1-0.2-0.1c0,0,0-0.1,0-0.2c0-0.2,0-0.2-0.1-0.1s-0.1,0.1-0.2,0.1c-0.1,0-0.1-0.1-0.1-0.2s-0.1-0.2-0.2-0.1
		c0,0-0.1,0.1-0.1,0.1c0,0,0,0.1-0.1,0.1h-0.6c0-0.2,0-0.3,0-0.5c0.1-0.2,0.1-0.3,0.2-0.5c-0.1-0.1-0.1,0-0.3,0.1
		c-0.1,0.1-0.1,0-0.1,0s-0.1-0.1-0.2,0c0,0.1,0.1,0.2,0.1,0.2s0.1,0.1,0,0.3c0,0.1,0,0.3,0,0.4c-0.1,0-0.1,0-0.2,0
		c-0.1,0-0.1,0.1-0.2,0.1c-0.1,0.1-0.2,0.1-0.3,0.1c-0.1,0.1-0.2,0.1-0.3,0.3c-0.1,0.1-0.2,0.2-0.3,0.4c-0.1,0.1-0.2,0.2-0.4,0.3
		c0,0.1,0,0.1,0.1,0s0.1,0,0.1,0c0,0.2,0,0.3-0.1,0.3c0.1,0.2,0,0.3-0.1,0.3c0,0.2,0,0.4,0,0.5c0,0.2,0,0.3-0.1,0.5
		c0,0.1,0,0.1,0,0.2c0,0.1,0,0.1,0,0.2c-0.1,0.2-0.1,0.4,0,0.5c0,0.2,0.1,0.4,0,0.6c0,0.2,0,0.3,0,0.5c0,0.2,0,0.3,0,0.5
		c0,0.1,0,0.3,0.1,0.4c0,0.1,0,0.2-0.1,0.2s-0.1,0.1,0,0.2c0.1,0.1,0.1,0.3,0,0.4c-0.1,0.1,0,0.2,0,0.3c-0.1,0.2-0.1,0.4-0.1,0.6
		c0,0.2,0,0.4,0,0.6s0,0.4,0,0.6s0,0.4,0,0.6c0,0.2,0,0.3,0,0.5c0,0.2,0,0.3,0,0.5c0,0.4,0,0.8,0,1.1v1.1c0,0.2,0,0.3,0,0.5
		c0,0.2,0,0.3,0,0.5c-0.1,0.1-0.1,0.3,0,0.5c0,0.2,0.1,0.3,0.1,0.5c0,0.2,0,0.4,0,0.5c0,0.2,0,0.4,0,0.6c0,0.1,0,0.1,0,0.2
		c0,0,0,0.1,0,0.1c0,0.1,0,0.2,0,0.3c0,0.1,0,0.2,0,0.3c-0.1,0.2-0.1,0.3,0,0.5c0,0.2,0,0.4,0,0.5c0.1,0.2,0.1,0.4,0.1,0.6v0.6
		c0,0.2,0,0.4,0.1,0.5c0,0.2,0.1,0.3,0.1,0.5c0,0.4,0.1,0.7,0.4,1c0.2,0.3,0.5,0.4,0.9,0.5c0.1,0.1,0.3,0.1,0.5,0.1
		c0.2,0,0.3,0,0.5,0c0.1,0,0.1,0,0.2,0c0.1,0,0.1,0,0.2,0.1c0.3-0.2,0.7-0.4,1-0.6c0.1-0.1,0.1-0.2,0.1-0.3s0.1-0.2,0.1-0.3
		c0.1-0.1,0.1-0.3,0.2-0.5c0.1-0.2,0.1-0.3,0.1-0.5c0-0.1,0-0.1,0-0.2c0-0.1,0-0.2,0-0.2c0.1-0.1,0.1-0.2,0-0.3
		c0-0.1-0.1-0.1-0.1-0.2c0-0.1,0-0.2,0-0.3c0-0.1,0-0.2,0-0.3c0-0.1,0-0.1,0-0.2c0-0.1,0.1-0.2,0-0.2c0-0.2,0-0.3,0-0.5
		c0-0.2,0-0.3,0-0.5c0-0.1,0-0.1,0.1-0.2c0-0.1,0.1-0.1,0-0.2c0-0.1,0-0.1,0-0.2s0-0.1,0-0.2c0-0.1,0-0.2,0-0.2s0-0.1,0-0.2
		c0-0.1,0-0.2,0-0.3c0-0.1,0-0.2,0-0.3c0-0.1,0-0.2,0-0.2c0-0.1,0.1-0.2,0.1-0.2c0.1-0.1,0.2-0.1,0.1-0.1s0-0.1,0-0.2
		c0.2-0.1,0.4-0.1,0.5-0.1c0.2,0,0.4,0,0.5,0c0.4,0,0.8,0,1.2,0c0.4,0,0.8,0,1.2,0c0.1,0,0.2,0,0.3,0c0.1,0,0.2,0,0.2,0.1
		c0.1-0.1,0.3-0.1,0.4,0c0.1,0,0.2,0,0.3,0c0.1,0,0.2,0,0.2,0.1c-0.1,0.1,0,0.2,0.1,0.1c0.1,0,0.1,0.1,0.1,0.4s0,0.6,0,0.9
		s0,0.7,0,1s0,0.5,0,0.6v0.8c0,0.3,0,0.5,0,0.8v0.4c0,0.1,0,0.3,0,0.4c0,0.1,0,0.2-0.1,0.3c-0.1,0.1-0.1,0.2,0,0.3
		c0.1,0,0.1,0.1,0,0.2c0,0.1-0.1,0.1-0.1,0.2c-0.1,0.1-0.1,0.2-0.1,0.3c0,0.1,0,0.2-0.1,0.4c-0.1,0.3-0.1,0.5-0.2,0.8
		c-0.1,0.3-0.2,0.5-0.3,0.8c0,0.1-0.1,0.1-0.2,0.2c-0.1,0.1-0.1,0.2,0,0.3c-0.2,0.1-0.4,0.2-0.4,0.4c-0.1,0.2-0.2,0.3-0.3,0.4
		c-0.1,0.1-0.3,0.3-0.4,0.4c-0.1,0.2-0.3,0.3-0.4,0.4c-0.2,0.1-0.3,0.2-0.5,0.4c-0.2,0.2-0.4,0.3-0.6,0.4c-0.1,0.1-0.2,0.1-0.4,0.1
		c-0.1,0-0.2,0.1-0.3,0.2c-0.2,0.2-0.4,0.3-0.6,0.3c-0.2,0-0.5,0.1-0.7,0.1c-0.1,0-0.3,0.1-0.4,0.1c-0.1-0.1-0.2-0.1-0.3-0.1
		c-0.1,0-0.2,0-0.2,0s-0.1-0.1-0.2-0.2c-0.1,0-0.1,0.1,0,0.2c0,0.1-0.1,0.1-0.2,0.1c-0.1,0-0.2,0-0.3,0c-0.2,0-0.3,0-0.5,0
		c-0.2,0-0.4,0-0.5,0c-0.3-0.1-0.6-0.1-0.8-0.1c-0.3,0-0.6-0.1-0.9-0.2c-0.3-0.1-0.6-0.1-1-0.2c-0.3-0.1-0.6-0.3-0.8-0.5
		c-0.3-0.1-0.6-0.3-0.9-0.5c0-0.1,0-0.2-0.1-0.3s-0.1-0.1-0.1-0.3c-0.1,0-0.1,0-0.1,0s-0.1,0.1-0.1,0c-0.1,0-0.1-0.1-0.1-0.2
		c0-0.1,0-0.2,0-0.3c-0.1,0.1-0.1,0.1-0.1,0s0-0.1-0.1-0.1c-0.1,0-0.1,0.1,0,0.1s0,0-0.1,0c-0.1,0-0.1-0.1-0.1-0.1
		c0-0.1-0.1-0.1-0.1-0.1c-0.1-0.1-0.2-0.3-0.3-0.4c-0.1-0.1-0.1-0.3,0-0.4c0.1-0.1,0-0.2-0.1-0.2s-0.1,0-0.1,0.1
		c0,0.1-0.1,0.1-0.2-0.1c-0.1-0.1-0.2-0.3-0.3-0.4c-0.1-0.1-0.1-0.3,0-0.4c0.1-0.1,0.1-0.3,0-0.4c-0.1-0.1-0.1-0.1-0.1-0.1
		c-0.1-0.1-0.1-0.1-0.1-0.2c-0.1-0.2-0.2-0.4-0.3-0.5c0.1-0.2,0.1-0.4,0-0.6c-0.1-0.2-0.1-0.3,0-0.5c0-0.2,0-0.3,0-0.5
		c-0.1-0.1-0.1-0.2,0-0.3c0-0.1,0.1-0.2,0.1-0.3c0-0.1,0-0.2-0.1-0.2c0-0.1-0.1-0.2-0.1-0.3v-0.7c0-0.2,0-0.5,0-0.7
		c-0.1-0.2,0-0.4,0.1-0.6c-0.1-0.2-0.1-0.5-0.1-0.7c0-0.2,0.1-0.5,0.1-0.7v-0.3c0-0.1,0-0.2,0-0.3c0-0.1,0-0.2,0-0.3
		c0-0.1,0-0.2,0-0.3c0-0.1,0-0.2,0-0.2c0-0.1,0-0.2,0-0.2c0-0.1,0-0.3,0-0.4c0-0.1,0-0.2,0-0.3c-0.1-0.1-0.1-0.2-0.1-0.4
		c0-0.2,0-0.3,0.1-0.4c0.1-0.1,0.1-0.3,0.1-0.4c0-0.2,0-0.4-0.1-0.6c0-0.2,0-0.4,0-0.6c0-0.2,0.1-0.3,0.2-0.3c0-0.1-0.1-0.2-0.1-0.2
		c-0.1,0-0.1-0.1-0.1-0.3c0-0.1,0.1-0.2,0.1-0.3c0-0.1,0.1-0.2,0.1-0.3h-0.1c-0.1,0-0.1-0.1-0.1-0.2s0-0.2,0-0.2c0-0.1,0-0.1,0-0.2
		c0-0.1,0-0.2-0.1-0.2c0-0.1,0-0.3,0-0.4c0-0.3,0-0.5,0-0.8V2.4c0-0.3,0-0.7,0-1c0-0.3,0-0.7,0-1c0-0.2,0-0.3,0-0.5
		c0-0.1,0-0.1,0-0.2c0-0.1,0-0.2,0-0.2c0-0.1,0-0.3,0-0.4c0-0.2,0.1-0.3,0.2-0.4c-0.1-0.1-0.1-0.2-0.1-0.3c0-0.1,0-0.2,0-0.3
		c0-0.1,0.1-0.3,0.1-0.4c0-0.2,0.1-0.3,0.1-0.5c0.1-0.1,0.1-0.3,0.1-0.4s0.1-0.3,0.1-0.4c0-0.1,0.1-0.3,0.2-0.3
		c0.1-0.1,0.1-0.2,0.1-0.3c0.2-0.2,0.3-0.4,0.4-0.6c0.1-0.1,0.3-0.2,0.3-0.3c0.1-0.1,0.2-0.3,0.3-0.4c0.2-0.2,0.4-0.4,0.6-0.6
		c0.1-0.1,0.1-0.1,0.2-0.2c0.1-0.1,0.1-0.1,0.2-0.2c0-0.1,0.1-0.1,0.2-0.1c0.1,0,0.2,0,0.2-0.1c0.1-0.1,0.2-0.1,0.3-0.3
		c0.1-0.1,0.2-0.2,0.3-0.2c0.2-0.1,0.4-0.1,0.5-0.2c0.2-0.1,0.4-0.1,0.5-0.2c0.3-0.1,0.6-0.2,0.9-0.2c0.3-0.1,0.6-0.1,0.9-0.1
		c0.1,0,0.2,0,0.3,0c0.1,0,0.2,0,0.2-0.1c0.1,0,0.2-0.1,0.2,0c0.2,0,0.4,0,0.6,0c0.2,0,0.4,0,0.5,0c0.3,0,0.6,0.1,0.8,0.1
		c0.3,0,0.6,0.1,0.8,0.2c0.1,0,0.2,0.1,0.3,0.1c0.1,0,0.2,0,0.3,0c0.2,0.1,0.4,0.2,0.6,0.3c0.2,0.1,0.4,0.2,0.6,0.3
		c0.3,0.2,0.6,0.4,0.8,0.6c0.3,0.2,0.5,0.4,0.7,0.7c0.1,0.1,0.2,0.2,0.3,0.3c0.1,0.1,0.2,0.2,0.3,0.3c0,0.1,0.1,0.2,0.2,0.3
		c0.1,0.1,0.2,0.2,0.3,0.3c0,0.3,0.1,0.6,0.3,0.9c0.2,0.3,0.3,0.6,0.4,0.9c0.3,1.1,0.4,2.3,0.3,3.4c0,0.1,0,0.3,0.1,0.4
		c0,0.1,0.1,0.3,0.1,0.4c0,0.2,0,0.4-0.1,0.6c0,0.2-0.1,0.4-0.1,0.6V3c0,0.2,0,0.3,0.1,0.4c0,0.2,0,0.3-0.1,0.4
		c-0.1,0.1-0.2,0.2-0.3,0.3c-0.7,0-1.4,0-2.2,0c-0.7,0.1-1.4,0.1-2.2,0c-0.1,0-0.3,0-0.4-0.1c-0.1-0.1-0.2-0.2-0.2-0.3
		c-0.1-0.1-0.1-0.3-0.2-0.4C-70.4,3.3-70.4,3.2-70.3,3.1z"/>
	<path id="Path_62" d="M-46.5,4c0,0.2,0,0.5,0.1,0.7c0,0.2,0.1,0.5,0,0.7c0,0.1,0,0.3-0.1,0.4c-0.1,0.1-0.1,0.3,0,0.4
		c0.1,0.5,0.1,0.9,0,1.4c0,0,0,0.1,0,0.1c-0.1,0.1-0.1,0.1-0.1,0c0-0.1-0.1-0.1-0.1-0.1c0,0-0.1,0.1-0.1,0.1
		c0.1,0.1,0.2,0.2,0.3,0.2c0.1,0.1,0.1,0.2,0,0.3c-0.1,0.1-0.1,0.1-0.2,0.2c-0.1,0.1-0.1,0.2,0,0.3c0.1,0,0.2,0,0.3-0.1
		c0.1-0.1,0.1,0,0.1,0.3v0.6c0,0.2,0,0.4-0.1,0.5c0,0.1,0,0.1,0,0.1c0,0,0.1,0.1,0.1,0.1c0,0.1,0,0.2,0,0.3v0.3c0,0.2,0,0.4,0,0.6
		c0,0.2,0,0.4,0,0.5c0,0.1-0.1,0.2-0.1,0.3c0,0.1-0.1,0.2,0,0.3c0,0.1,0.1,0.1,0.1,0.1c0,0,0,0.1,0,0.1c0,0.2,0,0.4,0,0.6
		c0,0.2,0,0.4-0.1,0.6c0.1,0.1,0.1,0.2,0.1,0.4c0,0.1,0,0.3,0,0.4c0,0.1,0,0.3,0,0.4c0,0.2-0.1,0.3,0,0.5c0,0.1,0.1,0.3,0.1,0.5
		c0,0.2,0,0.3-0.1,0.4c0,0.1,0,0.1,0,0.2c0,0.1,0.1,0.1,0,0.2c0,0.1-0.1,0.3-0.1,0.4c0,0.1,0,0.2-0.1,0.3c-0.1,0.1-0.1,0.3-0.1,0.4
		c0,0.1,0,0.3-0.1,0.4c-0.1,0.1-0.1,0.2-0.1,0.3c0,0.1-0.1,0.2-0.1,0.3c-0.1,0.2-0.2,0.3-0.2,0.4c-0.1,0.1-0.2,0.3-0.3,0.4
		c-0.1,0.1-0.2,0.3-0.3,0.5s-0.2,0.3-0.3,0.5c-0.2,0.2-0.4,0.4-0.6,0.6c-0.2,0.2-0.4,0.4-0.6,0.5c-0.1,0.1-0.3,0.2-0.4,0.2
		c-0.1,0-0.1,0.1-0.1,0.1c0,0.1,0,0.1-0.1,0.1c-0.2,0-0.4,0.1-0.5,0.2c-0.1,0.1-0.3,0.2-0.5,0.3c-0.1,0.1-0.3,0.1-0.4,0.1
		c-0.2,0-0.3,0-0.4,0.1c-0.1,0.1-0.2,0.1-0.4,0.1c-0.1,0-0.3,0-0.4-0.1c-0.1,0.1-0.2,0.2-0.3,0.2c-0.1,0-0.3,0.1-0.4,0.1
		c-0.1,0-0.2-0.1-0.2-0.1s-0.1,0-0.2,0c-0.1,0-0.3,0-0.4,0h-0.4c-0.7,0-1.5-0.1-2.2-0.3c-0.3-0.1-0.7-0.2-1-0.3
		c-0.1-0.1-0.3-0.1-0.5-0.1c-0.2-0.2-0.4-0.3-0.7-0.5c-0.3-0.2-0.6-0.4-0.9-0.7c-0.3-0.2-0.5-0.5-0.7-0.9c0-0.1-0.1-0.1-0.2-0.1
		c-0.1,0-0.1-0.1-0.2-0.1c-0.1-0.1-0.1-0.3-0.2-0.4c-0.1-0.1-0.2-0.3-0.3-0.4c-0.1-0.2-0.2-0.3-0.2-0.5c-0.3-0.7-0.5-1.5-0.5-2.3
		c0-0.8-0.1-1.6,0-2.4c0-0.2,0-0.4,0-0.6c0-0.2,0-0.4,0-0.6c0.1-0.1,0.1-0.3,0-0.4c0-0.1,0-0.3,0-0.4c0.1-0.2,0.1-0.4,0-0.5
		c0-0.2-0.1-0.4-0.1-0.5c0-0.2,0-0.5,0-0.7c0-0.2,0-0.5,0-0.7c0-0.4,0-0.7,0-1.1c0-0.4,0-0.8,0-1.2c0-0.3-0.1-0.5-0.1-0.8
		c0-0.3,0-0.5,0-0.8c0-0.1,0-0.2,0-0.2s0.1-0.1,0-0.2c-0.1-0.2-0.1-0.4,0-0.6c0.1-0.2,0.1-0.3,0-0.5c0-0.2,0-0.3,0-0.5
		c0-0.1,0-0.1-0.1-0.2c0-0.1,0-0.1,0-0.2c0,0,0,0,0,0c0.1-0.1,0.1-0.2,0-0.2c-0.1,0-0.1-0.1-0.1-0.3c0-0.1,0.1-0.1,0.1-0.2
		c0-0.1,0-0.1,0-0.2c0-0.1,0-0.2,0-0.4c0-0.1-0.1-0.2-0.1-0.3V1.8c0-0.1,0-0.2,0.1-0.3c0.1,0,0.1,0,0.1,0.1c0,0.1,0.1,0.1,0.1,0.1
		c-0.1-0.1-0.1-0.2-0.2-0.3C-62,1.2-62.1,1.1-62.1,1c0-0.1-0.1-0.3-0.1-0.4c0-0.2,0-0.3,0.1-0.4C-62,0-62-0.2-62-0.4
		c0-0.2-0.1-0.3-0.1-0.5c0-0.2,0.1-0.4,0.1-0.6c0-0.2,0-0.4,0-0.6c0-0.1,0-0.2,0-0.3c0-0.1,0.1-0.1,0.1-0.2c-0.1-0.1,0-0.1,0.1-0.2
		s0.2-0.1,0.1-0.1c-0.1-0.1-0.1-0.2-0.1-0.3c0.1-0.2,0.1-0.4,0.2-0.6c0.1-0.2,0.2-0.4,0.3-0.6c0.1-0.1,0.1-0.3,0.2-0.4
		C-61-4.8-60.9-5-60.8-5c0.1-0.1,0.2-0.2,0.3-0.3c0.1-0.1,0.2-0.2,0.3-0.3c0.1-0.1,0.2-0.2,0.3-0.2c0.1,0,0.1,0,0.1-0.1
		s0-0.1,0.1-0.2c0.1,0,0.2-0.1,0.2-0.1c0.2-0.1,0.3-0.3,0.5-0.4s0.3-0.2,0.5-0.3c0.2,0,0.3-0.1,0.5-0.1c0.1-0.1,0.3-0.2,0.4-0.2
		c0.3-0.1,0.7-0.2,1-0.3c0.1,0,0.1,0,0.1,0c0,0,0.1,0,0.1,0c0.1,0,0.1,0,0.1,0s0.1,0,0.1,0c0.1-0.1,0.2-0.1,0.3-0.1
		c0.1,0,0.2,0.1,0.2,0.2c0.1,0,0.1-0.1,0.1-0.1c0,0,0.1-0.1,0.1-0.1h0.8c0.2,0,0.4,0,0.6,0s0.4,0,0.6,0.1c0,0.1,0.1,0.2,0.2,0.3
		c0.1,0.1,0.1,0,0-0.2c0-0.1,0-0.1,0.1-0.1c0.1,0,0.2,0,0.3,0.1c0.1,0,0.2,0.1,0.3,0.1c0.1,0,0.1,0.1,0.2,0.1
		c0.1-0.1,0.2-0.1,0.3-0.1c0,0,0,0,0.1,0c0.1,0.1,0.2,0.1,0.4,0.1c0.1-0.1,0.3,0,0.4,0.1c0.1,0.1,0.2,0.2,0.4,0.1
		c0,0.2,0,0.3,0.1,0.2s0.1-0.1,0.2,0.1c0,0.1,0,0.1-0.1,0.2c0,0.1,0,0.1,0,0.2c0.1,0,0.1,0,0.2,0c0.1,0,0.1,0,0.1-0.1
		c0.1,0,0.2,0.1,0.3,0c0.2,0,0.2,0,0.2,0.1c-0.1,0.1-0.1,0.2-0.1,0.2c0.1,0,0.2,0,0.2,0c0.1,0,0.2,0.1,0.1,0.2C-49-6.1-49-6-48.9-6
		s0.1,0,0.2,0c0.1,0.1,0.2,0.1,0.3,0.3c0.1,0.1,0.1,0.2,0.2,0.3l0.3,0.3c0.1,0.1,0.1,0.2,0.1,0.4c0.1,0.1,0.2,0.2,0.3,0.4
		c0.1,0.2,0.1,0.3,0.2,0.5l0.3,0.5c0,0.1,0,0.1-0.1,0.1c-0.1,0-0.1,0.1,0,0.1c0.1,0.1,0.2,0.1,0.2,0.2c0,0.1-0.1,0.2-0.2,0.3
		c0,0.1,0.1,0.1,0.1,0.1s0.1-0.1,0.1,0c0.1,0.2,0,0.4-0.1,0.4c0,0,0.1,0.1,0.1,0.1c0.1,0,0.1,0,0.1,0c0,0.1,0,0.2,0,0.3
		c0,0.1,0,0.2,0,0.3c0,0.1,0,0.2-0.1,0.3c-0.1,0-0.1,0.1,0,0.1c0.1,0,0.1,0.1,0.1,0.2c0,0.1,0,0.3-0.1,0.4c-0.1,0.1-0.1,0.2,0,0.3
		c0.1,0.1,0.2,0.3,0.2,0.5c0,0.2,0,0.4-0.1,0.5c-0.1,0-0.2-0.1-0.3-0.1c-0.1-0.1-0.2-0.1-0.3-0.1c0,0,0,0.1,0.1,0.3s0.2,0.2,0.3,0.2
		c0.1-0.1,0.2,0,0.2,0.2c0,0.1,0,0.3-0.1,0.4c0.1,0.2,0.1,0.4,0.1,0.5c0,0.2,0,0.4-0.1,0.5c0,0.2,0,0.4,0,0.6
		C-46.5,3.6-46.5,3.8-46.5,4z M-51.9,10.9c0.1,0,0.1,0.1,0.1,0.2c0,0.1,0.1,0.1,0.2,0.1c0,0,0,0,0.1,0c-0.1-0.1-0.2-0.3-0.4-0.4
		c-0.1-0.1-0.2-0.3-0.2-0.4c0-0.2,0.1-0.4,0.1-0.5c0-0.2,0-0.4-0.1-0.5c0.1,0.1,0.2,0.1,0.2,0.1c0,0,0-0.1,0-0.1
		c0-0.1,0-0.1-0.1-0.2c0-0.1,0-0.1,0-0.2c0.1-0.2,0.1-0.4,0-0.6c-0.1-0.2-0.1-0.4-0.1-0.6c0,0,0-0.1,0-0.1c0,0,0-0.1,0.1-0.1
		L-52.1,7c0.1-0.1,0.1-0.1,0.1-0.2c0-0.1,0-0.2,0-0.3c0-0.1,0-0.2,0-0.3c0-0.1,0-0.2,0-0.3c0.1-0.1,0.1-0.2,0-0.3
		c0-0.1-0.1-0.2-0.1-0.4c0-0.2,0-0.4,0-0.6c0-0.2,0-0.4,0-0.6c-0.1-0.2,0-0.4,0-0.6C-52,3.3-52,3.2-52,3c0-0.1-0.1-0.3-0.1-0.4
		c0-0.2,0-0.4,0.1-0.6c0.1-0.2,0.1-0.4,0-0.6c-0.1-0.3-0.1-0.6-0.1-0.9c0-0.3,0-0.6,0-0.9c0.2,0.1,0.2,0.1,0.2,0.1s0,0.1,0,0.3
		c0.1,0,0.3-0.1,0.3-0.2c0.1-0.1,0.1-0.3,0-0.4c-0.1,0-0.2,0.1-0.3,0.1c-0.1,0.1-0.2,0-0.2-0.1c0-0.1,0-0.2,0-0.3c0-0.1,0-0.2,0-0.3
		c0-0.2-0.1-0.4-0.2-0.6c-0.1-0.2-0.2-0.4-0.3-0.5c-0.2-0.1-0.4-0.3-0.5-0.3c-0.2-0.1-0.3-0.2-0.5-0.2C-53.8-3-54.1-3-54.4-3
		c0,0,0-0.1,0-0.1c-0.1-0.1-0.1-0.1,0-0.1c-0.1-0.1-0.1-0.1-0.1,0s0,0.2-0.1,0.2c-0.1,0-0.2,0-0.1,0s0,0-0.1,0
		c-0.1,0.1-0.1,0.1-0.2,0.1c-0.1,0-0.2,0-0.2,0.1c-0.1,0.1-0.3,0.2-0.4,0.3c-0.1,0.1-0.2,0.2-0.3,0.4c-0.1,0.1-0.2,0.3-0.2,0.5
		c0,0.2-0.1,0.3-0.1,0.5c-0.1,0.1-0.1,0.3-0.1,0.4c0,0.1,0,0.2-0.1,0.3c-0.1,0.1-0.1,0.2,0,0.3c0.1,0.1,0.1,0.2,0,0.3
		c0,0.2,0,0.4,0,0.6c0,0.2,0,0.4,0,0.6c0,0.2,0,0.3-0.1,0.2s-0.1,0-0.2,0c-0.1,0.1-0.1,0.1,0,0.1s0.1,0,0.1,0c0.1-0.1,0.2,0,0.2,0.1
		v0.4c0,0.1-0.1,0.1-0.1,0.2c0,0,0,0.1,0,0.1c0,0.1,0.1,0.2,0.1,0.4c0.1,0.1,0,0.3,0,0.4c-0.1,0-0.1,0.1,0,0.2c0,0.1,0,0.1,0,0.2
		c0,0.1,0,0.1,0,0.2c0,0.1,0,0.1,0,0.2c0.1,0.1,0.1,0.3,0,0.4c0,0.4,0,0.7,0,1.1c0.1,0.2,0.1,0.3,0,0.5c-0.1,0.2-0.1,0.4,0,0.5
		c0,0.1,0,0.3,0,0.4s0,0.3,0,0.4c0,0.1,0,0.2,0,0.4c0,0.1,0,0.2,0,0.4c0,0.2,0,0.3,0,0.5c0,0.2,0,0.3,0,0.5v0.3
		c0,0.1-0.1,0.1-0.1,0.1c0,0,0,0,0,0c-0.1,0-0.1,0,0,0.1c0.1,0.1,0.2,0.2,0.1,0.4c0,0.2-0.1,0.3,0,0.5c0.1,0.3,0.1,0.7,0.1,1
		c0,0.4,0,0.7,0,1c0,0.2,0,0.4,0,0.6c0,0.2,0,0.4,0,0.6c0,0.1,0,0.1,0,0.2c0,0.1,0,0.1,0,0.2c0,0.1,0,0.3,0,0.4v0.8
		c0,0.1,0,0.3,0,0.4c0.1,0.1,0.1,0.1,0.1,0.2c0,0.1,0,0.2,0,0.3c0,0.3,0.1,0.6,0.2,0.9c0.1,0.3,0.3,0.5,0.6,0.7
		c0.2,0.2,0.5,0.3,0.7,0.3c0.2,0,0.3,0.1,0.5,0.1c0.2,0,0.3,0,0.5,0c0.2,0,0.3-0.1,0.5-0.1c0.2-0.1,0.3-0.1,0.4-0.2
		c0.1,0,0.2-0.1,0.2-0.1s0.1-0.1,0.1-0.2c0-0.1,0.1-0.1,0.2-0.1c0.1,0,0.1,0,0.2-0.1c0-0.1,0-0.1-0.1-0.1s-0.1,0-0.1-0.1
		c0.1-0.2,0.2-0.3,0.2-0.5c0.1-0.2,0.1-0.3,0.1-0.5c0-0.2,0-0.4,0-0.6v-0.6c0-0.2,0-0.4,0-0.6c-0.1-0.1-0.1-0.3-0.1-0.5
		c0-0.2,0.1-0.4,0.1-0.5c0-0.1,0-0.3,0-0.5s0-0.5-0.1-0.7c0-0.2,0-0.5,0-0.7c0-0.2,0.1-0.3,0.2-0.4c0.1-0.1,0.1-0.1,0-0.2
		C-52.1,10.9-52,10.8-51.9,10.9L-51.9,10.9z"/>
	<path id="Path_63" d="M-22.7,15.4c0,0.2,0,0.4,0.1,0.6c0,0.2,0,0.3,0,0.5c-0.1,0.1-0.1,0.3-0.1,0.4c0,0.1,0.1,0.3,0,0.4
		c0,0.2,0,0.4,0,0.6c0,0.2,0,0.4,0,0.6c-0.1,0.2-0.1,0.4,0,0.6c0.1,0.2,0.1,0.4,0.1,0.6c0,0.1,0,0.2,0,0.2c0,0-0.1,0.1,0,0.2
		c0,0.1,0,0.2,0,0.3c0,0.1,0,0.2,0,0.3c0,0.2,0,0.4,0,0.6c0,0.2,0,0.4,0,0.6c0,0.2,0,0.4-0.1,0.6c-0.1,0.2-0.1,0.2-0.2,0.2
		s-0.1,0.1-0.2,0.2c-0.2,0-0.4,0-0.6,0c-0.2,0-0.4,0-0.6,0c-0.2,0-0.3-0.1-0.5-0.1c-0.1,0-0.2,0-0.3,0c-0.1,0-0.2,0-0.3,0
		c-0.2,0-0.4,0-0.5,0s-0.4,0-0.5-0.1c-0.3,0-0.5,0-0.6,0c-0.2,0-0.4-0.1-0.5-0.3c-0.1-0.1-0.2-0.3-0.2-0.5c0-0.2,0-0.3,0-0.5
		c0-0.2,0-0.4,0-0.6c0-0.2,0-0.4,0-0.6c0-0.2,0-0.4,0-0.5s0-0.3,0-0.5c0-0.2,0-0.4,0-0.6c0-0.2,0-0.4,0-0.5c0-0.7,0-1.4,0-2.2
		c0-0.7,0-1.4-0.1-2.2c0-0.1,0-0.3,0-0.4c0-0.2,0-0.3,0-0.5c0-0.1,0-0.1,0-0.2c0,0,0-0.1,0-0.3v-0.2c0-0.1,0-0.2,0.1-0.2
		c0-0.2,0-0.4,0-0.6s0-0.4,0-0.6c0-0.2,0-0.4,0-0.6c0-0.2,0-0.4,0-0.6c-0.1-0.2-0.1-0.4,0-0.6c0-0.2,0-0.4,0-0.6c0-0.4,0-0.7,0-1.1
		c0-0.1,0-0.2,0-0.4s0-0.3,0-0.5c0-0.2,0-0.3,0-0.5c0-0.2,0.1-0.2,0.1-0.3c-0.1-0.1-0.1-0.1-0.1-0.2c0-0.1,0-0.2-0.1-0.2
		c-0.1,0-0.1,0.1-0.1,0.1c0,0.1-0.1,0-0.1-0.1c-0.1,0.1-0.1,0.1,0,0.1c0,0,0.1,0.1,0.1,0.1c0,0.1-0.1,0.3-0.1,0.4
		c0,0.1,0,0.2-0.1,0.3c-0.1,0.2-0.1,0.4-0.1,0.6c0,0.2-0.1,0.4-0.1,0.6c-0.1,0.2-0.1,0.4-0.1,0.6c0,0.2-0.1,0.4-0.1,0.6
		c0,0.2-0.1,0.4-0.2,0.6c-0.1,0.2-0.1,0.4,0,0.6c0.1,0.1,0.1,0.2,0,0.3c-0.1,0.1-0.2,0.2-0.2,0.3c-0.1,0.2-0.1,0.3,0,0.3
		s0.1,0.1,0.1,0.3c-0.1,0.1-0.1,0.3-0.1,0.4c0,0.2,0,0.3-0.1,0.5c-0.1,0.2-0.1,0.4-0.1,0.5c0,0.1,0,0.1,0,0.1c0,0-0.1,0-0.1,0
		c0.1,0.1,0.2,0.3,0.1,0.4c-0.1,0.1-0.1,0.3-0.1,0.4c-0.1-0.1-0.1-0.2-0.2-0.3c0-0.1-0.1-0.2-0.1-0.3c-0.1,0.1-0.1,0.2,0,0.3
		c0,0.1,0.1,0.2,0.1,0.3c0.1,0.1,0.1,0.2,0.1,0.3c0,0.1,0,0.3-0.1,0.4c-0.1,0.1-0.1,0.3-0.1,0.4c0,0.1,0,0.3-0.1,0.4
		c-0.1,0.1-0.1,0.3-0.1,0.4c0,0.2,0,0.3-0.1,0.5c-0.1,0.2-0.1,0.4-0.1,0.6c0,0.2-0.1,0.4-0.1,0.6c0,0.1,0,0.2-0.1,0.2
		s-0.1,0.1-0.1,0.2c0.1,0.1,0.1,0.2,0.1,0.4c0,0.1,0,0.3-0.1,0.4c-0.1,0-0.1,0.1,0,0.2c0,0.1,0,0.2,0,0.2c-0.1,0.2-0.1,0.3-0.1,0.5
		c0,0.2,0,0.3-0.1,0.5c-0.1,0.1-0.1,0.3-0.1,0.4c0,0.1,0,0.3-0.1,0.4c-0.1,0.1-0.1,0.3-0.1,0.4c0,0.1,0,0.3-0.1,0.5
		c0,0.1-0.1,0.3-0.1,0.4c0,0.1-0.1,0.3-0.2,0.4c-0.1,0.1-0.1,0.1,0,0.2s0,0.1,0,0.2c-0.1,0-0.2,0.1-0.3,0.1s-0.2,0-0.3,0.1
		c-0.1,0-0.3,0.1-0.6,0.1c-0.2,0-0.4,0-0.6,0c-0.2-0.1-0.4-0.1-0.5,0c-0.2,0.1-0.4,0.1-0.6,0.1c-0.3,0-0.6-0.2-0.7-0.5
		c-0.1-0.1-0.1-0.3-0.2-0.5c-0.1-0.1-0.1-0.2,0-0.3c0-0.1,0-0.2,0-0.3c-0.1-0.3-0.2-0.7-0.2-1c0-0.3,0-0.7-0.1-1
		c0-0.1-0.1-0.1-0.1-0.2c0-0.1-0.1-0.1,0-0.2c0-0.2,0-0.3,0-0.5c-0.1-0.2-0.1-0.3-0.2-0.5c-0.1-0.2-0.1-0.4,0-0.5
		c-0.1-0.1-0.2-0.2-0.2-0.4c0-0.1,0-0.3,0-0.4c0-0.1-0.1-0.3-0.1-0.4c0-0.1-0.1-0.2-0.1-0.4c-0.1-0.2-0.1-0.3-0.1-0.5
		c0-0.2,0-0.4,0-0.6c-0.1-0.2-0.1-0.3-0.1-0.5c0-0.2-0.1-0.4-0.1-0.5c-0.1-0.3-0.1-0.6-0.2-0.9c0-0.3-0.1-0.6-0.1-0.9
		c-0.1-0.4-0.1-0.8-0.2-1.2c-0.1-0.4-0.1-0.8-0.1-1.2c0-0.2-0.1-0.4-0.1-0.6c-0.1-0.2-0.1-0.3-0.2-0.5c-0.1-0.2-0.1-0.4-0.1-0.5
		c0-0.2,0-0.3-0.1-0.5C-38,7-38.1,6.6-38.1,6.3c0-0.3-0.1-0.6-0.3-0.9c-0.1,0.1-0.2,0.2-0.3,0.5c0,0.2,0,0.4,0,0.6
		c0.1,0.3,0.1,0.5,0.1,0.8c0,0.3-0.1,0.5-0.4,0.6c0,0.1,0,0.1,0.1,0.1h0.1c0.1,0,0.1,0,0.1,0.1c0,0.1,0,0.1,0,0.2c0,0.1,0,0.3,0,0.4
		c0,0.1,0,0.3,0,0.4c0,0.1,0,0.3,0.1,0.4c-0.1,0.1-0.1,0.1-0.1,0.2c0,0.1,0,0.2,0,0.3c0,0.1,0,0.3-0.1,0.4c0,0.2,0.1,0.3,0,0.5
		c0,0.1,0,0.1,0,0.2c0,0.1,0,0.1,0,0.2c0,0.1-0.1,0.2-0.1,0.3c0,0.1,0,0.2,0,0.3c0,0.2,0,0.3,0.1,0.5c0,0.1-0.1,0.1-0.1,0.2
		c0,0.1,0,0.1,0,0.2c0,0.1,0,0.1-0.1,0.1c0,0-0.1,0.1-0.1,0.1c0.1,0.1,0.1,0.2,0.1,0.4v0.5c0,0.2,0,0.3,0,0.3c0,0-0.1,0.1-0.1,0.2
		c0.1,0.1,0.2,0.2,0.2,0.3c0,0.2,0,0.4,0,0.5c0,0.2,0,0.4,0,0.6s0,0.3,0,0.4c0,0.4,0,0.8,0.1,1.1c0,0.4,0,0.7-0.1,1.1
		c0,0.1,0,0.1,0,0.2c0,0.1,0,0.1,0.1,0.3c0,0.1-0.1,0.2-0.1,0.3c0,0.1,0,0.2-0.1,0.3c0,0.1,0,0.3,0,0.4c0,0.1,0,0.3,0.1,0.4
		c0,0.2,0,0.4,0,0.5c0,0.2,0,0.4,0,0.5v0.6c0,0.2,0,0.4-0.1,0.6c-0.1,0.3-0.3,0.5-0.6,0.5c-0.3,0-0.6,0-0.8,0c-0.2,0-0.4,0-0.5,0
		s-0.3,0-0.5,0c-0.2,0-0.4,0-0.6,0c-0.2,0-0.4-0.1-0.6,0c-0.2,0-0.5,0-0.7-0.1c-0.2-0.1-0.4-0.3-0.4-0.5c-0.1-0.1-0.1-0.3-0.1-0.5
		c0-0.1,0-0.2,0.1-0.2c0,0,0-0.1,0-0.2c0-0.1-0.1-0.1-0.1-0.2c0-0.1,0-0.1,0-0.2c0.1-0.1,0.1-0.2,0-0.3c0-0.1,0-0.2,0-0.4
		c-0.1-0.4-0.1-0.8,0-1.2c0-0.4,0.1-0.8,0.1-1.2c0-0.4-0.1-0.8-0.1-1.3s0-0.9,0-1.3c0-0.3,0-0.6,0-0.9c0-0.3,0-0.6,0-0.9
		c0-0.2,0-0.4,0-0.6c0-0.2,0-0.4,0.1-0.5c0.1-0.2,0.1-0.4,0-0.6c0-0.2-0.1-0.5-0.1-0.7c0-0.4,0-0.8,0-1.2c0-0.4,0-0.8-0.1-1.2
		c0-0.2,0-0.4,0-0.6c0-0.2,0.1-0.4,0.1-0.6c0-0.2,0-0.5,0-0.7c0-0.2,0-0.5,0-0.7c0-0.2,0-0.4,0-0.5c0-0.2,0-0.3,0-0.5
		c0-0.2,0-0.3-0.1-0.5c-0.1-0.2-0.1-0.3,0-0.5c0.1-0.3,0.2-0.7,0.1-1.1c-0.1-0.4-0.1-0.8-0.1-1.1c0-0.2,0-0.3,0-0.5
		c0.1-0.2,0-0.4-0.1-0.5c0-0.2,0.1-0.3,0.1-0.5c0-0.2,0-0.4,0-0.5c0.1-0.2,0.1-0.3,0-0.5c0-0.2,0-0.4,0-0.5c0-0.2,0-0.4,0-0.6
		c0-0.2,0-0.4,0-0.6v-0.3c0-0.1,0-0.2,0-0.3c0-0.1,0-0.1,0-0.2c0-0.1,0-0.1,0-0.2v-0.5c0-0.2,0-0.4,0-0.5c0-0.2,0-0.3-0.1-0.5
		c0-0.2,0-0.3,0.1-0.5c0.1-0.2,0.1-0.3,0-0.5c-0.1-0.2-0.1-0.4,0-0.5c0-0.2,0-0.4,0.1-0.5c0.1-0.2,0.2-0.3,0.3-0.4
		c0.1-0.1,0.3-0.2,0.5-0.1c0.2,0.1,0.3,0.1,0.5,0.1c0.3,0,0.7-0.1,1-0.1c0.3,0,0.7,0,1,0c0.3,0,0.7,0,1,0c0.3,0,0.7,0,1-0.1
		c0.2,0,0.3,0,0.5,0c0.2,0,0.3,0,0.5,0c0.1,0,0.1,0,0.2,0c0.1,0,0.1,0.1,0.2,0.1c0.1,0,0.1,0,0.1,0s-0.1,0,0,0.1
		c0.1,0.1,0.2,0.1,0.3,0.2c0.1,0,0.1,0.1,0.1,0.3c0,0.1,0.1,0.2,0.1,0.2s0.1,0.1,0.1,0.2c0,0.1,0,0.2,0,0.3c0,0.1,0,0.2,0.1,0.3
		c0.1,0.3,0.2,0.6,0.2,1c0,0.3,0.1,0.7,0.1,1c0,0.3,0.1,0.6,0.1,0.9c0,0.3,0.2,0.6,0.4,0.9c0,0.4,0,0.7,0.1,1.1c0.1,0.2,0,0.3,0,0.4
		c0.1,0.1,0.1,0.3,0.2,0.4c0.1,0.3,0.2,0.7,0.2,1c0,0.4,0.1,0.7,0.2,1c0.1,0.2,0.1,0.3,0.1,0.5c0,0.2,0,0.3,0,0.5
		c0,0.2,0,0.4,0.1,0.5c0.1,0.1,0.1,0.3,0.1,0.5c0,0.1,0,0.1-0.1,0.2c0,0,0,0.1,0.1,0.1c0.1,0,0.1,0.1,0.1,0.2c0,0.1,0,0.1,0,0.2
		c0,0.2,0,0.3,0.1,0.5c0,0.2,0.1,0.3,0.1,0.5c0,0.1,0,0.1,0,0.2c0,0,0,0.1,0,0.2c0.1,0.1,0.1,0.2,0.1,0.3c0,0.1,0,0.2,0,0.2
		c0,0.1,0,0.1,0,0.2c0.1,0.1,0.1,0.2,0.1,0.2c-0.1,0-0.1,0.1-0.1,0.1c0.1,0.1,0.1,0.1,0.1,0.1s0,0.1,0,0.2c-0.1,0.1-0.1,0.2,0,0.3
		c0,0.1,0.1,0.2,0.2,0.3c0.1,0.1,0.2,0.4,0.1,0.5c0.2,0.3,0.3,0.2,0.5,0c0-0.1,0-0.2,0.1-0.3c0-0.1,0-0.2,0.1-0.2
		c0.1-0.1,0.1-0.2,0.1-0.3c0-0.1,0-0.3,0.1-0.4c0-0.1,0-0.2,0-0.3c0-0.1,0-0.2,0-0.3c0.1-0.1,0.1-0.2,0.1-0.4c0-0.1,0-0.2,0.1-0.3
		c0-0.1,0.1-0.2,0.1-0.2c0-0.1,0-0.2,0-0.3c0-0.1,0-0.2,0-0.4c0-0.1,0.1-0.2,0.1-0.3c-0.1-0.2-0.1-0.5,0-0.8
		c0.1-0.2,0.2-0.5,0.3-0.7c0,0,0-0.1,0-0.3c0-0.1,0-0.3,0.1-0.4c0-0.1,0.1-0.2,0.1-0.3c0.1-0.1,0.1-0.1,0.2,0.1s0.1,0.1,0.1,0.1
		s0-0.1,0-0.1c-0.1,0-0.1-0.1-0.1-0.2c0-0.1-0.1-0.1-0.1-0.1c0.1,0,0.1-0.2,0.1-0.3c0,0,0,0,0,0c-0.1-0.1-0.1-0.2,0-0.2
		c0.1-0.1,0.1-0.1,0.1-0.2c-0.1-0.2-0.1-0.4,0-0.5c0.1-0.2,0.1-0.4,0.1-0.6c0-0.2,0-0.4,0.1-0.6c0.1-0.2,0.1-0.4,0.1-0.6
		c0.2-0.4,0.3-0.9,0.3-1.4c0.1-0.1,0.2-0.3,0.2-0.4c0-0.2,0-0.4,0-0.5v-0.3c0-0.1,0-0.2,0.1-0.2l0.1-0.1c0,0,0-0.1,0-0.1
		c-0.1-0.2-0.1-0.4,0-0.5c0.1-0.2,0.1-0.4,0.2-0.5v-0.2c0-0.1,0-0.2,0-0.3c0-0.2,0.1-0.3,0.1-0.5C-30-5.9-30-5.9-30-5.9
		c0-0.1,0-0.1,0-0.1c0-0.1,0-0.1,0-0.2c0-0.1,0-0.2,0-0.3s0-0.2,0-0.3c0.1-0.2,0.1-0.3,0.3-0.5c0.1-0.2,0.3-0.3,0.5-0.3
		c0.5-0.1,1.1-0.1,1.6,0c0.5,0,1.1,0.1,1.6,0.1h1.6c0.3,0,0.5,0,0.8-0.1c0.2-0.1,0.5,0,0.7,0.1c0.2,0.2,0.3,0.4,0.3,0.6
		c0,0.2,0,0.5,0,0.7c-0.1,0.6-0.1,1.2,0,1.9c0.1,0.5,0,1,0,1.4c0,0.1,0,0.2,0,0.4c0,0.1,0,0.2,0,0.3c0,0.1,0,0.1,0,0.2
		c0,0.1,0,0.1,0,0.2c0,0.1,0,0.1,0,0.1s-0.1,0-0.1,0.1c0.1,0.2,0.1,0.5,0.1,0.7c0,0.2,0,0.5,0,0.7v0.8c0,0.1,0,0.2,0,0.3
		c0,0.1,0,0.1,0,0.2c0,0.1,0,0.1,0,0.2c0,0.1,0,0.1,0,0.2c0,0.1,0,0.2,0,0.3c-0.1,0.1-0.1,0.2,0,0.3c0,0.1,0.1,0.2,0.1,0.3v0.3
		c0,0.1,0,0.2-0.1,0.3c0,0.1,0,0.3,0,0.4c0,0.1,0,0.3-0.1,0.4c0,0.1,0,0.1,0,0.2c0,0.1,0.1,0.1,0.1,0.2c0,0.1,0,0.2,0,0.3
		c0,0.1,0,0.2,0,0.3c0,0.1,0,0.1-0.1,0.2c0,0,0,0.1,0.1,0.3s0.1,0.2,0,0.3c-0.1,0.1-0.1,0.1-0.1,0.2c0.1,0.1,0.2,0.3,0.2,0.5
		c0,0.2,0,0.3-0.1,0.5c0,0.2,0,0.3,0,0.5c0.1,0.1,0.1,0.3,0,0.5c-0.1,0.2-0.1,0.3-0.1,0.5c0,0.2,0,0.4,0.1,0.5c0,0.2,0,0.4,0,0.6
		s0,0.4,0,0.6c0,0.1,0.1,0.2,0.1,0.3c0,0.1,0,0.2,0,0.3c-0.1,0.2-0.1,0.4-0.1,0.5c0,0.1,0,0.1,0,0.2c0,0.1,0,0.2,0,0.3
		c0,0.1,0,0.3,0,0.4c0,0.4,0.1,0.8,0.1,1.1s0,0.7,0,1.1c0,0.2,0,0.4,0,0.6C-22.7,15-22.7,15.2-22.7,15.4z"/>
	<path id="Path_64" d="M2,15.4c0,0.2,0,0.4,0.1,0.6c0,0.2,0,0.3,0,0.5C2,16.6,2,16.7,2,16.9c0,0.1,0.1,0.3,0,0.4c0,0.2,0,0.4,0,0.6
		c0,0.2,0,0.4,0,0.6c-0.1,0.2-0.1,0.4,0,0.6c0.1,0.2,0.1,0.4,0.1,0.6c0,0.1,0,0.2,0,0.2C2,19.9,2,20,2,20c0,0.1,0,0.2,0,0.3
		c0,0.1,0,0.2,0,0.3c0,0.2,0,0.4,0,0.6c0,0.2,0,0.4,0,0.6c0,0.2,0,0.4-0.1,0.6c-0.1,0.2-0.1,0.2-0.2,0.2s-0.1,0.1-0.2,0.2
		c-0.2,0-0.4,0-0.6,0c-0.2,0-0.4,0-0.6,0c-0.2,0-0.3-0.1-0.5-0.1c-0.1,0-0.2,0-0.3,0c-0.1,0-0.2,0-0.3,0c-0.2,0-0.4,0-0.5,0
		s-0.4,0-0.5-0.1c-0.3,0-0.5,0-0.6,0c-0.2,0-0.4-0.1-0.5-0.3c-0.1-0.1-0.2-0.3-0.2-0.5c0-0.2,0-0.3,0-0.5c0-0.2,0-0.4,0-0.6
		c0-0.2,0-0.4,0-0.6c0-0.2,0-0.4,0-0.5s0-0.3,0-0.5c0-0.2,0-0.4,0-0.6c0-0.2,0-0.4,0-0.5c0-0.7,0-1.4,0-2.2c0-0.7,0-1.4-0.1-2.2
		c0-0.1,0-0.3,0-0.4c0-0.2,0-0.3,0-0.5c0-0.1,0-0.1,0-0.2c0,0,0-0.1,0-0.3v-0.2c0-0.1,0-0.2,0.1-0.2c0-0.2,0-0.4,0-0.6s0-0.4,0-0.6
		c0-0.2,0-0.4,0-0.6c0-0.2,0-0.4,0-0.6c-0.1-0.2-0.1-0.4,0-0.6c0-0.2,0-0.4,0-0.6c0-0.4,0-0.7,0-1.1c0-0.1,0-0.2,0-0.4s0-0.3,0-0.5
		c0-0.2,0-0.3,0-0.5c0-0.2,0.1-0.2,0.1-0.3C-3,5.7-3.1,5.6-3.1,5.5c0-0.1,0-0.2-0.1-0.2c-0.1,0-0.1,0.1-0.1,0.1c0,0.1-0.1,0-0.1-0.1
		c-0.1,0.1-0.1,0.1,0,0.1c0,0,0.1,0.1,0.1,0.1c0,0.1-0.1,0.3-0.1,0.4c0,0.1,0,0.2-0.1,0.3c-0.1,0.2-0.1,0.4-0.1,0.6
		c0,0.2-0.1,0.4-0.1,0.6C-3.9,7.8-3.9,8-3.9,8.2C-4,8.5-4,8.7-4.1,8.9c0,0.2-0.1,0.4-0.2,0.6c-0.1,0.2-0.1,0.4,0,0.6
		c0.1,0.1,0.1,0.2,0,0.3c-0.1,0.1-0.2,0.2-0.2,0.3c-0.1,0.2-0.1,0.3,0,0.3s0.1,0.1,0.1,0.3c-0.1,0.1-0.1,0.3-0.1,0.4
		c0,0.2,0,0.3-0.1,0.5c-0.1,0.2-0.1,0.4-0.1,0.5c0,0.1,0,0.1,0,0.1c0,0-0.1,0-0.1,0c0.1,0.1,0.2,0.3,0.1,0.4
		C-4.9,13.4-5,13.6-5,13.7c-0.1-0.1-0.1-0.2-0.2-0.3c0-0.1-0.1-0.2-0.1-0.3c-0.1,0.1-0.1,0.2,0,0.3c0,0.1,0.1,0.2,0.1,0.3
		c0.1,0.1,0.1,0.2,0.1,0.3c0,0.1,0,0.3-0.1,0.4c-0.1,0.1-0.1,0.3-0.1,0.4c0,0.1,0,0.3-0.1,0.4c-0.1,0.1-0.1,0.3-0.1,0.4
		c0,0.2,0,0.3-0.1,0.5c-0.1,0.2-0.1,0.4-0.1,0.6c0,0.2-0.1,0.4-0.1,0.6c0,0.1,0,0.2-0.1,0.2s-0.1,0.1-0.1,0.2
		c0.1,0.1,0.1,0.2,0.1,0.4c0,0.1,0,0.3-0.1,0.4c-0.1,0-0.1,0.1,0,0.2c0,0.1,0,0.2,0,0.2C-6,19.1-6,19.3-6,19.5c0,0.2,0,0.3-0.1,0.5
		c-0.1,0.1-0.1,0.3-0.1,0.4c0,0.1,0,0.3-0.1,0.4c-0.1,0.1-0.1,0.3-0.1,0.4c0,0.1,0,0.3-0.1,0.5c0,0.1-0.1,0.3-0.1,0.4
		c0,0.1-0.1,0.3-0.2,0.4c-0.1,0.1-0.1,0.1,0,0.2s0,0.1,0,0.2c-0.1,0-0.2,0.1-0.3,0.1s-0.2,0-0.3,0.1c-0.1,0-0.3,0.1-0.6,0.1
		c-0.2,0-0.4,0-0.6,0c-0.2-0.1-0.4-0.1-0.5,0C-9.2,22.9-9.4,23-9.6,23c-0.3,0-0.6-0.2-0.7-0.5c-0.1-0.1-0.1-0.3-0.2-0.5
		c-0.1-0.1-0.1-0.2,0-0.3c0-0.1,0-0.2,0-0.3c-0.1-0.3-0.2-0.7-0.2-1c0-0.3,0-0.7-0.1-1c0-0.1-0.1-0.1-0.1-0.2c0-0.1-0.1-0.1,0-0.2
		c0-0.2,0-0.3,0-0.5c-0.1-0.2-0.1-0.3-0.2-0.5c-0.1-0.2-0.1-0.4,0-0.5c-0.1-0.1-0.2-0.2-0.2-0.4c0-0.1,0-0.3,0-0.4
		c0-0.1-0.1-0.3-0.1-0.4c0-0.1-0.1-0.2-0.1-0.4c-0.1-0.2-0.1-0.3-0.1-0.5c0-0.2,0-0.4,0-0.6c-0.1-0.2-0.1-0.3-0.1-0.5
		c0-0.2-0.1-0.4-0.1-0.5c-0.1-0.3-0.1-0.6-0.2-0.9c0-0.3-0.1-0.6-0.1-0.9c-0.1-0.4-0.1-0.8-0.2-1.2c-0.1-0.4-0.1-0.8-0.1-1.2
		c0-0.2-0.1-0.4-0.1-0.6c-0.1-0.2-0.1-0.3-0.2-0.5c-0.1-0.2-0.1-0.4-0.1-0.5c0-0.2,0-0.3-0.1-0.5c-0.1-0.3-0.2-0.6-0.2-0.9
		c0-0.3-0.1-0.6-0.3-0.9c-0.1,0.1-0.2,0.2-0.3,0.5c0,0.2,0,0.4,0,0.6c0.1,0.3,0.1,0.5,0.1,0.8c0,0.3-0.1,0.5-0.4,0.6
		c0,0.1,0,0.1,0.1,0.1h0.1c0.1,0,0.1,0,0.1,0.1c0,0.1,0,0.1,0,0.2c0,0.1,0,0.3,0,0.4c0,0.1,0,0.3,0,0.4c0,0.1,0,0.3,0.1,0.4
		c-0.1,0.1-0.1,0.1-0.1,0.2c0,0.1,0,0.2,0,0.3c0,0.1,0,0.3-0.1,0.4c0,0.2,0.1,0.3,0,0.5c0,0.1,0,0.1,0,0.2c0,0.1,0,0.1,0,0.2
		c0,0.1-0.1,0.2-0.1,0.3c0,0.1,0,0.2,0,0.3c0,0.2,0,0.3,0.1,0.5c0,0.1-0.1,0.1-0.1,0.2c0,0.1,0,0.1,0,0.2c0,0.1,0,0.1-0.1,0.1
		c0,0-0.1,0.1-0.1,0.1c0.1,0.1,0.1,0.2,0.1,0.4v0.5c0,0.2,0,0.3,0,0.3c0,0-0.1,0.1-0.1,0.2c0.1,0.1,0.2,0.2,0.2,0.3
		c0,0.2,0,0.4,0,0.5c0,0.2,0,0.4,0,0.6s0,0.3,0,0.4c0,0.4,0,0.8,0.1,1.1c0,0.4,0,0.7-0.1,1.1c0,0.1,0,0.1,0,0.2c0,0.1,0,0.1,0.1,0.3
		c0,0.1-0.1,0.2-0.1,0.3c0,0.1,0,0.2-0.1,0.3c0,0.1,0,0.3,0,0.4c0,0.1,0,0.3,0.1,0.4c0,0.2,0,0.4,0,0.5c0,0.2,0,0.4,0,0.5v0.6
		c0,0.2,0,0.4-0.1,0.6c-0.1,0.3-0.3,0.5-0.6,0.5c-0.3,0-0.6,0-0.8,0c-0.2,0-0.4,0-0.5,0s-0.3,0-0.5,0c-0.2,0-0.4,0-0.6,0
		c-0.2,0-0.4-0.1-0.6,0c-0.2,0-0.5,0-0.7-0.1c-0.2-0.1-0.4-0.3-0.4-0.5c-0.1-0.1-0.1-0.3-0.1-0.5c0-0.1,0-0.2,0.1-0.2
		c0,0,0-0.1,0-0.2c0-0.1-0.1-0.1-0.1-0.2c0-0.1,0-0.1,0-0.2c0.1-0.1,0.1-0.2,0-0.3c0-0.1,0-0.2,0-0.4c-0.1-0.4-0.1-0.8,0-1.2
		c0-0.4,0.1-0.8,0.1-1.2c0-0.4-0.1-0.8-0.1-1.3s0-0.9,0-1.3c0-0.3,0-0.6,0-0.9c0-0.3,0-0.6,0-0.9c0-0.2,0-0.4,0-0.6
		c0-0.2,0-0.4,0.1-0.5c0.1-0.2,0.1-0.4,0-0.6c0-0.2-0.1-0.5-0.1-0.7c0-0.4,0-0.8,0-1.2c0-0.4,0-0.8-0.1-1.2c0-0.2,0-0.4,0-0.6
		c0-0.2,0.1-0.4,0.1-0.6c0-0.2,0-0.5,0-0.7c0-0.2,0-0.5,0-0.7c0-0.2,0-0.4,0-0.5c0-0.2,0-0.3,0-0.5c0-0.2,0-0.3-0.1-0.5
		c-0.1-0.2-0.1-0.3,0-0.5c0.1-0.3,0.2-0.7,0.1-1.1c-0.1-0.4-0.1-0.8-0.1-1.1c0-0.2,0-0.3,0-0.5c0.1-0.2,0-0.4-0.1-0.5
		c0-0.2,0.1-0.3,0.1-0.5c0-0.2,0-0.4,0-0.5c0.1-0.2,0.1-0.3,0-0.5c0-0.2,0-0.4,0-0.5c0-0.2,0-0.4,0-0.6c0-0.2,0-0.4,0-0.6v-0.3
		c0-0.1,0-0.2,0-0.3c0-0.1,0-0.1,0-0.2c0-0.1,0-0.1,0-0.2v-0.5c0-0.2,0-0.4,0-0.5c0-0.2,0-0.3-0.1-0.5c0-0.2,0-0.3,0.1-0.5
		c0.1-0.2,0.1-0.3,0-0.5c-0.1-0.2-0.1-0.4,0-0.5c0-0.2,0-0.4,0.1-0.5c0.1-0.2,0.2-0.3,0.3-0.4c0.1-0.1,0.3-0.2,0.5-0.1
		c0.2,0.1,0.3,0.1,0.5,0.1c0.3,0,0.7-0.1,1-0.1c0.3,0,0.7,0,1,0c0.3,0,0.7,0,1,0c0.3,0,0.7,0,1-0.1c0.2,0,0.3,0,0.5,0
		c0.2,0,0.3,0,0.5,0c0.1,0,0.1,0,0.2,0c0.1,0,0.1,0.1,0.2,0.1c0.1,0,0.1,0,0.1,0s-0.1,0,0,0.1c0.1,0.1,0.2,0.1,0.3,0.2
		c0.1,0,0.1,0.1,0.1,0.3c0,0.1,0.1,0.2,0.1,0.2s0.1,0.1,0.1,0.2c0,0.1,0,0.2,0,0.3c0,0.1,0,0.2,0.1,0.3c0.1,0.3,0.2,0.6,0.2,1
		c0,0.3,0.1,0.7,0.1,1c0,0.3,0.1,0.6,0.1,0.9c0,0.3,0.2,0.6,0.4,0.9c0,0.4,0,0.7,0.1,1.1c0.1,0.2,0,0.3,0,0.4
		c0.1,0.1,0.1,0.3,0.2,0.4c0.1,0.3,0.2,0.7,0.2,1c0,0.4,0.1,0.7,0.2,1c0.1,0.2,0.1,0.3,0.1,0.5c0,0.2,0,0.3,0,0.5
		c0,0.2,0,0.4,0.1,0.5C-9.4,3.7-9.3,3.8-9.4,4c0,0.1,0,0.1-0.1,0.2c0,0,0,0.1,0.1,0.1c0.1,0,0.1,0.1,0.1,0.2c0,0.1,0,0.1,0,0.2
		c0,0.2,0,0.3,0.1,0.5c0,0.2,0.1,0.3,0.1,0.5c0,0.1,0,0.1,0,0.2c0,0,0,0.1,0,0.2C-9,6.1-9,6.2-9,6.3c0,0.1,0,0.2,0,0.2
		c0,0.1,0,0.1,0,0.2C-8.8,6.9-8.8,7-8.8,7C-8.9,7-8.9,7-9,7.1c0.1,0.1,0.1,0.1,0.1,0.1s0,0.1,0,0.2c-0.1,0.1-0.1,0.2,0,0.3
		c0,0.1,0.1,0.2,0.2,0.3c0.1,0.1,0.2,0.4,0.1,0.5c0.2,0.3,0.3,0.2,0.5,0c0-0.1,0-0.2,0.1-0.3c0-0.1,0-0.2,0.1-0.2
		C-7.9,8-7.9,7.9-7.9,7.8c0-0.1,0-0.3,0.1-0.4c0-0.1,0-0.2,0-0.3c0-0.1,0-0.2,0-0.3c0.1-0.1,0.1-0.2,0.1-0.4c0-0.1,0-0.2,0.1-0.3
		c0-0.1,0.1-0.2,0.1-0.2c0-0.1,0-0.2,0-0.3c0-0.1,0-0.2,0-0.4c0-0.1,0.1-0.2,0.1-0.3c-0.1-0.2-0.1-0.5,0-0.8C-7.2,4-7.1,3.8-7.1,3.5
		c0,0,0-0.1,0-0.3C-7,3.1-7,3-7,2.8c0-0.1,0.1-0.2,0.1-0.3c0.1-0.1,0.1-0.1,0.2,0.1s0.1,0.1,0.1,0.1s0-0.1,0-0.1
		c-0.1,0-0.1-0.1-0.1-0.2c0-0.1-0.1-0.1-0.1-0.1c0.1,0,0.1-0.2,0.1-0.3c0,0,0,0,0,0c-0.1-0.1-0.1-0.2,0-0.2c0.1-0.1,0.1-0.1,0.1-0.2
		c-0.1-0.2-0.1-0.4,0-0.5c0.1-0.2,0.1-0.4,0.1-0.6c0-0.2,0-0.4,0.1-0.6c0.1-0.2,0.1-0.4,0.1-0.6c0.2-0.4,0.3-0.9,0.3-1.4
		C-6-2.3-5.9-2.5-5.9-2.7c0-0.2,0-0.4,0-0.5v-0.3c0-0.1,0-0.2,0.1-0.2l0.1-0.1c0,0,0-0.1,0-0.1c-0.1-0.2-0.1-0.4,0-0.5
		C-5.6-4.7-5.6-4.9-5.5-5v-0.2c0-0.1,0-0.2,0-0.3c0-0.2,0.1-0.3,0.1-0.5c0.1,0.1,0.1,0.1,0.1,0.1c0-0.1,0-0.1,0-0.1
		c0-0.1,0-0.1,0-0.2c0-0.1,0-0.2,0-0.3c0-0.1,0-0.2,0-0.3C-5.2-6.9-5.1-7.1-5-7.3c0.1-0.2,0.3-0.3,0.5-0.3c0.5-0.1,1.1-0.1,1.6,0
		c0.5,0,1.1,0.1,1.6,0.1h1.6c0.3,0,0.5,0,0.8-0.1c0.2-0.1,0.5,0,0.7,0.1C2-7.3,2.1-7,2-6.8c0,0.2,0,0.5,0,0.7C2-5.4,2-4.8,2.1-4.2
		c0.1,0.5,0,1,0,1.4c0,0.1,0,0.2,0,0.4c0,0.1,0,0.2,0,0.3C2-2,2-2,2-1.9c0,0.1,0,0.1,0,0.2c0,0.1,0,0.1,0,0.1s-0.1,0-0.1,0.1
		C2-1.4,2.1-1.1,2.1-0.9c0,0.2,0,0.5,0,0.7v0.8c0,0.1,0,0.2,0,0.3c0,0.1,0,0.1,0,0.2c0,0.1,0,0.1,0,0.2c0,0.1,0,0.1,0,0.2
		c0,0.1,0,0.2,0,0.3C2,1.8,2,1.9,2,2c0,0.1,0.1,0.2,0.1,0.3v0.3c0,0.1,0,0.2-0.1,0.3c0,0.1,0,0.3,0,0.4C2,3.6,2,3.7,2,3.8
		c0,0.1,0,0.1,0,0.2C2,4.1,2,4.2,2,4.2c0,0.1,0,0.2,0,0.3c0,0.1,0,0.2,0,0.3C2,4.9,2,5,2,5c0,0,0,0.1,0.1,0.3s0.1,0.2,0,0.3
		C2,5.6,1.9,5.7,1.9,5.7C2,5.9,2.1,6,2.1,6.2c0,0.2,0,0.3-0.1,0.5C2,6.9,2,7,2,7.2c0.1,0.1,0.1,0.3,0,0.5C2,7.8,2,8,2,8.2
		C2,8.3,2,8.5,2,8.7c0,0.2,0,0.4,0,0.6c0,0.2,0,0.4,0,0.6c0,0.1,0.1,0.2,0.1,0.3c0,0.1,0,0.2,0,0.3C2.1,10.6,2,10.8,2,11
		c0,0.1,0,0.1,0,0.2c0,0.1,0,0.2,0,0.3c0,0.1,0,0.3,0,0.4C2,12.3,2,12.6,2.1,13s0,0.7,0,1.1c0,0.2,0,0.4,0,0.6C2,15,2,15.2,2,15.4z"
		/>
	<path id="Path_65" d="M21.4,2.1C21.4,2.1,21.3,2.1,21.4,2.1c-0.1,0.2-0.1,0.3-0.1,0.4c0,0.1,0,0.2,0,0.3c0,0.1,0,0.3,0,0.4
		c0,0.1,0,0.3-0.1,0.4c0.1,0.1,0.1,0.2,0.1,0.3c0,0.1,0,0.2-0.1,0.4c-0.1,0.1-0.1,0.1,0,0.2c0,0.1,0.1,0.2,0.1,0.3
		c0,0.2,0,0.3-0.1,0.2S21,4.9,21,5c0,0.1,0.1,0.1,0.3,0.1c0.1,0,0.2,0.1,0.1,0.2s-0.1,0.2-0.1,0.2c0,0,0.1,0,0.1,0
		c0,0,0.1,0,0.1,0.1c0,0.2,0,0.4,0,0.6v0.6c0,0.2,0,0.4,0,0.6v1.3c0,0.4,0,0.9,0,1.3c0,0.2,0,0.4,0,0.6s0,0.4,0.1,0.6
		c0,0.2,0,0.4-0.1,0.6c0,0.2,0,0.4,0,0.6c0.1,0.1,0.1,0.2,0,0.2c0,0-0.1,0.1-0.1,0.1c0,0.2,0,0.4,0.1,0.5c0,0.1,0,0.2,0,0.3
		c0,0.1,0,0.2,0,0.3c0,0.3,0,0.5,0,0.8c0,0.2,0,0.4,0,0.6s0,0.4,0,0.6c0,0.1,0,0.2,0,0.3c0,0.1,0,0.2,0,0.3c0,0.1,0,0.2-0.1,0.2
		c0,0.1-0.1,0.1-0.1,0.2c0,0.1,0,0.2,0,0.3c0,0.1,0,0.1,0,0.2c0,0.1-0.1,0.2-0.1,0.3s-0.1,0.2-0.1,0.3c-0.1,0.2-0.1,0.4-0.1,0.6
		c-0.1,0.2-0.1,0.4-0.2,0.6c-0.3,0.6-0.6,1.2-1,1.7c-0.4,0.5-0.9,1-1.4,1.4c-0.1,0.1-0.3,0.2-0.4,0.3c-0.1,0.1-0.2,0.2-0.4,0.2
		c-0.1,0-0.1,0-0.2,0c-0.1,0-0.1,0-0.1,0.1c0,0.1-0.1,0.1-0.3,0.1c-0.1,0-0.2,0-0.2,0c0,0-0.1,0-0.1,0.1c-0.1,0-0.1,0.1-0.2,0.1
		c-0.1,0-0.1,0.1-0.2,0c-0.2,0-0.4,0.1-0.6,0.1c-0.2,0.1-0.4,0.1-0.6,0.1c-0.2,0-0.4,0-0.5,0.1c-0.2,0-0.4,0.1-0.5,0h-1
		c-0.3,0-0.7,0-1-0.1c-0.3-0.1-0.6-0.2-0.9-0.3c-0.7-0.1-1.4-0.4-2-0.9c-0.6-0.4-1.1-1-1.6-1.5c-0.1-0.1-0.3-0.3-0.4-0.5
		c-0.1-0.2-0.2-0.3-0.3-0.5c-0.1-0.2-0.1-0.3-0.2-0.5c0-0.2-0.1-0.3-0.2-0.5c-0.1-0.1-0.1-0.3-0.1-0.4c0-0.1,0-0.3-0.1-0.4
		C6,17.7,6,17.5,6,17.3c0-0.2-0.1-0.4,0-0.5c0.1-0.1,0.1-0.3,0-0.4c-0.1-0.1-0.1-0.3-0.1-0.4c0-0.1,0-0.3,0-0.4c0-0.1,0-0.3,0-0.4
		c0,0,0-0.1,0-0.1c0-0.1,0-0.1,0-0.1c0-0.1,0-0.2-0.1-0.2c0-0.1-0.1-0.2,0-0.2c0.1-0.1,0.1-0.3,0-0.4c0-0.1,0-0.3,0-0.4
		c0-0.3,0-0.6,0.1-0.9c0-0.3,0-0.6-0.1-0.9c-0.1-0.1-0.1-0.3,0-0.4c0.1-0.1,0.1-0.3,0.1-0.4c0-0.2,0-0.4,0-0.6c0-0.2,0-0.4,0-0.6
		c0.1-0.4,0.1-0.7,0-1.1c0-0.4,0-0.7,0-1.1v-1c0-0.2,0-0.3-0.1-0.5c-0.1-0.1,0-0.3,0-0.4c0.1-0.1,0.1-0.3,0.1-0.4
		c0-0.1,0-0.3-0.1-0.4V4.2c0-0.1,0-0.2,0.1-0.2c0-0.1,0.1-0.2,0-0.2C5.8,3.5,5.8,3.2,5.9,2.9c0.1-0.2,0.1-0.5,0-0.8
		c0-0.3-0.1-0.6-0.1-0.9c0-0.3,0-0.6,0-0.9c0-0.1,0-0.2,0.1-0.4c0-0.1,0-0.2,0-0.4c-0.1-0.1-0.1-0.2,0-0.3c0.1-0.1,0.1-0.2,0-0.4
		c0-0.1,0-0.3,0-0.4c0-0.1,0-0.3,0-0.4c0-0.2,0-0.4,0-0.5c0-0.2,0-0.4,0-0.5c0-0.1,0-0.3,0-0.4v-0.4c0-0.1,0-0.1,0-0.2
		c0-0.1,0-0.1,0.1-0.2c0-0.1,0-0.2,0-0.3c0-0.1,0-0.2,0-0.3c0-0.1,0-0.3,0-0.4c0-0.2,0-0.3,0-0.5c0-0.2-0.1-0.4-0.1-0.6
		c0-0.2,0-0.4,0-0.6C5.9-6.9,5.9-7,6-7.2c0-0.1,0.1-0.2,0.3-0.3c0.2-0.1,0.3-0.1,0.5-0.1c0.2,0,0.3,0,0.5,0c0.1,0,0.3,0,0.4,0
		c0.1,0,0.3,0,0.4,0c0.2,0,0.4,0,0.6,0s0.4,0,0.6,0c0.1,0,0.2,0,0.4,0c0.1,0,0.2,0,0.4,0c0.1,0,0.3,0,0.4,0c0.1,0,0.2,0.1,0.3,0.2
		c0.1,0,0.1-0.1,0.1-0.1s0-0.1,0-0.1c0.1,0,0.3,0,0.4,0.1c0.2,0.1,0.3,0.3,0.3,0.4c0,0.2,0,0.4,0,0.5c0,0.5,0,1,0,1.5s0,1,0,1.5
		c0,0.1,0,0.2,0,0.3c0,0.1,0,0.2,0,0.4c-0.1,0-0.1,0-0.1,0.1c0,0.1,0,0.1,0,0.2c0.1,0.1,0.1,0.2,0.1,0.3c0,0.1-0.1,0.3-0.1,0.3
		c0,0.1,0,0.2,0,0.3c0.1,0.5,0.1,1,0.1,1.5c0,0.5,0,1-0.1,1.5v0.8c0,0.2,0,0.5,0,0.7c0,0.3,0,0.5,0,0.7c0,0.2,0,0.4,0,0.6
		c0,0.2,0,0.5,0,0.7c0,0.2,0,0.5,0,0.7c0,0.1,0,0.2,0,0.3c0,0.1,0,0.2,0,0.3c0,0.1-0.1,0.2-0.1,0.3c0,0.1,0,0.2,0.1,0.3
		c0,0.1,0,0.1-0.1,0.2c0,0.1-0.1,0.1,0,0.2c0,0.1,0,0.2,0,0.3v0.3c0.1,0.4,0.1,0.9,0,1.3v1.3c0,0.2,0,0.4,0,0.6s0,0.4-0.1,0.6
		c0,0-0.1,0-0.1,0c0,0,0,0,0,0c0,0,0.1,0,0.1,0c0.1,0,0.1,0.1,0.1,0.3s0,0.3,0,0.4v3c0,0.3,0,0.6,0,1c0.1,0.1,0.1,0.3,0.1,0.4
		c0.1,0.3,0.2,0.5,0.4,0.7c0.1,0.1,0.2,0.2,0.2,0.4c0.1,0,0.2,0,0.3,0.1c0.1,0.1,0.2,0.1,0.3,0.1c0.1,0.1,0.2,0.1,0.3,0
		c0.1,0,0.2,0,0.3,0c0.1,0,0.2,0,0.3,0.1c0.1,0,0.2,0.1,0.3,0c0.1,0,0.1,0,0.2,0.1c0.1,0,0.1-0.1,0.1-0.1c0,0,0.1-0.1,0.1-0.1
		c0.2,0.1,0.5,0,0.6-0.1c0.2-0.1,0.3-0.3,0.5-0.5c0.1-0.2,0.2-0.4,0.3-0.7c0.1-0.2,0.1-0.4,0.1-0.6c0-0.1,0-0.2,0.1-0.4
		c0-0.1,0.1-0.2,0.1-0.4c0-0.1,0-0.3,0-0.4c0-0.1,0-0.3,0-0.4c0-0.3,0-0.5,0-0.8c0-0.2,0.1-0.5,0-0.7c-0.1-0.2-0.1-0.4,0-0.7
		c0-0.2,0-0.5,0-0.7c-0.1-0.2,0-0.5,0-0.7c-0.1-0.3-0.1-0.7,0-1V9.6c0-0.3,0-0.5,0-0.8c0-0.1,0-0.2,0-0.3L16,8.4
		c-0.1-0.1-0.2-0.2-0.1-0.2c0-0.1,0-0.2,0-0.3c0-0.6,0-1.3,0-1.9c0-0.6,0-1.3,0-1.9c0.1,0.1,0.2,0.1,0.2,0c0-0.1,0-0.1,0-0.2
		c0-0.1-0.1-0.2-0.1-0.3c0-0.1-0.1-0.1-0.1-0.2V1.2c0-0.2,0-0.5,0-0.7c0-0.2,0-0.4,0.1-0.6c0-0.1,0-0.2,0-0.3v-0.3
		c0-0.2,0-0.3-0.1-0.5c0-0.1,0-0.2,0-0.3c0-0.1,0-0.3,0-0.4c0-0.3,0-0.6,0-0.8s0-0.5-0.1-0.8v-0.7c0-0.1,0-0.1,0-0.2s0.1-0.1,0-0.2
		c0-0.1,0-0.3,0-0.4c0-0.2,0.1-0.3,0.2-0.4c-0.1-0.2-0.2-0.4-0.2-0.6v-1c0-0.1,0-0.2,0.1-0.3c0.1-0.1,0.3-0.1,0.4-0.2
		c0.1-0.1,0.2-0.1,0.4-0.1c0.2,0.1,0.5,0.1,0.7,0c0.2,0,0.5-0.1,0.7,0c0.1,0,0.2,0,0.3,0h0.3c0.1,0,0.3,0,0.4,0
		c0.1,0,0.2,0.1,0.3,0.2c0-0.1,0.1-0.1,0.2-0.1c0.1,0,0.3,0,0.4,0c0.1,0,0.3,0,0.4,0s0.2,0,0.3,0c0.2,0,0.4,0.1,0.5,0.3
		c-0.1,0.1-0.1,0.3,0,0.5c0.1,0.1,0.1,0.3,0,0.5c0.1,0.1,0.2,0.3,0.1,0.5c-0.1,0.2-0.1,0.3-0.1,0.5c0,0.2,0,0.4,0,0.6
		c-0.1,0.1-0.1,0.2,0,0.3c0,0.1,0.1,0.2,0.1,0.4c0,0.1,0,0.2,0,0.3c0,0.1,0,0.2,0,0.3c0.1,0.1,0.1,0.3,0,0.5
		c-0.1,0.1-0.1,0.3-0.1,0.5c0,0.1,0,0.2,0.1,0.3c0.1,0.1,0.1,0.2,0,0.3c-0.1,0.1-0.1,0.3,0,0.4c0,0.2,0,0.3-0.1,0.3
		c-0.1,0.1-0.2,0.2-0.1,0.2c0.1,0,0.1,0,0.2,0.1c-0.1,0.1-0.1,0.3,0,0.4c0,0.1,0,0.3,0,0.4c0,0.1-0.1,0.2-0.1,0.3
		c0.1,0.1,0.1,0.2,0.1,0.3c0,0.1,0,0.3,0,0.4c0,0.2,0,0.3,0,0.5C21.4,1.9,21.4,2,21.4,2.1z"/>
	<path id="Path_66" d="M41,18.3c-0.1,0.3-0.1,0.7,0,1c0.1,0.3,0.1,0.7,0,1c-0.1,0.2-0.1,0.4,0,0.5c0,0.2,0,0.4,0,0.5
		c0,0.1,0,0.3,0,0.4c0,0.2,0,0.3,0,0.5c0,0.2-0.1,0.3-0.2,0.4s-0.2,0.1-0.4,0.1C40.3,22.9,40.2,23,40,23c-0.2,0-0.3,0-0.5,0
		c-0.2-0.1-0.5-0.1-0.7-0.1c-0.2,0-0.5,0-0.7,0c-0.4,0-0.7,0-1,0.1c-0.3,0.1-0.7-0.1-0.8-0.4c-0.1-0.2-0.2-0.5-0.3-0.8
		c-0.1-0.3-0.2-0.6-0.3-0.8c-0.1-0.1-0.1-0.1,0-0.2s0-0.1,0-0.2c0-0.1-0.1-0.3-0.2-0.4c-0.1-0.2-0.2-0.4-0.3-0.6
		c0-0.2-0.1-0.4-0.2-0.6c-0.1-0.1-0.1-0.3-0.1-0.5c0-0.2-0.1-0.3-0.2-0.5c-0.1-0.1-0.2-0.3-0.2-0.5c0-0.2-0.1-0.3-0.2-0.5
		c-0.1-0.2-0.1-0.3-0.2-0.5s-0.1-0.4-0.2-0.5c-0.1-0.1-0.1-0.2-0.1-0.3c0-0.1,0-0.2-0.1-0.2c0-0.1-0.1-0.2-0.1-0.3
		c0-0.1,0-0.2-0.1-0.3c-0.1-0.1-0.1-0.2-0.1-0.4c0-0.1-0.1-0.3-0.1-0.4c-0.1-0.2-0.1-0.3-0.2-0.5s-0.1-0.3-0.2-0.5
		c-0.1-0.3-0.2-0.6-0.4-0.9c-0.2-0.3-0.2-0.6-0.1-0.9c0-0.1-0.1-0.1-0.2-0.1c-0.1,0-0.1-0.1-0.1-0.1c0-0.1,0-0.2,0-0.2
		c-0.1-0.1-0.1-0.2-0.1-0.2c0-0.1-0.1-0.2-0.1-0.2c0-0.2,0-0.3-0.1-0.5c0-0.1-0.1-0.2-0.2-0.4s-0.2-0.3-0.1-0.4
		c0.1-0.1,0.1-0.2,0-0.3c0,0,0,0,0,0c-0.1-0.1-0.1-0.2-0.2-0.3c-0.1-0.1-0.1-0.3-0.2-0.4c-0.1-0.1-0.1-0.3-0.2-0.4
		c0-0.2-0.1-0.4-0.2-0.5c-0.1-0.1-0.1-0.2-0.1-0.2h-0.2c-0.1,0.1-0.1,0.1,0,0.2c0.1,0.1,0.1,0.2,0,0.3c-0.1,0.1-0.1,0.3,0,0.4
		c0,0.1,0,0.3,0,0.4c-0.1,0.8-0.1,1.6,0,2.4V11c0,0.1,0,0.1-0.1,0.1c-0.1,0-0.1,0.1,0,0.1c0,0,0.1,0.1,0.1,0.1c0,0.1,0,0.1,0,0.2
		c0,0.1,0,0.1,0,0.2c0,0.1-0.1,0.1-0.1,0s-0.1,0-0.1,0c0,0.1,0.1,0.1,0.1,0.2c0.1,0.1,0.1,0.1,0.1,0.2c0,0,0,0.1,0,0.1
		c0,0-0.1,0.1-0.1,0.1c0,0.1,0,0.1,0,0.2c0,0.1,0,0.1,0,0.2c-0.1,0.1-0.1,0.3,0,0.4c0,0.1,0,0.3,0,0.4c0,0.1,0,0.3,0,0.4
		c0,0.2,0,0.5,0,0.7c0,0.2,0,0.5,0,0.7c0,0.3,0,0.7,0,1c0.1,0.3,0.1,0.7,0,1c-0.1,0.4-0.1,0.8,0,1.2c0,0.4,0,0.8,0,1.2s0,0.8,0,1.2
		s0,0.8,0,1.2c0,0.2,0,0.4-0.2,0.5c-0.1,0.1-0.3,0.2-0.4,0.2c-0.2,0-0.4,0.1-0.6,0c-0.2,0-0.4,0-0.5,0h-0.2c-0.1,0-0.1,0-0.2-0.1
		c-0.1,0-0.2,0.1-0.3,0.1c-0.1,0-0.2,0-0.3,0c-0.1,0-0.1-0.1-0.2-0.1c0,0-0.1,0-0.2,0.1c-0.1,0-0.2,0-0.2,0c0,0-0.1,0-0.2,0h-0.5
		c-0.2,0-0.4,0-0.5,0c-0.2,0-0.3-0.1-0.4-0.2c-0.1-0.1-0.2-0.3-0.2-0.5v-0.5c0-0.2,0-0.3,0-0.5c0.1-0.2,0.1-0.4,0-0.5
		c0-0.2-0.1-0.4-0.1-0.5V20c0-0.1,0-0.2,0-0.3c0.1-0.1,0.1-0.2,0-0.3c0-0.1-0.1-0.2-0.1-0.3c0-0.3,0-0.5,0-0.8s0-0.5,0-0.7
		c0-0.4,0-0.8,0-1.2c0-0.4,0-0.8,0-1.2v-0.6c0-0.2,0-0.4,0-0.6c-0.1-0.2-0.1-0.4,0-0.6c0-0.2,0-0.4,0-0.6c0-0.2,0-0.4,0-0.6
		c0-0.2,0-0.4,0-0.6c0-0.1,0-0.2,0-0.3c0-0.1,0-0.1,0-0.2c0-0.1,0-0.2,0-0.3c0-0.1,0-0.1,0-0.2v-0.2c0-0.1,0-0.1,0.1-0.1
		c0.1-0.1,0.1-0.1,0-0.2c0-0.1-0.1-0.2-0.1-0.3c-0.1-0.2-0.1-0.4,0-0.7c0-0.2,0-0.5,0-0.7c0-0.4,0-0.8,0-1.2c0-0.4,0-0.8,0-1.2
		c0-0.1,0-0.2,0-0.3c0-0.1,0-0.2,0-0.3c0-0.1,0.1-0.1,0.1-0.2c0,0,0.1-0.1,0-0.2c-0.1-0.2-0.1-0.3,0-0.5c0-0.1,0-0.3,0-0.4
		c-0.1-0.6-0.1-1.2,0-1.9c0.1-0.6,0.1-1.2,0-1.8c0-0.1,0-0.2,0-0.3c0-0.1,0-0.2,0-0.3c0-0.1,0-0.3,0-0.4c0-0.1,0-0.3,0-0.4
		c0.1-0.1,0.1-0.3,0-0.4c0-0.1,0-0.3,0-0.4c0-0.2,0-0.4,0-0.6c0-0.2,0-0.4,0-0.6c-0.1-0.2-0.1-0.5,0-0.8c0-0.3,0.1-0.5,0.1-0.8
		c0-0.1,0-0.3,0-0.4c0-0.1,0-0.2-0.1-0.4c0-0.1,0-0.3,0-0.4c0-0.1,0-0.3,0.1-0.4c0,0,0-0.1,0-0.1c0,0,0-0.1-0.1-0.1
		c0-0.1,0-0.1,0-0.2c0-0.1,0-0.1,0-0.2v-0.4c0-0.1,0-0.3,0.1-0.4c0.1-0.1,0.1-0.2,0.2-0.2c0.1,0,0.2,0,0.4-0.1
		c0.1-0.1,0.3-0.1,0.4,0c0.1,0.1,0.3,0,0.4-0.1c0.3,0.1,0.6,0.2,0.8,0.1c0.3,0,0.6-0.1,0.8-0.1h0.4c0.1,0,0.3,0,0.4,0.1
		c0.2-0.1,0.4-0.1,0.5,0c0.2,0,0.4,0.1,0.5,0.3c0.2,0.3,0.3,0.5,0.4,0.8c0.1,0.3,0.2,0.6,0.3,0.9c0.1,0.3,0.2,0.6,0.3,0.9
		s0.2,0.5,0.3,0.8c0.2,0.5,0.4,1.1,0.5,1.7c0.2,0.6,0.4,1.1,0.7,1.7c0,0.1,0,0.2,0.1,0.3C32.9-0.1,33,0,33,0.1c0,0.1,0,0.3,0,0.4
		c0.1,0.1,0.1,0.2,0.2,0.4c0.1,0.1,0.1,0.2,0.1,0.3c0,0.1,0,0.2,0,0.3c0.1,0.1,0.2,0.3,0.2,0.4c0,0.1,0.1,0.3,0.2,0.4
		c0,0.1-0.1,0.1-0.1,0.2s-0.1,0.2,0,0.2c0,0,0.1,0,0.1,0c0,0,0.1-0.1,0.1-0.1c0.1,0,0.1,0,0.1,0.1c0,0.1,0,0.1,0,0.2
		C34,3.1,34.1,3.2,34,3.4c0,0.1,0.1,0.1,0.1,0.2c0,0.1,0.1,0.1,0,0.2c0.1,0.1,0.1,0.3,0.2,0.4c0.1,0.1,0.1,0.2,0,0.3
		c0,0.1,0,0.2,0,0.2c0.1,0.1,0.2,0.3,0.3,0.4c0.1,0.1,0.1,0.3,0,0.4C34.9,5.5,35,5.6,35,5.8c0,0.2,0,0.3,0.1,0.4
		c0,0.1,0,0.2,0.1,0.3c0.1,0.1,0.1,0.3,0.2,0.5c0.1,0.2,0.1,0.3,0.2,0.4c0.1,0.1,0.1,0.2,0.1,0.2c0.2,0,0.2-0.1,0.2-0.3
		c0-0.1-0.1-0.2-0.1-0.4c0-0.2,0-0.3,0.1-0.5C36,6.3,36,6.1,36,6c-0.1-0.4-0.2-0.8-0.1-1.1C36,4.5,36,4.1,36,3.7c0-0.3,0-0.7,0-1
		c0-0.3,0-0.7,0-1c0-0.2,0-0.3,0-0.5c0-0.2,0-0.4,0-0.5c0-0.4,0-0.9,0-1.3c0-0.8,0-1.5,0-2.3c0-0.7,0-1.5,0-2.2c0-0.2,0-0.3-0.1-0.5
		c0-0.2-0.1-0.3,0-0.5c0-0.2,0-0.3,0-0.5c0-0.2,0.1-0.3,0.2-0.4c0.3-0.2,0.7-0.3,1-0.3c0.5,0,0.8,0,1.1,0c0.1,0,0.2,0,0.3,0
		c0.1,0,0.2,0,0.2,0.1c0,0.1,0.1,0.1,0.2,0c0,0,0,0,0,0c0.1,0,0.1-0.1,0.2-0.1h0.5c0.2,0,0.3,0,0.5,0c0.2,0.1,0.3,0.1,0.5,0.1
		s0.2,0.2,0.3,0.4C41-6.7,41-6.5,41-6.3v0.5c0,0.2,0,0.4,0,0.6c0,0.2,0,0.4,0,0.6c0,0.1,0,0.3,0,0.4c0,0.1,0,0.3-0.2,0.3
		c0,0,0,0,0,0c0,0.1,0,0.1,0.1,0.1c0,0,0.1,0.1,0.1,0.1c0,0.1,0,0.2,0,0.2c0,0.1,0,0.2,0,0.2c0,0.1,0,0.2,0,0.2c0,0.1,0,0.2,0,0.2
		c0,0.1,0,0.2,0,0.3c0,0.1,0,0.2,0,0.3c-0.1,0.3-0.1,0.7,0,1c0,0.3,0,0.6,0,1c0,0.4,0,0.8,0,1.2C41,1.6,41,2,41,2.4
		c0,0.2,0,0.4,0,0.5c0,0.2-0.1,0.4,0,0.5c0,0.2,0,0.3,0,0.5c-0.1,0.1-0.1,0.3,0,0.4c0.1,0.1,0,0.2,0,0.2c0,0,0,0,0,0
		C41,4.7,41,4.8,41,4.9v0.3c0,0.1,0,0.2-0.1,0.3c0,0-0.1,0-0.1,0c0,0-0.1,0-0.1,0c0,0-0.1,0-0.1,0.1c0.1,0.1,0.1,0.1,0.2,0.1h0.1
		c0,0,0.1,0,0.1,0c0,0.1,0.1,0.2,0,0.3C41,6.1,41,6.3,41,6.4c0,0.2,0,0.3,0.1,0.4c0,0.1,0,0.3,0,0.4c0,0.1-0.1,0.3,0,0.4
		c0,0.2,0,0.4,0,0.5c0,0.2-0.1,0.4-0.2,0.5l0.1,0.3C41,9,41,9.1,41,9.2c0,0.1,0,0.1,0,0.2c0,0.1,0,0.1,0,0.2c0,0.1,0,0.1,0,0.2
		s0,0.1,0,0.2c0,0.1,0,0.2,0,0.2c0,0-0.1,0.1-0.1,0.2c0.1,0.1,0.1,0.3,0.1,0.4c0,0.2,0,0.3,0,0.5c0,0.2,0,0.3,0,0.5
		c0.1,0.4,0.1,0.7,0.1,1.1c0,0.3,0,0.7,0,1c0,0.4,0,0.8,0,1.1c0.1,0.4,0.1,0.8,0,1.1c-0.1,0.2-0.1,0.4,0,0.6c0.1,0.2,0.1,0.4,0,0.5
		c0,0.2-0.1,0.3-0.1,0.5c0,0.1,0,0.2,0,0.3C41,18.2,41,18.2,41,18.3z"/>
	<path id="Path_67" d="M50.2,19.2c0,0.2,0.1,0.4,0.1,0.5v1c0,0.3,0,0.7,0,1c0,0.1,0,0.3,0,0.4c0,0.2,0,0.3-0.1,0.4
		c-0.1,0.2-0.2,0.3-0.3,0.4s-0.3,0-0.5,0c-0.2,0-0.3,0-0.5,0l-0.4-0.1c-0.1,0-0.3,0-0.4,0.1c-0.1,0-0.2,0-0.2,0c-0.1,0-0.2,0-0.2,0
		c-0.2,0-0.3-0.1-0.5-0.1c-0.2,0-0.3,0-0.5,0.1c-0.2,0.1-0.4,0.1-0.6,0c-0.2,0-0.4,0-0.6,0c-0.2,0-0.4,0-0.5-0.1
		c-0.1-0.1-0.2-0.3-0.2-0.5c0-0.2-0.1-0.4,0-0.6c0-0.2,0-0.4,0-0.5c0-0.2,0-0.4,0-0.6c0-0.2,0-0.4,0.1-0.5c0-0.1,0-0.3,0-0.4
		c0-0.1-0.1-0.3-0.1-0.4c0-0.1,0-0.2,0.1-0.4c0-0.1,0-0.2,0-0.3c-0.1-0.2-0.1-0.3,0-0.5c0-0.2,0-0.3,0-0.5c0-0.2,0-0.3,0-0.5
		c0-0.2,0-0.3,0-0.5c-0.1-0.1-0.1-0.2,0-0.3c0,0,0,0,0,0c0.1-0.1,0.1-0.1,0-0.2c0-0.1,0-0.1,0-0.2c0-0.3-0.1-0.6-0.1-0.9
		c0-0.3,0-0.6,0.1-0.9c0,0,0-0.1,0-0.1c0,0-0.1-0.1-0.1-0.1c0-0.1,0.1-0.2,0.1-0.3c0-0.1,0-0.2,0-0.3c0-0.4,0-0.8,0-1.2
		c0,0,0-0.1,0-0.2c0-0.1,0-0.2,0-0.3c0-0.1,0-0.2,0-0.3c0-0.1,0.1-0.1,0.1-0.1c0.1,0,0.2,0,0.3-0.2s0.1-0.3,0.1-0.3
		c-0.1,0-0.1,0-0.1,0.1c0,0,0,0.1,0,0.1c-0.1,0-0.3,0-0.4,0c0-0.1,0-0.3,0-0.4v-0.4c0-0.1,0-0.3-0.1-0.4c0-0.2,0-0.3,0-0.4
		c0.1,0,0.1-0.1,0.1-0.3c0-0.2,0-0.4,0-0.5c0-0.2,0-0.4,0-0.5s0-0.3,0-0.4c0-0.1,0-0.3,0-0.4c0-0.1,0-0.3,0.1-0.4
		c0.1-0.1,0.1-0.1,0-0.1s-0.1-0.1-0.1-0.1c0-0.1,0-0.3,0-0.4c0-0.1,0-0.3,0-0.4c0-0.1-0.1-0.2-0.1-0.4c0-0.1,0-0.3,0-0.4
		c0.1-0.2,0.1-0.4,0-0.6c0-0.1,0-0.2,0-0.3c0-0.1,0-0.2,0-0.3c-0.1-0.2-0.1-0.4,0-0.6c0.1-0.2,0.1-0.4,0.1-0.6c0-0.2,0-0.5-0.1-0.7
		c0-0.2-0.1-0.5,0-0.7c0-0.2,0-0.3,0.1-0.5l0,0h0c0.1,0,0.1,0,0.2,0.1c0,0.1,0.1,0.1,0.2,0.1c0,0,0,0,0,0c0-0.1-0.1-0.2-0.1-0.3
		C45,0.5,45,0.4,45,0.3c-0.1,0-0.1,0.1-0.1,0.1v0.2c0,0,0,0,0,0c0,0,0,0,0,0h0c-0.1,0-0.1-0.1-0.1-0.3s0-0.3,0-0.3v-0.5
		c0-0.2,0-0.3,0.1-0.5c0-0.1,0-0.2,0-0.2s-0.1-0.1-0.1-0.2c0-0.2,0.1-0.4,0-0.6v-1c0-0.2-0.1-0.4-0.1-0.6c0-0.2,0-0.4,0.1-0.5
		c-0.1-0.2-0.1-0.4,0-0.6s0-0.4,0-0.6c0-0.1,0-0.1,0-0.2c0,0,0-0.1,0.1-0.1c0.1,0,0.1-0.1,0-0.2c0-0.1,0-0.1,0-0.2
		c-0.1-0.3-0.1-0.6-0.1-0.8c0-0.3,0.1-0.6,0.4-0.8c0.2-0.1,0.3-0.1,0.5-0.1c0.2,0,0.4,0,0.5,0c0.3,0,0.6,0,0.9,0.1
		c0.1,0,0.2-0.1,0.4-0.1c0.1,0,0.3,0,0.3,0.1c0.3-0.1,0.6-0.1,0.9-0.1h0.5c0.2,0,0.3,0,0.5,0.1c0.2,0.1,0.3,0.1,0.2,0.2
		c-0.1,0.1-0.1,0.2-0.1,0.3c0.1-0.1,0.2-0.3,0.2-0.4c0.1,0,0.2,0.1,0.3,0.3c0,0.1,0.1,0.3,0.1,0.4c0,0.2,0,0.3,0,0.5
		c0,0.1,0,0.2,0,0.4c0.1,0.2,0.1,0.4,0,0.6c0,0.2,0,0.4,0,0.6c0,0.1,0,0.2,0,0.2c0,0.1-0.1,0.1-0.1,0.2c0,0.1,0,0.3,0,0.4
		c0,0.1,0,0.3,0,0.4c0.1,0.5,0.1,1,0,1.4c-0.1,0.5-0.1,1,0,1.4c0,0.1,0,0.2,0,0.3c0,0.1,0,0.2,0,0.3c-0.1,0.1-0.1,0.3-0.1,0.4
		c0,0.1,0.1,0.3,0.1,0.5c0,0.1,0,0.3-0.1,0.4c0.1,0.2,0.1,0.4,0.1,0.5c-0.1,0.2-0.1,0.3-0.1,0.5c0.1,0.4,0.1,0.8,0,1.1
		c0,0.1,0,0.2,0,0.3c0,0.1,0,0.2,0,0.3c0,0.1,0,0.3,0,0.4c0,0.1,0,0.3,0,0.4c0,0.2,0.1,0.4,0.1,0.5c0,0.1,0,0.2,0,0.3
		c0,0.1-0.1,0.2-0.1,0.3c0,0.1,0,0.1,0,0.2c0,0.1,0.1,0.1,0.1,0.2c0,0.1,0,0.3,0,0.4c0,0.1,0,0.3,0,0.4c0,0.2,0,0.4,0,0.6
		c0,0.2,0,0.4,0,0.6c0,0.1,0,0.2,0,0.2c0,0.1,0,0.2,0,0.2c0,0.1,0,0.2-0.1,0.3s-0.1,0.1,0,0.2c0.1,0.1,0.1,0.2,0.1,0.3
		c0,0.1,0,0.2,0,0.3c0,0.2-0.1,0.2-0.1,0.2s-0.1,0-0.2,0.1c0,0.1,0.1,0.1,0.2,0.1s0.1,0,0.2,0.1v0.6c0,0.2,0,0.4,0,0.6
		c0,0.2,0,0.4,0,0.6c-0.1,0.6-0.1,1.3,0,1.9c0,0.1,0,0.2,0,0.3c0,0.1,0,0.2,0,0.3c0,0.1,0,0.2,0,0.3c0,0.1,0,0.2,0,0.3
		c0,0.2,0,0.4,0,0.6c0,0.2,0,0.4,0,0.6c0,0.2,0,0.3,0,0.5c0,0.2,0,0.3,0,0.5c-0.1,0.1-0.1,0.3,0,0.4c0,0.1,0,0.2-0.1,0.2
		s0,0.1,0,0.1c0.1,0.1,0.1,0.2,0.1,0.4c0,0.1,0,0.2,0,0.4c0,0,0,0.1,0,0.1C50.3,19,50.2,19.1,50.2,19.2z"/>
	<path id="Path_68" d="M68.2-4.4c0,0.2,0,0.3,0.1,0.5c0.1,0.1,0.1,0.3,0,0.5c-0.1,0.1-0.1,0.3-0.1,0.4c0,0.1-0.1,0.3-0.2,0.4
		c-0.1,0.1-0.2,0.1-0.4,0.2c-0.1,0-0.3,0-0.4,0c-0.1,0-0.2,0-0.3,0c-0.1,0-0.2,0-0.3,0c-0.1,0-0.2,0-0.3,0c-0.1,0-0.2,0-0.2-0.1
		c-0.2,0.1-0.3,0.2-0.4,0.1c-0.1,0-0.3-0.1-0.4-0.1c-0.1,0-0.1,0-0.2,0c-0.1,0-0.1,0.1-0.2,0c-0.1,0-0.1-0.1-0.2-0.1
		c-0.1,0-0.1,0-0.2,0.1c-0.2,0.1-0.4,0.1-0.6,0c-0.2-0.1-0.4-0.1-0.6,0c-0.1,0-0.2,0.2-0.3,0.3c0,0.2-0.1,0.3-0.1,0.4
		c0,0.1,0,0.3,0,0.4c0,0.1,0.1,0.3,0,0.4c0,0.2,0,0.3,0,0.5c0,0.1,0,0.3,0,0.4c0.1,0.2,0.1,0.4,0,0.6c0,0.2,0,0.4,0,0.6
		c0,0,0,0.1,0,0.1c0,0-0.1,0.1-0.1,0.1c0.1,0.2,0.1,0.4,0.1,0.6c0,0.4,0,0.7,0,1.1c0,0.4,0,0.7,0,1.1v0.3c0,0.1,0,0.2,0,0.3
		C63.1,5,63.1,5,63,5c-0.1,0-0.1,0.1,0,0.1c0.1,0.2,0.2,0.4,0.1,0.6c0,0.2,0,0.4,0,0.6c0,0.2,0,0.4,0,0.6s0,0.4,0,0.6
		c0,0.1,0,0.1,0,0.1c0,0-0.1,0.1-0.1,0.1c0.1,0.1,0.1,0.2,0.1,0.3c0,0.1,0,0.3,0,0.4V9c0,0.1,0,0.1,0,0.2c0,0.1,0,0.1,0,0.2
		c0,0.1,0,0.2,0,0.3c0,0.1,0.1,0.2,0.1,0.3c0,0.4,0,0.8,0,1.1v0.6c-0.1,0-0.2,0.1-0.3,0.3c-0.1,0.1-0.1,0.1,0,0.2
		c0,0,0.1,0.1,0.1,0.1c0.1,0,0.1,0,0.1,0.1c0,0,0.1,0.1,0,0.2c-0.1,0.2-0.1,0.4,0,0.6c0.1,0.2,0.1,0.4,0,0.5c-0.1,0.7-0.1,1.3,0,2
		c0.1,0.7,0.1,1.3,0,2c0,0.2,0,0.3,0,0.5c0,0.2,0.1,0.3,0,0.5c0,0.2,0,0.3,0,0.5v0.5c0,0.2,0,0.3,0,0.5c0,0.2,0,0.3,0,0.5
		c0,0.2,0,0.5,0,0.7c0,0.2,0,0.5,0,0.7c0,0.1,0,0.1,0,0.1c-0.1,0-0.1,0.1-0.1,0.1c0,0.1,0.1,0.1,0.1,0.2c0,0.1,0,0.1,0,0.2
		c0,0.1-0.1,0.2-0.3,0.3c-0.1,0-0.2,0.1-0.3,0.1c-0.2,0.1-0.3,0.1-0.5,0.1c-0.2,0-0.3,0-0.5,0c-0.2-0.1-0.4-0.1-0.6,0
		c-0.1,0-0.2,0-0.3,0c-0.1,0-0.2-0.1-0.3,0c-0.3,0.1-0.7,0.1-1,0c-0.4,0-0.7,0-1,0c-0.2,0-0.3-0.1-0.4-0.2c-0.1-0.1-0.2-0.3-0.2-0.4
		c0-0.1,0-0.3,0-0.4c0-0.1,0-0.3-0.1-0.4c-0.1-0.2-0.1-0.4,0-0.6c0-0.2,0.1-0.4,0.1-0.6c0-0.2,0-0.4,0-0.6v-0.6c0-0.4,0-0.8,0-1.2
		c0-0.4,0-0.8,0.1-1.2c0-0.2,0-0.3,0-0.5c0-0.2-0.1-0.3,0-0.5c0-0.2,0-0.4,0-0.5c0-0.2,0-0.4,0-0.6c0-0.2,0.1-0.3,0.1-0.5
		c0-0.2,0-0.4,0-0.5c-0.1-0.4-0.1-0.8,0-1.2c0.1-0.2,0.1-0.4,0-0.6c0-0.2-0.1-0.4-0.1-0.5c0-0.2,0-0.4,0-0.5c0-0.2,0-0.3,0-0.5
		c0-0.2,0-0.4-0.1-0.6c0-0.2-0.1-0.4,0-0.6c0-0.2,0-0.3,0-0.5c0-0.2,0-0.3,0-0.5c0-0.2,0-0.4,0-0.6c0-0.1,0-0.2,0-0.3
		c0.1-0.1,0.1-0.2,0-0.3c-0.1-0.2-0.1-0.5,0-0.7c0-0.3,0.1-0.5,0-0.8c0,0,0.1,0,0.1,0c0,0,0.1,0,0.1,0c0-0.1,0-0.1-0.1-0.1
		c-0.1,0-0.1-0.1-0.1-0.1c-0.1-0.1-0.1-0.2,0-0.3c0-0.1,0-0.2,0-0.3c0,0,0.1,0,0.2,0s0.2,0,0.2,0c-0.1-0.1-0.1-0.2,0-0.1
		c0.1,0.1,0.2,0.1,0.3,0c-0.1-0.1-0.1-0.2-0.1-0.3c0-0.1,0-0.2-0.1-0.3c-0.1-0.1-0.1-0.1-0.2,0c0,0,0,0.1,0,0.1c0,0.1,0,0.2,0,0.3
		c-0.1,0-0.2-0.1-0.3-0.3s0-0.4,0-0.4c0-0.2,0.1-0.4,0.1-0.6c0-0.2,0-0.5,0-0.7c0-0.1-0.1-0.3-0.1-0.4c0-0.2,0-0.3,0-0.5
		c0-0.1,0.1-0.2,0.1-0.3c-0.1-0.1-0.1-0.1-0.1-0.2v-0.6c0-0.1,0.1-0.2,0.2-0.3c0.1-0.1,0.2-0.2,0.1-0.2c-0.1,0-0.2,0-0.2,0
		c-0.1-0.1-0.1-0.3,0-0.5c0-0.1,0.1-0.3,0.1-0.4c-0.1-0.1-0.1-0.3-0.1-0.4c0-0.1-0.1-0.3-0.1-0.4c-0.2-0.1-0.4-0.1-0.6,0
		c-0.2,0-0.4,0-0.5,0c-0.1,0-0.1-0.1-0.2-0.1c-0.1,0-0.1,0-0.2,0c0,0.1-0.1,0.1-0.2,0.1c-0.3-0.1-0.6-0.1-0.9,0
		c-0.3,0.1-0.6,0-0.8-0.1c-0.1-0.1-0.2-0.1-0.3,0c-0.1,0.1-0.2,0.1-0.3,0.1c-0.1,0-0.2-0.1-0.3-0.2c-0.1,0.1-0.2,0.1-0.3,0.1
		s-0.2-0.1-0.3-0.2c-0.1-0.4-0.1-0.8-0.1-1.2c0-0.4,0-0.8,0-1.2c0-0.2,0-0.4,0-0.6s0-0.4,0-0.6c0-0.1,0-0.3,0-0.5s0.1-0.4,0.2-0.4
		c0.1,0,0.1,0,0.2,0c0.1,0,0.1,0,0.2,0C53-7.4,53-7.4,53-7.5c0,0,0,0,0,0c0-0.1,0-0.1,0.1-0.1c0.2,0,0.3,0.1,0.5,0.1s0.4,0,0.5,0
		c0.2,0,0.4,0,0.6,0h0.6c0.1,0,0.2,0,0.3,0c0.1,0,0.2,0,0.3,0c0.1,0,0.2,0,0.3,0.1c0.1,0.1,0.1,0.1,0.2,0.2c0.1,0,0.1-0.1,0.1-0.1
		c0,0,0,0,0,0c0,0,0-0.1,0-0.1c0.1,0,0.3,0,0.4,0c0.2,0,0.3,0,0.5,0c0.2,0,0.3,0,0.5-0.1c0.1,0,0.1,0,0.1,0c0,0,0.1,0,0.1,0
		c0.1,0,0.2,0,0.3,0c0.1,0,0.2,0,0.3,0c0.1,0,0.1,0,0.2,0c0.1,0,0.1,0,0.2,0.1c0.1,0,0.1,0,0.2,0c0.1,0,0.1,0,0.1,0l-0.1,0H60
		c0.1,0,0.2,0,0.3,0c0,0.1,0,0.3,0,0.4c0,0.1,0.1,0.3,0.2,0.3c0.1,0,0.1-0.1,0-0.1s0-0.1,0-0.1l0,0c-0.1-0.1-0.2-0.2-0.2-0.3
		c0-0.1,0-0.2,0.1-0.3c0.1-0.1,0.3-0.1,0.4-0.1c0.1,0,0.3,0,0.4,0c0.1,0,0.3,0,0.4,0c0.1,0,0.3,0,0.4,0c0.2,0,0.4,0,0.6,0
		c0.2,0,0.4,0,0.6,0c0.2,0.1,0.3,0.1,0.5,0c0.2,0,0.3-0.1,0.5-0.1c0.4,0,0.8,0,1.2,0c0.2,0,0.4,0,0.5,0c0.2,0,0.4,0.1,0.6,0.1
		c0.1,0,0.3-0.1,0.4-0.1s0.3,0,0.4,0c0.4,0,0.6,0.1,0.7,0.3c0.1,0.2,0.2,0.5,0.1,0.7v0.6c0,0.2,0,0.4,0,0.6c0,0.1,0,0.1,0,0.2
		c0,0.1,0,0.1,0,0.2C68.3-4.7,68.3-4.5,68.2-4.4z"/>
	<path id="Path_69" d="M86.3-7.1c0.1,0.1,0.1,0.3,0,0.5c-0.1,0.1-0.1,0.3-0.1,0.5c0,0.1,0,0.1-0.1,0.1C86.1-6.1,86-6,86-6
		c-0.1,0.2-0.1,0.4-0.1,0.5c-0.1,0.2-0.1,0.5-0.3,0.7c-0.1,0.2-0.2,0.5-0.3,0.8c0,0.1-0.1,0.2-0.2,0.4s-0.1,0.3-0.1,0.4
		c0.1,0.1,0,0.2,0,0.2c-0.1,0-0.2,0-0.2,0.1c0.1,0.1,0.1,0.3,0,0.5c-0.1,0.2-0.1,0.3-0.2,0.5c-0.1,0.2-0.1,0.3-0.1,0.5
		c0,0.2-0.1,0.3-0.2,0.5c-0.1,0.1-0.1,0.3-0.2,0.5c0,0.2-0.1,0.3-0.1,0.5C84,0,84,0.2,83.9,0.4c0,0.2-0.1,0.3-0.1,0.5
		c-0.1,0.3-0.3,0.7-0.4,1c-0.1,0.3-0.2,0.7-0.4,1C83,3,82.9,3.2,82.9,3.3c0,0.2-0.1,0.3-0.3,0.4c0,0.1,0,0.2,0,0.3
		c0,0.1-0.1,0.2-0.2,0.1c0.1,0.2,0.1,0.5,0,0.7c-0.1,0.3-0.2,0.5-0.3,0.7c0,0.1,0,0.2-0.1,0.3C82,6,82,6.1,81.9,6.2
		c0,0.2-0.1,0.4-0.1,0.6c-0.1,0.2-0.1,0.4-0.2,0.6c-0.1,0.3-0.2,0.6-0.4,0.9C81.1,8.5,81,8.8,81,9.2c0,0.1-0.1,0.3-0.1,0.4
		c-0.1,0.1-0.1,0.2-0.2,0.4c0,0.1,0,0.2-0.1,0.2c0,0.1,0,0.2,0,0.2c0,0.1,0,0.2,0,0.2c-0.1,0-0.1,0-0.2,0.1c0.2,0.2,0.3,0.5,0.2,0.8
		c0,0.3,0,0.6-0.1,0.9c0,0.3,0,0.7,0,1c0,0.3,0,0.7,0,1c0,0.2,0,0.4,0,0.5c0,0.2,0,0.3-0.1,0.5c-0.1,0.2-0.1,0.4,0,0.5
		c0.1,0.2,0.1,0.4,0.1,0.6c0,0.2,0,0.4,0,0.6s0,0.4-0.1,0.6c0,0.1,0,0.1,0,0.2c0,0.1,0,0.1,0,0.2c0,0.1,0,0.1,0,0.2
		c0,0.1,0,0.1,0,0.2v1c0,0.3,0,0.6,0,1c0,0.2,0,0.3,0,0.5c-0.1,0.2,0,0.3,0.1,0.5c-0.1,0.2-0.1,0.4,0,0.6c0,0.2,0,0.4,0,0.5
		c0,0.2-0.1,0.3-0.3,0.4c-0.1,0.1-0.3,0.1-0.5,0.1c-0.2,0-0.3,0-0.5,0c-0.2,0-0.3,0-0.4,0c-0.2,0-0.4,0-0.6,0s-0.4,0-0.6,0
		c-0.2,0-0.4,0-0.6,0c-0.2,0-0.4,0-0.6,0h-0.9c-0.3,0-0.6-0.2-0.7-0.5c-0.1-0.4-0.1-0.8-0.1-1.2c0-0.4,0-0.8,0.1-1.2
		c0-0.2,0-0.3,0-0.5c0-0.1-0.1-0.3,0-0.4c0-0.2,0-0.3,0-0.5v-0.4c0-0.4,0-0.7,0-1.1c0-0.1,0-0.3,0-0.4c0-0.1-0.1-0.3,0-0.4
		c0.1-0.3,0.1-0.7,0-1c-0.1-0.4-0.1-0.7,0-1.1c0-0.2,0-0.4,0-0.5c0-0.2,0-0.3,0-0.5c0-0.2,0-0.4,0-0.6c0-0.2,0-0.4,0-0.6
		c0-0.1,0-0.1,0-0.2c0,0,0-0.1,0-0.1c0.1-0.1,0.1-0.3,0-0.4c-0.1-0.1-0.1-0.2,0-0.2s0.1,0,0.1-0.1c0-0.1-0.1-0.2-0.1-0.3
		s-0.1-0.2-0.1-0.3c-0.1-0.3-0.2-0.6-0.4-1c-0.1-0.3-0.1-0.7,0-1c-0.1-0.1-0.1,0-0.1,0.1s-0.1,0.1-0.1,0.1c0-0.1,0-0.3-0.1-0.4
		C74.1,7.9,74,7.8,74,7.7c0-0.1,0-0.2,0-0.3c0-0.1,0-0.2-0.1-0.2c-0.1-0.1-0.1-0.2-0.1-0.3c0-0.2,0-0.4-0.1-0.5
		c-0.1-0.2-0.1-0.3-0.2-0.5c-0.1-0.3-0.3-0.7-0.4-1c-0.1-0.4-0.2-0.7-0.3-1.1c0-0.1-0.1-0.1-0.1-0.2c0-0.1,0-0.1,0-0.2
		c0.1-0.1,0.1-0.1,0-0.1c-0.1,0-0.1-0.1-0.1-0.1c-0.1-0.1-0.1-0.3-0.1-0.4c0-0.2-0.1-0.3-0.2-0.4c0.1-0.3,0-0.6-0.1-0.8
		c-0.1-0.3-0.3-0.6-0.4-0.8c-0.1-0.2-0.1-0.3,0-0.3c0.1,0,0.2-0.1,0.2-0.1c-0.1-0.1-0.1-0.2-0.3-0.2c-0.1,0-0.1-0.1-0.1-0.2
		c0-0.1,0-0.1-0.1-0.2c-0.1-0.1-0.1-0.3-0.1-0.4c0-0.1-0.1-0.3-0.1-0.4C71-1.3,71-1.4,70.9-1.6c0-0.2-0.1-0.3-0.1-0.4
		c-0.1-0.2-0.1-0.3-0.2-0.5s-0.1-0.4-0.2-0.6c-0.1-0.1-0.1-0.2-0.1-0.3c0-0.1-0.1-0.2-0.1-0.3c0-0.1,0-0.1,0-0.2c0,0,0-0.1,0-0.2
		c-0.1-0.4-0.3-0.7-0.4-1s-0.2-0.7-0.4-1c-0.1-0.1-0.1-0.3-0.1-0.4c0-0.1-0.1-0.3,0-0.4c0.1-0.2,0.2-0.3,0.3-0.4
		c0.2,0,0.3,0,0.5-0.1c0.1-0.1,0.3-0.1,0.4,0c0.1,0,0.2,0.1,0.4,0.1c0.1,0,0.3-0.1,0.5-0.1c0.2,0,0.3,0,0.5,0c0.1,0.1,0.3,0.1,0.4,0
		c0.1,0,0.3,0,0.4,0c0.2,0,0.4,0,0.6,0c0.2,0,0.3,0,0.5,0c0.1,0.1,0.3,0.1,0.4,0c0.2,0,0.3,0,0.5,0.1c0.1,0,0.1,0.1,0.2,0.1
		c0,0,0.1,0.1,0.1,0.2c0,0.1,0.1,0.2,0.1,0.3c0,0.1,0,0.2,0.1,0.3c0.1,0.2,0.1,0.4,0.1,0.5c0,0.2,0.1,0.4,0.2,0.5
		c0,0.1,0.1,0.1,0.1,0.2c0,0.1,0,0.2,0,0.2c0,0.1,0,0.2,0,0.2c0,0,0.1,0.1,0.1,0.2c0,0.1,0.1,0.3,0.1,0.4c0.1,0.1,0.1,0.3,0.1,0.4
		c0,0.1,0,0.1,0,0.2c0,0.1,0,0.2,0,0.2C75.9-3.4,76-3.3,76-3.3c0,0.1,0,0.1,0,0.2c0,0.2,0.1,0.4,0.1,0.5c0.1,0.2,0.1,0.3,0.1,0.5
		c0.1,0.2,0.1,0.4,0.1,0.6c0,0.2,0.1,0.4,0.2,0.5c0.1,0.2,0.2,0.4,0.2,0.7c0,0.2,0.1,0.5,0.1,0.7c0,0.1,0.1,0.2,0.2,0.3
		c0,0.1,0.1,0.2,0.1,0.3c0,0.1,0,0.2,0.1,0.3c0.1,0.1,0.1,0.3,0.2,0.4C77.5,1.9,77.6,2,77.5,2c0,0.1,0,0.2,0,0.3
		c0,0.1,0.1,0.2,0.1,0.4c0,0.1,0.1,0.2,0.2,0.3C77.9,3,78,3,78,2.9c0.2-0.2,0.3-0.5,0.4-0.9c0.1-0.3,0.1-0.6,0.2-0.9
		c0-0.3,0.1-0.6,0.3-0.8c0.1-0.1,0.1-0.2,0.1-0.3c0-0.1,0-0.2,0.1-0.3c0-0.1,0.1-0.2,0.1-0.3c0.1-0.1,0.1-0.2,0.1-0.4
		c0-0.1,0.1-0.2,0.1-0.3c0-0.1,0-0.3,0.1-0.4c0.1-0.3,0.2-0.5,0.2-0.8c0-0.3,0.1-0.5,0.2-0.8C79.9-3.7,80-4,80.1-4.3
		c0.1-0.3,0.1-0.6,0.2-0.9c0-0.1,0.1-0.3,0.1-0.4c0-0.1,0.1-0.2,0.2-0.3c0-0.1,0-0.2,0-0.4c0-0.1,0.1-0.2,0.1-0.4
		c0-0.1,0.1-0.3,0.1-0.3c0-0.1,0.1-0.2,0.2-0.3c0.3-0.1,0.7-0.1,1-0.2c0.1,0,0.3,0,0.4,0c0.1,0,0.3,0,0.4,0c0.1,0,0.3,0,0.4,0
		c0.1,0,0.3,0,0.4,0c0.1,0,0.3,0,0.4,0c0.1,0.1,0.2,0.1,0.2,0.1s0.1,0,0.2,0c0.2-0.1,0.3-0.1,0.5-0.1c0.3,0,0.6,0,0.9,0
		C85.9-7.5,86.1-7.4,86.3-7.1z"/>
	<path id="Path_70" d="M-76.2,46.9C-78,47-79.7,46.3-81,45l1-1c1,1.1,2.4,1.6,3.9,1.5c2.1,0,3.3-1,3.3-2.6c0-0.7-0.2-1.3-0.7-1.8
		c-0.5-0.4-1.2-0.7-1.8-0.7l-1.6-0.3c-0.9-0.1-1.9-0.5-2.6-1.1c-0.7-0.7-1.1-1.6-1.1-2.6c0-2.4,1.7-4,4.5-4c1.6-0.1,3.1,0.5,4.2,1.5
		l-1,1c-0.9-0.8-2.1-1.3-3.3-1.2c-1.9,0-3,1.1-3,2.6c0,0.6,0.2,1.2,0.6,1.6c0.6,0.4,1.2,0.7,1.9,0.8L-75,39c0.9,0.1,1.8,0.4,2.6,1
		c0.8,0.7,1.2,1.7,1.2,2.8C-71.3,45.3-73.2,46.9-76.2,46.9z"/>
	<path id="Path_71" d="M-63.7,46.8c-1.4,0-2.7-0.5-3.6-1.5c-1.3-1.3-1.3-2.7-1.3-5.7s0-4.4,1.3-5.7c1-1,2.3-1.5,3.6-1.5
		c2.5-0.1,4.6,1.7,4.9,4.2h-1.5c-0.2-1.7-1.7-2.9-3.4-2.9c-0.9,0-1.8,0.4-2.4,1c-0.9,0.9-1,1.9-1,4.8s0.1,3.9,1,4.8
		c0.6,0.6,1.5,1,2.4,1c1.7,0,3.1-1.2,3.4-2.9h1.5C-59.1,45.1-61.2,46.9-63.7,46.8z"/>
	<path id="Path_72" d="M-55.5,46.7V32.6h1.5v14.1H-55.5z"/>
	<path id="Path_73" d="M-49.9,46.7V32.6h8.8v1.4h-7.3v5h6.2v1.4h-6.2v5.1h7.3v1.4L-49.9,46.7z"/>
	<path id="Path_74" d="M-28.9,46.7l-7.5-11.3v11.3h-1.5V32.6h1.4l7.5,11.3V32.6h1.5v14.1H-28.9z"/>
	<path id="Path_75" d="M-19,46.8c-1.4,0-2.7-0.5-3.6-1.5c-1.3-1.3-1.3-2.7-1.3-5.7s0-4.4,1.3-5.7c1-1,2.3-1.5,3.6-1.5
		c2.5-0.1,4.6,1.7,4.9,4.2h-1.5c-0.2-1.7-1.7-2.9-3.4-2.9c-0.9,0-1.8,0.4-2.4,1c-0.9,0.9-1,1.9-1,4.8s0.1,3.9,1,4.8
		c0.6,0.6,1.5,1,2.4,1c1.7,0,3.1-1.2,3.4-2.9h1.5C-14.4,45.1-16.5,46.9-19,46.8z"/>
	<path id="Path_76" d="M-10.7,46.7V32.6H-2v1.4h-7.3v5H-3v1.4h-6.2v5.1H-2v1.4L-10.7,46.7z"/>
	<path id="Path_77" d="M16.7,46.7V36l-3.9,8.5h-1.3L7.6,36v10.7H6.1V32.6h1.5l4.6,10l4.5-10h1.5v14.1H16.7z"/>
	<path id="Path_78" d="M27.1,46.8c-2.6,0.1-4.8-1.8-4.9-4.4c0-0.1,0-0.3,0-0.4v-9.5h1.5v9.4c-0.1,1.9,1.4,3.5,3.3,3.6
		s3.5-1.4,3.6-3.3c0-0.1,0-0.2,0-0.3v-9.4H32v9.5c0.1,2.6-2,4.7-4.6,4.8C27.3,46.9,27.2,46.9,27.1,46.8z"/>
	<path id="Path_79" d="M39.5,46.9C37.7,47,36,46.3,34.7,45l1-1c1,1.1,2.4,1.6,3.9,1.5c2.1,0,3.3-1,3.3-2.6c0-0.7-0.2-1.3-0.7-1.8
		c-0.5-0.4-1.2-0.7-1.8-0.7l-1.6-0.3c-0.9-0.1-1.9-0.5-2.6-1.1c-0.7-0.7-1.1-1.6-1.1-2.6c0-2.4,1.7-4,4.5-4c1.6-0.1,3.1,0.5,4.2,1.5
		l-1,1c-0.9-0.8-2.1-1.3-3.3-1.2c-1.9,0-3,1.1-3,2.6c0,0.6,0.2,1.2,0.6,1.6c0.6,0.4,1.2,0.7,1.9,0.8l1.5,0.2c0.9,0.1,1.8,0.4,2.6,1
		c0.8,0.7,1.2,1.7,1.2,2.8C44.4,45.3,42.5,46.9,39.5,46.9z"/>
	<path id="Path_80" d="M47.6,46.7V32.6h8.8v1.4h-7.3v5h6.2v1.4h-6.2v5.1h7.3v1.4L47.6,46.7z"/>
	<path id="Path_81" d="M64.2,46.8c-2.6,0.1-4.8-1.8-4.9-4.4c0-0.1,0-0.3,0-0.4v-9.5h1.5v9.4c-0.1,1.9,1.4,3.5,3.3,3.6
		s3.5-1.4,3.6-3.3c0-0.1,0-0.2,0-0.3v-9.4h1.5v9.5c0.1,2.6-2,4.7-4.6,4.8C64.5,46.9,64.3,46.9,64.2,46.8z"/>
	<path id="Path_82" d="M83.7,46.7V36l-3.9,8.5h-1.3L74.6,36v10.7h-1.5V32.6h1.5l4.6,10l4.5-10h1.5v14.1H83.7z"/>
</g>
<g id="Group_68" transform="translate(51 18.891)">
	<path id="Path_56" class="st0" d="M0.6-14.6c0.1,3.2-1,4.8-2.9,5.8c-2.6,1.4-5.3,2.9-8,4.1C-16.1-2.3-20.2,3-21.1,9.1
		c-0.5,2.8-2.2,4.6-4.2,4c-1.5-0.5-2.8-1.6-3.5-3c-0.7-1.6,0-3.4,1.6-4.1C-27,6-26.9,6-26.8,5.9c7-2.5,10.6-8.1,13.6-14.3
		c1.3-2.7,2.6-5.5,4.1-8c1.2-2.1,3.8-3.1,6.1-2.2C-0.8-17.9,0.6-15.9,0.6-14.6z"/>
	<path id="Path_57" class="st1" d="M-28.9,22.9c-0.3-0.4,4.5-2.1,5-2.2c3.5-0.5,7.8,0.8,10.8,2.6c1.8,1,3.2,2.7,3.7,4.7
		c0.4,2.1-0.2,4.2-1.7,5.7c-2.6,2.7-7.1,3.1-9.6,0.1C-23.6,30.3-26.2,26.5-28.9,22.9z"/>
	<path id="Path_58" class="st2" d="M-42.1-10.2c0.7-0.6,1.7-0.7,2.6-0.4c0.4,0.2,0.7,0.3,1.1,0.4c2.7,1.4,6,0.8,8-1.6
		c0.7-0.8,1.5-1.6,2.3-2.3c1.7-1.5,4.3-1.5,5.9,0.2c1.6,1.6,1.9,4.1,0.6,6c-1.3,2-4,2.5-6,1.3c-0.5-0.3-1-0.6-1.5-0.9
		c-2.4-1.7-5.6-1.7-8,0c-1.3,0.9-2.1,1.7-3.8,1.5c-0.6,0-1.1-0.3-1.6-0.7C-43.2-7.8-43-9.3-42.1-10.2L-42.1-10.2z"/>
	<path id="Path_59" class="st1" d="M-32.5,16.3c2.7,1.6,4.9,3.3,8,3.2c-0.2,0-0.3,0.1-0.4,0.1c-1.1,0.3-2.2,0.5-3.3,0.7
		c-0.8,0.1-1.6,0.1-2.3,0c-0.4,0-0.8-0.1-1.1-0.1c-0.3-0.1-0.4-0.4-0.6-0.6s-0.4-0.5-0.6-0.7c-0.4-0.5-0.8-0.9-1.1-1.3
		c-0.8-0.8-1.6-1.6-2.5-2.4c-2.9-2.5-6.3-4.1-10.1-4.7c-2.7-0.2-4.6-2.6-4.4-5.3c0.2-2,1.6-3.8,3.6-4.3c2.5-0.7,5.1,0.7,5.8,3.1
		C-39.6,8.9-37.2,13.5-32.5,16.3z"/>
	<path id="Path_60" class="st3" d="M7.8,9.5c-0.1,2.2-2,2.6-4,2.9c-1.6,0.3-3.1,0.6-4.7,0.9c-0.7,0.1-1.3,0.3-2,0.4
		c-11,2.5-21.7,6.1-32.1,10.7c-0.5,0.2-1,0.4-1.5,0.6c-0.5,0.1-1,0.1-1.5,0c-0.4-0.1-0.8-0.2-1.2-0.5c-0.2-0.3-0.4-0.6-0.5-0.9
		c-0.1-0.4-0.2-0.8-0.1-1.2c0.1-0.4,0.4-0.8,0.7-1c0.4-0.3,0.8-0.6,1.3-0.8c1-0.3,2.1-0.4,3.2-0.3c1.2,0,2.4,0.1,3.6,0.3
		c1.2,0.1,2.4,0.1,3.5-0.2c1.1-0.2,2.3-0.6,3.4-1l16-5.6c3.7-1.3,7-3.6,9.5-6.7c1.2-1.5,2.8-2.6,4.5-1.3C7,6.8,7.7,8.1,7.8,9.5z"/>
	<circle id="Ellipse_1" class="st4" cx="-9" cy="5.8" r="2.4"/>
	<circle id="Ellipse_2" class="st5" cx="-0.9" cy="22.9" r="3"/>
</g>
</svg>
