<svg xmlns="http://www.w3.org/2000/svg" width="16.977" height="14.117" viewBox="0 0 16.977 14.117">
  <g id="Component_12_4" data-name="Component 12 – 4" transform="translate(0 -3)">
    <rect id="Rectangle_393" data-name="Rectangle 393" width="16" height="14" transform="translate(0.245 3)" fill="none"/>
    <path id="Path_2" data-name="Path 2" d="M43.376,15.77a9.815,9.815,0,0,0,9.9-9.9V5.4a7.667,7.667,0,0,0,1.7-1.792A7.829,7.829,0,0,1,53,4.169a3.669,3.669,0,0,0,1.509-1.886,8.651,8.651,0,0,1-2.169.849A3.368,3.368,0,0,0,49.79,2,3.544,3.544,0,0,0,46.3,5.49a1.839,1.839,0,0,0,.094.755,9.751,9.751,0,0,1-7.168-3.678,3.612,3.612,0,0,0-.472,1.792,3.747,3.747,0,0,0,1.509,2.924,3.18,3.18,0,0,1-1.6-.472h0a3.447,3.447,0,0,0,2.829,3.4,2.908,2.908,0,0,1-.943.094,1.605,1.605,0,0,1-.66-.094,3.573,3.573,0,0,0,3.3,2.452,7.121,7.121,0,0,1-4.339,1.509A2.611,2.611,0,0,1,38,14.073a8.9,8.9,0,0,0,5.376,1.7" transform="translate(-38 1.347)" fill="#fff" fill-rule="evenodd"/>
  </g>
</svg>
